{
	"asset":{
		"generator":"Khronos glTF Blender I/O v4.1.63",
		"version":"2.0"
	},
	"scene":0,
	"scenes":[
		{
			"name":"Scene",
			"nodes":[
				0
			]
		}
	],
	"nodes":[
		{
			"mesh":0,
			"name":"Box123_Material #170_0.025",
			"rotation":[
				-0.7071068286895752,
				0,
				0,
				0.7071068286895752
			],
			"scale":[
				0.32292717695236206,
				0.32292723655700684,
				0.32292723655700684
			],
			"translation":[
				-55.0885009765625,
				37.369781494140625,
				70.36933135986328
			]
		}
	],
	"materials":[
		{
			"doubleSided":true,
			"name":"vasa.001",
			"pbrMetallicRoughness":{
				"baseColorFactor":[
					0.27592355012893677,
					0.11741609126329422,
					0.0009622641955502331,
					1
				],
				"metallicFactor":0,
				"roughnessFactor":0.7738920450210571
			}
		}
	],
	"meshes":[
		{
			"name":"Box123_Material #170_0.026",
			"primitives":[
				{
					"attributes":{
						"POSITION":0,
						"NORMAL":1,
						"TEXCOORD_0":2
					},
					"indices":3,
					"material":0
				}
			]
		}
	],
	"accessors":[
		{
			"bufferView":0,
			"componentType":5126,
			"count":364159,
			"max":[
				712.4207153320312,
				211.0966796875,
				-37.793556213378906
			],
			"min":[
				542.464111328125,
				184.64886474609375,
				-61.901309967041016
			],
			"type":"VEC3"
		},
		{
			"bufferView":1,
			"componentType":5126,
			"count":364159,
			"type":"VEC3"
		},
		{
			"bufferView":2,
			"componentType":5126,
			"count":364159,
			"type":"VEC2"
		},
		{
			"bufferView":3,
			"componentType":5125,
			"count":535512,
			"type":"SCALAR"
		}
	],
	"bufferViews":[
		{
			"buffer":0,
			"byteLength":4369908,
			"byteOffset":0,
			"target":34962
		},
		{
			"buffer":0,
			"byteLength":4369908,
			"byteOffset":4369908,
			"target":34962
		},
		{
			"buffer":0,
			"byteLength":2913272,
			"byteOffset":8739816,
			"target":34962
		},
		{
			"buffer":0,
			"byteLength":2142048,
			"byteOffset":11653088,
			"target":34963
		}
	],
	"buffers":[
		{
			"byteLength":13795136,
			"uri":"tavern_172.bin"
		}
	]
}
