{
	"asset":{
		"generator":"Khronos glTF Blender I/O v4.1.63",
		"version":"2.0"
	},
	"scene":0,
	"scenes":[
		{
			"name":"Scene",
			"nodes":[
				0
			]
		}
	],
	"nodes":[
		{
			"mesh":0,
			"name":"Box123_Material #170_0.021",
			"rotation":[
				-0.7071068286895752,
				0,
				0,
				0.7071068286895752
			],
			"scale":[
				0.32292717695236206,
				0.32292723655700684,
				0.32292723655700684
			],
			"translation":[
				-55.0885009765625,
				37.369781494140625,
				70.36933135986328
			]
		}
	],
	"materials":[
		{
			"doubleSided":true,
			"name":"Material_175.001",
			"pbrMetallicRoughness":{
				"baseColorTexture":{
					"index":0
				},
				"metallicFactor":0,
				"roughnessFactor":0.6000000238418579
			}
		}
	],
	"meshes":[
		{
			"name":"Box123_Material #170_0.022",
			"primitives":[
				{
					"attributes":{
						"POSITION":0,
						"NORMAL":1,
						"TEXCOORD_0":2
					},
					"indices":3,
					"material":0
				}
			]
		}
	],
	"textures":[
		{
			"sampler":0,
			"source":0
		}
	],
	"images":[
		{
			"mimeType":"image/png",
			"name":"Material_175_baseColor",
			"uri":"Material_175_baseColor.png"
		}
	],
	"accessors":[
		{
			"bufferView":0,
			"componentType":5126,
			"count":22381,
			"max":[
				687.788330078125,
				616.659912109375,
				-26.647605895996094
			],
			"min":[
				248.68724060058594,
				4.816289901733398,
				-105.51557922363281
			],
			"type":"VEC3"
		},
		{
			"bufferView":1,
			"componentType":5126,
			"count":22381,
			"type":"VEC3"
		},
		{
			"bufferView":2,
			"componentType":5126,
			"count":22381,
			"type":"VEC2"
		},
		{
			"bufferView":3,
			"componentType":5123,
			"count":58200,
			"type":"SCALAR"
		}
	],
	"bufferViews":[
		{
			"buffer":0,
			"byteLength":268572,
			"byteOffset":0,
			"target":34962
		},
		{
			"buffer":0,
			"byteLength":268572,
			"byteOffset":268572,
			"target":34962
		},
		{
			"buffer":0,
			"byteLength":179048,
			"byteOffset":537144,
			"target":34962
		},
		{
			"buffer":0,
			"byteLength":116400,
			"byteOffset":716192,
			"target":34963
		}
	],
	"samplers":[
		{
			"magFilter":9729,
			"minFilter":9987
		}
	],
	"buffers":[
		{
			"byteLength":832592,
			"uri":"tavern_175.bin"
		}
	]
}
