{
	"asset":{
		"generator":"Khronos glTF Blender I/O v4.1.63",
		"version":"2.0"
	},
	"extensionsUsed":[
		"KHR_materials_transmission"
	],
	"scene":0,
	"scenes":[
		{
			"name":"Scene",
			"nodes":[
				0
			]
		}
	],
	"nodes":[
		{
			"mesh":0,
			"name":"Box123_Material #170_0.016",
			"rotation":[
				-0.7071068286895752,
				0,
				0,
				0.7071068286895752
			],
			"scale":[
				0.32292717695236206,
				0.32292723655700684,
				0.32292723655700684
			],
			"translation":[
				-55.0885009765625,
				37.369781494140625,
				70.36933135986328
			]
		}
	],
	"materials":[
		{
			"alphaMode":"BLEND",
			"doubleSided":true,
			"extensions":{
				"KHR_materials_transmission":{
					"transmissionFactor":1
				}
			},
			"name":"bytilka.001",
			"pbrMetallicRoughness":{
				"baseColorFactor":[
					1,
					1,
					1,
					0.25
				],
				"metallicFactor":0,
				"roughnessFactor":0.6000000238418579
			}
		}
	],
	"meshes":[
		{
			"name":"Box123_Material #170_0.017",
			"primitives":[
				{
					"attributes":{
						"POSITION":0,
						"NORMAL":1,
						"TEXCOORD_0":2
					},
					"indices":3,
					"material":0
				}
			]
		}
	],
	"accessors":[
		{
			"bufferView":0,
			"componentType":5126,
			"count":7167,
			"max":[
				502.206787109375,
				281.7724609375,
				-12.622400283813477
			],
			"min":[
				367.639404296875,
				210.24151611328125,
				-70.43370056152344
			],
			"type":"VEC3"
		},
		{
			"bufferView":1,
			"componentType":5126,
			"count":7167,
			"type":"VEC3"
		},
		{
			"bufferView":2,
			"componentType":5126,
			"count":7167,
			"type":"VEC2"
		},
		{
			"bufferView":3,
			"componentType":5123,
			"count":24150,
			"type":"SCALAR"
		}
	],
	"bufferViews":[
		{
			"buffer":0,
			"byteLength":86004,
			"byteOffset":0,
			"target":34962
		},
		{
			"buffer":0,
			"byteLength":86004,
			"byteOffset":86004,
			"target":34962
		},
		{
			"buffer":0,
			"byteLength":57336,
			"byteOffset":172008,
			"target":34962
		},
		{
			"buffer":0,
			"byteLength":48300,
			"byteOffset":229344,
			"target":34963
		}
	],
	"buffers":[
		{
			"byteLength":277644,
			"uri":"tavern_bytilka.bin"
		}
	]
}
