{
	"asset":{
		"generator":"Khronos glTF Blender I/O v4.1.63",
		"version":"2.0"
	},
	"scene":0,
	"scenes":[
		{
			"name":"Scene",
			"nodes":[
				0
			]
		}
	],
	"nodes":[
		{
			"mesh":0,
			"name":"Box123_Material #170_0.003",
			"rotation":[
				-0.7071068286895752,
				0,
				0,
				0.7071068286895752
			],
			"scale":[
				0.32292717695236206,
				0.32292723655700684,
				0.32292723655700684
			],
			"translation":[
				-55.0885009765625,
				37.369781494140625,
				70.36933135986328
			]
		}
	],
	"materials":[
		{
			"doubleSided":true,
			"name":"temn_vert.001",
			"pbrMetallicRoughness":{
				"baseColorTexture":{
					"index":0
				},
				"metallicFactor":0,
				"roughnessFactor":0.6000000238418579
			}
		}
	],
	"meshes":[
		{
			"name":"Box123_Material #170_0.004",
			"primitives":[
				{
					"attributes":{
						"POSITION":0,
						"NORMAL":1,
						"TEXCOORD_0":2
					},
					"indices":3,
					"material":0
				}
			]
		}
	],
	"textures":[
		{
			"sampler":0,
			"source":0
		}
	],
	"images":[
		{
			"mimeType":"image/png",
			"name":"temn_vert_baseColor",
			"uri":"temn_vert_baseColor.png"
		}
	],
	"accessors":[
		{
			"bufferView":0,
			"componentType":5126,
			"count":45810,
			"max":[
				729.02099609375,
				660.797607421875,
				118.3245849609375
			],
			"min":[
				-272.9110107421875,
				-16.04182243347168,
				-105.27180480957031
			],
			"type":"VEC3"
		},
		{
			"bufferView":1,
			"componentType":5126,
			"count":45810,
			"type":"VEC3"
		},
		{
			"bufferView":2,
			"componentType":5126,
			"count":45810,
			"type":"VEC2"
		},
		{
			"bufferView":3,
			"componentType":5123,
			"count":149190,
			"type":"SCALAR"
		}
	],
	"bufferViews":[
		{
			"buffer":0,
			"byteLength":549720,
			"byteOffset":0,
			"target":34962
		},
		{
			"buffer":0,
			"byteLength":549720,
			"byteOffset":549720,
			"target":34962
		},
		{
			"buffer":0,
			"byteLength":366480,
			"byteOffset":1099440,
			"target":34962
		},
		{
			"buffer":0,
			"byteLength":298380,
			"byteOffset":1465920,
			"target":34963
		}
	],
	"samplers":[
		{
			"magFilter":9729,
			"minFilter":9987
		}
	],
	"buffers":[
		{
			"byteLength":1764300,
			"uri":"tavern_temn_vert.bin"
		}
	]
}
