{
	"asset":{
		"generator":"Khronos glTF Blender I/O v4.1.63",
		"version":"2.0"
	},
	"scene":0,
	"scenes":[
		{
			"name":"Scene",
			"nodes":[
				0
			]
		}
	],
	"nodes":[
		{
			"mesh":0,
			"name":"Box123_Material #170_0.001",
			"rotation":[
				-0.7071068286895752,
				0,
				0,
				0.7071068286895752
			],
			"scale":[
				0.32292717695236206,
				0.32292723655700684,
				0.32292723655700684
			],
			"translation":[
				-55.0885009765625,
				37.369781494140625,
				70.36933135986328
			]
		}
	],
	"materials":[
		{
			"doubleSided":true,
			"name":"Material_170.001",
			"pbrMetallicRoughness":{
				"baseColorTexture":{
					"index":0
				},
				"metallicFactor":0,
				"roughnessFactor":0.6000000238418579
			}
		}
	],
	"meshes":[
		{
			"name":"Box123_Material #170_0.002",
			"primitives":[
				{
					"attributes":{
						"POSITION":0,
						"NORMAL":1,
						"TEXCOORD_0":2
					},
					"indices":3,
					"material":0
				}
			]
		}
	],
	"textures":[
		{
			"sampler":0,
			"source":0
		}
	],
	"images":[
		{
			"mimeType":"image/jpeg",
			"name":"Material_170_baseColor",
			"uri":"Material_170_baseColor.jpg"
		}
	],
	"accessors":[
		{
			"bufferView":0,
			"componentType":5126,
			"count":11680,
			"max":[
				731.2843017578125,
				658.0318603515625,
				3.7067575454711914
			],
			"min":[
				-271.52020263671875,
				-11.26638412475586,
				-2.3377513571176678e-05
			],
			"type":"VEC3"
		},
		{
			"bufferView":1,
			"componentType":5126,
			"count":11680,
			"type":"VEC3"
		},
		{
			"bufferView":2,
			"componentType":5126,
			"count":11680,
			"type":"VEC2"
		},
		{
			"bufferView":3,
			"componentType":5123,
			"count":44640,
			"type":"SCALAR"
		}
	],
	"bufferViews":[
		{
			"buffer":0,
			"byteLength":140160,
			"byteOffset":0,
			"target":34962
		},
		{
			"buffer":0,
			"byteLength":140160,
			"byteOffset":140160,
			"target":34962
		},
		{
			"buffer":0,
			"byteLength":93440,
			"byteOffset":280320,
			"target":34962
		},
		{
			"buffer":0,
			"byteLength":89280,
			"byteOffset":373760,
			"target":34963
		}
	],
	"samplers":[
		{
			"magFilter":9729,
			"minFilter":9987
		}
	],
	"buffers":[
		{
			"byteLength":463040,
			"uri":"tavern_170.bin"
		}
	]
}
