{
	"asset":{
		"generator":"Khronos glTF Blender I/O v4.1.63",
		"version":"2.0"
	},
	"scene":0,
	"scenes":[
		{
			"name":"Scene",
			"nodes":[
				0
			]
		}
	],
	"nodes":[
		{
			"mesh":0,
			"name":"Box123_Material #170_0.029",
			"rotation":[
				-0.7071068286895752,
				0,
				0,
				0.7071068286895752
			],
			"scale":[
				0.32292717695236206,
				0.32292723655700684,
				0.32292723655700684
			],
			"translation":[
				-55.0885009765625,
				37.369781494140625,
				70.36933135986328
			]
		}
	],
	"materials":[
		{
			"doubleSided":true,
			"name":"material_38.001",
			"pbrMetallicRoughness":{
				"baseColorTexture":{
					"index":0
				},
				"metallicFactor":0,
				"roughnessFactor":0.6000000238418579
			}
		}
	],
	"meshes":[
		{
			"name":"Box123_Material #170_0.030",
			"primitives":[
				{
					"attributes":{
						"POSITION":0,
						"NORMAL":1,
						"TEXCOORD_0":2
					},
					"indices":3,
					"material":0
				}
			]
		}
	],
	"textures":[
		{
			"sampler":0,
			"source":0
		}
	],
	"images":[
		{
			"mimeType":"image/jpeg",
			"name":"material_38_baseColor",
			"uri":"material_38_baseColor.jpg"
		}
	],
	"accessors":[
		{
			"bufferView":0,
			"componentType":5126,
			"count":655,
			"max":[
				278.7517395019531,
				546.05908203125,
				46.340065002441406
			],
			"min":[
				142.4778289794922,
				407.33782958984375,
				-60.850120544433594
			],
			"type":"VEC3"
		},
		{
			"bufferView":1,
			"componentType":5126,
			"count":655,
			"type":"VEC3"
		},
		{
			"bufferView":2,
			"componentType":5126,
			"count":655,
			"type":"VEC2"
		},
		{
			"bufferView":3,
			"componentType":5123,
			"count":2136,
			"type":"SCALAR"
		}
	],
	"bufferViews":[
		{
			"buffer":0,
			"byteLength":7860,
			"byteOffset":0,
			"target":34962
		},
		{
			"buffer":0,
			"byteLength":7860,
			"byteOffset":7860,
			"target":34962
		},
		{
			"buffer":0,
			"byteLength":5240,
			"byteOffset":15720,
			"target":34962
		},
		{
			"buffer":0,
			"byteLength":4272,
			"byteOffset":20960,
			"target":34963
		}
	],
	"samplers":[
		{
			"magFilter":9729,
			"minFilter":9987
		}
	],
	"buffers":[
		{
			"byteLength":25232,
			"uri":"tavern_38.bin"
		}
	]
}
