{
	"asset":{
		"generator":"Khronos glTF Blender I/O v4.1.63",
		"version":"2.0"
	},
	"scene":0,
	"scenes":[
		{
			"name":"Scene",
			"nodes":[
				0
			]
		}
	],
	"nodes":[
		{
			"mesh":0,
			"name":"Box123_Material #170_0.010",
			"rotation":[
				-0.7071068286895752,
				0,
				0,
				0.7071068286895752
			],
			"scale":[
				0.32292717695236206,
				0.32292723655700684,
				0.32292723655700684
			],
			"translation":[
				-55.0885009765625,
				37.369781494140625,
				70.36933135986328
			]
		}
	],
	"materials":[
		{
			"doubleSided":true,
			"name":"Material_185.001",
			"pbrMetallicRoughness":{
				"baseColorTexture":{
					"index":0
				},
				"metallicFactor":0,
				"roughnessFactor":0.6000000238418579
			}
		}
	],
	"meshes":[
		{
			"name":"Box123_Material #170_0.011",
			"primitives":[
				{
					"attributes":{
						"POSITION":0,
						"NORMAL":1,
						"TEXCOORD_0":2
					},
					"indices":3,
					"material":0
				}
			]
		}
	],
	"textures":[
		{
			"sampler":0,
			"source":0
		}
	],
	"images":[
		{
			"mimeType":"image/jpeg",
			"name":"Material_185_baseColor",
			"uri":"Material_185_baseColor.jpg"
		}
	],
	"accessors":[
		{
			"bufferView":0,
			"componentType":5126,
			"count":20487,
			"max":[
				490.58197021484375,
				476.2499084472656,
				111.75651550292969
			],
			"min":[
				119.07685852050781,
				188.58937072753906,
				-104.56204223632812
			],
			"type":"VEC3"
		},
		{
			"bufferView":1,
			"componentType":5126,
			"count":20487,
			"type":"VEC3"
		},
		{
			"bufferView":2,
			"componentType":5126,
			"count":20487,
			"type":"VEC2"
		},
		{
			"bufferView":3,
			"componentType":5123,
			"count":89550,
			"type":"SCALAR"
		}
	],
	"bufferViews":[
		{
			"buffer":0,
			"byteLength":245844,
			"byteOffset":0,
			"target":34962
		},
		{
			"buffer":0,
			"byteLength":245844,
			"byteOffset":245844,
			"target":34962
		},
		{
			"buffer":0,
			"byteLength":163896,
			"byteOffset":491688,
			"target":34962
		},
		{
			"buffer":0,
			"byteLength":179100,
			"byteOffset":655584,
			"target":34963
		}
	],
	"samplers":[
		{
			"magFilter":9729,
			"minFilter":9987
		}
	],
	"buffers":[
		{
			"byteLength":834684,
			"uri":"tavern_185.bin"
		}
	]
}
