{
	"asset":{
		"generator":"Khronos glTF Blender I/O v4.1.63",
		"version":"2.0"
	},
	"scene":0,
	"scenes":[
		{
			"name":"Scene",
			"nodes":[
				0
			]
		}
	],
	"nodes":[
		{
			"mesh":0,
			"name":"Box123_Material #170_0.008",
			"rotation":[
				-0.7071068286895752,
				0,
				0,
				0.7071068286895752
			],
			"scale":[
				0.32292717695236206,
				0.32292723655700684,
				0.32292723655700684
			],
			"translation":[
				-55.0885009765625,
				37.369781494140625,
				70.36933135986328
			]
		}
	],
	"materials":[
		{
			"doubleSided":true,
			"name":"Material_184.001",
			"pbrMetallicRoughness":{
				"baseColorTexture":{
					"index":0
				},
				"metallicFactor":0,
				"roughnessFactor":0.6000000238418579
			}
		}
	],
	"meshes":[
		{
			"name":"Box123_Material #170_0.009",
			"primitives":[
				{
					"attributes":{
						"POSITION":0,
						"NORMAL":1,
						"TEXCOORD_0":2
					},
					"indices":3,
					"material":0
				}
			]
		}
	],
	"textures":[
		{
			"sampler":0,
			"source":0
		}
	],
	"images":[
		{
			"mimeType":"image/jpeg",
			"name":"Material_184_baseColor",
			"uri":"Material_184_baseColor.jpg"
		}
	],
	"accessors":[
		{
			"bufferView":0,
			"componentType":5126,
			"count":11689,
			"max":[
				412.3079833984375,
				614.515625,
				51.22911834716797
			],
			"min":[
				-271.0369873046875,
				9.076332092285156,
				-104.56202697753906
			],
			"type":"VEC3"
		},
		{
			"bufferView":1,
			"componentType":5126,
			"count":11689,
			"type":"VEC3"
		},
		{
			"bufferView":2,
			"componentType":5126,
			"count":11689,
			"type":"VEC2"
		},
		{
			"bufferView":3,
			"componentType":5123,
			"count":28260,
			"type":"SCALAR"
		}
	],
	"bufferViews":[
		{
			"buffer":0,
			"byteLength":140268,
			"byteOffset":0,
			"target":34962
		},
		{
			"buffer":0,
			"byteLength":140268,
			"byteOffset":140268,
			"target":34962
		},
		{
			"buffer":0,
			"byteLength":93512,
			"byteOffset":280536,
			"target":34962
		},
		{
			"buffer":0,
			"byteLength":56520,
			"byteOffset":374048,
			"target":34963
		}
	],
	"samplers":[
		{
			"magFilter":9729,
			"minFilter":9987
		}
	],
	"buffers":[
		{
			"byteLength":430568,
			"uri":"tavern_184.bin"
		}
	]
}
