{
	"asset":{
		"generator":"Khronos glTF Blender I/O v4.1.63",
		"version":"2.0"
	},
	"scene":0,
	"scenes":[
		{
			"name":"Scene",
			"nodes":[
				0
			]
		}
	],
	"nodes":[
		{
			"mesh":0,
			"name":"Box123_Material #170_0.026",
			"rotation":[
				-0.7071068286895752,
				0,
				0,
				0.7071068286895752
			],
			"scale":[
				0.32292717695236206,
				0.32292723655700684,
				0.32292723655700684
			],
			"translation":[
				-55.0885009765625,
				37.369781494140625,
				70.36933135986328
			]
		}
	],
	"materials":[
		{
			"doubleSided":true,
			"name":"svecha.001",
			"pbrMetallicRoughness":{
				"baseColorFactor":[
					0.8103699684143066,
					0.6507077813148499,
					0.2575479745864868,
					1
				],
				"metallicFactor":0,
				"roughnessFactor":0.6000000238418579
			}
		}
	],
	"meshes":[
		{
			"name":"Box123_Material #170_0.027",
			"primitives":[
				{
					"attributes":{
						"POSITION":0,
						"NORMAL":1,
						"TEXCOORD_0":2
					},
					"indices":3,
					"material":0
				}
			]
		}
	],
	"accessors":[
		{
			"bufferView":0,
			"componentType":5126,
			"count":2288,
			"max":[
				274.77569580078125,
				456.2158508300781,
				56.06217575073242
			],
			"min":[
				144.14984130859375,
				191.5311279296875,
				-40.01727294921875
			],
			"type":"VEC3"
		},
		{
			"bufferView":1,
			"componentType":5126,
			"count":2288,
			"type":"VEC3"
		},
		{
			"bufferView":2,
			"componentType":5126,
			"count":2288,
			"type":"VEC2"
		},
		{
			"bufferView":3,
			"componentType":5123,
			"count":8448,
			"type":"SCALAR"
		}
	],
	"bufferViews":[
		{
			"buffer":0,
			"byteLength":27456,
			"byteOffset":0,
			"target":34962
		},
		{
			"buffer":0,
			"byteLength":27456,
			"byteOffset":27456,
			"target":34962
		},
		{
			"buffer":0,
			"byteLength":18304,
			"byteOffset":54912,
			"target":34962
		},
		{
			"buffer":0,
			"byteLength":16896,
			"byteOffset":73216,
			"target":34963
		}
	],
	"buffers":[
		{
			"byteLength":90112,
			"uri":"tavern_svecha.bin"
		}
	]
}
