{
	"asset":{
		"generator":"Khronos glTF Blender I/O v4.1.63",
		"version":"2.0"
	},
	"scene":0,
	"scenes":[
		{
			"name":"Scene",
			"nodes":[
				0
			]
		}
	],
	"nodes":[
		{
			"mesh":0,
			"name":"Box123_Material #170_0.017",
			"rotation":[
				-0.7071068286895752,
				0,
				0,
				0.7071068286895752
			],
			"scale":[
				0.32292717695236206,
				0.32292723655700684,
				0.32292723655700684
			],
			"translation":[
				-55.0885009765625,
				37.369781494140625,
				70.36933135986328
			]
		}
	],
	"materials":[
		{
			"doubleSided":true,
			"name":"Material_189.001",
			"pbrMetallicRoughness":{
				"baseColorTexture":{
					"index":0
				},
				"metallicFactor":0,
				"roughnessFactor":0.6000000238418579
			}
		}
	],
	"meshes":[
		{
			"name":"Box123_Material #170_0.018",
			"primitives":[
				{
					"attributes":{
						"POSITION":0,
						"NORMAL":1,
						"TEXCOORD_0":2
					},
					"indices":3,
					"material":0
				}
			]
		}
	],
	"textures":[
		{
			"sampler":0,
			"source":0
		}
	],
	"images":[
		{
			"mimeType":"image/jpeg",
			"name":"Material_189_baseColor",
			"uri":"Material_189_baseColor.jpg"
		}
	],
	"accessors":[
		{
			"bufferView":0,
			"componentType":5126,
			"count":3991,
			"max":[
				501.089111328125,
				280.6675720214844,
				-13.744233131408691
			],
			"min":[
				367.0170593261719,
				210.57569885253906,
				-61.88141632080078
			],
			"type":"VEC3"
		},
		{
			"bufferView":1,
			"componentType":5126,
			"count":3991,
			"type":"VEC3"
		},
		{
			"bufferView":2,
			"componentType":5126,
			"count":3991,
			"type":"VEC2"
		},
		{
			"bufferView":3,
			"componentType":5123,
			"count":8694,
			"type":"SCALAR"
		}
	],
	"bufferViews":[
		{
			"buffer":0,
			"byteLength":47892,
			"byteOffset":0,
			"target":34962
		},
		{
			"buffer":0,
			"byteLength":47892,
			"byteOffset":47892,
			"target":34962
		},
		{
			"buffer":0,
			"byteLength":31928,
			"byteOffset":95784,
			"target":34962
		},
		{
			"buffer":0,
			"byteLength":17388,
			"byteOffset":127712,
			"target":34963
		}
	],
	"samplers":[
		{
			"magFilter":9729,
			"minFilter":9987
		}
	],
	"buffers":[
		{
			"byteLength":145100,
			"uri":"tavern_189.bin"
		}
	]
}
