{
	"asset":{
		"generator":"Khronos glTF Blender I/O v4.1.63",
		"version":"2.0"
	},
	"extensionsUsed":[
		"KHR_materials_specular"
	],
	"scene":0,
	"scenes":[
		{
			"name":"Scene",
			"nodes":[
				44
			]
		}
	],
	"nodes":[
		{
			"name":"mixamorig:HeadTop_End",
			"rotation":[
				2.546585164964199e-11,
				5.820766091346741e-11,
				6.402842700481415e-10,
				1
			],
			"translation":[
				1.4603137969970703e-06,
				22.166013717651367,
				2.225309133529663
			]
		},
		{
			"name":"mixamorig:LeftEye",
			"rotation":[
				-1.1382144293747842e-07,
				8.511415217071772e-08,
				9.266659617424011e-08,
				1
			],
			"translation":[
				5.478756427764893,
				7.286499977111816,
				11.932280540466309
			]
		},
		{
			"name":"mixamorig:RightEye",
			"rotation":[
				-1.1195879778824747e-07,
				8.509960025548935e-08,
				9.266659617424011e-08,
				1
			],
			"translation":[
				-5.478765487670898,
				7.286386013031006,
				11.932234764099121
			]
		},
		{
			"children":[
				0,
				1,
				2
			],
			"name":"mixamorig:Head",
			"rotation":[
				-5.5952114053070545e-09,
				-1.280568540096283e-09,
				-7.566995918750763e-10,
				1
			],
			"translation":[
				-9.238719940185547e-07,
				16.90564727783203,
				1.195548415184021
			]
		},
		{
			"children":[
				3
			],
			"name":"mixamorig:Neck",
			"rotation":[
				-2.7703208616003394e-07,
				7.523340173065662e-09,
				3.987225127843885e-08,
				1
			],
			"scale":[
				0.9999998807907104,
				0.9999999403953552,
				1
			],
			"translation":[
				2.7865171432495117e-06,
				35.33278274536133,
				-3.247389316558838
			]
		},
		{
			"name":"mixamorig:LeftHandThumb4",
			"rotation":[
				1.6763806343078613e-08,
				-1.6670674085617065e-07,
				1.30385160446167e-08,
				1
			],
			"translation":[
				-4.291534423828125e-06,
				6.824832916259766,
				-2.777576446533203e-05
			]
		},
		{
			"children":[
				5
			],
			"name":"mixamorig:LeftHandThumb3",
			"rotation":[
				3.166496753692627e-08,
				4.507601261138916e-07,
				4.190951585769653e-09,
				1
			],
			"translation":[
				-2.1696090698242188e-05,
				4.203428745269775,
				-9.59634780883789e-05
			]
		},
		{
			"children":[
				6
			],
			"name":"mixamorig:LeftHandThumb2",
			"rotation":[
				5.02914261346632e-08,
				-4.4144692878944625e-07,
				-1.7532150309307326e-07,
				1
			],
			"scale":[
				1,
				0.9999998211860657,
				0.9999999403953552
			],
			"translation":[
				1.7642974853515625e-05,
				4.925014495849609,
				-4.3839216232299805e-05
			]
		},
		{
			"children":[
				7
			],
			"name":"mixamorig:LeftHandThumb1",
			"rotation":[
				0.21744142472743988,
				0.07109848409891129,
				0.25595641136169434,
				0.9392287135124207
			],
			"scale":[
				0.9999999403953552,
				1,
				0.9999999403953552
			],
			"translation":[
				-5.89084529876709,
				6.538276672363281,
				5.056787490844727
			]
		},
		{
			"name":"mixamorig:LeftHandIndex4",
			"rotation":[
				1.7462301049597784e-10,
				-2.688466560485381e-09,
				-5.529728341890916e-10,
				1
			],
			"scale":[
				0.9999998807907104,
				0.9999998807907104,
				0.9999998807907104
			],
			"translation":[
				-1.5497207641601562e-06,
				5.178946495056152,
				2.434849739074707e-05
			]
		},
		{
			"children":[
				9
			],
			"name":"mixamorig:LeftHandIndex3",
			"rotation":[
				1.6298147276216923e-09,
				-2.6957425180995642e-09,
				3.2014216277964636e-10,
				1
			],
			"scale":[
				0.9999998807907104,
				0.9999998807907104,
				0.9999998807907104
			],
			"translation":[
				3.5762786865234375e-06,
				6.383127689361572,
				7.808208465576172e-06
			]
		},
		{
			"children":[
				10
			],
			"name":"mixamorig:LeftHandIndex2",
			"rotation":[
				-1.0186340659856796e-08,
				6.784830475226045e-09,
				-1.1641530794914701e-10,
				1
			],
			"scale":[
				1,
				0.9999998807907104,
				1
			],
			"translation":[
				-1.6689300537109375e-06,
				4.820333003997803,
				1.856684684753418e-05
			]
		},
		{
			"children":[
				11
			],
			"name":"mixamorig:LeftHandIndex1",
			"rotation":[
				3.3760445550257145e-09,
				-4.602043190971017e-09,
				2.1391315385699272e-09,
				1
			],
			"scale":[
				1,
				0.9999999403953552,
				1
			],
			"translation":[
				9.119510650634766e-06,
				16.444643020629883,
				7.927417755126953e-06
			]
		},
		{
			"children":[
				8,
				12
			],
			"name":"mixamorig:LeftHand",
			"rotation":[
				2.328307269205965e-10,
				-2.505221914361755e-07,
				-9.022188551810473e-10,
				1
			],
			"scale":[
				0.9999998807907104,
				0.9999998807907104,
				0.9999998211860657
			],
			"translation":[
				2.086162567138672e-06,
				27.145017623901367,
				1.8358230590820312e-05
			]
		},
		{
			"children":[
				13
			],
			"name":"mixamorig:LeftForeArm",
			"rotation":[
				8.96398155703082e-09,
				8.378266080910635e-09,
				-3.1723179638731835e-09,
				1
			],
			"scale":[
				0.9999999403953552,
				0.9999998807907104,
				0.9999998211860657
			],
			"translation":[
				-1.4543533325195312e-05,
				24.17822265625,
				-1.6897916793823242e-05
			]
		},
		{
			"children":[
				14
			],
			"name":"mixamorig:LeftArm",
			"rotation":[
				-0.12387079745531082,
				-0.005379213020205498,
				0.04305006191134453,
				0.9913495182991028
			],
			"scale":[
				1.0000001192092896,
				1,
				1.0000001192092896
			],
			"translation":[
				-8.255243301391602e-06,
				19.714839935302734,
				-0.00038486719131469727
			]
		},
		{
			"children":[
				15
			],
			"name":"mixamorig:LeftShoulder",
			"rotation":[
				0.5387747883796692,
				0.4579538106918335,
				-0.5764455795288086,
				0.4095245897769928
			],
			"scale":[
				1.000000238418579,
				1.0000001192092896,
				1.0000001192092896
			],
			"translation":[
				12.89639949798584,
				26.61279296875,
				-4.508985996246338
			]
		},
		{
			"name":"mixamorig:RightHandThumb4",
			"rotation":[
				-2.2351745343485163e-08,
				-5.494803190231323e-08,
				-4.0512531995773315e-08,
				1
			],
			"scale":[
				1.0000001192092896,
				0.9999998807907104,
				0.9999999403953552
			],
			"translation":[
				-3.361701965332031e-05,
				6.824822902679443,
				3.342330455780029e-05
			]
		},
		{
			"children":[
				17
			],
			"name":"mixamorig:RightHandThumb3",
			"rotation":[
				-1.6573816537857056e-05,
				-5.41098415851593e-07,
				4.1746534407138824e-06,
				1
			],
			"scale":[
				1,
				1,
				1.0000001192092896
			],
			"translation":[
				-2.2292137145996094e-05,
				4.203531742095947,
				1.9878149032592773e-05
			]
		},
		{
			"children":[
				18
			],
			"name":"mixamorig:RightHandThumb2",
			"rotation":[
				9.267032874049619e-05,
				4.9639493227005e-07,
				-4.676170647144318e-06,
				1
			],
			"scale":[
				1,
				0.9999998807907104,
				1
			],
			"translation":[
				1.7404556274414062e-05,
				4.924496650695801,
				3.516674041748047e-05
			]
		},
		{
			"children":[
				19
			],
			"name":"mixamorig:RightHandThumb1",
			"rotation":[
				0.21813559532165527,
				-0.06824421882629395,
				-0.2553016245365143,
				0.9394577145576477
			],
			"scale":[
				0.9999998807907104,
				0.9999998211860657,
				0.9999998211860657
			],
			"translation":[
				5.890847682952881,
				6.5382609367370605,
				5.056989669799805
			]
		},
		{
			"name":"mixamorig:RightHandIndex4",
			"rotation":[
				2.9103836007848827e-10,
				4.074536819054231e-10,
				-2.63389710042361e-09,
				1
			],
			"scale":[
				0.9999999403953552,
				0.9999998807907104,
				0.9999999403953552
			],
			"translation":[
				2.4437904357910156e-06,
				5.17914342880249,
				-3.814697265625e-06
			]
		},
		{
			"children":[
				21
			],
			"name":"mixamorig:RightHandIndex3",
			"rotation":[
				-1.9790606931024968e-09,
				4.5474740639761535e-10,
				1.4842954643157213e-09,
				1
			],
			"scale":[
				0.9999999403953552,
				0.9999998807907104,
				0.9999999403953552
			],
			"translation":[
				5.0067901611328125e-06,
				6.382933616638184,
				1.4007091522216797e-05
			]
		},
		{
			"children":[
				22
			],
			"name":"mixamorig:RightHandIndex2",
			"rotation":[
				-6.5774670154894466e-09,
				-1.349690248453328e-09,
				-5.238690592435091e-10,
				1
			],
			"scale":[
				0.9999999403953552,
				0.9999998211860657,
				0.9999998807907104
			],
			"translation":[
				3.516674041748047e-06,
				4.820125102996826,
				-1.7881393432617188e-05
			]
		},
		{
			"children":[
				23
			],
			"name":"mixamorig:RightHandIndex1",
			"rotation":[
				7.450582373280668e-09,
				-1.557055151479858e-09,
				-2.328306880627906e-09,
				1
			],
			"scale":[
				0.9999999403953552,
				0.9999997615814209,
				0.9999997615814209
			],
			"translation":[
				2.2649765014648438e-06,
				16.44451332092285,
				7.748603820800781e-06
			]
		},
		{
			"children":[
				20,
				24
			],
			"name":"mixamorig:RightHand",
			"rotation":[
				-2.328306880627906e-09,
				4.1982284315622564e-09,
				4.787580998311114e-09,
				1
			],
			"scale":[
				0.9999999403953552,
				0.9999998211860657,
				0.9999997615814209
			],
			"translation":[
				2.390146255493164e-05,
				27.145015716552734,
				1.627206802368164e-05
			]
		},
		{
			"children":[
				25
			],
			"name":"mixamorig:RightForeArm",
			"rotation":[
				2.0081648344216774e-08,
				-7.337804142082405e-09,
				-8.876670509749829e-10,
				1
			],
			"scale":[
				0.9999999403953552,
				0.9999998211860657,
				0.9999997615814209
			],
			"translation":[
				1.5914440155029297e-05,
				24.177730560302734,
				-6.935000419616699e-05
			]
		},
		{
			"children":[
				26
			],
			"name":"mixamorig:RightArm",
			"rotation":[
				-0.12387276440858841,
				0.005379739683121443,
				-0.043049730360507965,
				0.9913492798805237
			],
			"scale":[
				0.9999999403953552,
				0.9999999403953552,
				0.9999999403953552
			],
			"translation":[
				-1.615285873413086e-05,
				19.7152099609375,
				-6.759166717529297e-05
			]
		},
		{
			"children":[
				27
			],
			"name":"mixamorig:RightShoulder",
			"rotation":[
				0.538775622844696,
				-0.45795291662216187,
				0.5764461755752563,
				0.4095238447189331
			],
			"scale":[
				1.000000238418579,
				1,
				0.9999999403953552
			],
			"translation":[
				-12.896343231201172,
				26.612802505493164,
				-4.508986473083496
			]
		},
		{
			"children":[
				4,
				16,
				28
			],
			"name":"mixamorig:Spine2",
			"rotation":[
				0.012497808784246445,
				1.0856577858930905e-08,
				-3.457805064499553e-08,
				0.9999219179153442
			],
			"scale":[
				1,
				0.9999999403953552,
				0.9999998211860657
			],
			"translation":[
				1.296401023864746e-06,
				14.768178939819336,
				-1.6773119568824768e-06
			]
		},
		{
			"children":[
				29
			],
			"name":"mixamorig:Spine1",
			"rotation":[
				-0.013103722594678402,
				9.299472303325729e-09,
				2.392540210394145e-08,
				0.9999141693115234
			],
			"scale":[
				1,
				1,
				1.0000001192092896
			],
			"translation":[
				-6.891787052154541e-07,
				13.893198013305664,
				-5.424953997135162e-07
			]
		},
		{
			"children":[
				30
			],
			"name":"mixamorig:Spine",
			"rotation":[
				0.0006060578161850572,
				3.857713792854156e-08,
				-8.086792036010593e-07,
				0.9999998211860657
			],
			"translation":[
				0.11691797524690628,
				10.681035995483398,
				0.3734585642814636
			]
		},
		{
			"name":"mixamorig:LeftToe_End",
			"rotation":[
				1.4089891919866204e-08,
				9.921496513243255e-08,
				2.17478390851511e-08,
				1
			],
			"scale":[
				0.9999999403953552,
				1,
				1
			],
			"translation":[
				1.2611271813511848e-05,
				15.258543014526367,
				0.00014474987983703613
			]
		},
		{
			"children":[
				32
			],
			"name":"mixamorig:LeftToeBase",
			"rotation":[
				0.34420496225357056,
				-0.01445145532488823,
				-0.009241458959877491,
				0.9387378692626953
			],
			"scale":[
				0.9999999403953552,
				1,
				0.9999999403953552
			],
			"translation":[
				1.4841556549072266e-05,
				26.500246047973633,
				-1.475214958190918e-06
			]
		},
		{
			"children":[
				33
			],
			"name":"mixamorig:LeftFoot",
			"rotation":[
				0.5174722671508789,
				-0.021565867587924004,
				0.026916824281215668,
				0.855004608631134
			],
			"scale":[
				0.9999998807907104,
				0.9999998211860657,
				0.9999999403953552
			],
			"translation":[
				1.4103949069976807e-05,
				30.6254825592041,
				-0.0001843869686126709
			]
		},
		{
			"children":[
				34
			],
			"name":"mixamorig:LeftLeg",
			"rotation":[
				-0.17438362538814545,
				-8.611639259470394e-07,
				2.833608232322149e-05,
				0.984677791595459
			],
			"scale":[
				1.0000001192092896,
				1.0000001192092896,
				1.0000001192092896
			],
			"translation":[
				-3.6507844924926758e-06,
				34.295902252197266,
				-2.682209014892578e-07
			]
		},
		{
			"children":[
				35
			],
			"name":"mixamorig:LeftUpLeg",
			"rotation":[
				0.00012569830869324505,
				0.06519054621458054,
				0.9978709816932678,
				0.0019207729492336512
			],
			"scale":[
				1,
				1.0000001192092896,
				0.9999983906745911
			],
			"translation":[
				14.073023796081543,
				-7.904054164886475,
				-1.4629600048065186
			]
		},
		{
			"name":"mixamorig:RightToe_End",
			"rotation":[
				-6.295159238334236e-08,
				-5.774199962615967e-07,
				-3.945315540931915e-07,
				1
			],
			"scale":[
				1,
				0.9999998807907104,
				0.9999999403953552
			],
			"translation":[
				3.12409974867478e-05,
				15.2587890625,
				7.411465048789978e-06
			]
		},
		{
			"children":[
				37
			],
			"name":"mixamorig:RightToeBase",
			"rotation":[
				0.34420159459114075,
				0.01448097638785839,
				0.009161906316876411,
				0.9387394189834595
			],
			"scale":[
				1,
				1,
				1.0000001192092896
			],
			"translation":[
				-4.464574158191681e-05,
				26.499998092651367,
				0.00024384260177612305
			]
		},
		{
			"children":[
				38
			],
			"name":"mixamorig:RightFoot",
			"rotation":[
				0.5174742341041565,
				0.021566228941082954,
				-0.026917103677988052,
				0.8550034165382385
			],
			"scale":[
				0.9999999403953552,
				0.9999998807907104,
				0.9999998211860657
			],
			"translation":[
				8.054077625274658e-06,
				30.626468658447266,
				-7.897615432739258e-07
			]
		},
		{
			"children":[
				39
			],
			"name":"mixamorig:RightLeg",
			"rotation":[
				-0.17438481748104095,
				7.504444283767953e-07,
				-2.597396269266028e-05,
				0.9846776127815247
			],
			"scale":[
				1.0000001192092896,
				1,
				1.000000238418579
			],
			"translation":[
				-1.1920928955078125e-07,
				34.29492950439453,
				1.2218952178955078e-06
			]
		},
		{
			"children":[
				40
			],
			"name":"mixamorig:RightUpLeg",
			"rotation":[
				0.00012594988220371306,
				-0.06519006192684174,
				-0.9978710412979126,
				0.001918342662975192
			],
			"scale":[
				1,
				0.9999998211860657,
				0.9999916553497314
			],
			"translation":[
				-14.073053359985352,
				-7.904054164886475,
				-1.462959885597229
			]
		},
		{
			"children":[
				31,
				36,
				41
			],
			"name":"mixamorig:Hips",
			"rotation":[
				-0.7320262789726257,
				-0.00693025765940547,
				0.013453368097543716,
				0.6811083555221558
			],
			"scale":[
				0.9999999403953552,
				1,
				0.9999999403953552
			],
			"translation":[
				-0.025642752647399902,
				0.8012081980705261,
				-86.5098648071289
			]
		},
		{
			"mesh":0,
			"name":"Peasant_Man",
			"skin":0
		},
		{
			"children":[
				43,
				42
			],
			"name":"Armature",
			"rotation":[
				0.70710688829422,
				0,
				0,
				0.7071066498756409
			],
			"scale":[
				0.009999999776482582,
				0.010000000707805157,
				0.010000000707805157
			]
		}
	],
	"animations":[
		{
			"channels":[
				{
					"sampler":0,
					"target":{
						"node":42,
						"path":"translation"
					}
				},
				{
					"sampler":1,
					"target":{
						"node":42,
						"path":"rotation"
					}
				},
				{
					"sampler":2,
					"target":{
						"node":42,
						"path":"scale"
					}
				},
				{
					"sampler":3,
					"target":{
						"node":31,
						"path":"translation"
					}
				},
				{
					"sampler":4,
					"target":{
						"node":31,
						"path":"rotation"
					}
				},
				{
					"sampler":5,
					"target":{
						"node":31,
						"path":"scale"
					}
				},
				{
					"sampler":6,
					"target":{
						"node":30,
						"path":"translation"
					}
				},
				{
					"sampler":7,
					"target":{
						"node":30,
						"path":"rotation"
					}
				},
				{
					"sampler":8,
					"target":{
						"node":30,
						"path":"scale"
					}
				},
				{
					"sampler":9,
					"target":{
						"node":29,
						"path":"translation"
					}
				},
				{
					"sampler":10,
					"target":{
						"node":29,
						"path":"rotation"
					}
				},
				{
					"sampler":11,
					"target":{
						"node":29,
						"path":"scale"
					}
				},
				{
					"sampler":12,
					"target":{
						"node":4,
						"path":"translation"
					}
				},
				{
					"sampler":13,
					"target":{
						"node":4,
						"path":"rotation"
					}
				},
				{
					"sampler":14,
					"target":{
						"node":4,
						"path":"scale"
					}
				},
				{
					"sampler":15,
					"target":{
						"node":3,
						"path":"translation"
					}
				},
				{
					"sampler":16,
					"target":{
						"node":3,
						"path":"rotation"
					}
				},
				{
					"sampler":17,
					"target":{
						"node":3,
						"path":"scale"
					}
				},
				{
					"sampler":18,
					"target":{
						"node":0,
						"path":"translation"
					}
				},
				{
					"sampler":19,
					"target":{
						"node":0,
						"path":"rotation"
					}
				},
				{
					"sampler":20,
					"target":{
						"node":0,
						"path":"scale"
					}
				},
				{
					"sampler":21,
					"target":{
						"node":1,
						"path":"translation"
					}
				},
				{
					"sampler":22,
					"target":{
						"node":1,
						"path":"rotation"
					}
				},
				{
					"sampler":23,
					"target":{
						"node":1,
						"path":"scale"
					}
				},
				{
					"sampler":24,
					"target":{
						"node":2,
						"path":"translation"
					}
				},
				{
					"sampler":25,
					"target":{
						"node":2,
						"path":"rotation"
					}
				},
				{
					"sampler":26,
					"target":{
						"node":2,
						"path":"scale"
					}
				},
				{
					"sampler":27,
					"target":{
						"node":16,
						"path":"translation"
					}
				},
				{
					"sampler":28,
					"target":{
						"node":16,
						"path":"rotation"
					}
				},
				{
					"sampler":29,
					"target":{
						"node":16,
						"path":"scale"
					}
				},
				{
					"sampler":30,
					"target":{
						"node":15,
						"path":"translation"
					}
				},
				{
					"sampler":31,
					"target":{
						"node":15,
						"path":"rotation"
					}
				},
				{
					"sampler":32,
					"target":{
						"node":15,
						"path":"scale"
					}
				},
				{
					"sampler":33,
					"target":{
						"node":14,
						"path":"translation"
					}
				},
				{
					"sampler":34,
					"target":{
						"node":14,
						"path":"rotation"
					}
				},
				{
					"sampler":35,
					"target":{
						"node":14,
						"path":"scale"
					}
				},
				{
					"sampler":36,
					"target":{
						"node":13,
						"path":"translation"
					}
				},
				{
					"sampler":37,
					"target":{
						"node":13,
						"path":"rotation"
					}
				},
				{
					"sampler":38,
					"target":{
						"node":13,
						"path":"scale"
					}
				},
				{
					"sampler":39,
					"target":{
						"node":8,
						"path":"translation"
					}
				},
				{
					"sampler":40,
					"target":{
						"node":8,
						"path":"rotation"
					}
				},
				{
					"sampler":41,
					"target":{
						"node":8,
						"path":"scale"
					}
				},
				{
					"sampler":42,
					"target":{
						"node":7,
						"path":"translation"
					}
				},
				{
					"sampler":43,
					"target":{
						"node":7,
						"path":"rotation"
					}
				},
				{
					"sampler":44,
					"target":{
						"node":7,
						"path":"scale"
					}
				},
				{
					"sampler":45,
					"target":{
						"node":6,
						"path":"translation"
					}
				},
				{
					"sampler":46,
					"target":{
						"node":6,
						"path":"rotation"
					}
				},
				{
					"sampler":47,
					"target":{
						"node":6,
						"path":"scale"
					}
				},
				{
					"sampler":48,
					"target":{
						"node":5,
						"path":"translation"
					}
				},
				{
					"sampler":49,
					"target":{
						"node":5,
						"path":"rotation"
					}
				},
				{
					"sampler":50,
					"target":{
						"node":5,
						"path":"scale"
					}
				},
				{
					"sampler":51,
					"target":{
						"node":12,
						"path":"translation"
					}
				},
				{
					"sampler":52,
					"target":{
						"node":12,
						"path":"rotation"
					}
				},
				{
					"sampler":53,
					"target":{
						"node":12,
						"path":"scale"
					}
				},
				{
					"sampler":54,
					"target":{
						"node":11,
						"path":"translation"
					}
				},
				{
					"sampler":55,
					"target":{
						"node":11,
						"path":"rotation"
					}
				},
				{
					"sampler":56,
					"target":{
						"node":11,
						"path":"scale"
					}
				},
				{
					"sampler":57,
					"target":{
						"node":10,
						"path":"translation"
					}
				},
				{
					"sampler":58,
					"target":{
						"node":10,
						"path":"rotation"
					}
				},
				{
					"sampler":59,
					"target":{
						"node":10,
						"path":"scale"
					}
				},
				{
					"sampler":60,
					"target":{
						"node":9,
						"path":"translation"
					}
				},
				{
					"sampler":61,
					"target":{
						"node":9,
						"path":"rotation"
					}
				},
				{
					"sampler":62,
					"target":{
						"node":9,
						"path":"scale"
					}
				},
				{
					"sampler":63,
					"target":{
						"node":28,
						"path":"translation"
					}
				},
				{
					"sampler":64,
					"target":{
						"node":28,
						"path":"rotation"
					}
				},
				{
					"sampler":65,
					"target":{
						"node":28,
						"path":"scale"
					}
				},
				{
					"sampler":66,
					"target":{
						"node":27,
						"path":"translation"
					}
				},
				{
					"sampler":67,
					"target":{
						"node":27,
						"path":"rotation"
					}
				},
				{
					"sampler":68,
					"target":{
						"node":27,
						"path":"scale"
					}
				},
				{
					"sampler":69,
					"target":{
						"node":26,
						"path":"translation"
					}
				},
				{
					"sampler":70,
					"target":{
						"node":26,
						"path":"rotation"
					}
				},
				{
					"sampler":71,
					"target":{
						"node":26,
						"path":"scale"
					}
				},
				{
					"sampler":72,
					"target":{
						"node":25,
						"path":"translation"
					}
				},
				{
					"sampler":73,
					"target":{
						"node":25,
						"path":"rotation"
					}
				},
				{
					"sampler":74,
					"target":{
						"node":25,
						"path":"scale"
					}
				},
				{
					"sampler":75,
					"target":{
						"node":20,
						"path":"translation"
					}
				},
				{
					"sampler":76,
					"target":{
						"node":20,
						"path":"rotation"
					}
				},
				{
					"sampler":77,
					"target":{
						"node":20,
						"path":"scale"
					}
				},
				{
					"sampler":78,
					"target":{
						"node":19,
						"path":"translation"
					}
				},
				{
					"sampler":79,
					"target":{
						"node":19,
						"path":"rotation"
					}
				},
				{
					"sampler":80,
					"target":{
						"node":19,
						"path":"scale"
					}
				},
				{
					"sampler":81,
					"target":{
						"node":18,
						"path":"translation"
					}
				},
				{
					"sampler":82,
					"target":{
						"node":18,
						"path":"rotation"
					}
				},
				{
					"sampler":83,
					"target":{
						"node":18,
						"path":"scale"
					}
				},
				{
					"sampler":84,
					"target":{
						"node":17,
						"path":"translation"
					}
				},
				{
					"sampler":85,
					"target":{
						"node":17,
						"path":"rotation"
					}
				},
				{
					"sampler":86,
					"target":{
						"node":17,
						"path":"scale"
					}
				},
				{
					"sampler":87,
					"target":{
						"node":24,
						"path":"translation"
					}
				},
				{
					"sampler":88,
					"target":{
						"node":24,
						"path":"rotation"
					}
				},
				{
					"sampler":89,
					"target":{
						"node":24,
						"path":"scale"
					}
				},
				{
					"sampler":90,
					"target":{
						"node":23,
						"path":"translation"
					}
				},
				{
					"sampler":91,
					"target":{
						"node":23,
						"path":"rotation"
					}
				},
				{
					"sampler":92,
					"target":{
						"node":23,
						"path":"scale"
					}
				},
				{
					"sampler":93,
					"target":{
						"node":22,
						"path":"translation"
					}
				},
				{
					"sampler":94,
					"target":{
						"node":22,
						"path":"rotation"
					}
				},
				{
					"sampler":95,
					"target":{
						"node":22,
						"path":"scale"
					}
				},
				{
					"sampler":96,
					"target":{
						"node":21,
						"path":"translation"
					}
				},
				{
					"sampler":97,
					"target":{
						"node":21,
						"path":"rotation"
					}
				},
				{
					"sampler":98,
					"target":{
						"node":21,
						"path":"scale"
					}
				},
				{
					"sampler":99,
					"target":{
						"node":36,
						"path":"translation"
					}
				},
				{
					"sampler":100,
					"target":{
						"node":36,
						"path":"rotation"
					}
				},
				{
					"sampler":101,
					"target":{
						"node":36,
						"path":"scale"
					}
				},
				{
					"sampler":102,
					"target":{
						"node":35,
						"path":"translation"
					}
				},
				{
					"sampler":103,
					"target":{
						"node":35,
						"path":"rotation"
					}
				},
				{
					"sampler":104,
					"target":{
						"node":35,
						"path":"scale"
					}
				},
				{
					"sampler":105,
					"target":{
						"node":34,
						"path":"translation"
					}
				},
				{
					"sampler":106,
					"target":{
						"node":34,
						"path":"rotation"
					}
				},
				{
					"sampler":107,
					"target":{
						"node":34,
						"path":"scale"
					}
				},
				{
					"sampler":108,
					"target":{
						"node":33,
						"path":"translation"
					}
				},
				{
					"sampler":109,
					"target":{
						"node":33,
						"path":"rotation"
					}
				},
				{
					"sampler":110,
					"target":{
						"node":33,
						"path":"scale"
					}
				},
				{
					"sampler":111,
					"target":{
						"node":32,
						"path":"translation"
					}
				},
				{
					"sampler":112,
					"target":{
						"node":32,
						"path":"rotation"
					}
				},
				{
					"sampler":113,
					"target":{
						"node":32,
						"path":"scale"
					}
				},
				{
					"sampler":114,
					"target":{
						"node":41,
						"path":"translation"
					}
				},
				{
					"sampler":115,
					"target":{
						"node":41,
						"path":"rotation"
					}
				},
				{
					"sampler":116,
					"target":{
						"node":41,
						"path":"scale"
					}
				},
				{
					"sampler":117,
					"target":{
						"node":40,
						"path":"translation"
					}
				},
				{
					"sampler":118,
					"target":{
						"node":40,
						"path":"rotation"
					}
				},
				{
					"sampler":119,
					"target":{
						"node":40,
						"path":"scale"
					}
				},
				{
					"sampler":120,
					"target":{
						"node":39,
						"path":"translation"
					}
				},
				{
					"sampler":121,
					"target":{
						"node":39,
						"path":"rotation"
					}
				},
				{
					"sampler":122,
					"target":{
						"node":39,
						"path":"scale"
					}
				},
				{
					"sampler":123,
					"target":{
						"node":38,
						"path":"translation"
					}
				},
				{
					"sampler":124,
					"target":{
						"node":38,
						"path":"rotation"
					}
				},
				{
					"sampler":125,
					"target":{
						"node":38,
						"path":"scale"
					}
				},
				{
					"sampler":126,
					"target":{
						"node":37,
						"path":"translation"
					}
				},
				{
					"sampler":127,
					"target":{
						"node":37,
						"path":"rotation"
					}
				},
				{
					"sampler":128,
					"target":{
						"node":37,
						"path":"scale"
					}
				}
			],
			"name":"maleCombined",
			"samplers":[
				{
					"input":7,
					"interpolation":"LINEAR",
					"output":8
				},
				{
					"input":7,
					"interpolation":"LINEAR",
					"output":9
				},
				{
					"input":7,
					"interpolation":"LINEAR",
					"output":10
				},
				{
					"input":7,
					"interpolation":"LINEAR",
					"output":11
				},
				{
					"input":7,
					"interpolation":"LINEAR",
					"output":12
				},
				{
					"input":7,
					"interpolation":"LINEAR",
					"output":13
				},
				{
					"input":7,
					"interpolation":"LINEAR",
					"output":14
				},
				{
					"input":7,
					"interpolation":"LINEAR",
					"output":15
				},
				{
					"input":7,
					"interpolation":"LINEAR",
					"output":16
				},
				{
					"input":7,
					"interpolation":"LINEAR",
					"output":17
				},
				{
					"input":7,
					"interpolation":"LINEAR",
					"output":18
				},
				{
					"input":7,
					"interpolation":"LINEAR",
					"output":19
				},
				{
					"input":7,
					"interpolation":"LINEAR",
					"output":20
				},
				{
					"input":7,
					"interpolation":"LINEAR",
					"output":21
				},
				{
					"input":7,
					"interpolation":"LINEAR",
					"output":22
				},
				{
					"input":7,
					"interpolation":"LINEAR",
					"output":23
				},
				{
					"input":7,
					"interpolation":"LINEAR",
					"output":24
				},
				{
					"input":7,
					"interpolation":"LINEAR",
					"output":25
				},
				{
					"input":7,
					"interpolation":"LINEAR",
					"output":26
				},
				{
					"input":7,
					"interpolation":"LINEAR",
					"output":27
				},
				{
					"input":7,
					"interpolation":"LINEAR",
					"output":28
				},
				{
					"input":7,
					"interpolation":"LINEAR",
					"output":29
				},
				{
					"input":7,
					"interpolation":"LINEAR",
					"output":30
				},
				{
					"input":7,
					"interpolation":"LINEAR",
					"output":31
				},
				{
					"input":7,
					"interpolation":"LINEAR",
					"output":32
				},
				{
					"input":7,
					"interpolation":"LINEAR",
					"output":33
				},
				{
					"input":7,
					"interpolation":"LINEAR",
					"output":34
				},
				{
					"input":7,
					"interpolation":"LINEAR",
					"output":35
				},
				{
					"input":7,
					"interpolation":"LINEAR",
					"output":36
				},
				{
					"input":7,
					"interpolation":"LINEAR",
					"output":37
				},
				{
					"input":7,
					"interpolation":"LINEAR",
					"output":38
				},
				{
					"input":7,
					"interpolation":"LINEAR",
					"output":39
				},
				{
					"input":7,
					"interpolation":"LINEAR",
					"output":40
				},
				{
					"input":7,
					"interpolation":"LINEAR",
					"output":41
				},
				{
					"input":7,
					"interpolation":"LINEAR",
					"output":42
				},
				{
					"input":7,
					"interpolation":"LINEAR",
					"output":43
				},
				{
					"input":7,
					"interpolation":"LINEAR",
					"output":44
				},
				{
					"input":7,
					"interpolation":"LINEAR",
					"output":45
				},
				{
					"input":7,
					"interpolation":"LINEAR",
					"output":46
				},
				{
					"input":7,
					"interpolation":"LINEAR",
					"output":47
				},
				{
					"input":7,
					"interpolation":"LINEAR",
					"output":48
				},
				{
					"input":7,
					"interpolation":"LINEAR",
					"output":49
				},
				{
					"input":7,
					"interpolation":"LINEAR",
					"output":50
				},
				{
					"input":7,
					"interpolation":"LINEAR",
					"output":51
				},
				{
					"input":7,
					"interpolation":"LINEAR",
					"output":52
				},
				{
					"input":7,
					"interpolation":"LINEAR",
					"output":53
				},
				{
					"input":7,
					"interpolation":"LINEAR",
					"output":54
				},
				{
					"input":7,
					"interpolation":"LINEAR",
					"output":55
				},
				{
					"input":7,
					"interpolation":"LINEAR",
					"output":56
				},
				{
					"input":7,
					"interpolation":"LINEAR",
					"output":57
				},
				{
					"input":7,
					"interpolation":"LINEAR",
					"output":58
				},
				{
					"input":7,
					"interpolation":"LINEAR",
					"output":59
				},
				{
					"input":7,
					"interpolation":"LINEAR",
					"output":60
				},
				{
					"input":7,
					"interpolation":"LINEAR",
					"output":61
				},
				{
					"input":7,
					"interpolation":"LINEAR",
					"output":62
				},
				{
					"input":7,
					"interpolation":"LINEAR",
					"output":63
				},
				{
					"input":7,
					"interpolation":"LINEAR",
					"output":64
				},
				{
					"input":7,
					"interpolation":"LINEAR",
					"output":65
				},
				{
					"input":7,
					"interpolation":"LINEAR",
					"output":66
				},
				{
					"input":7,
					"interpolation":"LINEAR",
					"output":67
				},
				{
					"input":7,
					"interpolation":"LINEAR",
					"output":68
				},
				{
					"input":7,
					"interpolation":"LINEAR",
					"output":69
				},
				{
					"input":7,
					"interpolation":"LINEAR",
					"output":70
				},
				{
					"input":7,
					"interpolation":"LINEAR",
					"output":71
				},
				{
					"input":7,
					"interpolation":"LINEAR",
					"output":72
				},
				{
					"input":7,
					"interpolation":"LINEAR",
					"output":73
				},
				{
					"input":7,
					"interpolation":"LINEAR",
					"output":74
				},
				{
					"input":7,
					"interpolation":"LINEAR",
					"output":75
				},
				{
					"input":7,
					"interpolation":"LINEAR",
					"output":76
				},
				{
					"input":7,
					"interpolation":"LINEAR",
					"output":77
				},
				{
					"input":7,
					"interpolation":"LINEAR",
					"output":78
				},
				{
					"input":7,
					"interpolation":"LINEAR",
					"output":79
				},
				{
					"input":7,
					"interpolation":"LINEAR",
					"output":80
				},
				{
					"input":7,
					"interpolation":"LINEAR",
					"output":81
				},
				{
					"input":7,
					"interpolation":"LINEAR",
					"output":82
				},
				{
					"input":7,
					"interpolation":"LINEAR",
					"output":83
				},
				{
					"input":7,
					"interpolation":"LINEAR",
					"output":84
				},
				{
					"input":7,
					"interpolation":"LINEAR",
					"output":85
				},
				{
					"input":7,
					"interpolation":"LINEAR",
					"output":86
				},
				{
					"input":7,
					"interpolation":"LINEAR",
					"output":87
				},
				{
					"input":7,
					"interpolation":"LINEAR",
					"output":88
				},
				{
					"input":7,
					"interpolation":"LINEAR",
					"output":89
				},
				{
					"input":7,
					"interpolation":"LINEAR",
					"output":90
				},
				{
					"input":7,
					"interpolation":"LINEAR",
					"output":91
				},
				{
					"input":7,
					"interpolation":"LINEAR",
					"output":92
				},
				{
					"input":7,
					"interpolation":"LINEAR",
					"output":93
				},
				{
					"input":7,
					"interpolation":"LINEAR",
					"output":94
				},
				{
					"input":7,
					"interpolation":"LINEAR",
					"output":95
				},
				{
					"input":7,
					"interpolation":"LINEAR",
					"output":96
				},
				{
					"input":7,
					"interpolation":"LINEAR",
					"output":97
				},
				{
					"input":7,
					"interpolation":"LINEAR",
					"output":98
				},
				{
					"input":7,
					"interpolation":"LINEAR",
					"output":99
				},
				{
					"input":7,
					"interpolation":"LINEAR",
					"output":100
				},
				{
					"input":7,
					"interpolation":"LINEAR",
					"output":101
				},
				{
					"input":7,
					"interpolation":"LINEAR",
					"output":102
				},
				{
					"input":7,
					"interpolation":"LINEAR",
					"output":103
				},
				{
					"input":7,
					"interpolation":"LINEAR",
					"output":104
				},
				{
					"input":7,
					"interpolation":"LINEAR",
					"output":105
				},
				{
					"input":7,
					"interpolation":"LINEAR",
					"output":106
				},
				{
					"input":7,
					"interpolation":"LINEAR",
					"output":107
				},
				{
					"input":7,
					"interpolation":"LINEAR",
					"output":108
				},
				{
					"input":7,
					"interpolation":"LINEAR",
					"output":109
				},
				{
					"input":7,
					"interpolation":"LINEAR",
					"output":110
				},
				{
					"input":7,
					"interpolation":"LINEAR",
					"output":111
				},
				{
					"input":7,
					"interpolation":"LINEAR",
					"output":112
				},
				{
					"input":7,
					"interpolation":"LINEAR",
					"output":113
				},
				{
					"input":7,
					"interpolation":"LINEAR",
					"output":114
				},
				{
					"input":7,
					"interpolation":"LINEAR",
					"output":115
				},
				{
					"input":7,
					"interpolation":"LINEAR",
					"output":116
				},
				{
					"input":7,
					"interpolation":"LINEAR",
					"output":117
				},
				{
					"input":7,
					"interpolation":"LINEAR",
					"output":118
				},
				{
					"input":7,
					"interpolation":"LINEAR",
					"output":119
				},
				{
					"input":7,
					"interpolation":"LINEAR",
					"output":120
				},
				{
					"input":7,
					"interpolation":"LINEAR",
					"output":121
				},
				{
					"input":7,
					"interpolation":"LINEAR",
					"output":122
				},
				{
					"input":7,
					"interpolation":"LINEAR",
					"output":123
				},
				{
					"input":7,
					"interpolation":"LINEAR",
					"output":124
				},
				{
					"input":7,
					"interpolation":"LINEAR",
					"output":125
				},
				{
					"input":7,
					"interpolation":"LINEAR",
					"output":126
				},
				{
					"input":7,
					"interpolation":"LINEAR",
					"output":127
				},
				{
					"input":7,
					"interpolation":"LINEAR",
					"output":128
				},
				{
					"input":7,
					"interpolation":"LINEAR",
					"output":129
				},
				{
					"input":7,
					"interpolation":"LINEAR",
					"output":130
				},
				{
					"input":7,
					"interpolation":"LINEAR",
					"output":131
				},
				{
					"input":7,
					"interpolation":"LINEAR",
					"output":132
				},
				{
					"input":7,
					"interpolation":"LINEAR",
					"output":133
				},
				{
					"input":7,
					"interpolation":"LINEAR",
					"output":134
				},
				{
					"input":7,
					"interpolation":"LINEAR",
					"output":135
				},
				{
					"input":7,
					"interpolation":"LINEAR",
					"output":136
				}
			]
		}
	],
	"materials":[
		{
			"doubleSided":true,
			"extensions":{
				"KHR_materials_specular":{
					"specularColorFactor":[
						2,
						2,
						2
					]
				}
			},
			"name":"Peasant_Man_02",
			"pbrMetallicRoughness":{
				"metallicFactor":0,
				"roughnessFactor":0.7487671971321106
			}
		}
	],
	"meshes":[
		{
			"name":"Peasant_Man",
			"primitives":[
				{
					"attributes":{
						"POSITION":0,
						"NORMAL":1,
						"TEXCOORD_0":2,
						"JOINTS_0":3,
						"WEIGHTS_0":4
					},
					"indices":5,
					"material":0
				}
			]
		}
	],
	"skins":[
		{
			"inverseBindMatrices":6,
			"joints":[
				42,
				31,
				30,
				29,
				4,
				3,
				0,
				1,
				2,
				16,
				15,
				14,
				13,
				8,
				7,
				6,
				5,
				12,
				11,
				10,
				9,
				28,
				27,
				26,
				25,
				20,
				19,
				18,
				17,
				24,
				23,
				22,
				21,
				36,
				35,
				34,
				33,
				32,
				41,
				40,
				39,
				38,
				37
			],
			"name":"Armature"
		}
	],
	"accessors":[
		{
			"bufferView":0,
			"componentType":5126,
			"count":2846,
			"max":[
				1.1591066122055054,
				2.016728162765503,
				0.3908613622188568
			],
			"min":[
				-1.1671477556228638,
				-0.03414706885814667,
				-0.28619688749313354
			],
			"type":"VEC3"
		},
		{
			"bufferView":1,
			"componentType":5126,
			"count":2846,
			"type":"VEC3"
		},
		{
			"bufferView":2,
			"componentType":5126,
			"count":2846,
			"type":"VEC2"
		},
		{
			"bufferView":3,
			"componentType":5121,
			"count":2846,
			"type":"VEC4"
		},
		{
			"bufferView":4,
			"componentType":5126,
			"count":2846,
			"type":"VEC4"
		},
		{
			"bufferView":5,
			"componentType":5123,
			"count":13893,
			"type":"SCALAR"
		},
		{
			"bufferView":6,
			"componentType":5126,
			"count":43,
			"type":"MAT4"
		},
		{
			"bufferView":7,
			"componentType":5126,
			"count":122,
			"max":[
				4.033333333333333
			],
			"min":[
				0
			],
			"type":"SCALAR"
		},
		{
			"bufferView":8,
			"componentType":5126,
			"count":122,
			"type":"VEC3"
		},
		{
			"bufferView":9,
			"componentType":5126,
			"count":122,
			"type":"VEC4"
		},
		{
			"bufferView":10,
			"componentType":5126,
			"count":122,
			"type":"VEC3"
		},
		{
			"bufferView":11,
			"componentType":5126,
			"count":122,
			"type":"VEC3"
		},
		{
			"bufferView":12,
			"componentType":5126,
			"count":122,
			"type":"VEC4"
		},
		{
			"bufferView":13,
			"componentType":5126,
			"count":122,
			"type":"VEC3"
		},
		{
			"bufferView":14,
			"componentType":5126,
			"count":122,
			"type":"VEC3"
		},
		{
			"bufferView":15,
			"componentType":5126,
			"count":122,
			"type":"VEC4"
		},
		{
			"bufferView":16,
			"componentType":5126,
			"count":122,
			"type":"VEC3"
		},
		{
			"bufferView":17,
			"componentType":5126,
			"count":122,
			"type":"VEC3"
		},
		{
			"bufferView":18,
			"componentType":5126,
			"count":122,
			"type":"VEC4"
		},
		{
			"bufferView":19,
			"componentType":5126,
			"count":122,
			"type":"VEC3"
		},
		{
			"bufferView":20,
			"componentType":5126,
			"count":122,
			"type":"VEC3"
		},
		{
			"bufferView":21,
			"componentType":5126,
			"count":122,
			"type":"VEC4"
		},
		{
			"bufferView":22,
			"componentType":5126,
			"count":122,
			"type":"VEC3"
		},
		{
			"bufferView":23,
			"componentType":5126,
			"count":122,
			"type":"VEC3"
		},
		{
			"bufferView":24,
			"componentType":5126,
			"count":122,
			"type":"VEC4"
		},
		{
			"bufferView":25,
			"componentType":5126,
			"count":122,
			"type":"VEC3"
		},
		{
			"bufferView":26,
			"componentType":5126,
			"count":122,
			"type":"VEC3"
		},
		{
			"bufferView":27,
			"componentType":5126,
			"count":122,
			"type":"VEC4"
		},
		{
			"bufferView":28,
			"componentType":5126,
			"count":122,
			"type":"VEC3"
		},
		{
			"bufferView":29,
			"componentType":5126,
			"count":122,
			"type":"VEC3"
		},
		{
			"bufferView":30,
			"componentType":5126,
			"count":122,
			"type":"VEC4"
		},
		{
			"bufferView":31,
			"componentType":5126,
			"count":122,
			"type":"VEC3"
		},
		{
			"bufferView":32,
			"componentType":5126,
			"count":122,
			"type":"VEC3"
		},
		{
			"bufferView":33,
			"componentType":5126,
			"count":122,
			"type":"VEC4"
		},
		{
			"bufferView":34,
			"componentType":5126,
			"count":122,
			"type":"VEC3"
		},
		{
			"bufferView":35,
			"componentType":5126,
			"count":122,
			"type":"VEC3"
		},
		{
			"bufferView":36,
			"componentType":5126,
			"count":122,
			"type":"VEC4"
		},
		{
			"bufferView":37,
			"componentType":5126,
			"count":122,
			"type":"VEC3"
		},
		{
			"bufferView":38,
			"componentType":5126,
			"count":122,
			"type":"VEC3"
		},
		{
			"bufferView":39,
			"componentType":5126,
			"count":122,
			"type":"VEC4"
		},
		{
			"bufferView":40,
			"componentType":5126,
			"count":122,
			"type":"VEC3"
		},
		{
			"bufferView":41,
			"componentType":5126,
			"count":122,
			"type":"VEC3"
		},
		{
			"bufferView":42,
			"componentType":5126,
			"count":122,
			"type":"VEC4"
		},
		{
			"bufferView":43,
			"componentType":5126,
			"count":122,
			"type":"VEC3"
		},
		{
			"bufferView":44,
			"componentType":5126,
			"count":122,
			"type":"VEC3"
		},
		{
			"bufferView":45,
			"componentType":5126,
			"count":122,
			"type":"VEC4"
		},
		{
			"bufferView":46,
			"componentType":5126,
			"count":122,
			"type":"VEC3"
		},
		{
			"bufferView":47,
			"componentType":5126,
			"count":122,
			"type":"VEC3"
		},
		{
			"bufferView":48,
			"componentType":5126,
			"count":122,
			"type":"VEC4"
		},
		{
			"bufferView":49,
			"componentType":5126,
			"count":122,
			"type":"VEC3"
		},
		{
			"bufferView":50,
			"componentType":5126,
			"count":122,
			"type":"VEC3"
		},
		{
			"bufferView":51,
			"componentType":5126,
			"count":122,
			"type":"VEC4"
		},
		{
			"bufferView":52,
			"componentType":5126,
			"count":122,
			"type":"VEC3"
		},
		{
			"bufferView":53,
			"componentType":5126,
			"count":122,
			"type":"VEC3"
		},
		{
			"bufferView":54,
			"componentType":5126,
			"count":122,
			"type":"VEC4"
		},
		{
			"bufferView":55,
			"componentType":5126,
			"count":122,
			"type":"VEC3"
		},
		{
			"bufferView":56,
			"componentType":5126,
			"count":122,
			"type":"VEC3"
		},
		{
			"bufferView":57,
			"componentType":5126,
			"count":122,
			"type":"VEC4"
		},
		{
			"bufferView":58,
			"componentType":5126,
			"count":122,
			"type":"VEC3"
		},
		{
			"bufferView":59,
			"componentType":5126,
			"count":122,
			"type":"VEC3"
		},
		{
			"bufferView":60,
			"componentType":5126,
			"count":122,
			"type":"VEC4"
		},
		{
			"bufferView":61,
			"componentType":5126,
			"count":122,
			"type":"VEC3"
		},
		{
			"bufferView":62,
			"componentType":5126,
			"count":122,
			"type":"VEC3"
		},
		{
			"bufferView":63,
			"componentType":5126,
			"count":122,
			"type":"VEC4"
		},
		{
			"bufferView":64,
			"componentType":5126,
			"count":122,
			"type":"VEC3"
		},
		{
			"bufferView":65,
			"componentType":5126,
			"count":122,
			"type":"VEC3"
		},
		{
			"bufferView":66,
			"componentType":5126,
			"count":122,
			"type":"VEC4"
		},
		{
			"bufferView":67,
			"componentType":5126,
			"count":122,
			"type":"VEC3"
		},
		{
			"bufferView":68,
			"componentType":5126,
			"count":122,
			"type":"VEC3"
		},
		{
			"bufferView":69,
			"componentType":5126,
			"count":122,
			"type":"VEC4"
		},
		{
			"bufferView":70,
			"componentType":5126,
			"count":122,
			"type":"VEC3"
		},
		{
			"bufferView":71,
			"componentType":5126,
			"count":122,
			"type":"VEC3"
		},
		{
			"bufferView":72,
			"componentType":5126,
			"count":122,
			"type":"VEC4"
		},
		{
			"bufferView":73,
			"componentType":5126,
			"count":122,
			"type":"VEC3"
		},
		{
			"bufferView":74,
			"componentType":5126,
			"count":122,
			"type":"VEC3"
		},
		{
			"bufferView":75,
			"componentType":5126,
			"count":122,
			"type":"VEC4"
		},
		{
			"bufferView":76,
			"componentType":5126,
			"count":122,
			"type":"VEC3"
		},
		{
			"bufferView":77,
			"componentType":5126,
			"count":122,
			"type":"VEC3"
		},
		{
			"bufferView":78,
			"componentType":5126,
			"count":122,
			"type":"VEC4"
		},
		{
			"bufferView":79,
			"componentType":5126,
			"count":122,
			"type":"VEC3"
		},
		{
			"bufferView":80,
			"componentType":5126,
			"count":122,
			"type":"VEC3"
		},
		{
			"bufferView":81,
			"componentType":5126,
			"count":122,
			"type":"VEC4"
		},
		{
			"bufferView":82,
			"componentType":5126,
			"count":122,
			"type":"VEC3"
		},
		{
			"bufferView":83,
			"componentType":5126,
			"count":122,
			"type":"VEC3"
		},
		{
			"bufferView":84,
			"componentType":5126,
			"count":122,
			"type":"VEC4"
		},
		{
			"bufferView":85,
			"componentType":5126,
			"count":122,
			"type":"VEC3"
		},
		{
			"bufferView":86,
			"componentType":5126,
			"count":122,
			"type":"VEC3"
		},
		{
			"bufferView":87,
			"componentType":5126,
			"count":122,
			"type":"VEC4"
		},
		{
			"bufferView":88,
			"componentType":5126,
			"count":122,
			"type":"VEC3"
		},
		{
			"bufferView":89,
			"componentType":5126,
			"count":122,
			"type":"VEC3"
		},
		{
			"bufferView":90,
			"componentType":5126,
			"count":122,
			"type":"VEC4"
		},
		{
			"bufferView":91,
			"componentType":5126,
			"count":122,
			"type":"VEC3"
		},
		{
			"bufferView":92,
			"componentType":5126,
			"count":122,
			"type":"VEC3"
		},
		{
			"bufferView":93,
			"componentType":5126,
			"count":122,
			"type":"VEC4"
		},
		{
			"bufferView":94,
			"componentType":5126,
			"count":122,
			"type":"VEC3"
		},
		{
			"bufferView":95,
			"componentType":5126,
			"count":122,
			"type":"VEC3"
		},
		{
			"bufferView":96,
			"componentType":5126,
			"count":122,
			"type":"VEC4"
		},
		{
			"bufferView":97,
			"componentType":5126,
			"count":122,
			"type":"VEC3"
		},
		{
			"bufferView":98,
			"componentType":5126,
			"count":122,
			"type":"VEC3"
		},
		{
			"bufferView":99,
			"componentType":5126,
			"count":122,
			"type":"VEC4"
		},
		{
			"bufferView":100,
			"componentType":5126,
			"count":122,
			"type":"VEC3"
		},
		{
			"bufferView":101,
			"componentType":5126,
			"count":122,
			"type":"VEC3"
		},
		{
			"bufferView":102,
			"componentType":5126,
			"count":122,
			"type":"VEC4"
		},
		{
			"bufferView":103,
			"componentType":5126,
			"count":122,
			"type":"VEC3"
		},
		{
			"bufferView":104,
			"componentType":5126,
			"count":122,
			"type":"VEC3"
		},
		{
			"bufferView":105,
			"componentType":5126,
			"count":122,
			"type":"VEC4"
		},
		{
			"bufferView":106,
			"componentType":5126,
			"count":122,
			"type":"VEC3"
		},
		{
			"bufferView":107,
			"componentType":5126,
			"count":122,
			"type":"VEC3"
		},
		{
			"bufferView":108,
			"componentType":5126,
			"count":122,
			"type":"VEC4"
		},
		{
			"bufferView":109,
			"componentType":5126,
			"count":122,
			"type":"VEC3"
		},
		{
			"bufferView":110,
			"componentType":5126,
			"count":122,
			"type":"VEC3"
		},
		{
			"bufferView":111,
			"componentType":5126,
			"count":122,
			"type":"VEC4"
		},
		{
			"bufferView":112,
			"componentType":5126,
			"count":122,
			"type":"VEC3"
		},
		{
			"bufferView":113,
			"componentType":5126,
			"count":122,
			"type":"VEC3"
		},
		{
			"bufferView":114,
			"componentType":5126,
			"count":122,
			"type":"VEC4"
		},
		{
			"bufferView":115,
			"componentType":5126,
			"count":122,
			"type":"VEC3"
		},
		{
			"bufferView":116,
			"componentType":5126,
			"count":122,
			"type":"VEC3"
		},
		{
			"bufferView":117,
			"componentType":5126,
			"count":122,
			"type":"VEC4"
		},
		{
			"bufferView":118,
			"componentType":5126,
			"count":122,
			"type":"VEC3"
		},
		{
			"bufferView":119,
			"componentType":5126,
			"count":122,
			"type":"VEC3"
		},
		{
			"bufferView":120,
			"componentType":5126,
			"count":122,
			"type":"VEC4"
		},
		{
			"bufferView":121,
			"componentType":5126,
			"count":122,
			"type":"VEC3"
		},
		{
			"bufferView":122,
			"componentType":5126,
			"count":122,
			"type":"VEC3"
		},
		{
			"bufferView":123,
			"componentType":5126,
			"count":122,
			"type":"VEC4"
		},
		{
			"bufferView":124,
			"componentType":5126,
			"count":122,
			"type":"VEC3"
		},
		{
			"bufferView":125,
			"componentType":5126,
			"count":122,
			"type":"VEC3"
		},
		{
			"bufferView":126,
			"componentType":5126,
			"count":122,
			"type":"VEC4"
		},
		{
			"bufferView":127,
			"componentType":5126,
			"count":122,
			"type":"VEC3"
		},
		{
			"bufferView":128,
			"componentType":5126,
			"count":122,
			"type":"VEC3"
		},
		{
			"bufferView":129,
			"componentType":5126,
			"count":122,
			"type":"VEC4"
		},
		{
			"bufferView":130,
			"componentType":5126,
			"count":122,
			"type":"VEC3"
		},
		{
			"bufferView":131,
			"componentType":5126,
			"count":122,
			"type":"VEC3"
		},
		{
			"bufferView":132,
			"componentType":5126,
			"count":122,
			"type":"VEC4"
		},
		{
			"bufferView":133,
			"componentType":5126,
			"count":122,
			"type":"VEC3"
		},
		{
			"bufferView":134,
			"componentType":5126,
			"count":122,
			"type":"VEC3"
		},
		{
			"bufferView":135,
			"componentType":5126,
			"count":122,
			"type":"VEC4"
		},
		{
			"bufferView":136,
			"componentType":5126,
			"count":122,
			"type":"VEC3"
		}
	],
	"bufferViews":[
		{
			"buffer":0,
			"byteLength":34152,
			"byteOffset":0,
			"target":34962
		},
		{
			"buffer":0,
			"byteLength":34152,
			"byteOffset":34152,
			"target":34962
		},
		{
			"buffer":0,
			"byteLength":22768,
			"byteOffset":68304,
			"target":34962
		},
		{
			"buffer":0,
			"byteLength":11384,
			"byteOffset":91072,
			"target":34962
		},
		{
			"buffer":0,
			"byteLength":45536,
			"byteOffset":102456,
			"target":34962
		},
		{
			"buffer":0,
			"byteLength":27786,
			"byteOffset":147992,
			"target":34963
		},
		{
			"buffer":0,
			"byteLength":2752,
			"byteOffset":175780
		},
		{
			"buffer":0,
			"byteLength":488,
			"byteOffset":178532
		},
		{
			"buffer":0,
			"byteLength":1464,
			"byteOffset":179020
		},
		{
			"buffer":0,
			"byteLength":1952,
			"byteOffset":180484
		},
		{
			"buffer":0,
			"byteLength":1464,
			"byteOffset":182436
		},
		{
			"buffer":0,
			"byteLength":1464,
			"byteOffset":183900
		},
		{
			"buffer":0,
			"byteLength":1952,
			"byteOffset":185364
		},
		{
			"buffer":0,
			"byteLength":1464,
			"byteOffset":187316
		},
		{
			"buffer":0,
			"byteLength":1464,
			"byteOffset":188780
		},
		{
			"buffer":0,
			"byteLength":1952,
			"byteOffset":190244
		},
		{
			"buffer":0,
			"byteLength":1464,
			"byteOffset":192196
		},
		{
			"buffer":0,
			"byteLength":1464,
			"byteOffset":193660
		},
		{
			"buffer":0,
			"byteLength":1952,
			"byteOffset":195124
		},
		{
			"buffer":0,
			"byteLength":1464,
			"byteOffset":197076
		},
		{
			"buffer":0,
			"byteLength":1464,
			"byteOffset":198540
		},
		{
			"buffer":0,
			"byteLength":1952,
			"byteOffset":200004
		},
		{
			"buffer":0,
			"byteLength":1464,
			"byteOffset":201956
		},
		{
			"buffer":0,
			"byteLength":1464,
			"byteOffset":203420
		},
		{
			"buffer":0,
			"byteLength":1952,
			"byteOffset":204884
		},
		{
			"buffer":0,
			"byteLength":1464,
			"byteOffset":206836
		},
		{
			"buffer":0,
			"byteLength":1464,
			"byteOffset":208300
		},
		{
			"buffer":0,
			"byteLength":1952,
			"byteOffset":209764
		},
		{
			"buffer":0,
			"byteLength":1464,
			"byteOffset":211716
		},
		{
			"buffer":0,
			"byteLength":1464,
			"byteOffset":213180
		},
		{
			"buffer":0,
			"byteLength":1952,
			"byteOffset":214644
		},
		{
			"buffer":0,
			"byteLength":1464,
			"byteOffset":216596
		},
		{
			"buffer":0,
			"byteLength":1464,
			"byteOffset":218060
		},
		{
			"buffer":0,
			"byteLength":1952,
			"byteOffset":219524
		},
		{
			"buffer":0,
			"byteLength":1464,
			"byteOffset":221476
		},
		{
			"buffer":0,
			"byteLength":1464,
			"byteOffset":222940
		},
		{
			"buffer":0,
			"byteLength":1952,
			"byteOffset":224404
		},
		{
			"buffer":0,
			"byteLength":1464,
			"byteOffset":226356
		},
		{
			"buffer":0,
			"byteLength":1464,
			"byteOffset":227820
		},
		{
			"buffer":0,
			"byteLength":1952,
			"byteOffset":229284
		},
		{
			"buffer":0,
			"byteLength":1464,
			"byteOffset":231236
		},
		{
			"buffer":0,
			"byteLength":1464,
			"byteOffset":232700
		},
		{
			"buffer":0,
			"byteLength":1952,
			"byteOffset":234164
		},
		{
			"buffer":0,
			"byteLength":1464,
			"byteOffset":236116
		},
		{
			"buffer":0,
			"byteLength":1464,
			"byteOffset":237580
		},
		{
			"buffer":0,
			"byteLength":1952,
			"byteOffset":239044
		},
		{
			"buffer":0,
			"byteLength":1464,
			"byteOffset":240996
		},
		{
			"buffer":0,
			"byteLength":1464,
			"byteOffset":242460
		},
		{
			"buffer":0,
			"byteLength":1952,
			"byteOffset":243924
		},
		{
			"buffer":0,
			"byteLength":1464,
			"byteOffset":245876
		},
		{
			"buffer":0,
			"byteLength":1464,
			"byteOffset":247340
		},
		{
			"buffer":0,
			"byteLength":1952,
			"byteOffset":248804
		},
		{
			"buffer":0,
			"byteLength":1464,
			"byteOffset":250756
		},
		{
			"buffer":0,
			"byteLength":1464,
			"byteOffset":252220
		},
		{
			"buffer":0,
			"byteLength":1952,
			"byteOffset":253684
		},
		{
			"buffer":0,
			"byteLength":1464,
			"byteOffset":255636
		},
		{
			"buffer":0,
			"byteLength":1464,
			"byteOffset":257100
		},
		{
			"buffer":0,
			"byteLength":1952,
			"byteOffset":258564
		},
		{
			"buffer":0,
			"byteLength":1464,
			"byteOffset":260516
		},
		{
			"buffer":0,
			"byteLength":1464,
			"byteOffset":261980
		},
		{
			"buffer":0,
			"byteLength":1952,
			"byteOffset":263444
		},
		{
			"buffer":0,
			"byteLength":1464,
			"byteOffset":265396
		},
		{
			"buffer":0,
			"byteLength":1464,
			"byteOffset":266860
		},
		{
			"buffer":0,
			"byteLength":1952,
			"byteOffset":268324
		},
		{
			"buffer":0,
			"byteLength":1464,
			"byteOffset":270276
		},
		{
			"buffer":0,
			"byteLength":1464,
			"byteOffset":271740
		},
		{
			"buffer":0,
			"byteLength":1952,
			"byteOffset":273204
		},
		{
			"buffer":0,
			"byteLength":1464,
			"byteOffset":275156
		},
		{
			"buffer":0,
			"byteLength":1464,
			"byteOffset":276620
		},
		{
			"buffer":0,
			"byteLength":1952,
			"byteOffset":278084
		},
		{
			"buffer":0,
			"byteLength":1464,
			"byteOffset":280036
		},
		{
			"buffer":0,
			"byteLength":1464,
			"byteOffset":281500
		},
		{
			"buffer":0,
			"byteLength":1952,
			"byteOffset":282964
		},
		{
			"buffer":0,
			"byteLength":1464,
			"byteOffset":284916
		},
		{
			"buffer":0,
			"byteLength":1464,
			"byteOffset":286380
		},
		{
			"buffer":0,
			"byteLength":1952,
			"byteOffset":287844
		},
		{
			"buffer":0,
			"byteLength":1464,
			"byteOffset":289796
		},
		{
			"buffer":0,
			"byteLength":1464,
			"byteOffset":291260
		},
		{
			"buffer":0,
			"byteLength":1952,
			"byteOffset":292724
		},
		{
			"buffer":0,
			"byteLength":1464,
			"byteOffset":294676
		},
		{
			"buffer":0,
			"byteLength":1464,
			"byteOffset":296140
		},
		{
			"buffer":0,
			"byteLength":1952,
			"byteOffset":297604
		},
		{
			"buffer":0,
			"byteLength":1464,
			"byteOffset":299556
		},
		{
			"buffer":0,
			"byteLength":1464,
			"byteOffset":301020
		},
		{
			"buffer":0,
			"byteLength":1952,
			"byteOffset":302484
		},
		{
			"buffer":0,
			"byteLength":1464,
			"byteOffset":304436
		},
		{
			"buffer":0,
			"byteLength":1464,
			"byteOffset":305900
		},
		{
			"buffer":0,
			"byteLength":1952,
			"byteOffset":307364
		},
		{
			"buffer":0,
			"byteLength":1464,
			"byteOffset":309316
		},
		{
			"buffer":0,
			"byteLength":1464,
			"byteOffset":310780
		},
		{
			"buffer":0,
			"byteLength":1952,
			"byteOffset":312244
		},
		{
			"buffer":0,
			"byteLength":1464,
			"byteOffset":314196
		},
		{
			"buffer":0,
			"byteLength":1464,
			"byteOffset":315660
		},
		{
			"buffer":0,
			"byteLength":1952,
			"byteOffset":317124
		},
		{
			"buffer":0,
			"byteLength":1464,
			"byteOffset":319076
		},
		{
			"buffer":0,
			"byteLength":1464,
			"byteOffset":320540
		},
		{
			"buffer":0,
			"byteLength":1952,
			"byteOffset":322004
		},
		{
			"buffer":0,
			"byteLength":1464,
			"byteOffset":323956
		},
		{
			"buffer":0,
			"byteLength":1464,
			"byteOffset":325420
		},
		{
			"buffer":0,
			"byteLength":1952,
			"byteOffset":326884
		},
		{
			"buffer":0,
			"byteLength":1464,
			"byteOffset":328836
		},
		{
			"buffer":0,
			"byteLength":1464,
			"byteOffset":330300
		},
		{
			"buffer":0,
			"byteLength":1952,
			"byteOffset":331764
		},
		{
			"buffer":0,
			"byteLength":1464,
			"byteOffset":333716
		},
		{
			"buffer":0,
			"byteLength":1464,
			"byteOffset":335180
		},
		{
			"buffer":0,
			"byteLength":1952,
			"byteOffset":336644
		},
		{
			"buffer":0,
			"byteLength":1464,
			"byteOffset":338596
		},
		{
			"buffer":0,
			"byteLength":1464,
			"byteOffset":340060
		},
		{
			"buffer":0,
			"byteLength":1952,
			"byteOffset":341524
		},
		{
			"buffer":0,
			"byteLength":1464,
			"byteOffset":343476
		},
		{
			"buffer":0,
			"byteLength":1464,
			"byteOffset":344940
		},
		{
			"buffer":0,
			"byteLength":1952,
			"byteOffset":346404
		},
		{
			"buffer":0,
			"byteLength":1464,
			"byteOffset":348356
		},
		{
			"buffer":0,
			"byteLength":1464,
			"byteOffset":349820
		},
		{
			"buffer":0,
			"byteLength":1952,
			"byteOffset":351284
		},
		{
			"buffer":0,
			"byteLength":1464,
			"byteOffset":353236
		},
		{
			"buffer":0,
			"byteLength":1464,
			"byteOffset":354700
		},
		{
			"buffer":0,
			"byteLength":1952,
			"byteOffset":356164
		},
		{
			"buffer":0,
			"byteLength":1464,
			"byteOffset":358116
		},
		{
			"buffer":0,
			"byteLength":1464,
			"byteOffset":359580
		},
		{
			"buffer":0,
			"byteLength":1952,
			"byteOffset":361044
		},
		{
			"buffer":0,
			"byteLength":1464,
			"byteOffset":362996
		},
		{
			"buffer":0,
			"byteLength":1464,
			"byteOffset":364460
		},
		{
			"buffer":0,
			"byteLength":1952,
			"byteOffset":365924
		},
		{
			"buffer":0,
			"byteLength":1464,
			"byteOffset":367876
		},
		{
			"buffer":0,
			"byteLength":1464,
			"byteOffset":369340
		},
		{
			"buffer":0,
			"byteLength":1952,
			"byteOffset":370804
		},
		{
			"buffer":0,
			"byteLength":1464,
			"byteOffset":372756
		},
		{
			"buffer":0,
			"byteLength":1464,
			"byteOffset":374220
		},
		{
			"buffer":0,
			"byteLength":1952,
			"byteOffset":375684
		},
		{
			"buffer":0,
			"byteLength":1464,
			"byteOffset":377636
		},
		{
			"buffer":0,
			"byteLength":1464,
			"byteOffset":379100
		},
		{
			"buffer":0,
			"byteLength":1952,
			"byteOffset":380564
		},
		{
			"buffer":0,
			"byteLength":1464,
			"byteOffset":382516
		},
		{
			"buffer":0,
			"byteLength":1464,
			"byteOffset":383980
		},
		{
			"buffer":0,
			"byteLength":1952,
			"byteOffset":385444
		},
		{
			"buffer":0,
			"byteLength":1464,
			"byteOffset":387396
		}
	],
	"buffers":[
		{
			"byteLength":388860,
			"uri":"male2.bin"
		}
	]
}
