{"scene":0,"asset":{"generator":"ImageToStl.com","version":"2.0"},"scenes":[{"name":"Scene","nodes":[0]}],"nodes":[{"name":"Node0","children":[1]},{"name":"","children":[2]},{"name":"Node","mesh":0,"NodeMesh":{"CalculatedWidth":7999.5,"CalculatedHeight":5499.7060546875,"CalculatedDepth":3999.5,"MaxDimension":7999.5}}],"materials":[{"name":"terrain0","pbrMetallicRoughness":{"baseColorFactor":[1,1,1,1],"metallicFactor":0,"roughnessFactor":1,"baseColorTexture":{"index":0}},"doubleSided":true}],"images":[{"bufferView":0,"name":"","mimeType":"image/png"}],"textures":[{"sampler":0,"source":0}],"samplers":[{"magFilter":9729,"minFilter":9987}],"meshes":[{"name":"Mesh0","primitives":[{"indices":3,"material":0,"attributes":{"POSITION":0,"NORMAL":1,"TEXCOORD_0":2}}]}],"accessors":[{"bufferView":1,"componentType":5126,"count":143243,"type":"VEC3","min":[0,1531.594,-3999.5],"max":[7999.5,3968.112,0]},{"bufferView":2,"componentType":5126,"count":143243,"type":"VEC3"},{"bufferView":3,"componentType":5126,"count":143243,"type":"VEC2"},{"bufferView":4,"componentType":5125,"count":2542212,"type":"SCALAR"}],"bufferViews":[{"buffer":0,"byteLength":71353387,"byteOffset":0},{"buffer":0,"byteLength":1718916,"byteOffset":71353388},{"buffer":0,"byteLength":1718916,"byteOffset":73072304},{"buffer":0,"byteLength":1145944,"byteOffset":74791220},{"buffer":0,"byteLength":10168848,"byteOffset":75937164}],"buffers":[{"byteLength":86106012,"uri":"model.bin"}]}