{
	"asset":{
		"generator":"Khronos glTF Blender I/O v4.1.63",
		"version":"2.0"
	},
	"scene":0,
	"scenes":[
		{
			"name":"Scene",
			"nodes":[
				0
			]
		}
	],
	"nodes":[
		{
			"mesh":0,
			"name":"Box782_temn vert_0",
			"rotation":[
				-0.49070098996162415,
				-0.49264219403266907,
				-0.5072194933891296,
				0.5091608166694641
			],
			"scale":[
				0.0805012509226799,
				0.05594435706734657,
				0.06802181899547577
			],
			"translation":[
				-68.58818817138672,
				10.020089149475098,
				-18.627267837524414
			]
		}
	],
	"materials":[
		{
			"doubleSided":true,
			"name":"Materiale",
			"pbrMetallicRoughness":{
				"baseColorTexture":{
					"index":0
				},
				"metallicFactor":0,
				"roughnessFactor":0.6000000238418579
			}
		}
	],
	"meshes":[
		{
			"name":"Box782_temn vert_0",
			"primitives":[
				{
					"attributes":{
						"POSITION":0,
						"NORMAL":1,
						"TEXCOORD_0":2
					},
					"indices":3,
					"material":0
				}
			]
		}
	],
	"textures":[
		{
			"sampler":0,
			"source":0
		}
	],
	"images":[
		{
			"mimeType":"image/png",
			"name":"Tavolo_corto",
			"uri":"Tavolo_corto.png"
		}
	],
	"accessors":[
		{
			"bufferView":0,
			"componentType":5126,
			"count":554,
			"max":[
				119.33944702148438,
				339.8018798828125,
				94.34884643554688
			],
			"min":[
				-120.7497787475586,
				-334.59375,
				-100.17961883544922
			],
			"type":"VEC3"
		},
		{
			"bufferView":1,
			"componentType":5126,
			"count":554,
			"type":"VEC3"
		},
		{
			"bufferView":2,
			"componentType":5126,
			"count":554,
			"type":"VEC2"
		},
		{
			"bufferView":3,
			"componentType":5123,
			"count":1116,
			"type":"SCALAR"
		}
	],
	"bufferViews":[
		{
			"buffer":0,
			"byteLength":6648,
			"byteOffset":0,
			"target":34962
		},
		{
			"buffer":0,
			"byteLength":6648,
			"byteOffset":6648,
			"target":34962
		},
		{
			"buffer":0,
			"byteLength":4432,
			"byteOffset":13296,
			"target":34962
		},
		{
			"buffer":0,
			"byteLength":2232,
			"byteOffset":17728,
			"target":34963
		}
	],
	"samplers":[
		{
			"magFilter":9729,
			"minFilter":9987
		}
	],
	"buffers":[
		{
			"byteLength":19960,
			"uri":"tavolo_corto.bin"
		}
	]
}
