{
	"asset":{
		"generator":"Khronos glTF Blender I/O v4.1.63",
		"version":"2.0"
	},
	"scene":0,
	"scenes":[
		{
			"name":"Scene",
			"nodes":[
				0
			]
		}
	],
	"nodes":[
		{
			"mesh":0,
			"name":"Box648_temn goriz_0",
			"rotation":[
				-0.5,
				0.5000000596046448,
				0.5,
				0.4999999403953552
			],
			"scale":[
				0.0607236847281456,
				0.06557869911193848,
				0.08442790806293488
			],
			"translation":[
				-64.6270751953125,
				14.088322639465332,
				-103.53237915039062
			]
		}
	],
	"materials":[
		{
			"doubleSided":true,
			"name":"temn_goriz",
			"pbrMetallicRoughness":{
				"baseColorTexture":{
					"index":0
				},
				"metallicFactor":0,
				"roughnessFactor":0.6000000238418579
			}
		}
	],
	"meshes":[
		{
			"name":"Box648_temn goriz_0",
			"primitives":[
				{
					"attributes":{
						"POSITION":0,
						"NORMAL":1,
						"TEXCOORD_0":2
					},
					"indices":3,
					"material":0
				}
			]
		}
	],
	"textures":[
		{
			"sampler":0,
			"source":0
		}
	],
	"images":[
		{
			"mimeType":"image/png",
			"name":"temn_goriz_baseColor",
			"uri":"temn_goriz_baseColor.png"
		}
	],
	"accessors":[
		{
			"bufferView":0,
			"componentType":5126,
			"count":1284,
			"max":[
				345.9383850097656,
				246.73385620117188,
				99.02262878417969
			],
			"min":[
				-347.19158935546875,
				-252.2661590576172,
				-89.86479187011719
			],
			"type":"VEC3"
		},
		{
			"bufferView":1,
			"componentType":5126,
			"count":1284,
			"type":"VEC3"
		},
		{
			"bufferView":2,
			"componentType":5126,
			"count":1284,
			"type":"VEC2"
		},
		{
			"bufferView":3,
			"componentType":5123,
			"count":3804,
			"type":"SCALAR"
		}
	],
	"bufferViews":[
		{
			"buffer":0,
			"byteLength":15408,
			"byteOffset":0,
			"target":34962
		},
		{
			"buffer":0,
			"byteLength":15408,
			"byteOffset":15408,
			"target":34962
		},
		{
			"buffer":0,
			"byteLength":10272,
			"byteOffset":30816,
			"target":34962
		},
		{
			"buffer":0,
			"byteLength":7608,
			"byteOffset":41088,
			"target":34963
		}
	],
	"samplers":[
		{
			"magFilter":9729,
			"minFilter":9987
		}
	],
	"buffers":[
		{
			"byteLength":48696,
			"uri":"tavolo_quadrato.bin"
		}
	]
}
