{
	"asset":{
		"generator":"Khronos glTF Blender I/O v4.1.63",
		"version":"2.0"
	},
	"scene":0,
	"scenes":[
		{
			"name":"Scene",
			"nodes":[
				0
			]
		}
	],
	"nodes":[
		{
			"mesh":0,
			"name":"Cylinder446_Material #184_0",
			"rotation":[
				-0.7071068286895752,
				0,
				0,
				0.7071068286895752
			],
			"scale":[
				0.058858275413513184,
				0.05885828658938408,
				0.05885828658938408
			],
			"translation":[
				48.728050231933594,
				11.64427375793457,
				47.43217468261719
			]
		}
	],
	"materials":[
		{
			"doubleSided":true,
			"name":"vassoio",
			"pbrMetallicRoughness":{
				"baseColorTexture":{
					"index":0
				},
				"metallicFactor":0,
				"roughnessFactor":0.6000000238418579
			}
		}
	],
	"meshes":[
		{
			"name":"Cylinder446_Material #184_0",
			"primitives":[
				{
					"attributes":{
						"POSITION":0,
						"NORMAL":1,
						"TEXCOORD_0":2
					},
					"indices":3,
					"material":0
				}
			]
		}
	],
	"textures":[
		{
			"sampler":0,
			"source":0
		}
	],
	"images":[
		{
			"mimeType":"image/png",
			"name":"vassoio",
			"uri":"vassoio.png"
		}
	],
	"accessors":[
		{
			"bufferView":0,
			"componentType":5126,
			"count":3777,
			"max":[
				84.95520782470703,
				83.66455078125,
				22.499345779418945
			],
			"min":[
				-84.95520782470703,
				-83.66455841064453,
				-8.850561141967773
			],
			"type":"VEC3"
		},
		{
			"bufferView":1,
			"componentType":5126,
			"count":3777,
			"type":"VEC3"
		},
		{
			"bufferView":2,
			"componentType":5126,
			"count":3777,
			"type":"VEC2"
		},
		{
			"bufferView":3,
			"componentType":5123,
			"count":10044,
			"type":"SCALAR"
		}
	],
	"bufferViews":[
		{
			"buffer":0,
			"byteLength":45324,
			"byteOffset":0,
			"target":34962
		},
		{
			"buffer":0,
			"byteLength":45324,
			"byteOffset":45324,
			"target":34962
		},
		{
			"buffer":0,
			"byteLength":30216,
			"byteOffset":90648,
			"target":34962
		},
		{
			"buffer":0,
			"byteLength":20088,
			"byteOffset":120864,
			"target":34963
		}
	],
	"samplers":[
		{
			"magFilter":9729,
			"minFilter":9987
		}
	],
	"buffers":[
		{
			"byteLength":140952,
			"uri":"vassoio.bin"
		}
	]
}
