{
	"asset":{
		"generator":"Khronos glTF Blender I/O v5.0.21",
		"version":"2.0"
	},
	"extensionsUsed":[
		"KHR_materials_specular"
	],
	"scene":0,
	"scenes":[
		{
			"name":"Scene",
			"nodes":[
				44
			]
		}
	],
	"nodes":[
		{
			"name":"mixamorig:HeadTop_End",
			"rotation":[
				-3.552713678800501e-15,
				-5.551118431848233e-17,
				1.6543612251060553e-23,
				1
			],
			"translation":[
				-1.786985990293033e-07,
				35.6883544921875,
				4.51151180267334
			]
		},
		{
			"name":"mixamorig:Reye",
			"rotation":[
				-3.552713678800501e-15,
				-5.551118431848233e-17,
				1.6543612251060553e-23,
				1
			],
			"translation":[
				-5.243907451629639,
				17.465423583984375,
				10.796661376953125
			]
		},
		{
			"name":"mixamorig:Leye",
			"rotation":[
				-3.552713678800501e-15,
				-5.551118431848233e-17,
				1.6543612251060553e-23,
				1
			],
			"translation":[
				5.362377643585205,
				17.465423583984375,
				10.796661376953125
			]
		},
		{
			"children":[
				0,
				1,
				2
			],
			"name":"mixamorig:Head",
			"rotation":[
				-3.552713678800501e-15,
				-5.55107210973393e-17,
				-1.2577163635107795e-14,
				1
			],
			"translation":[
				-3.8800472168531996e-08,
				8.300674438476562,
				3.339198112487793
			]
		},
		{
			"children":[
				3
			],
			"name":"mixamorig:Neck",
			"rotation":[
				0.002827713033184409,
				-1.0992279948687095e-13,
				-3.456492253875454e-12,
				0.9999960064888
			],
			"translation":[
				1.3266388123156503e-05,
				26.668540954589844,
				-1.206734299659729
			]
		},
		{
			"name":"mixamorig:LeftHandThumb4",
			"rotation":[
				0.009151022881269455,
				0.1256391555070877,
				0.07207879424095154,
				0.9894118309020996
			],
			"scale":[
				1,
				0.9999998211860657,
				1
			],
			"translation":[
				6.288290023803711e-05,
				4.4128804206848145,
				-5.258619785308838e-05
			]
		},
		{
			"children":[
				5
			],
			"name":"mixamorig:LeftHandThumb3",
			"rotation":[
				2.0050210878252983e-06,
				-2.032145857810974e-06,
				-7.258727691805689e-06,
				1
			],
			"scale":[
				1,
				1.0000001192092896,
				1
			],
			"translation":[
				-2.3663043975830078e-05,
				5.797194004058838,
				5.597621202468872e-05
			]
		},
		{
			"children":[
				6
			],
			"name":"mixamorig:LeftHandThumb2",
			"rotation":[
				3.2456591725349426e-07,
				1.5634577721357346e-07,
				7.636845111846924e-08,
				1
			],
			"scale":[
				1,
				1,
				0.9999998807907104
			],
			"translation":[
				1.5556812286376953e-05,
				5.049849987030029,
				7.88271427154541e-06
			]
		},
		{
			"children":[
				7
			],
			"name":"mixamorig:LeftHandThumb1",
			"rotation":[
				0.24860724806785583,
				-0.05868825316429138,
				0.22213372588157654,
				0.9409605860710144
			],
			"scale":[
				1,
				0.9999999403953552,
				1
			],
			"translation":[
				-7.403573513031006,
				10.42658805847168,
				3.7019975185394287
			]
		},
		{
			"name":"mixamorig:LeftHandIndex4",
			"rotation":[
				-6.261687701680785e-08,
				0.0040015350095927715,
				1.613931635802146e-05,
				0.9999920129776001
			],
			"scale":[
				1,
				0.9999999403953552,
				1
			],
			"translation":[
				7.247552275657654e-06,
				3.1996195316314697,
				-5.545800377149135e-06
			]
		},
		{
			"children":[
				9
			],
			"name":"mixamorig:LeftHandIndex3",
			"rotation":[
				-6.019577085680794e-07,
				-5.3744606987038424e-08,
				9.005925676319748e-06,
				1
			],
			"translation":[
				-8.903443813323975e-07,
				5.1075029373168945,
				-1.473258453188464e-05
			]
		},
		{
			"children":[
				10
			],
			"name":"mixamorig:LeftHandIndex2",
			"rotation":[
				5.950456397840753e-06,
				1.7181343991978792e-07,
				-6.043266012056847e-07,
				1
			],
			"translation":[
				-3.870576620101929e-06,
				5.146153926849365,
				1.3997923815622926e-06
			]
		},
		{
			"children":[
				11
			],
			"name":"mixamorig:LeftHandIndex1",
			"rotation":[
				-0.0034976124297827482,
				-1.1655548348699085e-07,
				4.409810117067536e-06,
				0.9999939203262329
			],
			"translation":[
				-0.00011027045547962189,
				22.74836540222168,
				-0.1590614765882492
			]
		},
		{
			"children":[
				8,
				12
			],
			"name":"mixamorig:LeftHand",
			"rotation":[
				-3.8773080746068445e-08,
				9.101351139406688e-08,
				-1.4503655165754026e-06,
				1
			],
			"scale":[
				1.0000001192092896,
				1,
				1.0000001192092896
			],
			"translation":[
				0.00018090568482875824,
				31.83475112915039,
				5.601256361842388e-06
			]
		},
		{
			"children":[
				13
			],
			"name":"mixamorig:LeftForeArm",
			"rotation":[
				0.003495535347610712,
				-3.0529477953678e-05,
				0.008724509738385677,
				0.9999558329582214
			],
			"scale":[
				0.9999999403953552,
				1,
				1
			],
			"translation":[
				1.0472294889041223e-06,
				32.3276252746582,
				5.0902614020742476e-05
			]
		},
		{
			"children":[
				14
			],
			"name":"mixamorig:LeftArm",
			"rotation":[
				-0.23726777732372284,
				-0.0008945366716943681,
				0.0036640060134232044,
				0.9714369773864746
			],
			"scale":[
				1,
				1.000000238418579,
				1.0000001192092896
			],
			"translation":[
				3.725290298461914e-07,
				11.940491676330566,
				-3.101417314610444e-05
			]
		},
		{
			"children":[
				15
			],
			"name":"mixamorig:LeftShoulder",
			"rotation":[
				0.6039969325065613,
				0.371075302362442,
				-0.6046897768974304,
				0.3630993068218231
			],
			"scale":[
				0.9999998211860657,
				0.9999998211860657,
				0.9999998807907104
			],
			"translation":[
				14.211849212646484,
				23.22739028930664,
				-1.2685569524765015
			]
		},
		{
			"name":"mixamorig:RightHandThumb4",
			"rotation":[
				0.009239514358341694,
				-0.12713004648685455,
				-0.07232839614152908,
				0.9892023205757141
			],
			"scale":[
				0.9999998807907104,
				0.9999998211860657,
				0.9999997019767761
			],
			"translation":[
				6.985664367675781e-05,
				4.412881851196289,
				-5.289912223815918e-07
			]
		},
		{
			"children":[
				17
			],
			"name":"mixamorig:RightHandThumb3",
			"rotation":[
				-4.85801137983799e-07,
				2.1641611169798125e-07,
				1.862645149230957e-08,
				1
			],
			"scale":[
				0.9999999403953552,
				1,
				0.9999999403953552
			],
			"translation":[
				-4.5299530029296875e-06,
				6.146451950073242,
				5.707144737243652e-06
			]
		},
		{
			"children":[
				18
			],
			"name":"mixamorig:RightHandThumb2",
			"rotation":[
				-2.8870999813079834e-08,
				2.2747553884983063e-07,
				1.6950069436916237e-07,
				1
			],
			"scale":[
				1.0000001192092896,
				1,
				0.9999999403953552
			],
			"translation":[
				-4.5299530029296875e-06,
				5.770452499389648,
				-8.07642936706543e-06
			]
		},
		{
			"children":[
				19
			],
			"name":"mixamorig:RightHandThumb1",
			"rotation":[
				0.24864472448825836,
				0.058696549385786057,
				-0.22213008999824524,
				0.9409509897232056
			],
			"scale":[
				1,
				0.9999998211860657,
				1
			],
			"translation":[
				4.772995471954346,
				10.394062995910645,
				3.788093090057373
			]
		},
		{
			"name":"mixamorig:RightHandIndex4",
			"rotation":[
				-7.41982294130139e-05,
				-0.006709214299917221,
				0.0013778619468212128,
				0.9999765157699585
			],
			"scale":[
				0.9999998807907104,
				1,
				0.9999998807907104
			],
			"translation":[
				-2.4273991584777832e-05,
				5.40540885925293,
				-6.1332539189606905e-06
			]
		},
		{
			"children":[
				21
			],
			"name":"mixamorig:RightHandIndex3",
			"rotation":[
				-1.0477016587628896e-07,
				-8.346344948506612e-09,
				-7.452420014431027e-09,
				1
			],
			"scale":[
				0.9999999403953552,
				0.9999998807907104,
				0.9999998807907104
			],
			"translation":[
				1.979060471057892e-05,
				5.031888484954834,
				-1.6307312762364745e-05
			]
		},
		{
			"children":[
				22
			],
			"name":"mixamorig:RightHandIndex2",
			"rotation":[
				1.8791197931022907e-07,
				7.929302547893258e-09,
				8.397684325700538e-09,
				1
			],
			"scale":[
				0.9999999403953552,
				0.9999998807907104,
				0.9999998807907104
			],
			"translation":[
				8.381903171539307e-08,
				5.741791725158691,
				-3.1545059755444527e-06
			]
		},
		{
			"children":[
				23
			],
			"name":"mixamorig:RightHandIndex1",
			"rotation":[
				-0.0034548374824225903,
				-7.276822344692846e-08,
				-3.7565946513495874e-06,
				0.9999940395355225
			],
			"scale":[
				1.0000001192092896,
				0.9999998807907104,
				1
			],
			"translation":[
				0.00010345317423343658,
				21.102985382080078,
				-0.14586879312992096
			]
		},
		{
			"children":[
				20,
				24
			],
			"name":"mixamorig:RightHand",
			"rotation":[
				1.4915713109076023e-07,
				-1.1385932907614915e-07,
				5.959727218396438e-07,
				1
			],
			"scale":[
				0.9999999403953552,
				0.9999999403953552,
				0.9999999403953552
			],
			"translation":[
				-7.64802098274231e-05,
				32.16886901855469,
				1.276070236144733e-07
			]
		},
		{
			"children":[
				25
			],
			"name":"mixamorig:RightForeArm",
			"rotation":[
				0.00345662166364491,
				3.0253857403295115e-05,
				-0.008725362829864025,
				0.999955952167511
			],
			"scale":[
				0.9999999403953552,
				1.0000001192092896,
				1
			],
			"translation":[
				-1.311109372181818e-07,
				32.32758712768555,
				-2.2081365386839025e-05
			]
		},
		{
			"children":[
				26
			],
			"name":"mixamorig:RightArm",
			"rotation":[
				-0.23726767301559448,
				0.0008945287554524839,
				-0.003663999494165182,
				0.9714370369911194
			],
			"scale":[
				1,
				1,
				0.9999998807907104
			],
			"translation":[
				-5.960464477539062e-07,
				11.940531730651855,
				-4.533864193945192e-05
			]
		},
		{
			"children":[
				27
			],
			"name":"mixamorig:RightShoulder",
			"rotation":[
				0.603996992111206,
				-0.37107527256011963,
				0.6046897768974304,
				0.36309927701950073
			],
			"scale":[
				0.9999998211860657,
				1,
				1
			],
			"translation":[
				-14.211807250976562,
				23.22739028930664,
				-1.2685558795928955
			]
		},
		{
			"children":[
				4,
				16,
				28
			],
			"name":"mixamorig:Spine2",
			"rotation":[
				-0.01783047989010811,
				3.797930665707522e-13,
				2.1879421885362405e-11,
				0.999841034412384
			],
			"translation":[
				-2.8131755258620217e-10,
				10.089552879333496,
				-5.364418029785156e-07
			]
		},
		{
			"children":[
				29
			],
			"name":"mixamorig:Spine1",
			"rotation":[
				0.012704775668680668,
				-1.8969737889881766e-13,
				-1.559333391576434e-11,
				0.9999192953109741
			],
			"translation":[
				-9.057005145862718e-11,
				10.372540473937988,
				-7.450580596923828e-07
			]
		},
		{
			"children":[
				30
			],
			"name":"mixamorig:Spine",
			"rotation":[
				-0.01245447900146246,
				-2.587832170775073e-10,
				2.080722083519504e-08,
				0.9999224543571472
			],
			"scale":[
				1,
				0.9999999403953552,
				0.9999998807907104
			],
			"translation":[
				-3.889740973761491e-09,
				14.658921241760254,
				-1.4901161193847656e-06
			]
		},
		{
			"name":"mixamorig:LeftToe_End",
			"rotation":[
				8.772190973616034e-09,
				-9.850115390008796e-09,
				8.089448555459455e-10,
				1
			],
			"scale":[
				1,
				0.9999999403953552,
				0.9999999403953552
			],
			"translation":[
				-2.299146046880196e-07,
				13.382978439331055,
				3.557652235031128e-07
			]
		},
		{
			"children":[
				32
			],
			"name":"mixamorig:LeftToeBase",
			"rotation":[
				0.39765381813049316,
				-0.03694944828748703,
				-0.010126981884241104,
				0.9167352914810181
			],
			"translation":[
				-4.6060863496677484e-06,
				23.784873962402344,
				-7.927417755126953e-06
			]
		},
		{
			"children":[
				33
			],
			"name":"mixamorig:LeftFoot",
			"rotation":[
				0.44684743881225586,
				0.008578390814363956,
				0.03759033977985382,
				0.893778920173645
			],
			"scale":[
				0.9999998211860657,
				1,
				0.9999998211860657
			],
			"translation":[
				-4.286877810955048e-06,
				40.577396392822266,
				6.07222318649292e-06
			]
		},
		{
			"children":[
				34
			],
			"name":"mixamorig:LeftLeg",
			"rotation":[
				-0.11903391778469086,
				0.006557231768965721,
				0.00037157416227273643,
				0.9928684830665588
			],
			"scale":[
				0.9999999403953552,
				0.9999999403953552,
				1
			],
			"translation":[
				2.942979335784912e-06,
				35.9040641784668,
				2.5480985641479492e-06
			]
		},
		{
			"children":[
				35
			],
			"name":"mixamorig:LeftUpLeg",
			"rotation":[
				0.0029724733904004097,
				0.06115125119686127,
				0.9981240034103394,
				0.00042048460454680026
			],
			"scale":[
				1,
				1.0000001192092896,
				1.000004768371582
			],
			"translation":[
				13.02590560913086,
				-7.109732151031494,
				1.06862473487854
			]
		},
		{
			"name":"mixamorig:RightToe_End",
			"rotation":[
				1.037307129081455e-08,
				2.618531524944956e-08,
				2.6642577033442194e-09,
				1
			],
			"scale":[
				1,
				1,
				1.0000001192092896
			],
			"translation":[
				-1.8860407635656884e-06,
				13.382898330688477,
				3.3318065106868744e-07
			]
		},
		{
			"children":[
				37
			],
			"name":"mixamorig:RightToeBase",
			"rotation":[
				0.39795440435409546,
				0.033772703260183334,
				0.018089376389980316,
				0.9166048765182495
			],
			"scale":[
				1.0000001192092896,
				1.0000001192092896,
				1.0000001192092896
			],
			"translation":[
				2.955698391815531e-06,
				23.784833908081055,
				-1.0758638381958008e-05
			]
		},
		{
			"children":[
				38
			],
			"name":"mixamorig:RightFoot",
			"rotation":[
				0.4468519985675812,
				-0.008752593770623207,
				-0.03752674162387848,
				0.8937776684761047
			],
			"scale":[
				0.9999998807907104,
				1.000000238418579,
				1.000000238418579
			],
			"translation":[
				-6.184913218021393e-06,
				40.57737350463867,
				1.1689960956573486e-05
			]
		},
		{
			"children":[
				39
			],
			"name":"mixamorig:RightLeg",
			"rotation":[
				-0.11903239041566849,
				-0.006371419411152601,
				-0.0003486290806904435,
				0.9928699135780334
			],
			"scale":[
				0.9999999403953552,
				1.0000001192092896,
				1
			],
			"translation":[
				4.507601261138916e-06,
				35.90407943725586,
				-1.9103288650512695e-05
			]
		},
		{
			"children":[
				40
			],
			"name":"mixamorig:RightUpLeg",
			"rotation":[
				0.002970821224153042,
				-0.06115071475505829,
				-0.9981240630149841,
				0.0003965891373809427
			],
			"scale":[
				0.9999999403953552,
				1,
				1.0000108480453491
			],
			"translation":[
				-13.025906562805176,
				-7.109725475311279,
				1.0686193704605103
			]
		},
		{
			"children":[
				31,
				36,
				41
			],
			"name":"mixamorig:Hips",
			"rotation":[
				-0.6965980529785156,
				-1.4925069180549144e-08,
				-1.4491051025800061e-08,
				0.7174616456031799
			],
			"scale":[
				1,
				0.9999999403953552,
				0.9999999403953552
			],
			"translation":[
				3.2744753752922406e-07,
				-0.9537845849990845,
				-100.02901458740234
			]
		},
		{
			"mesh":0,
			"name":"Guard02",
			"skin":0
		},
		{
			"children":[
				43,
				42
			],
			"name":"Armature",
			"rotation":[
				0.7071068286895752,
				0,
				0,
				0.7071068286895752
			],
			"scale":[
				0.009999999776482582,
				0.009999999776482582,
				0.009999999776482582
			]
		}
	],
	"materials":[
		{
			"doubleSided":true,
			"extensions":{
				"KHR_materials_specular":{
					"specularColorFactor":[
						2.0,
						2.0,
						2.0
					],
					"specularColorTexture":{
						"index":0
					}
				}
			},
			"name":"Guard_02",
			"normalTexture":{
				"index":1
			},
			"pbrMetallicRoughness":{
				"baseColorTexture":{
					"index":2
				},
				"metallicFactor":0,
				"roughnessFactor":0.7487671971321106
			}
		}
	],
	"meshes":[
		{
			"name":"Guard02_ncl1_1",
			"primitives":[
				{
					"attributes":{
						"POSITION":0,
						"NORMAL":1,
						"TEXCOORD_0":2,
						"JOINTS_0":3,
						"WEIGHTS_0":4
					},
					"indices":5,
					"material":0
				}
			]
		}
	],
	"textures":[
		{
			"sampler":0,
			"source":0
		},
		{
			"sampler":0,
			"source":1
		},
		{
			"sampler":0,
			"source":2
		}
	],
	"images":[
		{
			"mimeType":"image/png",
			"name":"Guard_02__specular",
			"uri":"Guard_02__specular.png"
		},
		{
			"mimeType":"image/png",
			"name":"Guard_02__normal",
			"uri":"Guard_02__normal.png"
		},
		{
			"mimeType":"image/png",
			"name":"Guard_02__diffuse",
			"uri":"Guard_02__diffuse.png"
		}
	],
	"skins":[
		{
			"inverseBindMatrices":6,
			"joints":[
				42,
				31,
				30,
				29,
				4,
				3,
				0,
				1,
				2,
				16,
				15,
				14,
				13,
				8,
				7,
				6,
				5,
				12,
				11,
				10,
				9,
				28,
				27,
				26,
				25,
				20,
				19,
				18,
				17,
				24,
				23,
				22,
				21,
				36,
				35,
				34,
				33,
				32,
				41,
				40,
				39,
				38,
				37
			],
			"name":"Armature"
		}
	],
	"accessors":[
		{
			"bufferView":0,
			"componentType":5126,
			"count":2794,
			"max":[
				1.263690710067749,
				2.0970020294189453,
				0.29574352502822876
			],
			"min":[
				-1.2729265689849854,
				-0.01901562698185444,
				-0.24792902171611786
			],
			"type":"VEC3"
		},
		{
			"bufferView":1,
			"componentType":5126,
			"count":2794,
			"type":"VEC3"
		},
		{
			"bufferView":2,
			"componentType":5126,
			"count":2794,
			"type":"VEC2"
		},
		{
			"bufferView":3,
			"componentType":5121,
			"count":2794,
			"type":"VEC4"
		},
		{
			"bufferView":4,
			"componentType":5126,
			"count":2794,
			"type":"VEC4"
		},
		{
			"bufferView":5,
			"componentType":5123,
			"count":13593,
			"type":"SCALAR"
		},
		{
			"bufferView":6,
			"componentType":5126,
			"count":43,
			"type":"MAT4"
		}
	],
	"bufferViews":[
		{
			"buffer":0,
			"byteLength":33528,
			"byteOffset":0,
			"target":34962
		},
		{
			"buffer":0,
			"byteLength":33528,
			"byteOffset":33528,
			"target":34962
		},
		{
			"buffer":0,
			"byteLength":22352,
			"byteOffset":67056,
			"target":34962
		},
		{
			"buffer":0,
			"byteLength":11176,
			"byteOffset":89408,
			"target":34962
		},
		{
			"buffer":0,
			"byteLength":44704,
			"byteOffset":100584,
			"target":34962
		},
		{
			"buffer":0,
			"byteLength":27186,
			"byteOffset":145288,
			"target":34963
		},
		{
			"buffer":0,
			"byteLength":2752,
			"byteOffset":172476
		}
	],
	"samplers":[
		{
			"magFilter":9729,
			"minFilter":9987
		}
	],
	"buffers":[
		{
			"byteLength":175228,
			"uri":"guard_npc.bin"
		}
	]
}
