{
	"asset":{
		"generator":"Khronos glTF Blender I/O v5.1.19",
		"version":"2.0"
	},
	"scene":0,
	"scenes":[
		{
			"name":"Scene",
			"nodes":[
				0
			]
		}
	],
	"nodes":[
		{
			"mesh":0,
			"name":"Skydome",
			"rotation":[
				0.7071068286895752,
				0,
				0,
				0.7071068286895752
			]
		}
	],
	"meshes":[
		{
			"name":"Skydome",
			"primitives":[
				{
					"attributes":{
						"POSITION":0,
						"NORMAL":1,
						"TEXCOORD_0":2
					},
					"indices":3
				}
			]
		}
	],
	"accessors":[
		{
			"bufferView":0,
			"componentType":5126,
			"count":4222,
			"max":[
				500,
				500,
				500
			],
			"min":[
				-500,
				-500,
				-500
			],
			"type":"VEC3"
		},
		{
			"bufferView":1,
			"componentType":5126,
			"count":4222,
			"type":"VEC3"
		},
		{
			"bufferView":2,
			"componentType":5126,
			"count":4222,
			"type":"VEC2"
		},
		{
			"bufferView":3,
			"componentType":5123,
			"count":6144,
			"type":"SCALAR"
		}
	],
	"bufferViews":[
		{
			"buffer":0,
			"byteLength":50664,
			"byteOffset":0,
			"target":34962
		},
		{
			"buffer":0,
			"byteLength":50664,
			"byteOffset":50664,
			"target":34962
		},
		{
			"buffer":0,
			"byteLength":33776,
			"byteOffset":101328,
			"target":34962
		},
		{
			"buffer":0,
			"byteLength":12288,
			"byteOffset":135104,
			"target":34963
		}
	],
	"buffers":[
		{
			"byteLength":147392,
			"uri":"skydome.bin"
		}
	]
}
