{
	"asset":{
		"generator":"Khronos glTF Blender I/O v5.1.19",
		"version":"2.0"
	},
	"extensionsUsed":[
		"KHR_materials_specular"
	],
	"scene":0,
	"scenes":[
		{
			"name":"Scene",
			"nodes":[
				70
			]
		}
	],
	"nodes":[
		{
			"name":"mixamorig:HeadTop_End",
			"rotation":[
				-9.66247259981401e-09,
				-1.1175872671742582e-08,
				-1.1175872671742582e-08,
				1
			],
			"scale":[
				0.9999999403953552,
				0.9999999403953552,
				0.9999999403953552
			],
			"translation":[
				3.6954879760742188e-06,
				31.15802001953125,
				3.7295188903808594
			]
		},
		{
			"name":"mixamorig:LeftEye",
			"rotation":[
				-9.66247259981401e-09,
				-1.1175872671742582e-08,
				-1.1175872671742582e-08,
				1
			],
			"scale":[
				0.9999999403953552,
				0.9999999403953552,
				0.9999999403953552
			],
			"translation":[
				4.36463737487793,
				5.59327507019043,
				8.90710163116455
			]
		},
		{
			"name":"mixamorig:RightEye",
			"rotation":[
				-9.66247259981401e-09,
				-1.1175872671742582e-08,
				-1.1175872671742582e-08,
				1
			],
			"scale":[
				0.9999999403953552,
				0.9999999403953552,
				0.9999999403953552
			],
			"translation":[
				-4.364660263061523,
				5.592862606048584,
				8.907099723815918
			]
		},
		{
			"children":[
				0,
				1,
				2
			],
			"name":"mixamorig:Head",
			"rotation":[
				-0.08808082342147827,
				-0.21806058287620544,
				0.07838284969329834,
				0.9687865972518921
			],
			"scale":[
				1.0000001192092896,
				1,
				1.0000001192092896
			],
			"translation":[
				2.7120113372802734e-06,
				10.036022186279297,
				2.6833505630493164
			]
		},
		{
			"children":[
				3
			],
			"name":"mixamorig:Neck",
			"rotation":[
				0.012175806798040867,
				-0.03701940178871155,
				-0.014958629384636879,
				0.9991284608840942
			],
			"scale":[
				1,
				0.9999998807907104,
				0.9999999403953552
			],
			"translation":[
				1.4901161193847656e-06,
				23.5733699798584,
				-4.474081039428711
			]
		},
		{
			"name":"mixamorig:LeftHandThumb4",
			"rotation":[
				3.2596296772879896e-09,
				-1.8626438169633275e-09,
				-1.6763806343078613e-08,
				1
			],
			"scale":[
				1,
				1.0000001192092896,
				0.9999998211860657
			],
			"translation":[
				1.430511474609375e-06,
				4.614058494567871,
				1.6093254089355469e-06
			]
		},
		{
			"children":[
				5
			],
			"name":"mixamorig:LeftHandThumb3",
			"rotation":[
				-0.13091374933719635,
				-0.015501518733799458,
				-0.12436789274215698,
				0.9834398627281189
			],
			"scale":[
				0.9999998807907104,
				0.9999998211860657,
				1
			],
			"translation":[
				-6.198883056640625e-06,
				2.3300251960754395,
				-6.079673767089844e-06
			]
		},
		{
			"children":[
				6
			],
			"name":"mixamorig:LeftHandThumb2",
			"rotation":[
				0.0020128898322582245,
				-0.07273078709840775,
				-0.4049798548221588,
				0.9114261269569397
			],
			"scale":[
				1.0000001192092896,
				1,
				1
			],
			"translation":[
				-5.125999450683594e-06,
				1.9374420642852783,
				3.5762786865234375e-07
			]
		},
		{
			"children":[
				7
			],
			"name":"mixamorig:LeftHandThumb1",
			"rotation":[
				0.3363955020904541,
				0.08486568182706833,
				0.33036884665489197,
				0.8777769207954407
			],
			"scale":[
				1,
				1.0000001192092896,
				1
			],
			"translation":[
				-5.114400863647461,
				4.227268695831299,
				0.2539329528808594
			]
		},
		{
			"name":"mixamorig:LeftHandIndex4",
			"rotation":[
				1.6763808119435453e-08,
				0,
				3.725290742551124e-09,
				1
			],
			"scale":[
				0.9999998807907104,
				0.9999999403953552,
				0.9999998807907104
			],
			"translation":[
				0,
				4.387290954589844,
				4.76837158203125e-07
			]
		},
		{
			"children":[
				9
			],
			"name":"mixamorig:LeftHandIndex3",
			"rotation":[
				0.20442944765090942,
				-4.544067522260775e-08,
				-0.021142128854990005,
				0.9786529541015625
			],
			"scale":[
				1,
				0.9999998807907104,
				1
			],
			"translation":[
				-1.430511474609375e-06,
				3.00260066986084,
				1.1324882507324219e-05
			]
		},
		{
			"children":[
				10
			],
			"name":"mixamorig:LeftHandIndex2",
			"rotation":[
				0.204429492354393,
				6.827996656966207e-08,
				-0.02114204876124859,
				0.9786529541015625
			],
			"scale":[
				0.9999999403953552,
				1,
				0.9999998807907104
			],
			"translation":[
				4.76837158203125e-07,
				2.4556198120117188,
				-3.0994415283203125e-06
			]
		},
		{
			"children":[
				11
			],
			"name":"mixamorig:LeftHandIndex1",
			"rotation":[
				0.4690873920917511,
				0.009198859333992004,
				-0.026957359164953232,
				0.8826923370361328
			],
			"scale":[
				1,
				1,
				1.0000001192092896
			],
			"translation":[
				-2.3563976287841797,
				11.078721046447754,
				0.08544397354125977
			]
		},
		{
			"name":"mixamorig:LeftHandMiddle4",
			"rotation":[
				-1.862645149230957e-09,
				1.1175870007207322e-08,
				-1.862644793959589e-08,
				1
			],
			"scale":[
				1.000000238418579,
				1,
				1
			],
			"translation":[
				4.76837158203125e-07,
				4.647440433502197,
				-2.384185791015625e-06
			]
		},
		{
			"children":[
				13
			],
			"name":"mixamorig:LeftHandMiddle3",
			"rotation":[
				0.20442959666252136,
				-8.874017964899394e-08,
				-0.021142030134797096,
				0.9786528944969177
			],
			"scale":[
				0.9999998807907104,
				1.0000001192092896,
				1
			],
			"translation":[
				-1.430511474609375e-06,
				2.999436140060425,
				-9.5367431640625e-07
			]
		},
		{
			"children":[
				14
			],
			"name":"mixamorig:LeftHandMiddle2",
			"rotation":[
				0.20442944765090942,
				2.0222290686433553e-07,
				-0.021141979843378067,
				0.9786529541015625
			],
			"scale":[
				0.9999999403953552,
				0.9999998807907104,
				1.0000001192092896
			],
			"translation":[
				-2.86102294921875e-06,
				3.1129894256591797,
				-1.1920928955078125e-07
			]
		},
		{
			"children":[
				15
			],
			"name":"mixamorig:LeftHandMiddle1",
			"rotation":[
				0.4521297812461853,
				-0.009438028559088707,
				-0.06661080569028854,
				0.8894113898277283
			],
			"scale":[
				1,
				1.0000001192092896,
				1
			],
			"translation":[
				0.02408003807067871,
				11.042716979980469,
				-0.04800915718078613
			]
		},
		{
			"name":"mixamorig:LeftHandRing4",
			"rotation":[
				4.440892098500626e-16,
				8.881784197001252e-16,
				-9.313223969797946e-09,
				1
			],
			"scale":[
				0.9999998807907104,
				1.0000001192092896,
				1
			],
			"translation":[
				1.430511474609375e-06,
				4.015281677246094,
				1.6689300537109375e-06
			]
		},
		{
			"children":[
				17
			],
			"name":"mixamorig:LeftHandRing3",
			"rotation":[
				0.20443953573703766,
				6.447355360705842e-08,
				-0.021143091842532158,
				0.9786508679389954
			],
			"scale":[
				0.9999999403953552,
				0.9999997615814209,
				0.9999998211860657
			],
			"translation":[
				-9.5367431640625e-07,
				2.678466796875,
				2.9802322387695312e-06
			]
		},
		{
			"children":[
				18
			],
			"name":"mixamorig:LeftHandRing2",
			"rotation":[
				0.2048623263835907,
				-1.3728649150834826e-07,
				-0.02118695341050625,
				0.978561520576477
			],
			"scale":[
				1,
				1.0000001192092896,
				0.9999999403953552
			],
			"translation":[
				3.337860107421875e-06,
				2.984818458557129,
				-3.993511199951172e-06
			]
		},
		{
			"children":[
				19
			],
			"name":"mixamorig:LeftHandRing1",
			"rotation":[
				0.36478155851364136,
				-0.001545028411783278,
				-0.07352672517299652,
				0.9281842112541199
			],
			"scale":[
				0.9999999403953552,
				1,
				1
			],
			"translation":[
				2.8476736545562744,
				10.70910358428955,
				0.06963932514190674
			]
		},
		{
			"name":"mixamorig:LeftHandPinky4",
			"rotation":[
				1.0244546544413424e-08,
				-2.7939672797572257e-09,
				-4.00468671557519e-08,
				1
			],
			"scale":[
				1.0000001192092896,
				1,
				1.0000001192092896
			],
			"translation":[
				-2.384185791015625e-07,
				3.731137990951538,
				-4.291534423828125e-06
			]
		},
		{
			"children":[
				21
			],
			"name":"mixamorig:LeftHandPinky3",
			"rotation":[
				0.204429492354393,
				-2.283929347868252e-07,
				-0.02114211581647396,
				0.9786530137062073
			],
			"scale":[
				0.9999998211860657,
				0.9999998211860657,
				0.9999997615814209
			],
			"translation":[
				-2.86102294921875e-06,
				2.3383963108062744,
				-5.32250851392746e-06
			]
		},
		{
			"children":[
				22
			],
			"name":"mixamorig:LeftHandPinky2",
			"rotation":[
				0.204429492354393,
				1.7985942690756929e-07,
				-0.021142056211829185,
				0.9786530137062073
			],
			"scale":[
				0.9999999403953552,
				0.9999999403953552,
				0.9999999403953552
			],
			"translation":[
				5.602836608886719e-06,
				2.5483901500701904,
				9.506940841674805e-06
			]
		},
		{
			"children":[
				23
			],
			"name":"mixamorig:LeftHandPinky1",
			"rotation":[
				0.2197548896074295,
				-0.018447332084178925,
				-0.1210237443447113,
				0.9678433537483215
			],
			"scale":[
				0.9999999403953552,
				1.0000001192092896,
				1
			],
			"translation":[
				5.5453715324401855,
				9.382376670837402,
				0.02685973048210144
			]
		},
		{
			"children":[
				8,
				12,
				16,
				20,
				24
			],
			"name":"mixamorig:LeftHand",
			"rotation":[
				0.026770226657390594,
				0.38466402888298035,
				0.07040973752737045,
				0.9199779629707336
			],
			"scale":[
				1,
				0.9999999403953552,
				1
			],
			"translation":[
				-5.304813385009766e-06,
				27.51815414428711,
				2.6226043701171875e-06
			]
		},
		{
			"children":[
				25
			],
			"name":"mixamorig:LeftForeArm",
			"rotation":[
				1.6276122494218725e-07,
				5.0080377178574054e-08,
				0.4507807493209839,
				0.8926347494125366
			],
			"scale":[
				1,
				1.0000001192092896,
				1
			],
			"translation":[
				3.337860107421875e-06,
				27.263673782348633,
				9.5367431640625e-07
			]
		},
		{
			"children":[
				26
			],
			"name":"mixamorig:LeftArm",
			"rotation":[
				0.3013867735862732,
				-0.05182186886668205,
				0.46451011300086975,
				0.8310902118682861
			],
			"scale":[
				0.9999998211860657,
				0.9999998807907104,
				1
			],
			"translation":[
				-3.0994415283203125e-06,
				6.43728494644165,
				4.0531158447265625e-06
			]
		},
		{
			"children":[
				27
			],
			"name":"mixamorig:LeftShoulder",
			"rotation":[
				0.6634291410446167,
				0.3228638172149658,
				-0.5471711158752441,
				0.39525237679481506
			],
			"scale":[
				0.9999998807907104,
				0.9999998211860657,
				0.9999998807907104
			],
			"translation":[
				6.172284126281738,
				17.856969833374023,
				-2.624434471130371
			]
		},
		{
			"name":"mixamorig:RightHandThumb4",
			"rotation":[
				3.7252898543727042e-09,
				4.423782229423523e-09,
				1.4435501682896756e-08,
				1
			],
			"scale":[
				0.9999999403953552,
				0.9999999403953552,
				1
			],
			"translation":[
				-2.86102294921875e-06,
				4.61403226852417,
				7.3909759521484375e-06
			]
		},
		{
			"children":[
				29
			],
			"name":"mixamorig:RightHandThumb3",
			"rotation":[
				-0.11990786343812943,
				0.040003057569265366,
				0.3363109529018402,
				0.9332292675971985
			],
			"scale":[
				1,
				1,
				0.9999999403953552
			],
			"translation":[
				4.76837158203125e-06,
				2.330143928527832,
				3.337860107421875e-06
			]
		},
		{
			"children":[
				30
			],
			"name":"mixamorig:RightHandThumb2",
			"rotation":[
				0.005733653903007507,
				0.021770860999822617,
				0.21965862810611725,
				0.9753170013427734
			],
			"scale":[
				0.9999999403953552,
				1,
				1.000000238418579
			],
			"translation":[
				-7.152557373046875e-06,
				1.937455654144287,
				0
			]
		},
		{
			"children":[
				31
			],
			"name":"mixamorig:RightHandThumb1",
			"rotation":[
				0.2678373157978058,
				0.08293991535902023,
				-0.23366223275661469,
				0.9310134649276733
			],
			"scale":[
				0.9999999403953552,
				1,
				0.9999998211860657
			],
			"translation":[
				5.11439847946167,
				4.227205276489258,
				0.2540028691291809
			]
		},
		{
			"name":"mixamorig:RightHandIndex4",
			"rotation":[
				-3.725290298461914e-09,
				5.587934559514451e-09,
				0,
				1
			],
			"scale":[
				1,
				1,
				0.9999998807907104
			],
			"translation":[
				9.5367431640625e-07,
				4.387290000915527,
				9.5367431640625e-07
			]
		},
		{
			"children":[
				33
			],
			"name":"mixamorig:RightHandIndex3",
			"rotation":[
				0.18971115350723267,
				-3.4626392420022967e-08,
				0.01561728585511446,
				0.9817157983779907
			],
			"scale":[
				1.0000001192092896,
				0.9999999403953552,
				0.9999999403953552
			],
			"translation":[
				1.9073486328125e-06,
				3.002598524093628,
				0
			]
		},
		{
			"children":[
				34
			],
			"name":"mixamorig:RightHandIndex2",
			"rotation":[
				0.18682314455509186,
				5.1317531557515395e-08,
				0.015379484742879868,
				0.9822731614112854
			],
			"scale":[
				1.0000001192092896,
				1,
				1
			],
			"translation":[
				9.5367431640625e-06,
				2.455598831176758,
				4.76837158203125e-07
			]
		},
		{
			"children":[
				35
			],
			"name":"mixamorig:RightHandIndex1",
			"rotation":[
				0.20593838393688202,
				-0.047890957444906235,
				-0.00044582205009646714,
				0.977392315864563
			],
			"scale":[
				0.9999999403953552,
				0.9999998211860657,
				1
			],
			"translation":[
				2.3563919067382812,
				11.078706741333008,
				0.08500277996063232
			]
		},
		{
			"name":"mixamorig:RightHandMiddle4",
			"rotation":[
				5.587936335871291e-09,
				9.313223969797946e-09,
				1.1175868230850483e-08,
				1
			],
			"scale":[
				1.000000238418579,
				0.9999999403953552,
				1
			],
			"translation":[
				-2.86102294921875e-06,
				4.647507667541504,
				-1.9073486328125e-06
			]
		},
		{
			"children":[
				37
			],
			"name":"mixamorig:RightHandMiddle3",
			"rotation":[
				0.1921931952238083,
				6.264313157089418e-08,
				0.01582139916718006,
				0.9812295436859131
			],
			"scale":[
				0.9999998807907104,
				1.0000001192092896,
				0.9999999403953552
			],
			"translation":[
				4.76837158203125e-06,
				2.9993929862976074,
				1.33514404296875e-05
			]
		},
		{
			"children":[
				38
			],
			"name":"mixamorig:RightHandMiddle2",
			"rotation":[
				0.18684491515159607,
				-1.0429472752093716e-07,
				0.015381397679448128,
				0.9822689890861511
			],
			"scale":[
				1.0000001192092896,
				1,
				1.0000001192092896
			],
			"translation":[
				-3.814697265625e-06,
				3.113006114959717,
				-4.5299530029296875e-06
			]
		},
		{
			"children":[
				39
			],
			"name":"mixamorig:RightHandMiddle1",
			"rotation":[
				0.20350560545921326,
				-0.0008069491013884544,
				0.060387127101421356,
				0.9772094488143921
			],
			"scale":[
				0.9999999403953552,
				0.9999998807907104,
				0.9999998807907104
			],
			"translation":[
				-0.024092674255371094,
				11.042704582214355,
				-0.04799172282218933
			]
		},
		{
			"name":"mixamorig:RightHandRing4",
			"rotation":[
				-7.450580596923828e-09,
				-3.725290298461914e-09,
				1.1175870895385742e-08,
				1
			],
			"translation":[
				-1.1920928955078125e-06,
				4.0152997970581055,
				-4.76837158203125e-07
			]
		},
		{
			"children":[
				41
			],
			"name":"mixamorig:RightHandRing3",
			"rotation":[
				0.18980686366558075,
				4.2928054000412885e-08,
				0.015625078231096268,
				0.981697142124176
			],
			"scale":[
				1,
				0.9999998807907104,
				0.9999998807907104
			],
			"translation":[
				-4.291534423828125e-06,
				2.6784043312072754,
				-5.245208740234375e-06
			]
		},
		{
			"children":[
				42
			],
			"name":"mixamorig:RightHandRing2",
			"rotation":[
				0.18472255766391754,
				-8.94433398457295e-08,
				0.015206456184387207,
				0.9826731085777283
			],
			"scale":[
				0.9999998211860657,
				1,
				1
			],
			"translation":[
				4.76837158203125e-07,
				2.98480224609375,
				4.0531158447265625e-06
			]
		},
		{
			"children":[
				43
			],
			"name":"mixamorig:RightHandRing1",
			"rotation":[
				0.20125451683998108,
				-0.014621492475271225,
				0.12411817908287048,
				0.9715335965156555
			],
			"scale":[
				1,
				0.9999998807907104,
				0.9999998211860657
			],
			"translation":[
				-2.8476805686950684,
				10.70910358428955,
				0.07000231742858887
			]
		},
		{
			"name":"mixamorig:RightHandPinky4",
			"rotation":[
				-1.3969843060124276e-09,
				-9.778888809819364e-09,
				5.587935891782081e-09,
				1
			],
			"scale":[
				0.9999998807907104,
				0.9999998211860657,
				0.9999998211860657
			],
			"translation":[
				2.86102294921875e-06,
				3.7312145233154297,
				-2.384185791015625e-07
			]
		},
		{
			"children":[
				45
			],
			"name":"mixamorig:RightHandPinky3",
			"rotation":[
				0.1897110641002655,
				1.8261863132806866e-08,
				0.015617257915437222,
				0.9817157983779907
			],
			"scale":[
				1,
				0.9999999403953552,
				0.9999999403953552
			],
			"translation":[
				2.86102294921875e-06,
				2.3383946418762207,
				-5.245208740234375e-06
			]
		},
		{
			"children":[
				46
			],
			"name":"mixamorig:RightHandPinky2",
			"rotation":[
				0.1868230402469635,
				-3.306602991415275e-08,
				0.015379402786493301,
				0.9822732210159302
			],
			"scale":[
				1.0000001192092896,
				0.9999999403953552,
				1
			],
			"translation":[
				-5.364418029785156e-07,
				2.548401355743408,
				-7.510185241699219e-06
			]
		},
		{
			"children":[
				47
			],
			"name":"mixamorig:RightHandPinky1",
			"rotation":[
				0.19824747741222382,
				-0.020397670567035675,
				0.15850162506103516,
				0.9670363068580627
			],
			"scale":[
				0.9999999403953552,
				0.9999999403953552,
				0.9999999403953552
			],
			"translation":[
				-5.545370578765869,
				9.382299423217773,
				0.027007877826690674
			]
		},
		{
			"children":[
				32,
				36,
				40,
				44,
				48
			],
			"name":"mixamorig:RightHand",
			"rotation":[
				0.24871088564395905,
				-0.4758904278278351,
				0.021486585959792137,
				0.8433324098587036
			],
			"scale":[
				1,
				1,
				1.0000001192092896
			],
			"translation":[
				-1.3113021850585938e-06,
				27.518198013305664,
				-2.384185791015625e-06
			]
		},
		{
			"children":[
				49
			],
			"name":"mixamorig:RightForeArm",
			"rotation":[
				1.0971532304893117e-07,
				-8.947657903490835e-08,
				-0.48535093665122986,
				0.8743194341659546
			],
			"scale":[
				0.9999998211860657,
				0.9999999403953552,
				0.9999998807907104
			],
			"translation":[
				-9.5367431640625e-07,
				27.263626098632812,
				-9.5367431640625e-07
			]
		},
		{
			"children":[
				50
			],
			"name":"mixamorig:RightArm",
			"rotation":[
				0.43622344732284546,
				0.17652268707752228,
				-0.4073169529438019,
				0.7827143669128418
			],
			"scale":[
				1.000000238418579,
				1.0000003576278687,
				1.000000238418579
			],
			"translation":[
				-1.0251998901367188e-05,
				6.437374114990234,
				-1.5020370483398438e-05
			]
		},
		{
			"children":[
				51
			],
			"name":"mixamorig:RightShoulder",
			"rotation":[
				0.623970091342926,
				-0.3589271306991577,
				0.5080087780952454,
				0.47303250432014465
			],
			"scale":[
				0.9999999403953552,
				0.9999998211860657,
				0.9999999403953552
			],
			"translation":[
				-6.172288417816162,
				17.85723876953125,
				-2.6244263648986816
			]
		},
		{
			"children":[
				4,
				28,
				52
			],
			"name":"mixamorig:Spine2",
			"rotation":[
				0.1649128645658493,
				0.008710280992090702,
				-0.003230497008189559,
				0.9862644076347351
			],
			"scale":[
				0.9999998807907104,
				1,
				0.9999998211860657
			],
			"translation":[
				5.438923835754395e-07,
				8.62326717376709,
				1.993030309677124e-06
			]
		},
		{
			"children":[
				53
			],
			"name":"mixamorig:Spine1",
			"rotation":[
				0.11161983013153076,
				0.010539000853896141,
				-0.003884423989802599,
				0.9936875104904175
			],
			"scale":[
				0.9999999403953552,
				0.9999999403953552,
				1
			],
			"translation":[
				-2.1047890186309814e-07,
				7.456502437591553,
				-4.600733518600464e-07
			]
		},
		{
			"children":[
				54
			],
			"name":"mixamorig:Spine",
			"rotation":[
				0.14728233218193054,
				0.013608724810183048,
				0.0017785212257876992,
				0.9889993071556091
			],
			"scale":[
				1,
				0.9999998211860657,
				0.9999998211860657
			],
			"translation":[
				1.2166798114776611e-05,
				7.244541168212891,
				0.6334097981452942
			]
		},
		{
			"name":"mixamorig:LeftToe_End",
			"rotation":[
				-3.0893716029822826e-08,
				-4.624212124326732e-11,
				-3.7656704421351606e-09,
				1
			],
			"scale":[
				1,
				0.9999998807907104,
				1
			],
			"translation":[
				1.0234868568659294e-05,
				10.342826843261719,
				1.4901161193847656e-07
			]
		},
		{
			"children":[
				56
			],
			"name":"mixamorig:LeftToeBase",
			"rotation":[
				0.29598468542099,
				8.430469051745604e-07,
				-6.361368036778003e-07,
				0.9551926851272583
			],
			"scale":[
				1.0000001192092896,
				1.0000001192092896,
				1.0000001192092896
			],
			"translation":[
				1.8830643966794014e-05,
				13.200004577636719,
				5.289912223815918e-07
			]
		},
		{
			"children":[
				57
			],
			"name":"mixamorig:LeftFoot",
			"rotation":[
				0.5650560855865479,
				-0.06478848308324814,
				0.07695001363754272,
				0.8188973069190979
			],
			"scale":[
				0.9999998807907104,
				0.9999998211860657,
				0.9999996423721313
			],
			"translation":[
				5.692243576049805e-06,
				46.8180046081543,
				-3.781169652938843e-07
			]
		},
		{
			"children":[
				58
			],
			"name":"mixamorig:LeftLeg",
			"rotation":[
				-0.7390064597129822,
				-0.05719200149178505,
				0.03757834434509277,
				0.6702136993408203
			],
			"scale":[
				1,
				0.9999998807907104,
				1
			],
			"translation":[
				5.245208740234375e-06,
				46.74799346923828,
				-2.086162567138672e-07
			]
		},
		{
			"children":[
				59
			],
			"name":"mixamorig:LeftUpLeg",
			"rotation":[
				-0.006949081085622311,
				0.5389888286590576,
				0.8404093980789185,
				0.05616781860589981
			],
			"scale":[
				1,
				1,
				1.0000001192092896
			],
			"translation":[
				9.965751647949219,
				-12.31584358215332,
				-0.2789159119129181
			]
		},
		{
			"name":"mixamorig:RightToe_End",
			"rotation":[
				-2.421438694000244e-08,
				1.909211277961731e-08,
				7.450581485102248e-09,
				1
			],
			"scale":[
				1,
				0.9999998807907104,
				1.0000001192092896
			],
			"translation":[
				-3.6954879760742188e-06,
				10.343002319335938,
				-2.384185791015625e-06
			]
		},
		{
			"children":[
				61
			],
			"name":"mixamorig:RightToeBase",
			"rotation":[
				0.29426684975624084,
				2.299746171274819e-07,
				2.6700439548221766e-07,
				0.9557232856750488
			],
			"scale":[
				1.000000238418579,
				1.0000001192092896,
				1.0000001192092896
			],
			"translation":[
				-7.510185241699219e-06,
				13.200008392333984,
				-1.430511474609375e-06
			]
		},
		{
			"children":[
				62
			],
			"name":"mixamorig:RightFoot",
			"rotation":[
				0.30565884709358215,
				-0.0039688958786427975,
				0.0018823042046278715,
				0.9521309733390808
			],
			"scale":[
				0.9999997615814209,
				0.9999999403953552,
				1
			],
			"translation":[
				2.1457672119140625e-06,
				46.81800842285156,
				1.049041748046875e-05
			]
		},
		{
			"children":[
				63
			],
			"name":"mixamorig:RightLeg",
			"rotation":[
				-0.5694593787193298,
				0.02010543830692768,
				0.08936479687690735,
				0.8169001340866089
			],
			"scale":[
				0.9999999403953552,
				0.9999999403953552,
				0.9999998211860657
			],
			"translation":[
				1.1920928955078125e-06,
				46.74770736694336,
				2.562999725341797e-06
			]
		},
		{
			"children":[
				64
			],
			"name":"mixamorig:RightUpLeg",
			"rotation":[
				0.03399316966533661,
				-0.635198175907135,
				-0.7482526898384094,
				0.18837642669677734
			],
			"scale":[
				0.9999999403953552,
				1,
				1
			],
			"translation":[
				-9.96580696105957,
				-12.316102027893066,
				-0.2789137363433838
			]
		},
		{
			"name":"mixamorig:LeftRibbon1",
			"rotation":[
				0.05012138560414314,
				-0.11390472948551178,
				-0.9081903696060181,
				0.3996296525001526
			],
			"scale":[
				0.9999996423721313,
				0.9999998807907104,
				0.9999998211860657
			],
			"translation":[
				16.064247131347656,
				3.449599504470825,
				8.420328140258789
			]
		},
		{
			"name":"mixamorig:LeftRibbon2",
			"rotation":[
				0.02369425632059574,
				-0.1999383270740509,
				-0.9664434194564819,
				0.15953199565410614
			],
			"scale":[
				1,
				0.9999999403953552,
				0.9999998211860657
			],
			"translation":[
				10.697004318237305,
				-0.09680560231208801,
				12.125936508178711
			]
		},
		{
			"children":[
				55,
				60,
				65,
				66,
				67
			],
			"name":"mixamorig:Hips",
			"rotation":[
				-0.8102834224700928,
				-0.010398291051387787,
				-0.010285080410540104,
				0.5858557224273682
			],
			"scale":[
				1,
				0.9999999403953552,
				1
			],
			"translation":[
				0.5984526872634888,
				2.4828858375549316,
				-69.83063507080078
			]
		},
		{
			"mesh":0,
			"name":"Peasant_girl",
			"skin":0
		},
		{
			"children":[
				69,
				68
			],
			"name":"Armature",
			"rotation":[
				0.7071068286895752,
				0,
				0,
				0.7071068286895752
			],
			"scale":[
				0.009999999776482582,
				0.009999999776482582,
				0.009999999776482582
			]
		}
	],
	"animations":[
		{
			"channels":[
				{
					"sampler":0,
					"target":{
						"node":68,
						"path":"translation"
					}
				},
				{
					"sampler":1,
					"target":{
						"node":68,
						"path":"rotation"
					}
				},
				{
					"sampler":2,
					"target":{
						"node":68,
						"path":"scale"
					}
				},
				{
					"sampler":3,
					"target":{
						"node":55,
						"path":"translation"
					}
				},
				{
					"sampler":4,
					"target":{
						"node":55,
						"path":"rotation"
					}
				},
				{
					"sampler":5,
					"target":{
						"node":55,
						"path":"scale"
					}
				},
				{
					"sampler":6,
					"target":{
						"node":54,
						"path":"translation"
					}
				},
				{
					"sampler":7,
					"target":{
						"node":54,
						"path":"rotation"
					}
				},
				{
					"sampler":8,
					"target":{
						"node":54,
						"path":"scale"
					}
				},
				{
					"sampler":9,
					"target":{
						"node":53,
						"path":"translation"
					}
				},
				{
					"sampler":10,
					"target":{
						"node":53,
						"path":"rotation"
					}
				},
				{
					"sampler":11,
					"target":{
						"node":53,
						"path":"scale"
					}
				},
				{
					"sampler":12,
					"target":{
						"node":4,
						"path":"translation"
					}
				},
				{
					"sampler":13,
					"target":{
						"node":4,
						"path":"rotation"
					}
				},
				{
					"sampler":14,
					"target":{
						"node":4,
						"path":"scale"
					}
				},
				{
					"sampler":15,
					"target":{
						"node":3,
						"path":"translation"
					}
				},
				{
					"sampler":16,
					"target":{
						"node":3,
						"path":"rotation"
					}
				},
				{
					"sampler":17,
					"target":{
						"node":3,
						"path":"scale"
					}
				},
				{
					"sampler":18,
					"target":{
						"node":0,
						"path":"translation"
					}
				},
				{
					"sampler":19,
					"target":{
						"node":0,
						"path":"rotation"
					}
				},
				{
					"sampler":20,
					"target":{
						"node":0,
						"path":"scale"
					}
				},
				{
					"sampler":21,
					"target":{
						"node":1,
						"path":"translation"
					}
				},
				{
					"sampler":22,
					"target":{
						"node":1,
						"path":"rotation"
					}
				},
				{
					"sampler":23,
					"target":{
						"node":1,
						"path":"scale"
					}
				},
				{
					"sampler":24,
					"target":{
						"node":2,
						"path":"translation"
					}
				},
				{
					"sampler":25,
					"target":{
						"node":2,
						"path":"rotation"
					}
				},
				{
					"sampler":26,
					"target":{
						"node":2,
						"path":"scale"
					}
				},
				{
					"sampler":27,
					"target":{
						"node":28,
						"path":"translation"
					}
				},
				{
					"sampler":28,
					"target":{
						"node":28,
						"path":"rotation"
					}
				},
				{
					"sampler":29,
					"target":{
						"node":28,
						"path":"scale"
					}
				},
				{
					"sampler":30,
					"target":{
						"node":27,
						"path":"translation"
					}
				},
				{
					"sampler":31,
					"target":{
						"node":27,
						"path":"rotation"
					}
				},
				{
					"sampler":32,
					"target":{
						"node":27,
						"path":"scale"
					}
				},
				{
					"sampler":33,
					"target":{
						"node":26,
						"path":"translation"
					}
				},
				{
					"sampler":34,
					"target":{
						"node":26,
						"path":"rotation"
					}
				},
				{
					"sampler":35,
					"target":{
						"node":26,
						"path":"scale"
					}
				},
				{
					"sampler":36,
					"target":{
						"node":25,
						"path":"translation"
					}
				},
				{
					"sampler":37,
					"target":{
						"node":25,
						"path":"rotation"
					}
				},
				{
					"sampler":38,
					"target":{
						"node":25,
						"path":"scale"
					}
				},
				{
					"sampler":39,
					"target":{
						"node":8,
						"path":"translation"
					}
				},
				{
					"sampler":40,
					"target":{
						"node":8,
						"path":"rotation"
					}
				},
				{
					"sampler":41,
					"target":{
						"node":8,
						"path":"scale"
					}
				},
				{
					"sampler":42,
					"target":{
						"node":7,
						"path":"translation"
					}
				},
				{
					"sampler":43,
					"target":{
						"node":7,
						"path":"rotation"
					}
				},
				{
					"sampler":44,
					"target":{
						"node":7,
						"path":"scale"
					}
				},
				{
					"sampler":45,
					"target":{
						"node":6,
						"path":"translation"
					}
				},
				{
					"sampler":46,
					"target":{
						"node":6,
						"path":"rotation"
					}
				},
				{
					"sampler":47,
					"target":{
						"node":6,
						"path":"scale"
					}
				},
				{
					"sampler":48,
					"target":{
						"node":5,
						"path":"translation"
					}
				},
				{
					"sampler":49,
					"target":{
						"node":5,
						"path":"rotation"
					}
				},
				{
					"sampler":50,
					"target":{
						"node":5,
						"path":"scale"
					}
				},
				{
					"sampler":51,
					"target":{
						"node":12,
						"path":"translation"
					}
				},
				{
					"sampler":52,
					"target":{
						"node":12,
						"path":"rotation"
					}
				},
				{
					"sampler":53,
					"target":{
						"node":12,
						"path":"scale"
					}
				},
				{
					"sampler":54,
					"target":{
						"node":11,
						"path":"translation"
					}
				},
				{
					"sampler":55,
					"target":{
						"node":11,
						"path":"rotation"
					}
				},
				{
					"sampler":56,
					"target":{
						"node":11,
						"path":"scale"
					}
				},
				{
					"sampler":57,
					"target":{
						"node":10,
						"path":"translation"
					}
				},
				{
					"sampler":58,
					"target":{
						"node":10,
						"path":"rotation"
					}
				},
				{
					"sampler":59,
					"target":{
						"node":10,
						"path":"scale"
					}
				},
				{
					"sampler":60,
					"target":{
						"node":9,
						"path":"translation"
					}
				},
				{
					"sampler":61,
					"target":{
						"node":9,
						"path":"rotation"
					}
				},
				{
					"sampler":62,
					"target":{
						"node":9,
						"path":"scale"
					}
				},
				{
					"sampler":63,
					"target":{
						"node":16,
						"path":"translation"
					}
				},
				{
					"sampler":64,
					"target":{
						"node":16,
						"path":"rotation"
					}
				},
				{
					"sampler":65,
					"target":{
						"node":16,
						"path":"scale"
					}
				},
				{
					"sampler":66,
					"target":{
						"node":15,
						"path":"translation"
					}
				},
				{
					"sampler":67,
					"target":{
						"node":15,
						"path":"rotation"
					}
				},
				{
					"sampler":68,
					"target":{
						"node":15,
						"path":"scale"
					}
				},
				{
					"sampler":69,
					"target":{
						"node":14,
						"path":"translation"
					}
				},
				{
					"sampler":70,
					"target":{
						"node":14,
						"path":"rotation"
					}
				},
				{
					"sampler":71,
					"target":{
						"node":14,
						"path":"scale"
					}
				},
				{
					"sampler":72,
					"target":{
						"node":13,
						"path":"translation"
					}
				},
				{
					"sampler":73,
					"target":{
						"node":13,
						"path":"rotation"
					}
				},
				{
					"sampler":74,
					"target":{
						"node":13,
						"path":"scale"
					}
				},
				{
					"sampler":75,
					"target":{
						"node":20,
						"path":"translation"
					}
				},
				{
					"sampler":76,
					"target":{
						"node":20,
						"path":"rotation"
					}
				},
				{
					"sampler":77,
					"target":{
						"node":20,
						"path":"scale"
					}
				},
				{
					"sampler":78,
					"target":{
						"node":19,
						"path":"translation"
					}
				},
				{
					"sampler":79,
					"target":{
						"node":19,
						"path":"rotation"
					}
				},
				{
					"sampler":80,
					"target":{
						"node":19,
						"path":"scale"
					}
				},
				{
					"sampler":81,
					"target":{
						"node":18,
						"path":"translation"
					}
				},
				{
					"sampler":82,
					"target":{
						"node":18,
						"path":"rotation"
					}
				},
				{
					"sampler":83,
					"target":{
						"node":18,
						"path":"scale"
					}
				},
				{
					"sampler":84,
					"target":{
						"node":17,
						"path":"translation"
					}
				},
				{
					"sampler":85,
					"target":{
						"node":17,
						"path":"rotation"
					}
				},
				{
					"sampler":86,
					"target":{
						"node":17,
						"path":"scale"
					}
				},
				{
					"sampler":87,
					"target":{
						"node":24,
						"path":"translation"
					}
				},
				{
					"sampler":88,
					"target":{
						"node":24,
						"path":"rotation"
					}
				},
				{
					"sampler":89,
					"target":{
						"node":24,
						"path":"scale"
					}
				},
				{
					"sampler":90,
					"target":{
						"node":23,
						"path":"translation"
					}
				},
				{
					"sampler":91,
					"target":{
						"node":23,
						"path":"rotation"
					}
				},
				{
					"sampler":92,
					"target":{
						"node":23,
						"path":"scale"
					}
				},
				{
					"sampler":93,
					"target":{
						"node":22,
						"path":"translation"
					}
				},
				{
					"sampler":94,
					"target":{
						"node":22,
						"path":"rotation"
					}
				},
				{
					"sampler":95,
					"target":{
						"node":22,
						"path":"scale"
					}
				},
				{
					"sampler":96,
					"target":{
						"node":21,
						"path":"translation"
					}
				},
				{
					"sampler":97,
					"target":{
						"node":21,
						"path":"rotation"
					}
				},
				{
					"sampler":98,
					"target":{
						"node":21,
						"path":"scale"
					}
				},
				{
					"sampler":99,
					"target":{
						"node":52,
						"path":"translation"
					}
				},
				{
					"sampler":100,
					"target":{
						"node":52,
						"path":"rotation"
					}
				},
				{
					"sampler":101,
					"target":{
						"node":52,
						"path":"scale"
					}
				},
				{
					"sampler":102,
					"target":{
						"node":51,
						"path":"translation"
					}
				},
				{
					"sampler":103,
					"target":{
						"node":51,
						"path":"rotation"
					}
				},
				{
					"sampler":104,
					"target":{
						"node":51,
						"path":"scale"
					}
				},
				{
					"sampler":105,
					"target":{
						"node":50,
						"path":"translation"
					}
				},
				{
					"sampler":106,
					"target":{
						"node":50,
						"path":"rotation"
					}
				},
				{
					"sampler":107,
					"target":{
						"node":50,
						"path":"scale"
					}
				},
				{
					"sampler":108,
					"target":{
						"node":49,
						"path":"translation"
					}
				},
				{
					"sampler":109,
					"target":{
						"node":49,
						"path":"rotation"
					}
				},
				{
					"sampler":110,
					"target":{
						"node":49,
						"path":"scale"
					}
				},
				{
					"sampler":111,
					"target":{
						"node":32,
						"path":"translation"
					}
				},
				{
					"sampler":112,
					"target":{
						"node":32,
						"path":"rotation"
					}
				},
				{
					"sampler":113,
					"target":{
						"node":32,
						"path":"scale"
					}
				},
				{
					"sampler":114,
					"target":{
						"node":31,
						"path":"translation"
					}
				},
				{
					"sampler":115,
					"target":{
						"node":31,
						"path":"rotation"
					}
				},
				{
					"sampler":116,
					"target":{
						"node":31,
						"path":"scale"
					}
				},
				{
					"sampler":117,
					"target":{
						"node":30,
						"path":"translation"
					}
				},
				{
					"sampler":118,
					"target":{
						"node":30,
						"path":"rotation"
					}
				},
				{
					"sampler":119,
					"target":{
						"node":30,
						"path":"scale"
					}
				},
				{
					"sampler":120,
					"target":{
						"node":29,
						"path":"translation"
					}
				},
				{
					"sampler":121,
					"target":{
						"node":29,
						"path":"rotation"
					}
				},
				{
					"sampler":122,
					"target":{
						"node":29,
						"path":"scale"
					}
				},
				{
					"sampler":123,
					"target":{
						"node":36,
						"path":"translation"
					}
				},
				{
					"sampler":124,
					"target":{
						"node":36,
						"path":"rotation"
					}
				},
				{
					"sampler":125,
					"target":{
						"node":36,
						"path":"scale"
					}
				},
				{
					"sampler":126,
					"target":{
						"node":35,
						"path":"translation"
					}
				},
				{
					"sampler":127,
					"target":{
						"node":35,
						"path":"rotation"
					}
				},
				{
					"sampler":128,
					"target":{
						"node":35,
						"path":"scale"
					}
				},
				{
					"sampler":129,
					"target":{
						"node":34,
						"path":"translation"
					}
				},
				{
					"sampler":130,
					"target":{
						"node":34,
						"path":"rotation"
					}
				},
				{
					"sampler":131,
					"target":{
						"node":34,
						"path":"scale"
					}
				},
				{
					"sampler":132,
					"target":{
						"node":33,
						"path":"translation"
					}
				},
				{
					"sampler":133,
					"target":{
						"node":33,
						"path":"rotation"
					}
				},
				{
					"sampler":134,
					"target":{
						"node":33,
						"path":"scale"
					}
				},
				{
					"sampler":135,
					"target":{
						"node":40,
						"path":"translation"
					}
				},
				{
					"sampler":136,
					"target":{
						"node":40,
						"path":"rotation"
					}
				},
				{
					"sampler":137,
					"target":{
						"node":40,
						"path":"scale"
					}
				},
				{
					"sampler":138,
					"target":{
						"node":39,
						"path":"translation"
					}
				},
				{
					"sampler":139,
					"target":{
						"node":39,
						"path":"rotation"
					}
				},
				{
					"sampler":140,
					"target":{
						"node":39,
						"path":"scale"
					}
				},
				{
					"sampler":141,
					"target":{
						"node":38,
						"path":"translation"
					}
				},
				{
					"sampler":142,
					"target":{
						"node":38,
						"path":"rotation"
					}
				},
				{
					"sampler":143,
					"target":{
						"node":38,
						"path":"scale"
					}
				},
				{
					"sampler":144,
					"target":{
						"node":37,
						"path":"translation"
					}
				},
				{
					"sampler":145,
					"target":{
						"node":37,
						"path":"rotation"
					}
				},
				{
					"sampler":146,
					"target":{
						"node":37,
						"path":"scale"
					}
				},
				{
					"sampler":147,
					"target":{
						"node":44,
						"path":"translation"
					}
				},
				{
					"sampler":148,
					"target":{
						"node":44,
						"path":"rotation"
					}
				},
				{
					"sampler":149,
					"target":{
						"node":44,
						"path":"scale"
					}
				},
				{
					"sampler":150,
					"target":{
						"node":43,
						"path":"translation"
					}
				},
				{
					"sampler":151,
					"target":{
						"node":43,
						"path":"rotation"
					}
				},
				{
					"sampler":152,
					"target":{
						"node":43,
						"path":"scale"
					}
				},
				{
					"sampler":153,
					"target":{
						"node":42,
						"path":"translation"
					}
				},
				{
					"sampler":154,
					"target":{
						"node":42,
						"path":"rotation"
					}
				},
				{
					"sampler":155,
					"target":{
						"node":42,
						"path":"scale"
					}
				},
				{
					"sampler":156,
					"target":{
						"node":41,
						"path":"translation"
					}
				},
				{
					"sampler":157,
					"target":{
						"node":41,
						"path":"rotation"
					}
				},
				{
					"sampler":158,
					"target":{
						"node":41,
						"path":"scale"
					}
				},
				{
					"sampler":159,
					"target":{
						"node":48,
						"path":"translation"
					}
				},
				{
					"sampler":160,
					"target":{
						"node":48,
						"path":"rotation"
					}
				},
				{
					"sampler":161,
					"target":{
						"node":48,
						"path":"scale"
					}
				},
				{
					"sampler":162,
					"target":{
						"node":47,
						"path":"translation"
					}
				},
				{
					"sampler":163,
					"target":{
						"node":47,
						"path":"rotation"
					}
				},
				{
					"sampler":164,
					"target":{
						"node":47,
						"path":"scale"
					}
				},
				{
					"sampler":165,
					"target":{
						"node":46,
						"path":"translation"
					}
				},
				{
					"sampler":166,
					"target":{
						"node":46,
						"path":"rotation"
					}
				},
				{
					"sampler":167,
					"target":{
						"node":46,
						"path":"scale"
					}
				},
				{
					"sampler":168,
					"target":{
						"node":45,
						"path":"translation"
					}
				},
				{
					"sampler":169,
					"target":{
						"node":45,
						"path":"rotation"
					}
				},
				{
					"sampler":170,
					"target":{
						"node":45,
						"path":"scale"
					}
				},
				{
					"sampler":171,
					"target":{
						"node":60,
						"path":"translation"
					}
				},
				{
					"sampler":172,
					"target":{
						"node":60,
						"path":"rotation"
					}
				},
				{
					"sampler":173,
					"target":{
						"node":60,
						"path":"scale"
					}
				},
				{
					"sampler":174,
					"target":{
						"node":59,
						"path":"translation"
					}
				},
				{
					"sampler":175,
					"target":{
						"node":59,
						"path":"rotation"
					}
				},
				{
					"sampler":176,
					"target":{
						"node":59,
						"path":"scale"
					}
				},
				{
					"sampler":177,
					"target":{
						"node":58,
						"path":"translation"
					}
				},
				{
					"sampler":178,
					"target":{
						"node":58,
						"path":"rotation"
					}
				},
				{
					"sampler":179,
					"target":{
						"node":58,
						"path":"scale"
					}
				},
				{
					"sampler":180,
					"target":{
						"node":57,
						"path":"translation"
					}
				},
				{
					"sampler":181,
					"target":{
						"node":57,
						"path":"rotation"
					}
				},
				{
					"sampler":182,
					"target":{
						"node":57,
						"path":"scale"
					}
				},
				{
					"sampler":183,
					"target":{
						"node":56,
						"path":"translation"
					}
				},
				{
					"sampler":184,
					"target":{
						"node":56,
						"path":"rotation"
					}
				},
				{
					"sampler":185,
					"target":{
						"node":56,
						"path":"scale"
					}
				},
				{
					"sampler":186,
					"target":{
						"node":65,
						"path":"translation"
					}
				},
				{
					"sampler":187,
					"target":{
						"node":65,
						"path":"rotation"
					}
				},
				{
					"sampler":188,
					"target":{
						"node":65,
						"path":"scale"
					}
				},
				{
					"sampler":189,
					"target":{
						"node":64,
						"path":"translation"
					}
				},
				{
					"sampler":190,
					"target":{
						"node":64,
						"path":"rotation"
					}
				},
				{
					"sampler":191,
					"target":{
						"node":64,
						"path":"scale"
					}
				},
				{
					"sampler":192,
					"target":{
						"node":63,
						"path":"translation"
					}
				},
				{
					"sampler":193,
					"target":{
						"node":63,
						"path":"rotation"
					}
				},
				{
					"sampler":194,
					"target":{
						"node":63,
						"path":"scale"
					}
				},
				{
					"sampler":195,
					"target":{
						"node":62,
						"path":"translation"
					}
				},
				{
					"sampler":196,
					"target":{
						"node":62,
						"path":"rotation"
					}
				},
				{
					"sampler":197,
					"target":{
						"node":62,
						"path":"scale"
					}
				},
				{
					"sampler":198,
					"target":{
						"node":61,
						"path":"translation"
					}
				},
				{
					"sampler":199,
					"target":{
						"node":61,
						"path":"rotation"
					}
				},
				{
					"sampler":200,
					"target":{
						"node":61,
						"path":"scale"
					}
				},
				{
					"sampler":201,
					"target":{
						"node":66,
						"path":"translation"
					}
				},
				{
					"sampler":202,
					"target":{
						"node":66,
						"path":"rotation"
					}
				},
				{
					"sampler":203,
					"target":{
						"node":66,
						"path":"scale"
					}
				},
				{
					"sampler":204,
					"target":{
						"node":67,
						"path":"translation"
					}
				},
				{
					"sampler":205,
					"target":{
						"node":67,
						"path":"rotation"
					}
				},
				{
					"sampler":206,
					"target":{
						"node":67,
						"path":"scale"
					}
				}
			],
			"name":"mixamo.com",
			"samplers":[
				{
					"input":7,
					"interpolation":"LINEAR",
					"output":8
				},
				{
					"input":7,
					"interpolation":"LINEAR",
					"output":9
				},
				{
					"input":7,
					"interpolation":"LINEAR",
					"output":10
				},
				{
					"input":7,
					"interpolation":"LINEAR",
					"output":11
				},
				{
					"input":7,
					"interpolation":"LINEAR",
					"output":12
				},
				{
					"input":7,
					"interpolation":"LINEAR",
					"output":13
				},
				{
					"input":7,
					"interpolation":"LINEAR",
					"output":14
				},
				{
					"input":7,
					"interpolation":"LINEAR",
					"output":15
				},
				{
					"input":7,
					"interpolation":"LINEAR",
					"output":16
				},
				{
					"input":7,
					"interpolation":"LINEAR",
					"output":17
				},
				{
					"input":7,
					"interpolation":"LINEAR",
					"output":18
				},
				{
					"input":7,
					"interpolation":"LINEAR",
					"output":19
				},
				{
					"input":7,
					"interpolation":"LINEAR",
					"output":20
				},
				{
					"input":7,
					"interpolation":"LINEAR",
					"output":21
				},
				{
					"input":7,
					"interpolation":"LINEAR",
					"output":22
				},
				{
					"input":7,
					"interpolation":"LINEAR",
					"output":23
				},
				{
					"input":7,
					"interpolation":"LINEAR",
					"output":24
				},
				{
					"input":7,
					"interpolation":"LINEAR",
					"output":25
				},
				{
					"input":7,
					"interpolation":"LINEAR",
					"output":26
				},
				{
					"input":7,
					"interpolation":"LINEAR",
					"output":27
				},
				{
					"input":7,
					"interpolation":"LINEAR",
					"output":28
				},
				{
					"input":7,
					"interpolation":"LINEAR",
					"output":29
				},
				{
					"input":7,
					"interpolation":"LINEAR",
					"output":27
				},
				{
					"input":7,
					"interpolation":"LINEAR",
					"output":28
				},
				{
					"input":7,
					"interpolation":"LINEAR",
					"output":30
				},
				{
					"input":7,
					"interpolation":"LINEAR",
					"output":27
				},
				{
					"input":7,
					"interpolation":"LINEAR",
					"output":28
				},
				{
					"input":7,
					"interpolation":"LINEAR",
					"output":31
				},
				{
					"input":7,
					"interpolation":"LINEAR",
					"output":32
				},
				{
					"input":7,
					"interpolation":"LINEAR",
					"output":33
				},
				{
					"input":7,
					"interpolation":"LINEAR",
					"output":34
				},
				{
					"input":7,
					"interpolation":"LINEAR",
					"output":35
				},
				{
					"input":7,
					"interpolation":"LINEAR",
					"output":36
				},
				{
					"input":7,
					"interpolation":"LINEAR",
					"output":37
				},
				{
					"input":7,
					"interpolation":"LINEAR",
					"output":38
				},
				{
					"input":7,
					"interpolation":"LINEAR",
					"output":39
				},
				{
					"input":7,
					"interpolation":"LINEAR",
					"output":40
				},
				{
					"input":7,
					"interpolation":"LINEAR",
					"output":41
				},
				{
					"input":7,
					"interpolation":"LINEAR",
					"output":42
				},
				{
					"input":7,
					"interpolation":"LINEAR",
					"output":43
				},
				{
					"input":7,
					"interpolation":"LINEAR",
					"output":44
				},
				{
					"input":7,
					"interpolation":"LINEAR",
					"output":45
				},
				{
					"input":7,
					"interpolation":"LINEAR",
					"output":46
				},
				{
					"input":7,
					"interpolation":"LINEAR",
					"output":47
				},
				{
					"input":7,
					"interpolation":"LINEAR",
					"output":48
				},
				{
					"input":7,
					"interpolation":"LINEAR",
					"output":49
				},
				{
					"input":7,
					"interpolation":"LINEAR",
					"output":50
				},
				{
					"input":7,
					"interpolation":"LINEAR",
					"output":51
				},
				{
					"input":7,
					"interpolation":"LINEAR",
					"output":52
				},
				{
					"input":7,
					"interpolation":"LINEAR",
					"output":53
				},
				{
					"input":7,
					"interpolation":"LINEAR",
					"output":54
				},
				{
					"input":7,
					"interpolation":"LINEAR",
					"output":55
				},
				{
					"input":7,
					"interpolation":"LINEAR",
					"output":56
				},
				{
					"input":7,
					"interpolation":"LINEAR",
					"output":57
				},
				{
					"input":7,
					"interpolation":"LINEAR",
					"output":58
				},
				{
					"input":7,
					"interpolation":"LINEAR",
					"output":59
				},
				{
					"input":7,
					"interpolation":"LINEAR",
					"output":60
				},
				{
					"input":7,
					"interpolation":"LINEAR",
					"output":61
				},
				{
					"input":7,
					"interpolation":"LINEAR",
					"output":62
				},
				{
					"input":7,
					"interpolation":"LINEAR",
					"output":63
				},
				{
					"input":7,
					"interpolation":"LINEAR",
					"output":64
				},
				{
					"input":7,
					"interpolation":"LINEAR",
					"output":65
				},
				{
					"input":7,
					"interpolation":"LINEAR",
					"output":66
				},
				{
					"input":7,
					"interpolation":"LINEAR",
					"output":67
				},
				{
					"input":7,
					"interpolation":"LINEAR",
					"output":68
				},
				{
					"input":7,
					"interpolation":"LINEAR",
					"output":69
				},
				{
					"input":7,
					"interpolation":"LINEAR",
					"output":70
				},
				{
					"input":7,
					"interpolation":"LINEAR",
					"output":71
				},
				{
					"input":7,
					"interpolation":"LINEAR",
					"output":72
				},
				{
					"input":7,
					"interpolation":"LINEAR",
					"output":73
				},
				{
					"input":7,
					"interpolation":"LINEAR",
					"output":74
				},
				{
					"input":7,
					"interpolation":"LINEAR",
					"output":75
				},
				{
					"input":7,
					"interpolation":"LINEAR",
					"output":76
				},
				{
					"input":7,
					"interpolation":"LINEAR",
					"output":77
				},
				{
					"input":7,
					"interpolation":"LINEAR",
					"output":78
				},
				{
					"input":7,
					"interpolation":"LINEAR",
					"output":79
				},
				{
					"input":7,
					"interpolation":"LINEAR",
					"output":80
				},
				{
					"input":7,
					"interpolation":"LINEAR",
					"output":81
				},
				{
					"input":7,
					"interpolation":"LINEAR",
					"output":82
				},
				{
					"input":7,
					"interpolation":"LINEAR",
					"output":83
				},
				{
					"input":7,
					"interpolation":"LINEAR",
					"output":84
				},
				{
					"input":7,
					"interpolation":"LINEAR",
					"output":85
				},
				{
					"input":7,
					"interpolation":"LINEAR",
					"output":86
				},
				{
					"input":7,
					"interpolation":"LINEAR",
					"output":87
				},
				{
					"input":7,
					"interpolation":"LINEAR",
					"output":88
				},
				{
					"input":7,
					"interpolation":"LINEAR",
					"output":89
				},
				{
					"input":7,
					"interpolation":"LINEAR",
					"output":90
				},
				{
					"input":7,
					"interpolation":"LINEAR",
					"output":91
				},
				{
					"input":7,
					"interpolation":"LINEAR",
					"output":92
				},
				{
					"input":7,
					"interpolation":"LINEAR",
					"output":93
				},
				{
					"input":7,
					"interpolation":"LINEAR",
					"output":94
				},
				{
					"input":7,
					"interpolation":"LINEAR",
					"output":95
				},
				{
					"input":7,
					"interpolation":"LINEAR",
					"output":96
				},
				{
					"input":7,
					"interpolation":"LINEAR",
					"output":97
				},
				{
					"input":7,
					"interpolation":"LINEAR",
					"output":98
				},
				{
					"input":7,
					"interpolation":"LINEAR",
					"output":99
				},
				{
					"input":7,
					"interpolation":"LINEAR",
					"output":100
				},
				{
					"input":7,
					"interpolation":"LINEAR",
					"output":101
				},
				{
					"input":7,
					"interpolation":"LINEAR",
					"output":102
				},
				{
					"input":7,
					"interpolation":"LINEAR",
					"output":103
				},
				{
					"input":7,
					"interpolation":"LINEAR",
					"output":104
				},
				{
					"input":7,
					"interpolation":"LINEAR",
					"output":105
				},
				{
					"input":7,
					"interpolation":"LINEAR",
					"output":106
				},
				{
					"input":7,
					"interpolation":"LINEAR",
					"output":107
				},
				{
					"input":7,
					"interpolation":"LINEAR",
					"output":108
				},
				{
					"input":7,
					"interpolation":"LINEAR",
					"output":109
				},
				{
					"input":7,
					"interpolation":"LINEAR",
					"output":110
				},
				{
					"input":7,
					"interpolation":"LINEAR",
					"output":111
				},
				{
					"input":7,
					"interpolation":"LINEAR",
					"output":112
				},
				{
					"input":7,
					"interpolation":"LINEAR",
					"output":113
				},
				{
					"input":7,
					"interpolation":"LINEAR",
					"output":114
				},
				{
					"input":7,
					"interpolation":"LINEAR",
					"output":115
				},
				{
					"input":7,
					"interpolation":"LINEAR",
					"output":116
				},
				{
					"input":7,
					"interpolation":"LINEAR",
					"output":117
				},
				{
					"input":7,
					"interpolation":"LINEAR",
					"output":118
				},
				{
					"input":7,
					"interpolation":"LINEAR",
					"output":119
				},
				{
					"input":7,
					"interpolation":"LINEAR",
					"output":120
				},
				{
					"input":7,
					"interpolation":"LINEAR",
					"output":121
				},
				{
					"input":7,
					"interpolation":"LINEAR",
					"output":122
				},
				{
					"input":7,
					"interpolation":"LINEAR",
					"output":123
				},
				{
					"input":7,
					"interpolation":"LINEAR",
					"output":124
				},
				{
					"input":7,
					"interpolation":"LINEAR",
					"output":125
				},
				{
					"input":7,
					"interpolation":"LINEAR",
					"output":126
				},
				{
					"input":7,
					"interpolation":"LINEAR",
					"output":127
				},
				{
					"input":7,
					"interpolation":"LINEAR",
					"output":128
				},
				{
					"input":7,
					"interpolation":"LINEAR",
					"output":129
				},
				{
					"input":7,
					"interpolation":"LINEAR",
					"output":130
				},
				{
					"input":7,
					"interpolation":"LINEAR",
					"output":131
				},
				{
					"input":7,
					"interpolation":"LINEAR",
					"output":132
				},
				{
					"input":7,
					"interpolation":"LINEAR",
					"output":133
				},
				{
					"input":7,
					"interpolation":"LINEAR",
					"output":134
				},
				{
					"input":7,
					"interpolation":"LINEAR",
					"output":135
				},
				{
					"input":7,
					"interpolation":"LINEAR",
					"output":136
				},
				{
					"input":7,
					"interpolation":"LINEAR",
					"output":137
				},
				{
					"input":7,
					"interpolation":"LINEAR",
					"output":138
				},
				{
					"input":7,
					"interpolation":"LINEAR",
					"output":139
				},
				{
					"input":7,
					"interpolation":"LINEAR",
					"output":140
				},
				{
					"input":7,
					"interpolation":"LINEAR",
					"output":141
				},
				{
					"input":7,
					"interpolation":"LINEAR",
					"output":142
				},
				{
					"input":7,
					"interpolation":"LINEAR",
					"output":143
				},
				{
					"input":7,
					"interpolation":"LINEAR",
					"output":144
				},
				{
					"input":7,
					"interpolation":"LINEAR",
					"output":145
				},
				{
					"input":7,
					"interpolation":"LINEAR",
					"output":146
				},
				{
					"input":7,
					"interpolation":"LINEAR",
					"output":147
				},
				{
					"input":7,
					"interpolation":"LINEAR",
					"output":148
				},
				{
					"input":7,
					"interpolation":"LINEAR",
					"output":149
				},
				{
					"input":7,
					"interpolation":"LINEAR",
					"output":150
				},
				{
					"input":7,
					"interpolation":"LINEAR",
					"output":151
				},
				{
					"input":7,
					"interpolation":"LINEAR",
					"output":152
				},
				{
					"input":7,
					"interpolation":"LINEAR",
					"output":153
				},
				{
					"input":7,
					"interpolation":"LINEAR",
					"output":154
				},
				{
					"input":7,
					"interpolation":"LINEAR",
					"output":155
				},
				{
					"input":7,
					"interpolation":"LINEAR",
					"output":156
				},
				{
					"input":7,
					"interpolation":"LINEAR",
					"output":157
				},
				{
					"input":7,
					"interpolation":"LINEAR",
					"output":158
				},
				{
					"input":7,
					"interpolation":"LINEAR",
					"output":159
				},
				{
					"input":7,
					"interpolation":"LINEAR",
					"output":160
				},
				{
					"input":7,
					"interpolation":"LINEAR",
					"output":161
				},
				{
					"input":7,
					"interpolation":"LINEAR",
					"output":162
				},
				{
					"input":7,
					"interpolation":"LINEAR",
					"output":163
				},
				{
					"input":7,
					"interpolation":"LINEAR",
					"output":164
				},
				{
					"input":7,
					"interpolation":"LINEAR",
					"output":165
				},
				{
					"input":7,
					"interpolation":"LINEAR",
					"output":166
				},
				{
					"input":7,
					"interpolation":"LINEAR",
					"output":167
				},
				{
					"input":7,
					"interpolation":"LINEAR",
					"output":168
				},
				{
					"input":7,
					"interpolation":"LINEAR",
					"output":169
				},
				{
					"input":7,
					"interpolation":"LINEAR",
					"output":170
				},
				{
					"input":7,
					"interpolation":"LINEAR",
					"output":171
				},
				{
					"input":7,
					"interpolation":"LINEAR",
					"output":172
				},
				{
					"input":7,
					"interpolation":"LINEAR",
					"output":173
				},
				{
					"input":7,
					"interpolation":"LINEAR",
					"output":174
				},
				{
					"input":7,
					"interpolation":"LINEAR",
					"output":175
				},
				{
					"input":7,
					"interpolation":"LINEAR",
					"output":176
				},
				{
					"input":7,
					"interpolation":"LINEAR",
					"output":177
				},
				{
					"input":7,
					"interpolation":"LINEAR",
					"output":178
				},
				{
					"input":7,
					"interpolation":"LINEAR",
					"output":179
				},
				{
					"input":7,
					"interpolation":"LINEAR",
					"output":180
				},
				{
					"input":7,
					"interpolation":"LINEAR",
					"output":181
				},
				{
					"input":7,
					"interpolation":"LINEAR",
					"output":182
				},
				{
					"input":7,
					"interpolation":"LINEAR",
					"output":183
				},
				{
					"input":7,
					"interpolation":"LINEAR",
					"output":184
				},
				{
					"input":7,
					"interpolation":"LINEAR",
					"output":185
				},
				{
					"input":7,
					"interpolation":"LINEAR",
					"output":186
				},
				{
					"input":7,
					"interpolation":"LINEAR",
					"output":187
				},
				{
					"input":7,
					"interpolation":"LINEAR",
					"output":188
				},
				{
					"input":7,
					"interpolation":"LINEAR",
					"output":189
				},
				{
					"input":7,
					"interpolation":"LINEAR",
					"output":190
				},
				{
					"input":7,
					"interpolation":"LINEAR",
					"output":191
				},
				{
					"input":7,
					"interpolation":"LINEAR",
					"output":192
				},
				{
					"input":7,
					"interpolation":"LINEAR",
					"output":193
				},
				{
					"input":7,
					"interpolation":"LINEAR",
					"output":194
				},
				{
					"input":7,
					"interpolation":"LINEAR",
					"output":195
				},
				{
					"input":7,
					"interpolation":"LINEAR",
					"output":196
				},
				{
					"input":7,
					"interpolation":"LINEAR",
					"output":197
				},
				{
					"input":7,
					"interpolation":"LINEAR",
					"output":198
				},
				{
					"input":7,
					"interpolation":"LINEAR",
					"output":199
				},
				{
					"input":7,
					"interpolation":"LINEAR",
					"output":200
				},
				{
					"input":7,
					"interpolation":"LINEAR",
					"output":201
				},
				{
					"input":7,
					"interpolation":"LINEAR",
					"output":202
				},
				{
					"input":7,
					"interpolation":"LINEAR",
					"output":203
				},
				{
					"input":7,
					"interpolation":"LINEAR",
					"output":204
				},
				{
					"input":7,
					"interpolation":"LINEAR",
					"output":205
				},
				{
					"input":7,
					"interpolation":"LINEAR",
					"output":206
				},
				{
					"input":7,
					"interpolation":"LINEAR",
					"output":207
				},
				{
					"input":7,
					"interpolation":"LINEAR",
					"output":208
				},
				{
					"input":7,
					"interpolation":"LINEAR",
					"output":209
				},
				{
					"input":7,
					"interpolation":"LINEAR",
					"output":210
				}
			]
		}
	],
	"materials":[
		{
			"doubleSided":true,
			"extensions":{
				"KHR_materials_specular":{
					"specularColorFactor":[
						2.0,
						2.0,
						2.0
					],
					"specularColorTexture":{
						"index":0
					}
				}
			},
			"name":"Peasant_Girl",
			"normalTexture":{
				"index":1
			},
			"pbrMetallicRoughness":{
				"baseColorTexture":{
					"index":2
				},
				"metallicFactor":0,
				"roughnessFactor":0.7487671971321106
			}
		}
	],
	"meshes":[
		{
			"name":"Peasant_girl",
			"primitives":[
				{
					"attributes":{
						"POSITION":0,
						"NORMAL":1,
						"TEXCOORD_0":2,
						"JOINTS_0":3,
						"WEIGHTS_0":4
					},
					"indices":5,
					"material":0
				}
			]
		}
	],
	"textures":[
		{
			"sampler":0,
			"source":0
		},
		{
			"sampler":0,
			"source":1
		},
		{
			"sampler":0,
			"source":2
		}
	],
	"images":[
		{
			"mimeType":"image/png",
			"name":"Peasant_Girl_specular",
			"uri":"Peasant_Girl_specular.png"
		},
		{
			"mimeType":"image/png",
			"name":"Peasant_Girl_normal",
			"uri":"Peasant_Girl_normal.png"
		},
		{
			"mimeType":"image/png",
			"name":"Peasant_Girl_diffuse",
			"uri":"Peasant_Girl_diffuse.png"
		}
	],
	"skins":[
		{
			"inverseBindMatrices":6,
			"joints":[
				68,
				55,
				54,
				53,
				4,
				3,
				0,
				1,
				2,
				28,
				27,
				26,
				25,
				8,
				7,
				6,
				5,
				12,
				11,
				10,
				9,
				16,
				15,
				14,
				13,
				20,
				19,
				18,
				17,
				24,
				23,
				22,
				21,
				52,
				51,
				50,
				49,
				32,
				31,
				30,
				29,
				36,
				35,
				34,
				33,
				40,
				39,
				38,
				37,
				44,
				43,
				42,
				41,
				48,
				47,
				46,
				45,
				60,
				59,
				58,
				57,
				56,
				65,
				64,
				63,
				62,
				61,
				66,
				67
			],
			"name":"Armature"
		}
	],
	"accessors":[
		{
			"bufferView":0,
			"componentType":5126,
			"count":3304,
			"max":[
				0.8954106569290161,
				2.0256903171539307,
				0.2725188136100769
			],
			"min":[
				-0.896475076675415,
				-0.006921916268765926,
				-0.3136574625968933
			],
			"type":"VEC3"
		},
		{
			"bufferView":1,
			"componentType":5126,
			"count":3304,
			"type":"VEC3"
		},
		{
			"bufferView":2,
			"componentType":5126,
			"count":3304,
			"type":"VEC2"
		},
		{
			"bufferView":3,
			"componentType":5121,
			"count":3304,
			"type":"VEC4"
		},
		{
			"bufferView":4,
			"componentType":5126,
			"count":3304,
			"type":"VEC4"
		},
		{
			"bufferView":5,
			"componentType":5123,
			"count":15108,
			"type":"SCALAR"
		},
		{
			"bufferView":6,
			"componentType":5126,
			"count":69,
			"type":"MAT4"
		},
		{
			"bufferView":7,
			"componentType":5126,
			"count":1346,
			"max":[
				44.86666666666667
			],
			"min":[
				0.03333333333333333
			],
			"type":"SCALAR"
		},
		{
			"bufferView":8,
			"componentType":5126,
			"count":1346,
			"type":"VEC3"
		},
		{
			"bufferView":9,
			"componentType":5126,
			"count":1346,
			"type":"VEC4"
		},
		{
			"bufferView":10,
			"componentType":5126,
			"count":1346,
			"type":"VEC3"
		},
		{
			"bufferView":11,
			"componentType":5126,
			"count":1346,
			"type":"VEC3"
		},
		{
			"bufferView":12,
			"componentType":5126,
			"count":1346,
			"type":"VEC4"
		},
		{
			"bufferView":13,
			"componentType":5126,
			"count":1346,
			"type":"VEC3"
		},
		{
			"bufferView":14,
			"componentType":5126,
			"count":1346,
			"type":"VEC3"
		},
		{
			"bufferView":15,
			"componentType":5126,
			"count":1346,
			"type":"VEC4"
		},
		{
			"bufferView":16,
			"componentType":5126,
			"count":1346,
			"type":"VEC3"
		},
		{
			"bufferView":17,
			"componentType":5126,
			"count":1346,
			"type":"VEC3"
		},
		{
			"bufferView":18,
			"componentType":5126,
			"count":1346,
			"type":"VEC4"
		},
		{
			"bufferView":19,
			"componentType":5126,
			"count":1346,
			"type":"VEC3"
		},
		{
			"bufferView":20,
			"componentType":5126,
			"count":1346,
			"type":"VEC3"
		},
		{
			"bufferView":21,
			"componentType":5126,
			"count":1346,
			"type":"VEC4"
		},
		{
			"bufferView":22,
			"componentType":5126,
			"count":1346,
			"type":"VEC3"
		},
		{
			"bufferView":23,
			"componentType":5126,
			"count":1346,
			"type":"VEC3"
		},
		{
			"bufferView":24,
			"componentType":5126,
			"count":1346,
			"type":"VEC4"
		},
		{
			"bufferView":25,
			"componentType":5126,
			"count":1346,
			"type":"VEC3"
		},
		{
			"bufferView":26,
			"componentType":5126,
			"count":1346,
			"type":"VEC3"
		},
		{
			"bufferView":27,
			"componentType":5126,
			"count":1346,
			"type":"VEC4"
		},
		{
			"bufferView":28,
			"componentType":5126,
			"count":1346,
			"type":"VEC3"
		},
		{
			"bufferView":29,
			"componentType":5126,
			"count":1346,
			"type":"VEC3"
		},
		{
			"bufferView":30,
			"componentType":5126,
			"count":1346,
			"type":"VEC3"
		},
		{
			"bufferView":31,
			"componentType":5126,
			"count":1346,
			"type":"VEC3"
		},
		{
			"bufferView":32,
			"componentType":5126,
			"count":1346,
			"type":"VEC4"
		},
		{
			"bufferView":33,
			"componentType":5126,
			"count":1346,
			"type":"VEC3"
		},
		{
			"bufferView":34,
			"componentType":5126,
			"count":1346,
			"type":"VEC3"
		},
		{
			"bufferView":35,
			"componentType":5126,
			"count":1346,
			"type":"VEC4"
		},
		{
			"bufferView":36,
			"componentType":5126,
			"count":1346,
			"type":"VEC3"
		},
		{
			"bufferView":37,
			"componentType":5126,
			"count":1346,
			"type":"VEC3"
		},
		{
			"bufferView":38,
			"componentType":5126,
			"count":1346,
			"type":"VEC4"
		},
		{
			"bufferView":39,
			"componentType":5126,
			"count":1346,
			"type":"VEC3"
		},
		{
			"bufferView":40,
			"componentType":5126,
			"count":1346,
			"type":"VEC3"
		},
		{
			"bufferView":41,
			"componentType":5126,
			"count":1346,
			"type":"VEC4"
		},
		{
			"bufferView":42,
			"componentType":5126,
			"count":1346,
			"type":"VEC3"
		},
		{
			"bufferView":43,
			"componentType":5126,
			"count":1346,
			"type":"VEC3"
		},
		{
			"bufferView":44,
			"componentType":5126,
			"count":1346,
			"type":"VEC4"
		},
		{
			"bufferView":45,
			"componentType":5126,
			"count":1346,
			"type":"VEC3"
		},
		{
			"bufferView":46,
			"componentType":5126,
			"count":1346,
			"type":"VEC3"
		},
		{
			"bufferView":47,
			"componentType":5126,
			"count":1346,
			"type":"VEC4"
		},
		{
			"bufferView":48,
			"componentType":5126,
			"count":1346,
			"type":"VEC3"
		},
		{
			"bufferView":49,
			"componentType":5126,
			"count":1346,
			"type":"VEC3"
		},
		{
			"bufferView":50,
			"componentType":5126,
			"count":1346,
			"type":"VEC4"
		},
		{
			"bufferView":51,
			"componentType":5126,
			"count":1346,
			"type":"VEC3"
		},
		{
			"bufferView":52,
			"componentType":5126,
			"count":1346,
			"type":"VEC3"
		},
		{
			"bufferView":53,
			"componentType":5126,
			"count":1346,
			"type":"VEC4"
		},
		{
			"bufferView":54,
			"componentType":5126,
			"count":1346,
			"type":"VEC3"
		},
		{
			"bufferView":55,
			"componentType":5126,
			"count":1346,
			"type":"VEC3"
		},
		{
			"bufferView":56,
			"componentType":5126,
			"count":1346,
			"type":"VEC4"
		},
		{
			"bufferView":57,
			"componentType":5126,
			"count":1346,
			"type":"VEC3"
		},
		{
			"bufferView":58,
			"componentType":5126,
			"count":1346,
			"type":"VEC3"
		},
		{
			"bufferView":59,
			"componentType":5126,
			"count":1346,
			"type":"VEC4"
		},
		{
			"bufferView":60,
			"componentType":5126,
			"count":1346,
			"type":"VEC3"
		},
		{
			"bufferView":61,
			"componentType":5126,
			"count":1346,
			"type":"VEC3"
		},
		{
			"bufferView":62,
			"componentType":5126,
			"count":1346,
			"type":"VEC4"
		},
		{
			"bufferView":63,
			"componentType":5126,
			"count":1346,
			"type":"VEC3"
		},
		{
			"bufferView":64,
			"componentType":5126,
			"count":1346,
			"type":"VEC3"
		},
		{
			"bufferView":65,
			"componentType":5126,
			"count":1346,
			"type":"VEC4"
		},
		{
			"bufferView":66,
			"componentType":5126,
			"count":1346,
			"type":"VEC3"
		},
		{
			"bufferView":67,
			"componentType":5126,
			"count":1346,
			"type":"VEC3"
		},
		{
			"bufferView":68,
			"componentType":5126,
			"count":1346,
			"type":"VEC4"
		},
		{
			"bufferView":69,
			"componentType":5126,
			"count":1346,
			"type":"VEC3"
		},
		{
			"bufferView":70,
			"componentType":5126,
			"count":1346,
			"type":"VEC3"
		},
		{
			"bufferView":71,
			"componentType":5126,
			"count":1346,
			"type":"VEC4"
		},
		{
			"bufferView":72,
			"componentType":5126,
			"count":1346,
			"type":"VEC3"
		},
		{
			"bufferView":73,
			"componentType":5126,
			"count":1346,
			"type":"VEC3"
		},
		{
			"bufferView":74,
			"componentType":5126,
			"count":1346,
			"type":"VEC4"
		},
		{
			"bufferView":75,
			"componentType":5126,
			"count":1346,
			"type":"VEC3"
		},
		{
			"bufferView":76,
			"componentType":5126,
			"count":1346,
			"type":"VEC3"
		},
		{
			"bufferView":77,
			"componentType":5126,
			"count":1346,
			"type":"VEC4"
		},
		{
			"bufferView":78,
			"componentType":5126,
			"count":1346,
			"type":"VEC3"
		},
		{
			"bufferView":79,
			"componentType":5126,
			"count":1346,
			"type":"VEC3"
		},
		{
			"bufferView":80,
			"componentType":5126,
			"count":1346,
			"type":"VEC4"
		},
		{
			"bufferView":81,
			"componentType":5126,
			"count":1346,
			"type":"VEC3"
		},
		{
			"bufferView":82,
			"componentType":5126,
			"count":1346,
			"type":"VEC3"
		},
		{
			"bufferView":83,
			"componentType":5126,
			"count":1346,
			"type":"VEC4"
		},
		{
			"bufferView":84,
			"componentType":5126,
			"count":1346,
			"type":"VEC3"
		},
		{
			"bufferView":85,
			"componentType":5126,
			"count":1346,
			"type":"VEC3"
		},
		{
			"bufferView":86,
			"componentType":5126,
			"count":1346,
			"type":"VEC4"
		},
		{
			"bufferView":87,
			"componentType":5126,
			"count":1346,
			"type":"VEC3"
		},
		{
			"bufferView":88,
			"componentType":5126,
			"count":1346,
			"type":"VEC3"
		},
		{
			"bufferView":89,
			"componentType":5126,
			"count":1346,
			"type":"VEC4"
		},
		{
			"bufferView":90,
			"componentType":5126,
			"count":1346,
			"type":"VEC3"
		},
		{
			"bufferView":91,
			"componentType":5126,
			"count":1346,
			"type":"VEC3"
		},
		{
			"bufferView":92,
			"componentType":5126,
			"count":1346,
			"type":"VEC4"
		},
		{
			"bufferView":93,
			"componentType":5126,
			"count":1346,
			"type":"VEC3"
		},
		{
			"bufferView":94,
			"componentType":5126,
			"count":1346,
			"type":"VEC3"
		},
		{
			"bufferView":95,
			"componentType":5126,
			"count":1346,
			"type":"VEC4"
		},
		{
			"bufferView":96,
			"componentType":5126,
			"count":1346,
			"type":"VEC3"
		},
		{
			"bufferView":97,
			"componentType":5126,
			"count":1346,
			"type":"VEC3"
		},
		{
			"bufferView":98,
			"componentType":5126,
			"count":1346,
			"type":"VEC4"
		},
		{
			"bufferView":99,
			"componentType":5126,
			"count":1346,
			"type":"VEC3"
		},
		{
			"bufferView":100,
			"componentType":5126,
			"count":1346,
			"type":"VEC3"
		},
		{
			"bufferView":101,
			"componentType":5126,
			"count":1346,
			"type":"VEC4"
		},
		{
			"bufferView":102,
			"componentType":5126,
			"count":1346,
			"type":"VEC3"
		},
		{
			"bufferView":103,
			"componentType":5126,
			"count":1346,
			"type":"VEC3"
		},
		{
			"bufferView":104,
			"componentType":5126,
			"count":1346,
			"type":"VEC4"
		},
		{
			"bufferView":105,
			"componentType":5126,
			"count":1346,
			"type":"VEC3"
		},
		{
			"bufferView":106,
			"componentType":5126,
			"count":1346,
			"type":"VEC3"
		},
		{
			"bufferView":107,
			"componentType":5126,
			"count":1346,
			"type":"VEC4"
		},
		{
			"bufferView":108,
			"componentType":5126,
			"count":1346,
			"type":"VEC3"
		},
		{
			"bufferView":109,
			"componentType":5126,
			"count":1346,
			"type":"VEC3"
		},
		{
			"bufferView":110,
			"componentType":5126,
			"count":1346,
			"type":"VEC4"
		},
		{
			"bufferView":111,
			"componentType":5126,
			"count":1346,
			"type":"VEC3"
		},
		{
			"bufferView":112,
			"componentType":5126,
			"count":1346,
			"type":"VEC3"
		},
		{
			"bufferView":113,
			"componentType":5126,
			"count":1346,
			"type":"VEC4"
		},
		{
			"bufferView":114,
			"componentType":5126,
			"count":1346,
			"type":"VEC3"
		},
		{
			"bufferView":115,
			"componentType":5126,
			"count":1346,
			"type":"VEC3"
		},
		{
			"bufferView":116,
			"componentType":5126,
			"count":1346,
			"type":"VEC4"
		},
		{
			"bufferView":117,
			"componentType":5126,
			"count":1346,
			"type":"VEC3"
		},
		{
			"bufferView":118,
			"componentType":5126,
			"count":1346,
			"type":"VEC3"
		},
		{
			"bufferView":119,
			"componentType":5126,
			"count":1346,
			"type":"VEC4"
		},
		{
			"bufferView":120,
			"componentType":5126,
			"count":1346,
			"type":"VEC3"
		},
		{
			"bufferView":121,
			"componentType":5126,
			"count":1346,
			"type":"VEC3"
		},
		{
			"bufferView":122,
			"componentType":5126,
			"count":1346,
			"type":"VEC4"
		},
		{
			"bufferView":123,
			"componentType":5126,
			"count":1346,
			"type":"VEC3"
		},
		{
			"bufferView":124,
			"componentType":5126,
			"count":1346,
			"type":"VEC3"
		},
		{
			"bufferView":125,
			"componentType":5126,
			"count":1346,
			"type":"VEC4"
		},
		{
			"bufferView":126,
			"componentType":5126,
			"count":1346,
			"type":"VEC3"
		},
		{
			"bufferView":127,
			"componentType":5126,
			"count":1346,
			"type":"VEC3"
		},
		{
			"bufferView":128,
			"componentType":5126,
			"count":1346,
			"type":"VEC4"
		},
		{
			"bufferView":129,
			"componentType":5126,
			"count":1346,
			"type":"VEC3"
		},
		{
			"bufferView":130,
			"componentType":5126,
			"count":1346,
			"type":"VEC3"
		},
		{
			"bufferView":131,
			"componentType":5126,
			"count":1346,
			"type":"VEC4"
		},
		{
			"bufferView":132,
			"componentType":5126,
			"count":1346,
			"type":"VEC3"
		},
		{
			"bufferView":133,
			"componentType":5126,
			"count":1346,
			"type":"VEC3"
		},
		{
			"bufferView":134,
			"componentType":5126,
			"count":1346,
			"type":"VEC4"
		},
		{
			"bufferView":135,
			"componentType":5126,
			"count":1346,
			"type":"VEC3"
		},
		{
			"bufferView":136,
			"componentType":5126,
			"count":1346,
			"type":"VEC3"
		},
		{
			"bufferView":137,
			"componentType":5126,
			"count":1346,
			"type":"VEC4"
		},
		{
			"bufferView":138,
			"componentType":5126,
			"count":1346,
			"type":"VEC3"
		},
		{
			"bufferView":139,
			"componentType":5126,
			"count":1346,
			"type":"VEC3"
		},
		{
			"bufferView":140,
			"componentType":5126,
			"count":1346,
			"type":"VEC4"
		},
		{
			"bufferView":141,
			"componentType":5126,
			"count":1346,
			"type":"VEC3"
		},
		{
			"bufferView":142,
			"componentType":5126,
			"count":1346,
			"type":"VEC3"
		},
		{
			"bufferView":143,
			"componentType":5126,
			"count":1346,
			"type":"VEC4"
		},
		{
			"bufferView":144,
			"componentType":5126,
			"count":1346,
			"type":"VEC3"
		},
		{
			"bufferView":145,
			"componentType":5126,
			"count":1346,
			"type":"VEC3"
		},
		{
			"bufferView":146,
			"componentType":5126,
			"count":1346,
			"type":"VEC4"
		},
		{
			"bufferView":147,
			"componentType":5126,
			"count":1346,
			"type":"VEC3"
		},
		{
			"bufferView":148,
			"componentType":5126,
			"count":1346,
			"type":"VEC3"
		},
		{
			"bufferView":149,
			"componentType":5126,
			"count":1346,
			"type":"VEC4"
		},
		{
			"bufferView":150,
			"componentType":5126,
			"count":1346,
			"type":"VEC3"
		},
		{
			"bufferView":151,
			"componentType":5126,
			"count":1346,
			"type":"VEC3"
		},
		{
			"bufferView":152,
			"componentType":5126,
			"count":1346,
			"type":"VEC4"
		},
		{
			"bufferView":153,
			"componentType":5126,
			"count":1346,
			"type":"VEC3"
		},
		{
			"bufferView":154,
			"componentType":5126,
			"count":1346,
			"type":"VEC3"
		},
		{
			"bufferView":155,
			"componentType":5126,
			"count":1346,
			"type":"VEC4"
		},
		{
			"bufferView":156,
			"componentType":5126,
			"count":1346,
			"type":"VEC3"
		},
		{
			"bufferView":157,
			"componentType":5126,
			"count":1346,
			"type":"VEC3"
		},
		{
			"bufferView":158,
			"componentType":5126,
			"count":1346,
			"type":"VEC4"
		},
		{
			"bufferView":159,
			"componentType":5126,
			"count":1346,
			"type":"VEC3"
		},
		{
			"bufferView":160,
			"componentType":5126,
			"count":1346,
			"type":"VEC3"
		},
		{
			"bufferView":161,
			"componentType":5126,
			"count":1346,
			"type":"VEC4"
		},
		{
			"bufferView":162,
			"componentType":5126,
			"count":1346,
			"type":"VEC3"
		},
		{
			"bufferView":163,
			"componentType":5126,
			"count":1346,
			"type":"VEC3"
		},
		{
			"bufferView":164,
			"componentType":5126,
			"count":1346,
			"type":"VEC4"
		},
		{
			"bufferView":165,
			"componentType":5126,
			"count":1346,
			"type":"VEC3"
		},
		{
			"bufferView":166,
			"componentType":5126,
			"count":1346,
			"type":"VEC3"
		},
		{
			"bufferView":167,
			"componentType":5126,
			"count":1346,
			"type":"VEC4"
		},
		{
			"bufferView":168,
			"componentType":5126,
			"count":1346,
			"type":"VEC3"
		},
		{
			"bufferView":169,
			"componentType":5126,
			"count":1346,
			"type":"VEC3"
		},
		{
			"bufferView":170,
			"componentType":5126,
			"count":1346,
			"type":"VEC4"
		},
		{
			"bufferView":171,
			"componentType":5126,
			"count":1346,
			"type":"VEC3"
		},
		{
			"bufferView":172,
			"componentType":5126,
			"count":1346,
			"type":"VEC3"
		},
		{
			"bufferView":173,
			"componentType":5126,
			"count":1346,
			"type":"VEC4"
		},
		{
			"bufferView":174,
			"componentType":5126,
			"count":1346,
			"type":"VEC3"
		},
		{
			"bufferView":175,
			"componentType":5126,
			"count":1346,
			"type":"VEC3"
		},
		{
			"bufferView":176,
			"componentType":5126,
			"count":1346,
			"type":"VEC4"
		},
		{
			"bufferView":177,
			"componentType":5126,
			"count":1346,
			"type":"VEC3"
		},
		{
			"bufferView":178,
			"componentType":5126,
			"count":1346,
			"type":"VEC3"
		},
		{
			"bufferView":179,
			"componentType":5126,
			"count":1346,
			"type":"VEC4"
		},
		{
			"bufferView":180,
			"componentType":5126,
			"count":1346,
			"type":"VEC3"
		},
		{
			"bufferView":181,
			"componentType":5126,
			"count":1346,
			"type":"VEC3"
		},
		{
			"bufferView":182,
			"componentType":5126,
			"count":1346,
			"type":"VEC4"
		},
		{
			"bufferView":183,
			"componentType":5126,
			"count":1346,
			"type":"VEC3"
		},
		{
			"bufferView":184,
			"componentType":5126,
			"count":1346,
			"type":"VEC3"
		},
		{
			"bufferView":185,
			"componentType":5126,
			"count":1346,
			"type":"VEC4"
		},
		{
			"bufferView":186,
			"componentType":5126,
			"count":1346,
			"type":"VEC3"
		},
		{
			"bufferView":187,
			"componentType":5126,
			"count":1346,
			"type":"VEC3"
		},
		{
			"bufferView":188,
			"componentType":5126,
			"count":1346,
			"type":"VEC4"
		},
		{
			"bufferView":189,
			"componentType":5126,
			"count":1346,
			"type":"VEC3"
		},
		{
			"bufferView":190,
			"componentType":5126,
			"count":1346,
			"type":"VEC3"
		},
		{
			"bufferView":191,
			"componentType":5126,
			"count":1346,
			"type":"VEC4"
		},
		{
			"bufferView":192,
			"componentType":5126,
			"count":1346,
			"type":"VEC3"
		},
		{
			"bufferView":193,
			"componentType":5126,
			"count":1346,
			"type":"VEC3"
		},
		{
			"bufferView":194,
			"componentType":5126,
			"count":1346,
			"type":"VEC4"
		},
		{
			"bufferView":195,
			"componentType":5126,
			"count":1346,
			"type":"VEC3"
		},
		{
			"bufferView":196,
			"componentType":5126,
			"count":1346,
			"type":"VEC3"
		},
		{
			"bufferView":197,
			"componentType":5126,
			"count":1346,
			"type":"VEC4"
		},
		{
			"bufferView":198,
			"componentType":5126,
			"count":1346,
			"type":"VEC3"
		},
		{
			"bufferView":199,
			"componentType":5126,
			"count":1346,
			"type":"VEC3"
		},
		{
			"bufferView":200,
			"componentType":5126,
			"count":1346,
			"type":"VEC4"
		},
		{
			"bufferView":201,
			"componentType":5126,
			"count":1346,
			"type":"VEC3"
		},
		{
			"bufferView":202,
			"componentType":5126,
			"count":1346,
			"type":"VEC3"
		},
		{
			"bufferView":203,
			"componentType":5126,
			"count":1346,
			"type":"VEC4"
		},
		{
			"bufferView":204,
			"componentType":5126,
			"count":1346,
			"type":"VEC3"
		},
		{
			"bufferView":205,
			"componentType":5126,
			"count":1346,
			"type":"VEC3"
		},
		{
			"bufferView":206,
			"componentType":5126,
			"count":1346,
			"type":"VEC4"
		},
		{
			"bufferView":207,
			"componentType":5126,
			"count":1346,
			"type":"VEC3"
		},
		{
			"bufferView":208,
			"componentType":5126,
			"count":1346,
			"type":"VEC3"
		},
		{
			"bufferView":209,
			"componentType":5126,
			"count":1346,
			"type":"VEC4"
		},
		{
			"bufferView":210,
			"componentType":5126,
			"count":1346,
			"type":"VEC3"
		}
	],
	"bufferViews":[
		{
			"buffer":0,
			"byteLength":39648,
			"byteOffset":0,
			"target":34962
		},
		{
			"buffer":0,
			"byteLength":39648,
			"byteOffset":39648,
			"target":34962
		},
		{
			"buffer":0,
			"byteLength":26432,
			"byteOffset":79296,
			"target":34962
		},
		{
			"buffer":0,
			"byteLength":13216,
			"byteOffset":105728,
			"target":34962
		},
		{
			"buffer":0,
			"byteLength":52864,
			"byteOffset":118944,
			"target":34962
		},
		{
			"buffer":0,
			"byteLength":30216,
			"byteOffset":171808,
			"target":34963
		},
		{
			"buffer":0,
			"byteLength":4416,
			"byteOffset":202024
		},
		{
			"buffer":0,
			"byteLength":5384,
			"byteOffset":206440
		},
		{
			"buffer":0,
			"byteLength":16152,
			"byteOffset":211824
		},
		{
			"buffer":0,
			"byteLength":21536,
			"byteOffset":227976
		},
		{
			"buffer":0,
			"byteLength":16152,
			"byteOffset":249512
		},
		{
			"buffer":0,
			"byteLength":16152,
			"byteOffset":265664
		},
		{
			"buffer":0,
			"byteLength":21536,
			"byteOffset":281816
		},
		{
			"buffer":0,
			"byteLength":16152,
			"byteOffset":303352
		},
		{
			"buffer":0,
			"byteLength":16152,
			"byteOffset":319504
		},
		{
			"buffer":0,
			"byteLength":21536,
			"byteOffset":335656
		},
		{
			"buffer":0,
			"byteLength":16152,
			"byteOffset":357192
		},
		{
			"buffer":0,
			"byteLength":16152,
			"byteOffset":373344
		},
		{
			"buffer":0,
			"byteLength":21536,
			"byteOffset":389496
		},
		{
			"buffer":0,
			"byteLength":16152,
			"byteOffset":411032
		},
		{
			"buffer":0,
			"byteLength":16152,
			"byteOffset":427184
		},
		{
			"buffer":0,
			"byteLength":21536,
			"byteOffset":443336
		},
		{
			"buffer":0,
			"byteLength":16152,
			"byteOffset":464872
		},
		{
			"buffer":0,
			"byteLength":16152,
			"byteOffset":481024
		},
		{
			"buffer":0,
			"byteLength":21536,
			"byteOffset":497176
		},
		{
			"buffer":0,
			"byteLength":16152,
			"byteOffset":518712
		},
		{
			"buffer":0,
			"byteLength":16152,
			"byteOffset":534864
		},
		{
			"buffer":0,
			"byteLength":21536,
			"byteOffset":551016
		},
		{
			"buffer":0,
			"byteLength":16152,
			"byteOffset":572552
		},
		{
			"buffer":0,
			"byteLength":16152,
			"byteOffset":588704
		},
		{
			"buffer":0,
			"byteLength":16152,
			"byteOffset":604856
		},
		{
			"buffer":0,
			"byteLength":16152,
			"byteOffset":621008
		},
		{
			"buffer":0,
			"byteLength":21536,
			"byteOffset":637160
		},
		{
			"buffer":0,
			"byteLength":16152,
			"byteOffset":658696
		},
		{
			"buffer":0,
			"byteLength":16152,
			"byteOffset":674848
		},
		{
			"buffer":0,
			"byteLength":21536,
			"byteOffset":691000
		},
		{
			"buffer":0,
			"byteLength":16152,
			"byteOffset":712536
		},
		{
			"buffer":0,
			"byteLength":16152,
			"byteOffset":728688
		},
		{
			"buffer":0,
			"byteLength":21536,
			"byteOffset":744840
		},
		{
			"buffer":0,
			"byteLength":16152,
			"byteOffset":766376
		},
		{
			"buffer":0,
			"byteLength":16152,
			"byteOffset":782528
		},
		{
			"buffer":0,
			"byteLength":21536,
			"byteOffset":798680
		},
		{
			"buffer":0,
			"byteLength":16152,
			"byteOffset":820216
		},
		{
			"buffer":0,
			"byteLength":16152,
			"byteOffset":836368
		},
		{
			"buffer":0,
			"byteLength":21536,
			"byteOffset":852520
		},
		{
			"buffer":0,
			"byteLength":16152,
			"byteOffset":874056
		},
		{
			"buffer":0,
			"byteLength":16152,
			"byteOffset":890208
		},
		{
			"buffer":0,
			"byteLength":21536,
			"byteOffset":906360
		},
		{
			"buffer":0,
			"byteLength":16152,
			"byteOffset":927896
		},
		{
			"buffer":0,
			"byteLength":16152,
			"byteOffset":944048
		},
		{
			"buffer":0,
			"byteLength":21536,
			"byteOffset":960200
		},
		{
			"buffer":0,
			"byteLength":16152,
			"byteOffset":981736
		},
		{
			"buffer":0,
			"byteLength":16152,
			"byteOffset":997888
		},
		{
			"buffer":0,
			"byteLength":21536,
			"byteOffset":1014040
		},
		{
			"buffer":0,
			"byteLength":16152,
			"byteOffset":1035576
		},
		{
			"buffer":0,
			"byteLength":16152,
			"byteOffset":1051728
		},
		{
			"buffer":0,
			"byteLength":21536,
			"byteOffset":1067880
		},
		{
			"buffer":0,
			"byteLength":16152,
			"byteOffset":1089416
		},
		{
			"buffer":0,
			"byteLength":16152,
			"byteOffset":1105568
		},
		{
			"buffer":0,
			"byteLength":21536,
			"byteOffset":1121720
		},
		{
			"buffer":0,
			"byteLength":16152,
			"byteOffset":1143256
		},
		{
			"buffer":0,
			"byteLength":16152,
			"byteOffset":1159408
		},
		{
			"buffer":0,
			"byteLength":21536,
			"byteOffset":1175560
		},
		{
			"buffer":0,
			"byteLength":16152,
			"byteOffset":1197096
		},
		{
			"buffer":0,
			"byteLength":16152,
			"byteOffset":1213248
		},
		{
			"buffer":0,
			"byteLength":21536,
			"byteOffset":1229400
		},
		{
			"buffer":0,
			"byteLength":16152,
			"byteOffset":1250936
		},
		{
			"buffer":0,
			"byteLength":16152,
			"byteOffset":1267088
		},
		{
			"buffer":0,
			"byteLength":21536,
			"byteOffset":1283240
		},
		{
			"buffer":0,
			"byteLength":16152,
			"byteOffset":1304776
		},
		{
			"buffer":0,
			"byteLength":16152,
			"byteOffset":1320928
		},
		{
			"buffer":0,
			"byteLength":21536,
			"byteOffset":1337080
		},
		{
			"buffer":0,
			"byteLength":16152,
			"byteOffset":1358616
		},
		{
			"buffer":0,
			"byteLength":16152,
			"byteOffset":1374768
		},
		{
			"buffer":0,
			"byteLength":21536,
			"byteOffset":1390920
		},
		{
			"buffer":0,
			"byteLength":16152,
			"byteOffset":1412456
		},
		{
			"buffer":0,
			"byteLength":16152,
			"byteOffset":1428608
		},
		{
			"buffer":0,
			"byteLength":21536,
			"byteOffset":1444760
		},
		{
			"buffer":0,
			"byteLength":16152,
			"byteOffset":1466296
		},
		{
			"buffer":0,
			"byteLength":16152,
			"byteOffset":1482448
		},
		{
			"buffer":0,
			"byteLength":21536,
			"byteOffset":1498600
		},
		{
			"buffer":0,
			"byteLength":16152,
			"byteOffset":1520136
		},
		{
			"buffer":0,
			"byteLength":16152,
			"byteOffset":1536288
		},
		{
			"buffer":0,
			"byteLength":21536,
			"byteOffset":1552440
		},
		{
			"buffer":0,
			"byteLength":16152,
			"byteOffset":1573976
		},
		{
			"buffer":0,
			"byteLength":16152,
			"byteOffset":1590128
		},
		{
			"buffer":0,
			"byteLength":21536,
			"byteOffset":1606280
		},
		{
			"buffer":0,
			"byteLength":16152,
			"byteOffset":1627816
		},
		{
			"buffer":0,
			"byteLength":16152,
			"byteOffset":1643968
		},
		{
			"buffer":0,
			"byteLength":21536,
			"byteOffset":1660120
		},
		{
			"buffer":0,
			"byteLength":16152,
			"byteOffset":1681656
		},
		{
			"buffer":0,
			"byteLength":16152,
			"byteOffset":1697808
		},
		{
			"buffer":0,
			"byteLength":21536,
			"byteOffset":1713960
		},
		{
			"buffer":0,
			"byteLength":16152,
			"byteOffset":1735496
		},
		{
			"buffer":0,
			"byteLength":16152,
			"byteOffset":1751648
		},
		{
			"buffer":0,
			"byteLength":21536,
			"byteOffset":1767800
		},
		{
			"buffer":0,
			"byteLength":16152,
			"byteOffset":1789336
		},
		{
			"buffer":0,
			"byteLength":16152,
			"byteOffset":1805488
		},
		{
			"buffer":0,
			"byteLength":21536,
			"byteOffset":1821640
		},
		{
			"buffer":0,
			"byteLength":16152,
			"byteOffset":1843176
		},
		{
			"buffer":0,
			"byteLength":16152,
			"byteOffset":1859328
		},
		{
			"buffer":0,
			"byteLength":21536,
			"byteOffset":1875480
		},
		{
			"buffer":0,
			"byteLength":16152,
			"byteOffset":1897016
		},
		{
			"buffer":0,
			"byteLength":16152,
			"byteOffset":1913168
		},
		{
			"buffer":0,
			"byteLength":21536,
			"byteOffset":1929320
		},
		{
			"buffer":0,
			"byteLength":16152,
			"byteOffset":1950856
		},
		{
			"buffer":0,
			"byteLength":16152,
			"byteOffset":1967008
		},
		{
			"buffer":0,
			"byteLength":21536,
			"byteOffset":1983160
		},
		{
			"buffer":0,
			"byteLength":16152,
			"byteOffset":2004696
		},
		{
			"buffer":0,
			"byteLength":16152,
			"byteOffset":2020848
		},
		{
			"buffer":0,
			"byteLength":21536,
			"byteOffset":2037000
		},
		{
			"buffer":0,
			"byteLength":16152,
			"byteOffset":2058536
		},
		{
			"buffer":0,
			"byteLength":16152,
			"byteOffset":2074688
		},
		{
			"buffer":0,
			"byteLength":21536,
			"byteOffset":2090840
		},
		{
			"buffer":0,
			"byteLength":16152,
			"byteOffset":2112376
		},
		{
			"buffer":0,
			"byteLength":16152,
			"byteOffset":2128528
		},
		{
			"buffer":0,
			"byteLength":21536,
			"byteOffset":2144680
		},
		{
			"buffer":0,
			"byteLength":16152,
			"byteOffset":2166216
		},
		{
			"buffer":0,
			"byteLength":16152,
			"byteOffset":2182368
		},
		{
			"buffer":0,
			"byteLength":21536,
			"byteOffset":2198520
		},
		{
			"buffer":0,
			"byteLength":16152,
			"byteOffset":2220056
		},
		{
			"buffer":0,
			"byteLength":16152,
			"byteOffset":2236208
		},
		{
			"buffer":0,
			"byteLength":21536,
			"byteOffset":2252360
		},
		{
			"buffer":0,
			"byteLength":16152,
			"byteOffset":2273896
		},
		{
			"buffer":0,
			"byteLength":16152,
			"byteOffset":2290048
		},
		{
			"buffer":0,
			"byteLength":21536,
			"byteOffset":2306200
		},
		{
			"buffer":0,
			"byteLength":16152,
			"byteOffset":2327736
		},
		{
			"buffer":0,
			"byteLength":16152,
			"byteOffset":2343888
		},
		{
			"buffer":0,
			"byteLength":21536,
			"byteOffset":2360040
		},
		{
			"buffer":0,
			"byteLength":16152,
			"byteOffset":2381576
		},
		{
			"buffer":0,
			"byteLength":16152,
			"byteOffset":2397728
		},
		{
			"buffer":0,
			"byteLength":21536,
			"byteOffset":2413880
		},
		{
			"buffer":0,
			"byteLength":16152,
			"byteOffset":2435416
		},
		{
			"buffer":0,
			"byteLength":16152,
			"byteOffset":2451568
		},
		{
			"buffer":0,
			"byteLength":21536,
			"byteOffset":2467720
		},
		{
			"buffer":0,
			"byteLength":16152,
			"byteOffset":2489256
		},
		{
			"buffer":0,
			"byteLength":16152,
			"byteOffset":2505408
		},
		{
			"buffer":0,
			"byteLength":21536,
			"byteOffset":2521560
		},
		{
			"buffer":0,
			"byteLength":16152,
			"byteOffset":2543096
		},
		{
			"buffer":0,
			"byteLength":16152,
			"byteOffset":2559248
		},
		{
			"buffer":0,
			"byteLength":21536,
			"byteOffset":2575400
		},
		{
			"buffer":0,
			"byteLength":16152,
			"byteOffset":2596936
		},
		{
			"buffer":0,
			"byteLength":16152,
			"byteOffset":2613088
		},
		{
			"buffer":0,
			"byteLength":21536,
			"byteOffset":2629240
		},
		{
			"buffer":0,
			"byteLength":16152,
			"byteOffset":2650776
		},
		{
			"buffer":0,
			"byteLength":16152,
			"byteOffset":2666928
		},
		{
			"buffer":0,
			"byteLength":21536,
			"byteOffset":2683080
		},
		{
			"buffer":0,
			"byteLength":16152,
			"byteOffset":2704616
		},
		{
			"buffer":0,
			"byteLength":16152,
			"byteOffset":2720768
		},
		{
			"buffer":0,
			"byteLength":21536,
			"byteOffset":2736920
		},
		{
			"buffer":0,
			"byteLength":16152,
			"byteOffset":2758456
		},
		{
			"buffer":0,
			"byteLength":16152,
			"byteOffset":2774608
		},
		{
			"buffer":0,
			"byteLength":21536,
			"byteOffset":2790760
		},
		{
			"buffer":0,
			"byteLength":16152,
			"byteOffset":2812296
		},
		{
			"buffer":0,
			"byteLength":16152,
			"byteOffset":2828448
		},
		{
			"buffer":0,
			"byteLength":21536,
			"byteOffset":2844600
		},
		{
			"buffer":0,
			"byteLength":16152,
			"byteOffset":2866136
		},
		{
			"buffer":0,
			"byteLength":16152,
			"byteOffset":2882288
		},
		{
			"buffer":0,
			"byteLength":21536,
			"byteOffset":2898440
		},
		{
			"buffer":0,
			"byteLength":16152,
			"byteOffset":2919976
		},
		{
			"buffer":0,
			"byteLength":16152,
			"byteOffset":2936128
		},
		{
			"buffer":0,
			"byteLength":21536,
			"byteOffset":2952280
		},
		{
			"buffer":0,
			"byteLength":16152,
			"byteOffset":2973816
		},
		{
			"buffer":0,
			"byteLength":16152,
			"byteOffset":2989968
		},
		{
			"buffer":0,
			"byteLength":21536,
			"byteOffset":3006120
		},
		{
			"buffer":0,
			"byteLength":16152,
			"byteOffset":3027656
		},
		{
			"buffer":0,
			"byteLength":16152,
			"byteOffset":3043808
		},
		{
			"buffer":0,
			"byteLength":21536,
			"byteOffset":3059960
		},
		{
			"buffer":0,
			"byteLength":16152,
			"byteOffset":3081496
		},
		{
			"buffer":0,
			"byteLength":16152,
			"byteOffset":3097648
		},
		{
			"buffer":0,
			"byteLength":21536,
			"byteOffset":3113800
		},
		{
			"buffer":0,
			"byteLength":16152,
			"byteOffset":3135336
		},
		{
			"buffer":0,
			"byteLength":16152,
			"byteOffset":3151488
		},
		{
			"buffer":0,
			"byteLength":21536,
			"byteOffset":3167640
		},
		{
			"buffer":0,
			"byteLength":16152,
			"byteOffset":3189176
		},
		{
			"buffer":0,
			"byteLength":16152,
			"byteOffset":3205328
		},
		{
			"buffer":0,
			"byteLength":21536,
			"byteOffset":3221480
		},
		{
			"buffer":0,
			"byteLength":16152,
			"byteOffset":3243016
		},
		{
			"buffer":0,
			"byteLength":16152,
			"byteOffset":3259168
		},
		{
			"buffer":0,
			"byteLength":21536,
			"byteOffset":3275320
		},
		{
			"buffer":0,
			"byteLength":16152,
			"byteOffset":3296856
		},
		{
			"buffer":0,
			"byteLength":16152,
			"byteOffset":3313008
		},
		{
			"buffer":0,
			"byteLength":21536,
			"byteOffset":3329160
		},
		{
			"buffer":0,
			"byteLength":16152,
			"byteOffset":3350696
		},
		{
			"buffer":0,
			"byteLength":16152,
			"byteOffset":3366848
		},
		{
			"buffer":0,
			"byteLength":21536,
			"byteOffset":3383000
		},
		{
			"buffer":0,
			"byteLength":16152,
			"byteOffset":3404536
		},
		{
			"buffer":0,
			"byteLength":16152,
			"byteOffset":3420688
		},
		{
			"buffer":0,
			"byteLength":21536,
			"byteOffset":3436840
		},
		{
			"buffer":0,
			"byteLength":16152,
			"byteOffset":3458376
		},
		{
			"buffer":0,
			"byteLength":16152,
			"byteOffset":3474528
		},
		{
			"buffer":0,
			"byteLength":21536,
			"byteOffset":3490680
		},
		{
			"buffer":0,
			"byteLength":16152,
			"byteOffset":3512216
		},
		{
			"buffer":0,
			"byteLength":16152,
			"byteOffset":3528368
		},
		{
			"buffer":0,
			"byteLength":21536,
			"byteOffset":3544520
		},
		{
			"buffer":0,
			"byteLength":16152,
			"byteOffset":3566056
		},
		{
			"buffer":0,
			"byteLength":16152,
			"byteOffset":3582208
		},
		{
			"buffer":0,
			"byteLength":21536,
			"byteOffset":3598360
		},
		{
			"buffer":0,
			"byteLength":16152,
			"byteOffset":3619896
		},
		{
			"buffer":0,
			"byteLength":16152,
			"byteOffset":3636048
		},
		{
			"buffer":0,
			"byteLength":21536,
			"byteOffset":3652200
		},
		{
			"buffer":0,
			"byteLength":16152,
			"byteOffset":3673736
		},
		{
			"buffer":0,
			"byteLength":16152,
			"byteOffset":3689888
		},
		{
			"buffer":0,
			"byteLength":21536,
			"byteOffset":3706040
		},
		{
			"buffer":0,
			"byteLength":16152,
			"byteOffset":3727576
		},
		{
			"buffer":0,
			"byteLength":16152,
			"byteOffset":3743728
		},
		{
			"buffer":0,
			"byteLength":21536,
			"byteOffset":3759880
		},
		{
			"buffer":0,
			"byteLength":16152,
			"byteOffset":3781416
		},
		{
			"buffer":0,
			"byteLength":16152,
			"byteOffset":3797568
		},
		{
			"buffer":0,
			"byteLength":21536,
			"byteOffset":3813720
		},
		{
			"buffer":0,
			"byteLength":16152,
			"byteOffset":3835256
		}
	],
	"samplers":[
		{
			"magFilter":9729,
			"minFilter":9987
		}
	],
	"buffers":[
		{
			"byteLength":3851408,
			"uri":"peasant_npc.bin"
		}
	]
}
