{
	"asset":{
		"generator":"Khronos glTF Blender I/O v5.1.19",
		"version":"2.0"
	},
	"extensionsUsed":[
		"KHR_materials_specular"
	],
	"scene":0,
	"scenes":[
		{
			"name":"Scene",
			"nodes":[
				66
			]
		}
	],
	"nodes":[
		{
			"name":"mixamorig:HeadTop_End",
			"scale":[
				1,
				0.9999999403953552,
				0.9999999403953552
			],
			"translation":[
				0,
				25.25299072265625,
				0.4497970938682556
			]
		},
		{
			"children":[
				0
			],
			"name":"mixamorig:Head",
			"rotation":[
				1.7699444132546205e-09,
				0,
				0,
				1
			],
			"scale":[
				1,
				0.9999999403953552,
				0.9999999403953552
			],
			"translation":[
				0,
				17.330276489257812,
				0.1698460578918457
			]
		},
		{
			"children":[
				1
			],
			"name":"mixamorig:Neck",
			"rotation":[
				0.019796278327703476,
				0,
				0,
				0.9998040795326233
			],
			"scale":[
				1,
				0.9999998807907104,
				0.9999998807907104
			],
			"translation":[
				0,
				12.911176681518555,
				0
			]
		},
		{
			"name":"mixamorig:LeftHandThumb4",
			"rotation":[
				-2.607703031287656e-08,
				1.5459954738616943e-07,
				1.1641532182693481e-08,
				1
			],
			"scale":[
				1,
				1,
				1.0000001192092896
			],
			"translation":[
				0.020275592803955078,
				4.55745792388916,
				-9.5367431640625e-07
			]
		},
		{
			"children":[
				3
			],
			"name":"mixamorig:LeftHandThumb3",
			"rotation":[
				-0.028469443321228027,
				-6.372829375322908e-07,
				-8.431886300286351e-08,
				0.9995946884155273
			],
			"translation":[
				0.2933011054992676,
				5.231320858001709,
				-4.482269287109375e-05
			]
		},
		{
			"children":[
				4
			],
			"name":"mixamorig:LeftHandThumb2",
			"rotation":[
				0.08314988762140274,
				-5.943794008089753e-07,
				-2.623773696086573e-07,
				0.9965370297431946
			],
			"scale":[
				1.0000001192092896,
				1.0000001192092896,
				1.0000001192092896
			],
			"translation":[
				-0.3135824203491211,
				4.250959396362305,
				3.5643577575683594e-05
			]
		},
		{
			"children":[
				5
			],
			"name":"mixamorig:LeftHandThumb1",
			"rotation":[
				0.11323779076337814,
				0.05392950773239136,
				0.4265745282173157,
				0.8957136869430542
			],
			"scale":[
				1,
				1,
				0.9999998807907104
			],
			"translation":[
				-4.242672920227051,
				2.9392309188842773,
				1.3223278522491455
			]
		},
		{
			"name":"mixamorig:LeftHandIndex4",
			"rotation":[
				1.4493709343810224e-08,
				-9.31322685637781e-10,
				2.328306880627906e-09,
				1
			],
			"scale":[
				0.9999999403953552,
				0.9999999403953552,
				0.9999999403953552
			],
			"translation":[
				-0.018553972244262695,
				3.938356876373291,
				-4.4852495193481445e-06
			]
		},
		{
			"children":[
				7
			],
			"name":"mixamorig:LeftHandIndex3",
			"rotation":[
				0.014744277112185955,
				9.779951071209325e-09,
				-1.3971359180686704e-08,
				0.9998913407325745
			],
			"scale":[
				0.9999999403953552,
				0.9999999403953552,
				0.9999999403953552
			],
			"translation":[
				-0.013463020324707031,
				4.928877830505371,
				2.492964267730713e-05
			]
		},
		{
			"children":[
				8
			],
			"name":"mixamorig:LeftHandIndex2",
			"rotation":[
				0.064192995429039,
				5.506160150048345e-08,
				5.3661728394160946e-09,
				0.9979375004768372
			],
			"scale":[
				0.9999999403953552,
				0.9999999403953552,
				0.9999999403953552
			],
			"translation":[
				0.03201556205749512,
				4.927495956420898,
				2.516806125640869e-05
			]
		},
		{
			"children":[
				9
			],
			"name":"mixamorig:LeftHandIndex1",
			"rotation":[
				0.14285728335380554,
				-0.0008425035630352795,
				-0.005837129428982735,
				0.9897257089614868
			],
			"scale":[
				1.0000001192092896,
				1,
				1.0000001192092896
			],
			"translation":[
				-4.594599723815918,
				10.352851867675781,
				-0.5541530251502991
			]
		},
		{
			"name":"mixamorig:LeftHandMiddle4",
			"rotation":[
				-8.025381248444319e-09,
				1.3969840839678227e-09,
				-6.984919309616089e-10,
				1
			],
			"scale":[
				0.9999999403953552,
				1,
				0.9999999403953552
			],
			"translation":[
				0.023874640464782715,
				4.28466272354126,
				-8.493661880493164e-06
			]
		},
		{
			"children":[
				11
			],
			"name":"mixamorig:LeftHandMiddle3",
			"rotation":[
				-0.07187279313802719,
				-5.25227328296296e-09,
				-1.429785623230373e-09,
				0.9974138140678406
			],
			"scale":[
				0.9999999403953552,
				0.9999999403953552,
				1
			],
			"translation":[
				-0.013092517852783203,
				5.1009650230407715,
				-9.973347187042236e-05
			]
		},
		{
			"children":[
				12
			],
			"name":"mixamorig:LeftHandMiddle2",
			"rotation":[
				0.004522278904914856,
				7.753340014460264e-08,
				2.2919501019291744e-10,
				0.9999898076057434
			],
			"scale":[
				1.0000001192092896,
				1,
				1
			],
			"translation":[
				-0.010784387588500977,
				5.230840682983398,
				9.6932053565979e-05
			]
		},
		{
			"children":[
				13
			],
			"name":"mixamorig:LeftHandMiddle1",
			"rotation":[
				0.18234020471572876,
				-0.004993916489183903,
				-0.026918528601527214,
				0.9828542470932007
			],
			"scale":[
				1.0000001192092896,
				0.9999999403953552,
				1
			],
			"translation":[
				-1.2824254035949707,
				10.336167335510254,
				-0.8321353197097778
			]
		},
		{
			"name":"mixamorig:LeftHandRing4",
			"rotation":[
				-2.3283064365386963e-09,
				1.210719347000122e-08,
				1.6298145055770874e-08,
				1
			],
			"translation":[
				-0.006164193153381348,
				3.9231836795806885,
				-5.379319190979004e-06
			]
		},
		{
			"children":[
				15
			],
			"name":"mixamorig:LeftHandRing3",
			"rotation":[
				-0.0818185955286026,
				4.485387350428027e-08,
				-1.0325735644300948e-07,
				0.9966472387313843
			],
			"scale":[
				1,
				0.9999998807907104,
				0.9999998807907104
			],
			"translation":[
				0.009261846542358398,
				4.6312994956970215,
				-2.9355287551879883e-05
			]
		},
		{
			"children":[
				16
			],
			"name":"mixamorig:LeftHandRing2",
			"rotation":[
				0.06116019934415817,
				-4.572039458139443e-08,
				-2.2790220555179985e-07,
				0.9981279969215393
			],
			"scale":[
				0.9999999403953552,
				0.9999999403953552,
				1
			],
			"translation":[
				-0.003098785877227783,
				5.001909255981445,
				-6.742402911186218e-05
			]
		},
		{
			"children":[
				17
			],
			"name":"mixamorig:LeftHandRing1",
			"rotation":[
				0.147791787981987,
				-0.02041945978999138,
				-0.13532963395118713,
				0.9795032143592834
			],
			"scale":[
				1,
				0.9999999403953552,
				1
			],
			"translation":[
				1.951103687286377,
				10.350570678710938,
				-0.4639410078525543
			]
		},
		{
			"name":"mixamorig:LeftHandPinky4",
			"rotation":[
				-1.4901161193847656e-08,
				-2.374872742905154e-08,
				-7.462222839649257e-08,
				1
			],
			"scale":[
				0.9999999403953552,
				1,
				1
			],
			"translation":[
				-0.043338656425476074,
				3.3756163120269775,
				2.753734588623047e-05
			]
		},
		{
			"children":[
				19
			],
			"name":"mixamorig:LeftHandPinky3",
			"rotation":[
				-0.12287504225969315,
				2.5806937742345326e-07,
				6.003631938256149e-07,
				0.9924221634864807
			],
			"scale":[
				0.9999998211860657,
				0.9999998211860657,
				0.9999998807907104
			],
			"translation":[
				0.07969141006469727,
				4.088979244232178,
				-4.1484832763671875e-05
			]
		},
		{
			"children":[
				20
			],
			"name":"mixamorig:LeftHandPinky2",
			"rotation":[
				0.10089606046676636,
				-1.7739085933499155e-07,
				-3.477609880064847e-07,
				0.9948970079421997
			],
			"translation":[
				-0.036345481872558594,
				5.207615375518799,
				1.901388168334961e-05
			]
		},
		{
			"children":[
				21
			],
			"name":"mixamorig:LeftHandPinky1",
			"rotation":[
				0.1379297971725464,
				-0.041364848613739014,
				-0.2842623293399811,
				0.9478709101676941
			],
			"scale":[
				1,
				0.9999999403953552,
				1
			],
			"translation":[
				3.9259161949157715,
				8.616277694702148,
				-0.7819418907165527
			]
		},
		{
			"children":[
				6,
				10,
				14,
				18,
				22
			],
			"name":"mixamorig:LeftHand",
			"rotation":[
				0.0034859194420278072,
				-0.0007248498150147498,
				0.02847435139119625,
				0.9995881915092468
			],
			"scale":[
				0.9999999403953552,
				0.9999998211860657,
				0.9999997615814209
			],
			"translation":[
				1.6689300537109375e-06,
				30.634584426879883,
				0.00010994076728820801
			]
		},
		{
			"children":[
				23
			],
			"name":"mixamorig:LeftForeArm",
			"rotation":[
				-0.07893568277359009,
				0.00017060722166206688,
				-0.002153224078938365,
				0.9968773722648621
			],
			"scale":[
				1,
				1,
				1.0000001192092896
			],
			"translation":[
				-5.4836273193359375e-06,
				24.77203369140625,
				2.3126602172851562e-05
			]
		},
		{
			"children":[
				24
			],
			"name":"mixamorig:LeftArm",
			"rotation":[
				-0.062482595443725586,
				0.00022084542433731258,
				-0.0035295658744871616,
				0.9980398416519165
			],
			"scale":[
				0.9999998211860657,
				1,
				0.9999998211860657
			],
			"translation":[
				-5.21540641784668e-07,
				15.126046180725098,
				-5.117058753967285e-05
			]
		},
		{
			"children":[
				25
			],
			"name":"mixamorig:LeftShoulder",
			"rotation":[
				0.56919926404953,
				0.41835013031959534,
				-0.5731519460678101,
				0.4153219163417816
			],
			"scale":[
				0.9999999403953552,
				1,
				0.9999999403953552
			],
			"translation":[
				7.576447486877441,
				10.591513633728027,
				-0.051607608795166016
			]
		},
		{
			"name":"mixamorig:RightHandThumb4",
			"rotation":[
				-1.862644793959589e-08,
				-1.1734663729612294e-07,
				-5.774198896801863e-08,
				1
			],
			"scale":[
				1,
				1.000000238418579,
				1.0000001192092896
			],
			"translation":[
				-0.24295616149902344,
				4.462318420410156,
				2.384185791015625e-07
			]
		},
		{
			"children":[
				27
			],
			"name":"mixamorig:RightHandThumb3",
			"rotation":[
				-0.04798833653330803,
				-3.83215109422963e-07,
				-2.0326251615188085e-07,
				0.9988479018211365
			],
			"scale":[
				1,
				0.9999998807907104,
				1
			],
			"translation":[
				-0.14501142501831055,
				5.194588661193848,
				-0.00014162063598632812
			]
		},
		{
			"children":[
				28
			],
			"name":"mixamorig:RightHandThumb2",
			"rotation":[
				0.0757545530796051,
				-2.138875174750865e-07,
				-4.389831076423434e-08,
				0.9971265196800232
			],
			"scale":[
				0.9999999403953552,
				0.9999999403953552,
				0.9999997615814209
			],
			"translation":[
				0.3879733085632324,
				4.3210320472717285,
				6.29425048828125e-05
			]
		},
		{
			"children":[
				29
			],
			"name":"mixamorig:RightHandThumb1",
			"rotation":[
				0.12395641207695007,
				-0.05679910257458687,
				-0.4126817584037781,
				0.9006122350692749
			],
			"scale":[
				0.9999999403953552,
				0.9999999403953552,
				0.9999999403953552
			],
			"translation":[
				4.255505561828613,
				3.0281388759613037,
				1.4591552019119263
			]
		},
		{
			"name":"mixamorig:RightHandIndex4",
			"rotation":[
				1.484295175657735e-08,
				-8.847564458847046e-08,
				-5.215406062575312e-08,
				1
			],
			"scale":[
				1,
				1.0000001192092896,
				1
			],
			"translation":[
				0.001708984375,
				4.077942848205566,
				-1.4901161193847656e-07
			]
		},
		{
			"children":[
				31
			],
			"name":"mixamorig:RightHandIndex3",
			"rotation":[
				-0.022978592664003372,
				1.2576175834055903e-07,
				3.074176291306685e-08,
				0.999735951423645
			],
			"scale":[
				1,
				1,
				0.9999999403953552
			],
			"translation":[
				0.01472330093383789,
				4.7962751388549805,
				9.393692016601562e-05
			]
		},
		{
			"children":[
				32
			],
			"name":"mixamorig:RightHandIndex2",
			"rotation":[
				0.05439851060509682,
				-1.8654076061608293e-09,
				-6.155843834676489e-08,
				0.9985193610191345
			],
			"scale":[
				0.9999999403953552,
				1,
				0.9999999403953552
			],
			"translation":[
				-0.016433238983154297,
				5.131800651550293,
				-4.1365623474121094e-05
			]
		},
		{
			"children":[
				33
			],
			"name":"mixamorig:RightHandIndex1",
			"rotation":[
				0.15477605164051056,
				-0.00024633994325995445,
				-0.0015717203496024013,
				0.9879482984542847
			],
			"scale":[
				0.9999999403953552,
				1.0000001192092896,
				1
			],
			"translation":[
				4.589540481567383,
				10.4702730178833,
				-0.5959925651550293
			]
		},
		{
			"name":"mixamorig:RightHandMiddle4",
			"rotation":[
				8.149073638108462e-10,
				6.05359673500061e-09,
				6.752088665962219e-09,
				1
			],
			"scale":[
				1.0000001192092896,
				0.9999999403953552,
				1
			],
			"translation":[
				-0.006662607192993164,
				4.162754058837891,
				1.9252300262451172e-05
			]
		},
		{
			"children":[
				35
			],
			"name":"mixamorig:RightHandMiddle3",
			"rotation":[
				-0.08974955976009369,
				1.2390026427056e-07,
				-5.14302982423942e-08,
				0.9959643483161926
			],
			"scale":[
				1,
				0.9999999403953552,
				1
			],
			"translation":[
				0.0057163238525390625,
				5.191771507263184,
				-3.7342309951782227e-05
			]
		},
		{
			"children":[
				36
			],
			"name":"mixamorig:RightHandMiddle2",
			"rotation":[
				0.0370047427713871,
				-1.0531157101922872e-07,
				6.803313112868636e-08,
				0.999315083026886
			],
			"scale":[
				1.0000001192092896,
				1.0000001192092896,
				1
			],
			"translation":[
				0.0009491443634033203,
				5.356935977935791,
				2.03549861907959e-05
			]
		},
		{
			"children":[
				37
			],
			"name":"mixamorig:RightHandMiddle1",
			"rotation":[
				0.15964993834495544,
				0.009273511357605457,
				0.05724286660552025,
				0.9854690432548523
			],
			"scale":[
				0.9999999403953552,
				1,
				0.9999999403953552
			],
			"translation":[
				1.5205824375152588,
				10.235249519348145,
				-0.7404378652572632
			]
		},
		{
			"name":"mixamorig:RightHandRing4",
			"rotation":[
				2.7008354663848877e-08,
				2.1420419216156006e-08,
				1.4202669262886047e-08,
				1
			],
			"translation":[
				0.014715909957885742,
				4.011120319366455,
				-1.6808509826660156e-05
			]
		},
		{
			"children":[
				39
			],
			"name":"mixamorig:RightHandRing3",
			"rotation":[
				-0.086897112429142,
				-1.4022883476627612e-07,
				-9.11487489929641e-08,
				0.9962173104286194
			],
			"scale":[
				1,
				0.9999998807907104,
				1
			],
			"translation":[
				-0.027214527130126953,
				4.740384578704834,
				7.867813110351562e-05
			]
		},
		{
			"children":[
				40
			],
			"name":"mixamorig:RightHandRing2",
			"rotation":[
				0.0765983909368515,
				-4.857147573034126e-08,
				9.200559958344456e-08,
				0.997062087059021
			],
			"scale":[
				1,
				0.9999998211860657,
				0.9999999403953552
			],
			"translation":[
				0.01250120997428894,
				5.180933952331543,
				-4.3585896492004395e-06
			]
		},
		{
			"children":[
				41
			],
			"name":"mixamorig:RightHandRing1",
			"rotation":[
				0.12671013176441193,
				0.019227612763643265,
				0.1487911194562912,
				0.9805284738540649
			],
			"scale":[
				0.9999999403953552,
				1,
				0.9999998211860657
			],
			"translation":[
				-1.705517292022705,
				9.981620788574219,
				-0.45950523018836975
			]
		},
		{
			"name":"mixamorig:RightHandPinky4",
			"rotation":[
				-7.450581485102248e-09,
				-9.313225746154785e-10,
				-2.3283066141743802e-08,
				1
			],
			"scale":[
				0.9999999403953552,
				0.9999998807907104,
				0.9999999403953552
			],
			"translation":[
				0.03328704833984375,
				3.0161900520324707,
				7.62939453125e-06
			]
		},
		{
			"children":[
				43
			],
			"name":"mixamorig:RightHandPinky3",
			"rotation":[
				-0.10580330342054367,
				-2.444472215756832e-07,
				-6.368739491335873e-08,
				0.9943870902061462
			],
			"scale":[
				1.0000001192092896,
				1.0000001192092896,
				1.0000001192092896
			],
			"translation":[
				-0.08263015747070312,
				3.855659246444702,
				2.300739288330078e-05
			]
		},
		{
			"children":[
				44
			],
			"name":"mixamorig:RightHandPinky2",
			"rotation":[
				0.10386057198047638,
				-3.230534062481638e-08,
				-4.3518571146705654e-07,
				0.9945918917655945
			],
			"scale":[
				1,
				0.9999998807907104,
				1
			],
			"translation":[
				0.04934954643249512,
				4.8545918464660645,
				3.9696693420410156e-05
			]
		},
		{
			"children":[
				45
			],
			"name":"mixamorig:RightHandPinky1",
			"rotation":[
				0.13519395887851715,
				0.040110718458890915,
				0.2815950810909271,
				0.9491143226623535
			],
			"scale":[
				1,
				0.9999999403953552,
				1
			],
			"translation":[
				-4.40462064743042,
				9.25899887084961,
				-0.6720993518829346
			]
		},
		{
			"children":[
				30,
				34,
				38,
				42,
				46
			],
			"name":"mixamorig:RightHand",
			"rotation":[
				0.005035944748669863,
				0.011227228678762913,
				-0.0360717810690403,
				0.9992734789848328
			],
			"scale":[
				0.9999999403953552,
				1,
				1
			],
			"translation":[
				-1.0251998901367188e-05,
				30.639760971069336,
				-1.0579824447631836e-05
			]
		},
		{
			"children":[
				47
			],
			"name":"mixamorig:RightForeArm",
			"rotation":[
				-0.07940583676099777,
				-0.0010130967712029815,
				0.012715880759060383,
				0.9967607259750366
			],
			"scale":[
				1,
				0.9999999403953552,
				1
			],
			"translation":[
				2.5816261768341064e-06,
				24.772188186645508,
				-7.554888725280762e-05
			]
		},
		{
			"children":[
				48
			],
			"name":"mixamorig:RightArm",
			"rotation":[
				-0.0619652085006237,
				0.0005553514929488301,
				-0.008943920955061913,
				0.998038113117218
			],
			"translation":[
				-5.990266799926758e-06,
				15.126008033752441,
				-1.773238182067871e-05
			]
		},
		{
			"children":[
				49
			],
			"name":"mixamorig:RightShoulder",
			"rotation":[
				0.565994918346405,
				-0.42086032032966614,
				0.576133131980896,
				0.4130338132381439
			],
			"scale":[
				1.0000001192092896,
				1.0000001192092896,
				1
			],
			"translation":[
				-7.576450824737549,
				10.594624519348145,
				-0.13205480575561523
			]
		},
		{
			"children":[
				2,
				26,
				50
			],
			"name":"mixamorig:Spine2",
			"rotation":[
				9.313224635931761e-10,
				0,
				0,
				1
			],
			"scale":[
				1,
				0.9999998807907104,
				1.0000001192092896
			],
			"translation":[
				0,
				11.476654052734375,
				1.430511474609375e-06
			]
		},
		{
			"children":[
				51
			],
			"name":"mixamorig:Spine1",
			"rotation":[
				9.313225746154785e-09,
				0,
				0,
				1
			],
			"scale":[
				1,
				1,
				1.0000001192092896
			],
			"translation":[
				0,
				10.042067527770996,
				-1.6689300537109375e-06
			]
		},
		{
			"children":[
				52
			],
			"name":"mixamorig:Spine",
			"rotation":[
				-0.01979629322886467,
				0,
				0,
				0.9998040795326233
			],
			"scale":[
				1,
				1,
				0.9999999403953552
			],
			"translation":[
				0,
				8.600761413574219,
				-0.3407241702079773
			]
		},
		{
			"name":"mixamorig:LeftToe_End",
			"rotation":[
				-1.6852027329150587e-08,
				1.9468190615157255e-08,
				-1.1804530686276848e-09,
				1
			],
			"scale":[
				0.9999999403953552,
				1,
				0.9999999403953552
			],
			"translation":[
				1.0059447959065437e-06,
				8.118061065673828,
				1.1827796697616577e-07
			]
		},
		{
			"children":[
				54
			],
			"name":"mixamorig:LeftToeBase",
			"rotation":[
				0.24665473401546478,
				-0.080064557492733,
				0.020452380180358887,
				0.9655738472938538
			],
			"scale":[
				0.9999999403953552,
				0.9999998807907104,
				0.9999998807907104
			],
			"translation":[
				-6.377696990966797e-06,
				18.44428062438965,
				-5.4836273193359375e-06
			]
		},
		{
			"children":[
				55
			],
			"name":"mixamorig:LeftFoot",
			"rotation":[
				0.5821624398231506,
				0.020955385640263557,
				-0.015011727809906006,
				0.8126637935638428
			],
			"scale":[
				1,
				1,
				1.0000001192092896
			],
			"translation":[
				2.7745962142944336e-05,
				39.30411911010742,
				4.380941390991211e-06
			]
		},
		{
			"children":[
				56
			],
			"name":"mixamorig:LeftLeg",
			"rotation":[
				-0.04248267039656639,
				-1.8326298231841065e-05,
				0.00043947610538452864,
				0.9990971088409424
			],
			"scale":[
				1,
				0.9999998211860657,
				1.0000001192092896
			],
			"translation":[
				2.775527536869049e-05,
				40.08380126953125,
				-2.6682005227485206e-06
			]
		},
		{
			"children":[
				57
			],
			"name":"mixamorig:LeftUpLeg",
			"rotation":[
				0.0032239961437880993,
				0.041755083948373795,
				-0.9961578845977783,
				0.07691286504268646
			],
			"scale":[
				1.000000238418579,
				1,
				1
			],
			"translation":[
				10.333643913269043,
				-4.7713398933410645,
				0.20032478868961334
			]
		},
		{
			"name":"mixamorig:RightToe_End",
			"rotation":[
				-5.4623110479212755e-09,
				1.4772921019812202e-07,
				6.67368649232003e-09,
				1
			],
			"scale":[
				1.0000001192092896,
				1.0000001192092896,
				1.0000001192092896
			],
			"translation":[
				-3.6403071135282516e-07,
				8.078701972961426,
				-2.1420419216156006e-08
			]
		},
		{
			"children":[
				59
			],
			"name":"mixamorig:RightToeBase",
			"rotation":[
				0.24757158756256104,
				0.080177903175354,
				-0.020562730729579926,
				0.9653273820877075
			],
			"scale":[
				1,
				1.0000001192092896,
				1
			],
			"translation":[
				-2.0697712898254395e-05,
				18.380264282226562,
				-7.987022399902344e-06
			]
		},
		{
			"children":[
				60
			],
			"name":"mixamorig:RightFoot",
			"rotation":[
				0.5805496573448181,
				-0.02027621492743492,
				0.01446406077593565,
				0.813843846321106
			],
			"scale":[
				1,
				1.0000001192092896,
				1
			],
			"translation":[
				-1.8551945686340332e-06,
				39.29014587402344,
				1.8328428268432617e-06
			]
		},
		{
			"children":[
				61
			],
			"name":"mixamorig:RightLeg",
			"rotation":[
				-0.034758105874061584,
				1.6972691810224205e-05,
				-0.0004671793431043625,
				0.9993956685066223
			],
			"scale":[
				0.9999998807907104,
				1,
				0.9999999403953552
			],
			"translation":[
				3.078579902648926e-05,
				40.131141662597656,
				-1.3848733942722902e-05
			]
		},
		{
			"children":[
				62
			],
			"name":"mixamorig:RightUpLeg",
			"rotation":[
				0.0037309436593204737,
				-0.04838944226503372,
				0.995864748954773,
				0.0767986848950386
			],
			"scale":[
				0.9999979138374329,
				0.9999999403953552,
				0.9999991655349731
			],
			"translation":[
				-10.333574295043945,
				-4.771347522735596,
				0.7527649402618408
			]
		},
		{
			"children":[
				53,
				58,
				63
			],
			"name":"mixamorig:Hips",
			"rotation":[
				-0.7071067690849304,
				0,
				0,
				0.7071067690849304
			],
			"translation":[
				0,
				4.574090957641602,
				-90.15567016601562
			]
		},
		{
			"mesh":0,
			"name":"Ch39",
			"skin":0
		},
		{
			"children":[
				65,
				64
			],
			"name":"Armature",
			"rotation":[
				0.7071068286895752,
				0,
				0,
				0.7071068286895752
			],
			"scale":[
				0.009999999776482582,
				0.009999999776482582,
				0.009999999776482582
			]
		}
	],
	"animations":[
		{
			"channels":[
				{
					"sampler":0,
					"target":{
						"node":64,
						"path":"translation"
					}
				},
				{
					"sampler":1,
					"target":{
						"node":64,
						"path":"rotation"
					}
				},
				{
					"sampler":2,
					"target":{
						"node":64,
						"path":"scale"
					}
				},
				{
					"sampler":3,
					"target":{
						"node":53,
						"path":"translation"
					}
				},
				{
					"sampler":4,
					"target":{
						"node":53,
						"path":"rotation"
					}
				},
				{
					"sampler":5,
					"target":{
						"node":53,
						"path":"scale"
					}
				},
				{
					"sampler":6,
					"target":{
						"node":52,
						"path":"translation"
					}
				},
				{
					"sampler":7,
					"target":{
						"node":52,
						"path":"rotation"
					}
				},
				{
					"sampler":8,
					"target":{
						"node":52,
						"path":"scale"
					}
				},
				{
					"sampler":9,
					"target":{
						"node":51,
						"path":"translation"
					}
				},
				{
					"sampler":10,
					"target":{
						"node":51,
						"path":"rotation"
					}
				},
				{
					"sampler":11,
					"target":{
						"node":51,
						"path":"scale"
					}
				},
				{
					"sampler":12,
					"target":{
						"node":2,
						"path":"translation"
					}
				},
				{
					"sampler":13,
					"target":{
						"node":2,
						"path":"rotation"
					}
				},
				{
					"sampler":14,
					"target":{
						"node":2,
						"path":"scale"
					}
				},
				{
					"sampler":15,
					"target":{
						"node":1,
						"path":"translation"
					}
				},
				{
					"sampler":16,
					"target":{
						"node":1,
						"path":"rotation"
					}
				},
				{
					"sampler":17,
					"target":{
						"node":1,
						"path":"scale"
					}
				},
				{
					"sampler":18,
					"target":{
						"node":0,
						"path":"translation"
					}
				},
				{
					"sampler":19,
					"target":{
						"node":0,
						"path":"rotation"
					}
				},
				{
					"sampler":20,
					"target":{
						"node":0,
						"path":"scale"
					}
				},
				{
					"sampler":21,
					"target":{
						"node":26,
						"path":"translation"
					}
				},
				{
					"sampler":22,
					"target":{
						"node":26,
						"path":"rotation"
					}
				},
				{
					"sampler":23,
					"target":{
						"node":26,
						"path":"scale"
					}
				},
				{
					"sampler":24,
					"target":{
						"node":25,
						"path":"translation"
					}
				},
				{
					"sampler":25,
					"target":{
						"node":25,
						"path":"rotation"
					}
				},
				{
					"sampler":26,
					"target":{
						"node":25,
						"path":"scale"
					}
				},
				{
					"sampler":27,
					"target":{
						"node":24,
						"path":"translation"
					}
				},
				{
					"sampler":28,
					"target":{
						"node":24,
						"path":"rotation"
					}
				},
				{
					"sampler":29,
					"target":{
						"node":24,
						"path":"scale"
					}
				},
				{
					"sampler":30,
					"target":{
						"node":23,
						"path":"translation"
					}
				},
				{
					"sampler":31,
					"target":{
						"node":23,
						"path":"rotation"
					}
				},
				{
					"sampler":32,
					"target":{
						"node":23,
						"path":"scale"
					}
				},
				{
					"sampler":33,
					"target":{
						"node":6,
						"path":"translation"
					}
				},
				{
					"sampler":34,
					"target":{
						"node":6,
						"path":"rotation"
					}
				},
				{
					"sampler":35,
					"target":{
						"node":6,
						"path":"scale"
					}
				},
				{
					"sampler":36,
					"target":{
						"node":5,
						"path":"translation"
					}
				},
				{
					"sampler":37,
					"target":{
						"node":5,
						"path":"rotation"
					}
				},
				{
					"sampler":38,
					"target":{
						"node":5,
						"path":"scale"
					}
				},
				{
					"sampler":39,
					"target":{
						"node":4,
						"path":"translation"
					}
				},
				{
					"sampler":40,
					"target":{
						"node":4,
						"path":"rotation"
					}
				},
				{
					"sampler":41,
					"target":{
						"node":4,
						"path":"scale"
					}
				},
				{
					"sampler":42,
					"target":{
						"node":3,
						"path":"translation"
					}
				},
				{
					"sampler":43,
					"target":{
						"node":3,
						"path":"rotation"
					}
				},
				{
					"sampler":44,
					"target":{
						"node":3,
						"path":"scale"
					}
				},
				{
					"sampler":45,
					"target":{
						"node":10,
						"path":"translation"
					}
				},
				{
					"sampler":46,
					"target":{
						"node":10,
						"path":"rotation"
					}
				},
				{
					"sampler":47,
					"target":{
						"node":10,
						"path":"scale"
					}
				},
				{
					"sampler":48,
					"target":{
						"node":9,
						"path":"translation"
					}
				},
				{
					"sampler":49,
					"target":{
						"node":9,
						"path":"rotation"
					}
				},
				{
					"sampler":50,
					"target":{
						"node":9,
						"path":"scale"
					}
				},
				{
					"sampler":51,
					"target":{
						"node":8,
						"path":"translation"
					}
				},
				{
					"sampler":52,
					"target":{
						"node":8,
						"path":"rotation"
					}
				},
				{
					"sampler":53,
					"target":{
						"node":8,
						"path":"scale"
					}
				},
				{
					"sampler":54,
					"target":{
						"node":7,
						"path":"translation"
					}
				},
				{
					"sampler":55,
					"target":{
						"node":7,
						"path":"rotation"
					}
				},
				{
					"sampler":56,
					"target":{
						"node":7,
						"path":"scale"
					}
				},
				{
					"sampler":57,
					"target":{
						"node":14,
						"path":"translation"
					}
				},
				{
					"sampler":58,
					"target":{
						"node":14,
						"path":"rotation"
					}
				},
				{
					"sampler":59,
					"target":{
						"node":14,
						"path":"scale"
					}
				},
				{
					"sampler":60,
					"target":{
						"node":13,
						"path":"translation"
					}
				},
				{
					"sampler":61,
					"target":{
						"node":13,
						"path":"rotation"
					}
				},
				{
					"sampler":62,
					"target":{
						"node":13,
						"path":"scale"
					}
				},
				{
					"sampler":63,
					"target":{
						"node":12,
						"path":"translation"
					}
				},
				{
					"sampler":64,
					"target":{
						"node":12,
						"path":"rotation"
					}
				},
				{
					"sampler":65,
					"target":{
						"node":12,
						"path":"scale"
					}
				},
				{
					"sampler":66,
					"target":{
						"node":11,
						"path":"translation"
					}
				},
				{
					"sampler":67,
					"target":{
						"node":11,
						"path":"rotation"
					}
				},
				{
					"sampler":68,
					"target":{
						"node":11,
						"path":"scale"
					}
				},
				{
					"sampler":69,
					"target":{
						"node":18,
						"path":"translation"
					}
				},
				{
					"sampler":70,
					"target":{
						"node":18,
						"path":"rotation"
					}
				},
				{
					"sampler":71,
					"target":{
						"node":18,
						"path":"scale"
					}
				},
				{
					"sampler":72,
					"target":{
						"node":17,
						"path":"translation"
					}
				},
				{
					"sampler":73,
					"target":{
						"node":17,
						"path":"rotation"
					}
				},
				{
					"sampler":74,
					"target":{
						"node":17,
						"path":"scale"
					}
				},
				{
					"sampler":75,
					"target":{
						"node":16,
						"path":"translation"
					}
				},
				{
					"sampler":76,
					"target":{
						"node":16,
						"path":"rotation"
					}
				},
				{
					"sampler":77,
					"target":{
						"node":16,
						"path":"scale"
					}
				},
				{
					"sampler":78,
					"target":{
						"node":15,
						"path":"translation"
					}
				},
				{
					"sampler":79,
					"target":{
						"node":15,
						"path":"rotation"
					}
				},
				{
					"sampler":80,
					"target":{
						"node":15,
						"path":"scale"
					}
				},
				{
					"sampler":81,
					"target":{
						"node":22,
						"path":"translation"
					}
				},
				{
					"sampler":82,
					"target":{
						"node":22,
						"path":"rotation"
					}
				},
				{
					"sampler":83,
					"target":{
						"node":22,
						"path":"scale"
					}
				},
				{
					"sampler":84,
					"target":{
						"node":21,
						"path":"translation"
					}
				},
				{
					"sampler":85,
					"target":{
						"node":21,
						"path":"rotation"
					}
				},
				{
					"sampler":86,
					"target":{
						"node":21,
						"path":"scale"
					}
				},
				{
					"sampler":87,
					"target":{
						"node":20,
						"path":"translation"
					}
				},
				{
					"sampler":88,
					"target":{
						"node":20,
						"path":"rotation"
					}
				},
				{
					"sampler":89,
					"target":{
						"node":20,
						"path":"scale"
					}
				},
				{
					"sampler":90,
					"target":{
						"node":19,
						"path":"translation"
					}
				},
				{
					"sampler":91,
					"target":{
						"node":19,
						"path":"rotation"
					}
				},
				{
					"sampler":92,
					"target":{
						"node":19,
						"path":"scale"
					}
				},
				{
					"sampler":93,
					"target":{
						"node":50,
						"path":"translation"
					}
				},
				{
					"sampler":94,
					"target":{
						"node":50,
						"path":"rotation"
					}
				},
				{
					"sampler":95,
					"target":{
						"node":50,
						"path":"scale"
					}
				},
				{
					"sampler":96,
					"target":{
						"node":49,
						"path":"translation"
					}
				},
				{
					"sampler":97,
					"target":{
						"node":49,
						"path":"rotation"
					}
				},
				{
					"sampler":98,
					"target":{
						"node":49,
						"path":"scale"
					}
				},
				{
					"sampler":99,
					"target":{
						"node":48,
						"path":"translation"
					}
				},
				{
					"sampler":100,
					"target":{
						"node":48,
						"path":"rotation"
					}
				},
				{
					"sampler":101,
					"target":{
						"node":48,
						"path":"scale"
					}
				},
				{
					"sampler":102,
					"target":{
						"node":47,
						"path":"translation"
					}
				},
				{
					"sampler":103,
					"target":{
						"node":47,
						"path":"rotation"
					}
				},
				{
					"sampler":104,
					"target":{
						"node":47,
						"path":"scale"
					}
				},
				{
					"sampler":105,
					"target":{
						"node":30,
						"path":"translation"
					}
				},
				{
					"sampler":106,
					"target":{
						"node":30,
						"path":"rotation"
					}
				},
				{
					"sampler":107,
					"target":{
						"node":30,
						"path":"scale"
					}
				},
				{
					"sampler":108,
					"target":{
						"node":29,
						"path":"translation"
					}
				},
				{
					"sampler":109,
					"target":{
						"node":29,
						"path":"rotation"
					}
				},
				{
					"sampler":110,
					"target":{
						"node":29,
						"path":"scale"
					}
				},
				{
					"sampler":111,
					"target":{
						"node":28,
						"path":"translation"
					}
				},
				{
					"sampler":112,
					"target":{
						"node":28,
						"path":"rotation"
					}
				},
				{
					"sampler":113,
					"target":{
						"node":28,
						"path":"scale"
					}
				},
				{
					"sampler":114,
					"target":{
						"node":27,
						"path":"translation"
					}
				},
				{
					"sampler":115,
					"target":{
						"node":27,
						"path":"rotation"
					}
				},
				{
					"sampler":116,
					"target":{
						"node":27,
						"path":"scale"
					}
				},
				{
					"sampler":117,
					"target":{
						"node":34,
						"path":"translation"
					}
				},
				{
					"sampler":118,
					"target":{
						"node":34,
						"path":"rotation"
					}
				},
				{
					"sampler":119,
					"target":{
						"node":34,
						"path":"scale"
					}
				},
				{
					"sampler":120,
					"target":{
						"node":33,
						"path":"translation"
					}
				},
				{
					"sampler":121,
					"target":{
						"node":33,
						"path":"rotation"
					}
				},
				{
					"sampler":122,
					"target":{
						"node":33,
						"path":"scale"
					}
				},
				{
					"sampler":123,
					"target":{
						"node":32,
						"path":"translation"
					}
				},
				{
					"sampler":124,
					"target":{
						"node":32,
						"path":"rotation"
					}
				},
				{
					"sampler":125,
					"target":{
						"node":32,
						"path":"scale"
					}
				},
				{
					"sampler":126,
					"target":{
						"node":31,
						"path":"translation"
					}
				},
				{
					"sampler":127,
					"target":{
						"node":31,
						"path":"rotation"
					}
				},
				{
					"sampler":128,
					"target":{
						"node":31,
						"path":"scale"
					}
				},
				{
					"sampler":129,
					"target":{
						"node":38,
						"path":"translation"
					}
				},
				{
					"sampler":130,
					"target":{
						"node":38,
						"path":"rotation"
					}
				},
				{
					"sampler":131,
					"target":{
						"node":38,
						"path":"scale"
					}
				},
				{
					"sampler":132,
					"target":{
						"node":37,
						"path":"translation"
					}
				},
				{
					"sampler":133,
					"target":{
						"node":37,
						"path":"rotation"
					}
				},
				{
					"sampler":134,
					"target":{
						"node":37,
						"path":"scale"
					}
				},
				{
					"sampler":135,
					"target":{
						"node":36,
						"path":"translation"
					}
				},
				{
					"sampler":136,
					"target":{
						"node":36,
						"path":"rotation"
					}
				},
				{
					"sampler":137,
					"target":{
						"node":36,
						"path":"scale"
					}
				},
				{
					"sampler":138,
					"target":{
						"node":35,
						"path":"translation"
					}
				},
				{
					"sampler":139,
					"target":{
						"node":35,
						"path":"rotation"
					}
				},
				{
					"sampler":140,
					"target":{
						"node":35,
						"path":"scale"
					}
				},
				{
					"sampler":141,
					"target":{
						"node":42,
						"path":"translation"
					}
				},
				{
					"sampler":142,
					"target":{
						"node":42,
						"path":"rotation"
					}
				},
				{
					"sampler":143,
					"target":{
						"node":42,
						"path":"scale"
					}
				},
				{
					"sampler":144,
					"target":{
						"node":41,
						"path":"translation"
					}
				},
				{
					"sampler":145,
					"target":{
						"node":41,
						"path":"rotation"
					}
				},
				{
					"sampler":146,
					"target":{
						"node":41,
						"path":"scale"
					}
				},
				{
					"sampler":147,
					"target":{
						"node":40,
						"path":"translation"
					}
				},
				{
					"sampler":148,
					"target":{
						"node":40,
						"path":"rotation"
					}
				},
				{
					"sampler":149,
					"target":{
						"node":40,
						"path":"scale"
					}
				},
				{
					"sampler":150,
					"target":{
						"node":39,
						"path":"translation"
					}
				},
				{
					"sampler":151,
					"target":{
						"node":39,
						"path":"rotation"
					}
				},
				{
					"sampler":152,
					"target":{
						"node":39,
						"path":"scale"
					}
				},
				{
					"sampler":153,
					"target":{
						"node":46,
						"path":"translation"
					}
				},
				{
					"sampler":154,
					"target":{
						"node":46,
						"path":"rotation"
					}
				},
				{
					"sampler":155,
					"target":{
						"node":46,
						"path":"scale"
					}
				},
				{
					"sampler":156,
					"target":{
						"node":45,
						"path":"translation"
					}
				},
				{
					"sampler":157,
					"target":{
						"node":45,
						"path":"rotation"
					}
				},
				{
					"sampler":158,
					"target":{
						"node":45,
						"path":"scale"
					}
				},
				{
					"sampler":159,
					"target":{
						"node":44,
						"path":"translation"
					}
				},
				{
					"sampler":160,
					"target":{
						"node":44,
						"path":"rotation"
					}
				},
				{
					"sampler":161,
					"target":{
						"node":44,
						"path":"scale"
					}
				},
				{
					"sampler":162,
					"target":{
						"node":43,
						"path":"translation"
					}
				},
				{
					"sampler":163,
					"target":{
						"node":43,
						"path":"rotation"
					}
				},
				{
					"sampler":164,
					"target":{
						"node":43,
						"path":"scale"
					}
				},
				{
					"sampler":165,
					"target":{
						"node":58,
						"path":"translation"
					}
				},
				{
					"sampler":166,
					"target":{
						"node":58,
						"path":"rotation"
					}
				},
				{
					"sampler":167,
					"target":{
						"node":58,
						"path":"scale"
					}
				},
				{
					"sampler":168,
					"target":{
						"node":57,
						"path":"translation"
					}
				},
				{
					"sampler":169,
					"target":{
						"node":57,
						"path":"rotation"
					}
				},
				{
					"sampler":170,
					"target":{
						"node":57,
						"path":"scale"
					}
				},
				{
					"sampler":171,
					"target":{
						"node":56,
						"path":"translation"
					}
				},
				{
					"sampler":172,
					"target":{
						"node":56,
						"path":"rotation"
					}
				},
				{
					"sampler":173,
					"target":{
						"node":56,
						"path":"scale"
					}
				},
				{
					"sampler":174,
					"target":{
						"node":55,
						"path":"translation"
					}
				},
				{
					"sampler":175,
					"target":{
						"node":55,
						"path":"rotation"
					}
				},
				{
					"sampler":176,
					"target":{
						"node":55,
						"path":"scale"
					}
				},
				{
					"sampler":177,
					"target":{
						"node":54,
						"path":"translation"
					}
				},
				{
					"sampler":178,
					"target":{
						"node":54,
						"path":"rotation"
					}
				},
				{
					"sampler":179,
					"target":{
						"node":54,
						"path":"scale"
					}
				},
				{
					"sampler":180,
					"target":{
						"node":63,
						"path":"translation"
					}
				},
				{
					"sampler":181,
					"target":{
						"node":63,
						"path":"rotation"
					}
				},
				{
					"sampler":182,
					"target":{
						"node":63,
						"path":"scale"
					}
				},
				{
					"sampler":183,
					"target":{
						"node":62,
						"path":"translation"
					}
				},
				{
					"sampler":184,
					"target":{
						"node":62,
						"path":"rotation"
					}
				},
				{
					"sampler":185,
					"target":{
						"node":62,
						"path":"scale"
					}
				},
				{
					"sampler":186,
					"target":{
						"node":61,
						"path":"translation"
					}
				},
				{
					"sampler":187,
					"target":{
						"node":61,
						"path":"rotation"
					}
				},
				{
					"sampler":188,
					"target":{
						"node":61,
						"path":"scale"
					}
				},
				{
					"sampler":189,
					"target":{
						"node":60,
						"path":"translation"
					}
				},
				{
					"sampler":190,
					"target":{
						"node":60,
						"path":"rotation"
					}
				},
				{
					"sampler":191,
					"target":{
						"node":60,
						"path":"scale"
					}
				},
				{
					"sampler":192,
					"target":{
						"node":59,
						"path":"translation"
					}
				},
				{
					"sampler":193,
					"target":{
						"node":59,
						"path":"rotation"
					}
				},
				{
					"sampler":194,
					"target":{
						"node":59,
						"path":"scale"
					}
				}
			],
			"name":"mixamo.com",
			"samplers":[
				{
					"input":7,
					"interpolation":"LINEAR",
					"output":8
				},
				{
					"input":7,
					"interpolation":"LINEAR",
					"output":9
				},
				{
					"input":7,
					"interpolation":"LINEAR",
					"output":10
				},
				{
					"input":7,
					"interpolation":"LINEAR",
					"output":11
				},
				{
					"input":7,
					"interpolation":"LINEAR",
					"output":12
				},
				{
					"input":7,
					"interpolation":"LINEAR",
					"output":13
				},
				{
					"input":7,
					"interpolation":"LINEAR",
					"output":14
				},
				{
					"input":7,
					"interpolation":"LINEAR",
					"output":15
				},
				{
					"input":7,
					"interpolation":"LINEAR",
					"output":16
				},
				{
					"input":7,
					"interpolation":"LINEAR",
					"output":17
				},
				{
					"input":7,
					"interpolation":"LINEAR",
					"output":18
				},
				{
					"input":7,
					"interpolation":"LINEAR",
					"output":19
				},
				{
					"input":7,
					"interpolation":"LINEAR",
					"output":20
				},
				{
					"input":7,
					"interpolation":"LINEAR",
					"output":21
				},
				{
					"input":7,
					"interpolation":"LINEAR",
					"output":22
				},
				{
					"input":7,
					"interpolation":"LINEAR",
					"output":23
				},
				{
					"input":7,
					"interpolation":"LINEAR",
					"output":24
				},
				{
					"input":7,
					"interpolation":"LINEAR",
					"output":25
				},
				{
					"input":7,
					"interpolation":"LINEAR",
					"output":26
				},
				{
					"input":7,
					"interpolation":"LINEAR",
					"output":27
				},
				{
					"input":7,
					"interpolation":"LINEAR",
					"output":28
				},
				{
					"input":7,
					"interpolation":"LINEAR",
					"output":29
				},
				{
					"input":7,
					"interpolation":"LINEAR",
					"output":30
				},
				{
					"input":7,
					"interpolation":"LINEAR",
					"output":31
				},
				{
					"input":7,
					"interpolation":"LINEAR",
					"output":32
				},
				{
					"input":7,
					"interpolation":"LINEAR",
					"output":33
				},
				{
					"input":7,
					"interpolation":"LINEAR",
					"output":34
				},
				{
					"input":7,
					"interpolation":"LINEAR",
					"output":35
				},
				{
					"input":7,
					"interpolation":"LINEAR",
					"output":36
				},
				{
					"input":7,
					"interpolation":"LINEAR",
					"output":37
				},
				{
					"input":7,
					"interpolation":"LINEAR",
					"output":38
				},
				{
					"input":7,
					"interpolation":"LINEAR",
					"output":39
				},
				{
					"input":7,
					"interpolation":"LINEAR",
					"output":40
				},
				{
					"input":7,
					"interpolation":"LINEAR",
					"output":41
				},
				{
					"input":7,
					"interpolation":"LINEAR",
					"output":42
				},
				{
					"input":7,
					"interpolation":"LINEAR",
					"output":43
				},
				{
					"input":7,
					"interpolation":"LINEAR",
					"output":44
				},
				{
					"input":7,
					"interpolation":"LINEAR",
					"output":45
				},
				{
					"input":7,
					"interpolation":"LINEAR",
					"output":46
				},
				{
					"input":7,
					"interpolation":"LINEAR",
					"output":47
				},
				{
					"input":7,
					"interpolation":"LINEAR",
					"output":48
				},
				{
					"input":7,
					"interpolation":"LINEAR",
					"output":49
				},
				{
					"input":7,
					"interpolation":"LINEAR",
					"output":50
				},
				{
					"input":7,
					"interpolation":"LINEAR",
					"output":51
				},
				{
					"input":7,
					"interpolation":"LINEAR",
					"output":52
				},
				{
					"input":7,
					"interpolation":"LINEAR",
					"output":53
				},
				{
					"input":7,
					"interpolation":"LINEAR",
					"output":54
				},
				{
					"input":7,
					"interpolation":"LINEAR",
					"output":55
				},
				{
					"input":7,
					"interpolation":"LINEAR",
					"output":56
				},
				{
					"input":7,
					"interpolation":"LINEAR",
					"output":57
				},
				{
					"input":7,
					"interpolation":"LINEAR",
					"output":58
				},
				{
					"input":7,
					"interpolation":"LINEAR",
					"output":59
				},
				{
					"input":7,
					"interpolation":"LINEAR",
					"output":60
				},
				{
					"input":7,
					"interpolation":"LINEAR",
					"output":61
				},
				{
					"input":7,
					"interpolation":"LINEAR",
					"output":62
				},
				{
					"input":7,
					"interpolation":"LINEAR",
					"output":63
				},
				{
					"input":7,
					"interpolation":"LINEAR",
					"output":64
				},
				{
					"input":7,
					"interpolation":"LINEAR",
					"output":65
				},
				{
					"input":7,
					"interpolation":"LINEAR",
					"output":66
				},
				{
					"input":7,
					"interpolation":"LINEAR",
					"output":67
				},
				{
					"input":7,
					"interpolation":"LINEAR",
					"output":68
				},
				{
					"input":7,
					"interpolation":"LINEAR",
					"output":69
				},
				{
					"input":7,
					"interpolation":"LINEAR",
					"output":70
				},
				{
					"input":7,
					"interpolation":"LINEAR",
					"output":71
				},
				{
					"input":7,
					"interpolation":"LINEAR",
					"output":72
				},
				{
					"input":7,
					"interpolation":"LINEAR",
					"output":73
				},
				{
					"input":7,
					"interpolation":"LINEAR",
					"output":74
				},
				{
					"input":7,
					"interpolation":"LINEAR",
					"output":75
				},
				{
					"input":7,
					"interpolation":"LINEAR",
					"output":76
				},
				{
					"input":7,
					"interpolation":"LINEAR",
					"output":77
				},
				{
					"input":7,
					"interpolation":"LINEAR",
					"output":78
				},
				{
					"input":7,
					"interpolation":"LINEAR",
					"output":79
				},
				{
					"input":7,
					"interpolation":"LINEAR",
					"output":80
				},
				{
					"input":7,
					"interpolation":"LINEAR",
					"output":81
				},
				{
					"input":7,
					"interpolation":"LINEAR",
					"output":82
				},
				{
					"input":7,
					"interpolation":"LINEAR",
					"output":83
				},
				{
					"input":7,
					"interpolation":"LINEAR",
					"output":84
				},
				{
					"input":7,
					"interpolation":"LINEAR",
					"output":85
				},
				{
					"input":7,
					"interpolation":"LINEAR",
					"output":86
				},
				{
					"input":7,
					"interpolation":"LINEAR",
					"output":87
				},
				{
					"input":7,
					"interpolation":"LINEAR",
					"output":88
				},
				{
					"input":7,
					"interpolation":"LINEAR",
					"output":89
				},
				{
					"input":7,
					"interpolation":"LINEAR",
					"output":90
				},
				{
					"input":7,
					"interpolation":"LINEAR",
					"output":91
				},
				{
					"input":7,
					"interpolation":"LINEAR",
					"output":92
				},
				{
					"input":7,
					"interpolation":"LINEAR",
					"output":93
				},
				{
					"input":7,
					"interpolation":"LINEAR",
					"output":94
				},
				{
					"input":7,
					"interpolation":"LINEAR",
					"output":95
				},
				{
					"input":7,
					"interpolation":"LINEAR",
					"output":96
				},
				{
					"input":7,
					"interpolation":"LINEAR",
					"output":97
				},
				{
					"input":7,
					"interpolation":"LINEAR",
					"output":98
				},
				{
					"input":7,
					"interpolation":"LINEAR",
					"output":99
				},
				{
					"input":7,
					"interpolation":"LINEAR",
					"output":100
				},
				{
					"input":7,
					"interpolation":"LINEAR",
					"output":101
				},
				{
					"input":7,
					"interpolation":"LINEAR",
					"output":102
				},
				{
					"input":7,
					"interpolation":"LINEAR",
					"output":103
				},
				{
					"input":7,
					"interpolation":"LINEAR",
					"output":104
				},
				{
					"input":7,
					"interpolation":"LINEAR",
					"output":105
				},
				{
					"input":7,
					"interpolation":"LINEAR",
					"output":106
				},
				{
					"input":7,
					"interpolation":"LINEAR",
					"output":107
				},
				{
					"input":7,
					"interpolation":"LINEAR",
					"output":108
				},
				{
					"input":7,
					"interpolation":"LINEAR",
					"output":109
				},
				{
					"input":7,
					"interpolation":"LINEAR",
					"output":110
				},
				{
					"input":7,
					"interpolation":"LINEAR",
					"output":111
				},
				{
					"input":7,
					"interpolation":"LINEAR",
					"output":112
				},
				{
					"input":7,
					"interpolation":"LINEAR",
					"output":113
				},
				{
					"input":7,
					"interpolation":"LINEAR",
					"output":114
				},
				{
					"input":7,
					"interpolation":"LINEAR",
					"output":115
				},
				{
					"input":7,
					"interpolation":"LINEAR",
					"output":116
				},
				{
					"input":7,
					"interpolation":"LINEAR",
					"output":117
				},
				{
					"input":7,
					"interpolation":"LINEAR",
					"output":118
				},
				{
					"input":7,
					"interpolation":"LINEAR",
					"output":119
				},
				{
					"input":7,
					"interpolation":"LINEAR",
					"output":120
				},
				{
					"input":7,
					"interpolation":"LINEAR",
					"output":121
				},
				{
					"input":7,
					"interpolation":"LINEAR",
					"output":122
				},
				{
					"input":7,
					"interpolation":"LINEAR",
					"output":123
				},
				{
					"input":7,
					"interpolation":"LINEAR",
					"output":124
				},
				{
					"input":7,
					"interpolation":"LINEAR",
					"output":125
				},
				{
					"input":7,
					"interpolation":"LINEAR",
					"output":126
				},
				{
					"input":7,
					"interpolation":"LINEAR",
					"output":127
				},
				{
					"input":7,
					"interpolation":"LINEAR",
					"output":128
				},
				{
					"input":7,
					"interpolation":"LINEAR",
					"output":129
				},
				{
					"input":7,
					"interpolation":"LINEAR",
					"output":130
				},
				{
					"input":7,
					"interpolation":"LINEAR",
					"output":131
				},
				{
					"input":7,
					"interpolation":"LINEAR",
					"output":132
				},
				{
					"input":7,
					"interpolation":"LINEAR",
					"output":133
				},
				{
					"input":7,
					"interpolation":"LINEAR",
					"output":134
				},
				{
					"input":7,
					"interpolation":"LINEAR",
					"output":135
				},
				{
					"input":7,
					"interpolation":"LINEAR",
					"output":136
				},
				{
					"input":7,
					"interpolation":"LINEAR",
					"output":137
				},
				{
					"input":7,
					"interpolation":"LINEAR",
					"output":138
				},
				{
					"input":7,
					"interpolation":"LINEAR",
					"output":139
				},
				{
					"input":7,
					"interpolation":"LINEAR",
					"output":140
				},
				{
					"input":7,
					"interpolation":"LINEAR",
					"output":141
				},
				{
					"input":7,
					"interpolation":"LINEAR",
					"output":142
				},
				{
					"input":7,
					"interpolation":"LINEAR",
					"output":143
				},
				{
					"input":7,
					"interpolation":"LINEAR",
					"output":144
				},
				{
					"input":7,
					"interpolation":"LINEAR",
					"output":145
				},
				{
					"input":7,
					"interpolation":"LINEAR",
					"output":146
				},
				{
					"input":7,
					"interpolation":"LINEAR",
					"output":147
				},
				{
					"input":7,
					"interpolation":"LINEAR",
					"output":148
				},
				{
					"input":7,
					"interpolation":"LINEAR",
					"output":149
				},
				{
					"input":7,
					"interpolation":"LINEAR",
					"output":150
				},
				{
					"input":7,
					"interpolation":"LINEAR",
					"output":151
				},
				{
					"input":7,
					"interpolation":"LINEAR",
					"output":152
				},
				{
					"input":7,
					"interpolation":"LINEAR",
					"output":153
				},
				{
					"input":7,
					"interpolation":"LINEAR",
					"output":154
				},
				{
					"input":7,
					"interpolation":"LINEAR",
					"output":155
				},
				{
					"input":7,
					"interpolation":"LINEAR",
					"output":156
				},
				{
					"input":7,
					"interpolation":"LINEAR",
					"output":157
				},
				{
					"input":7,
					"interpolation":"LINEAR",
					"output":158
				},
				{
					"input":7,
					"interpolation":"LINEAR",
					"output":159
				},
				{
					"input":7,
					"interpolation":"LINEAR",
					"output":160
				},
				{
					"input":7,
					"interpolation":"LINEAR",
					"output":161
				},
				{
					"input":7,
					"interpolation":"LINEAR",
					"output":162
				},
				{
					"input":7,
					"interpolation":"LINEAR",
					"output":163
				},
				{
					"input":7,
					"interpolation":"LINEAR",
					"output":164
				},
				{
					"input":7,
					"interpolation":"LINEAR",
					"output":165
				},
				{
					"input":7,
					"interpolation":"LINEAR",
					"output":166
				},
				{
					"input":7,
					"interpolation":"LINEAR",
					"output":167
				},
				{
					"input":7,
					"interpolation":"LINEAR",
					"output":168
				},
				{
					"input":7,
					"interpolation":"LINEAR",
					"output":169
				},
				{
					"input":7,
					"interpolation":"LINEAR",
					"output":170
				},
				{
					"input":7,
					"interpolation":"LINEAR",
					"output":171
				},
				{
					"input":7,
					"interpolation":"LINEAR",
					"output":172
				},
				{
					"input":7,
					"interpolation":"LINEAR",
					"output":173
				},
				{
					"input":7,
					"interpolation":"LINEAR",
					"output":174
				},
				{
					"input":7,
					"interpolation":"LINEAR",
					"output":175
				},
				{
					"input":7,
					"interpolation":"LINEAR",
					"output":176
				},
				{
					"input":7,
					"interpolation":"LINEAR",
					"output":177
				},
				{
					"input":7,
					"interpolation":"LINEAR",
					"output":178
				},
				{
					"input":7,
					"interpolation":"LINEAR",
					"output":179
				},
				{
					"input":7,
					"interpolation":"LINEAR",
					"output":180
				},
				{
					"input":7,
					"interpolation":"LINEAR",
					"output":181
				},
				{
					"input":7,
					"interpolation":"LINEAR",
					"output":182
				},
				{
					"input":7,
					"interpolation":"LINEAR",
					"output":183
				},
				{
					"input":7,
					"interpolation":"LINEAR",
					"output":184
				},
				{
					"input":7,
					"interpolation":"LINEAR",
					"output":185
				},
				{
					"input":7,
					"interpolation":"LINEAR",
					"output":186
				},
				{
					"input":7,
					"interpolation":"LINEAR",
					"output":187
				},
				{
					"input":7,
					"interpolation":"LINEAR",
					"output":188
				},
				{
					"input":7,
					"interpolation":"LINEAR",
					"output":189
				},
				{
					"input":7,
					"interpolation":"LINEAR",
					"output":190
				},
				{
					"input":7,
					"interpolation":"LINEAR",
					"output":191
				},
				{
					"input":7,
					"interpolation":"LINEAR",
					"output":192
				},
				{
					"input":7,
					"interpolation":"LINEAR",
					"output":193
				},
				{
					"input":7,
					"interpolation":"LINEAR",
					"output":194
				},
				{
					"input":7,
					"interpolation":"LINEAR",
					"output":195
				},
				{
					"input":7,
					"interpolation":"LINEAR",
					"output":196
				},
				{
					"input":7,
					"interpolation":"LINEAR",
					"output":197
				},
				{
					"input":7,
					"interpolation":"LINEAR",
					"output":198
				},
				{
					"input":7,
					"interpolation":"LINEAR",
					"output":199
				},
				{
					"input":7,
					"interpolation":"LINEAR",
					"output":200
				},
				{
					"input":7,
					"interpolation":"LINEAR",
					"output":201
				},
				{
					"input":7,
					"interpolation":"LINEAR",
					"output":202
				}
			]
		}
	],
	"materials":[
		{
			"doubleSided":true,
			"extensions":{
				"KHR_materials_specular":{
					"specularColorFactor":[
						2.0,
						2.0,
						2.0
					],
					"specularColorTexture":{
						"index":0
					}
				}
			},
			"name":"Ch39_Body",
			"normalTexture":{
				"index":1
			},
			"pbrMetallicRoughness":{
				"baseColorTexture":{
					"index":2
				},
				"metallicFactor":0,
				"metallicRoughnessTexture":{
					"index":3
				}
			}
		}
	],
	"meshes":[
		{
			"name":"Mesh",
			"primitives":[
				{
					"attributes":{
						"POSITION":0,
						"NORMAL":1,
						"TEXCOORD_0":2,
						"JOINTS_0":3,
						"WEIGHTS_0":4
					},
					"indices":5,
					"material":0
				}
			]
		}
	],
	"textures":[
		{
			"sampler":0,
			"source":0
		},
		{
			"sampler":0,
			"source":1
		},
		{
			"sampler":0,
			"source":2
		},
		{
			"sampler":0,
			"source":3
		}
	],
	"images":[
		{
			"mimeType":"image/png",
			"name":"Ch39_1001_Specular",
			"uri":"Ch39_1001_Specular.png"
		},
		{
			"mimeType":"image/png",
			"name":"Ch39_1001_Normal",
			"uri":"Ch39_1001_Normal.png"
		},
		{
			"mimeType":"image/png",
			"name":"Ch39_1001_Diffuse",
			"uri":"Ch39_1001_Diffuse.png"
		},
		{
			"mimeType":"image/png",
			"name":"Ch39_1001_Glossiness",
			"uri":"Ch39_1001_Glossiness.png"
		}
	],
	"skins":[
		{
			"inverseBindMatrices":6,
			"joints":[
				64,
				53,
				52,
				51,
				2,
				1,
				0,
				26,
				25,
				24,
				23,
				6,
				5,
				4,
				3,
				10,
				9,
				8,
				7,
				14,
				13,
				12,
				11,
				18,
				17,
				16,
				15,
				22,
				21,
				20,
				19,
				50,
				49,
				48,
				47,
				30,
				29,
				28,
				27,
				34,
				33,
				32,
				31,
				38,
				37,
				36,
				35,
				42,
				41,
				40,
				39,
				46,
				45,
				44,
				43,
				58,
				57,
				56,
				55,
				54,
				63,
				62,
				61,
				60,
				59
			],
			"name":"Armature"
		}
	],
	"accessors":[
		{
			"bufferView":0,
			"componentType":5126,
			"count":18153,
			"max":[
				1.0096598863601685,
				1.7615118026733398,
				0.1969088315963745
			],
			"min":[
				-1.0096598863601685,
				-0.01569243147969246,
				-0.13259246945381165
			],
			"type":"VEC3"
		},
		{
			"bufferView":1,
			"componentType":5126,
			"count":18153,
			"type":"VEC3"
		},
		{
			"bufferView":2,
			"componentType":5126,
			"count":18153,
			"type":"VEC2"
		},
		{
			"bufferView":3,
			"componentType":5121,
			"count":18153,
			"type":"VEC4"
		},
		{
			"bufferView":4,
			"componentType":5126,
			"count":18153,
			"type":"VEC4"
		},
		{
			"bufferView":5,
			"componentType":5123,
			"count":96294,
			"type":"SCALAR"
		},
		{
			"bufferView":6,
			"componentType":5126,
			"count":65,
			"type":"MAT4"
		},
		{
			"bufferView":7,
			"componentType":5126,
			"count":100,
			"max":[
				3.3333333333333335
			],
			"min":[
				0.03333333333333333
			],
			"type":"SCALAR"
		},
		{
			"bufferView":8,
			"componentType":5126,
			"count":100,
			"type":"VEC3"
		},
		{
			"bufferView":9,
			"componentType":5126,
			"count":100,
			"type":"VEC4"
		},
		{
			"bufferView":10,
			"componentType":5126,
			"count":100,
			"type":"VEC3"
		},
		{
			"bufferView":11,
			"componentType":5126,
			"count":100,
			"type":"VEC3"
		},
		{
			"bufferView":12,
			"componentType":5126,
			"count":100,
			"type":"VEC4"
		},
		{
			"bufferView":13,
			"componentType":5126,
			"count":100,
			"type":"VEC3"
		},
		{
			"bufferView":14,
			"componentType":5126,
			"count":100,
			"type":"VEC3"
		},
		{
			"bufferView":15,
			"componentType":5126,
			"count":100,
			"type":"VEC4"
		},
		{
			"bufferView":16,
			"componentType":5126,
			"count":100,
			"type":"VEC3"
		},
		{
			"bufferView":17,
			"componentType":5126,
			"count":100,
			"type":"VEC3"
		},
		{
			"bufferView":18,
			"componentType":5126,
			"count":100,
			"type":"VEC4"
		},
		{
			"bufferView":19,
			"componentType":5126,
			"count":100,
			"type":"VEC3"
		},
		{
			"bufferView":20,
			"componentType":5126,
			"count":100,
			"type":"VEC3"
		},
		{
			"bufferView":21,
			"componentType":5126,
			"count":100,
			"type":"VEC4"
		},
		{
			"bufferView":22,
			"componentType":5126,
			"count":100,
			"type":"VEC3"
		},
		{
			"bufferView":23,
			"componentType":5126,
			"count":100,
			"type":"VEC3"
		},
		{
			"bufferView":24,
			"componentType":5126,
			"count":100,
			"type":"VEC4"
		},
		{
			"bufferView":25,
			"componentType":5126,
			"count":100,
			"type":"VEC3"
		},
		{
			"bufferView":26,
			"componentType":5126,
			"count":100,
			"type":"VEC3"
		},
		{
			"bufferView":27,
			"componentType":5126,
			"count":100,
			"type":"VEC4"
		},
		{
			"bufferView":28,
			"componentType":5126,
			"count":100,
			"type":"VEC3"
		},
		{
			"bufferView":29,
			"componentType":5126,
			"count":100,
			"type":"VEC3"
		},
		{
			"bufferView":30,
			"componentType":5126,
			"count":100,
			"type":"VEC4"
		},
		{
			"bufferView":31,
			"componentType":5126,
			"count":100,
			"type":"VEC3"
		},
		{
			"bufferView":32,
			"componentType":5126,
			"count":100,
			"type":"VEC3"
		},
		{
			"bufferView":33,
			"componentType":5126,
			"count":100,
			"type":"VEC4"
		},
		{
			"bufferView":34,
			"componentType":5126,
			"count":100,
			"type":"VEC3"
		},
		{
			"bufferView":35,
			"componentType":5126,
			"count":100,
			"type":"VEC3"
		},
		{
			"bufferView":36,
			"componentType":5126,
			"count":100,
			"type":"VEC4"
		},
		{
			"bufferView":37,
			"componentType":5126,
			"count":100,
			"type":"VEC3"
		},
		{
			"bufferView":38,
			"componentType":5126,
			"count":100,
			"type":"VEC3"
		},
		{
			"bufferView":39,
			"componentType":5126,
			"count":100,
			"type":"VEC4"
		},
		{
			"bufferView":40,
			"componentType":5126,
			"count":100,
			"type":"VEC3"
		},
		{
			"bufferView":41,
			"componentType":5126,
			"count":100,
			"type":"VEC3"
		},
		{
			"bufferView":42,
			"componentType":5126,
			"count":100,
			"type":"VEC4"
		},
		{
			"bufferView":43,
			"componentType":5126,
			"count":100,
			"type":"VEC3"
		},
		{
			"bufferView":44,
			"componentType":5126,
			"count":100,
			"type":"VEC3"
		},
		{
			"bufferView":45,
			"componentType":5126,
			"count":100,
			"type":"VEC4"
		},
		{
			"bufferView":46,
			"componentType":5126,
			"count":100,
			"type":"VEC3"
		},
		{
			"bufferView":47,
			"componentType":5126,
			"count":100,
			"type":"VEC3"
		},
		{
			"bufferView":48,
			"componentType":5126,
			"count":100,
			"type":"VEC4"
		},
		{
			"bufferView":49,
			"componentType":5126,
			"count":100,
			"type":"VEC3"
		},
		{
			"bufferView":50,
			"componentType":5126,
			"count":100,
			"type":"VEC3"
		},
		{
			"bufferView":51,
			"componentType":5126,
			"count":100,
			"type":"VEC4"
		},
		{
			"bufferView":52,
			"componentType":5126,
			"count":100,
			"type":"VEC3"
		},
		{
			"bufferView":53,
			"componentType":5126,
			"count":100,
			"type":"VEC3"
		},
		{
			"bufferView":54,
			"componentType":5126,
			"count":100,
			"type":"VEC4"
		},
		{
			"bufferView":55,
			"componentType":5126,
			"count":100,
			"type":"VEC3"
		},
		{
			"bufferView":56,
			"componentType":5126,
			"count":100,
			"type":"VEC3"
		},
		{
			"bufferView":57,
			"componentType":5126,
			"count":100,
			"type":"VEC4"
		},
		{
			"bufferView":58,
			"componentType":5126,
			"count":100,
			"type":"VEC3"
		},
		{
			"bufferView":59,
			"componentType":5126,
			"count":100,
			"type":"VEC3"
		},
		{
			"bufferView":60,
			"componentType":5126,
			"count":100,
			"type":"VEC4"
		},
		{
			"bufferView":61,
			"componentType":5126,
			"count":100,
			"type":"VEC3"
		},
		{
			"bufferView":62,
			"componentType":5126,
			"count":100,
			"type":"VEC3"
		},
		{
			"bufferView":63,
			"componentType":5126,
			"count":100,
			"type":"VEC4"
		},
		{
			"bufferView":64,
			"componentType":5126,
			"count":100,
			"type":"VEC3"
		},
		{
			"bufferView":65,
			"componentType":5126,
			"count":100,
			"type":"VEC3"
		},
		{
			"bufferView":66,
			"componentType":5126,
			"count":100,
			"type":"VEC4"
		},
		{
			"bufferView":67,
			"componentType":5126,
			"count":100,
			"type":"VEC3"
		},
		{
			"bufferView":68,
			"componentType":5126,
			"count":100,
			"type":"VEC3"
		},
		{
			"bufferView":69,
			"componentType":5126,
			"count":100,
			"type":"VEC4"
		},
		{
			"bufferView":70,
			"componentType":5126,
			"count":100,
			"type":"VEC3"
		},
		{
			"bufferView":71,
			"componentType":5126,
			"count":100,
			"type":"VEC3"
		},
		{
			"bufferView":72,
			"componentType":5126,
			"count":100,
			"type":"VEC4"
		},
		{
			"bufferView":73,
			"componentType":5126,
			"count":100,
			"type":"VEC3"
		},
		{
			"bufferView":74,
			"componentType":5126,
			"count":100,
			"type":"VEC3"
		},
		{
			"bufferView":75,
			"componentType":5126,
			"count":100,
			"type":"VEC4"
		},
		{
			"bufferView":76,
			"componentType":5126,
			"count":100,
			"type":"VEC3"
		},
		{
			"bufferView":77,
			"componentType":5126,
			"count":100,
			"type":"VEC3"
		},
		{
			"bufferView":78,
			"componentType":5126,
			"count":100,
			"type":"VEC4"
		},
		{
			"bufferView":79,
			"componentType":5126,
			"count":100,
			"type":"VEC3"
		},
		{
			"bufferView":80,
			"componentType":5126,
			"count":100,
			"type":"VEC3"
		},
		{
			"bufferView":81,
			"componentType":5126,
			"count":100,
			"type":"VEC4"
		},
		{
			"bufferView":82,
			"componentType":5126,
			"count":100,
			"type":"VEC3"
		},
		{
			"bufferView":83,
			"componentType":5126,
			"count":100,
			"type":"VEC3"
		},
		{
			"bufferView":84,
			"componentType":5126,
			"count":100,
			"type":"VEC4"
		},
		{
			"bufferView":85,
			"componentType":5126,
			"count":100,
			"type":"VEC3"
		},
		{
			"bufferView":86,
			"componentType":5126,
			"count":100,
			"type":"VEC3"
		},
		{
			"bufferView":87,
			"componentType":5126,
			"count":100,
			"type":"VEC4"
		},
		{
			"bufferView":88,
			"componentType":5126,
			"count":100,
			"type":"VEC3"
		},
		{
			"bufferView":89,
			"componentType":5126,
			"count":100,
			"type":"VEC3"
		},
		{
			"bufferView":90,
			"componentType":5126,
			"count":100,
			"type":"VEC4"
		},
		{
			"bufferView":91,
			"componentType":5126,
			"count":100,
			"type":"VEC3"
		},
		{
			"bufferView":92,
			"componentType":5126,
			"count":100,
			"type":"VEC3"
		},
		{
			"bufferView":93,
			"componentType":5126,
			"count":100,
			"type":"VEC4"
		},
		{
			"bufferView":94,
			"componentType":5126,
			"count":100,
			"type":"VEC3"
		},
		{
			"bufferView":95,
			"componentType":5126,
			"count":100,
			"type":"VEC3"
		},
		{
			"bufferView":96,
			"componentType":5126,
			"count":100,
			"type":"VEC4"
		},
		{
			"bufferView":97,
			"componentType":5126,
			"count":100,
			"type":"VEC3"
		},
		{
			"bufferView":98,
			"componentType":5126,
			"count":100,
			"type":"VEC3"
		},
		{
			"bufferView":99,
			"componentType":5126,
			"count":100,
			"type":"VEC4"
		},
		{
			"bufferView":100,
			"componentType":5126,
			"count":100,
			"type":"VEC3"
		},
		{
			"bufferView":101,
			"componentType":5126,
			"count":100,
			"type":"VEC3"
		},
		{
			"bufferView":102,
			"componentType":5126,
			"count":100,
			"type":"VEC4"
		},
		{
			"bufferView":103,
			"componentType":5126,
			"count":100,
			"type":"VEC3"
		},
		{
			"bufferView":104,
			"componentType":5126,
			"count":100,
			"type":"VEC3"
		},
		{
			"bufferView":105,
			"componentType":5126,
			"count":100,
			"type":"VEC4"
		},
		{
			"bufferView":106,
			"componentType":5126,
			"count":100,
			"type":"VEC3"
		},
		{
			"bufferView":107,
			"componentType":5126,
			"count":100,
			"type":"VEC3"
		},
		{
			"bufferView":108,
			"componentType":5126,
			"count":100,
			"type":"VEC4"
		},
		{
			"bufferView":109,
			"componentType":5126,
			"count":100,
			"type":"VEC3"
		},
		{
			"bufferView":110,
			"componentType":5126,
			"count":100,
			"type":"VEC3"
		},
		{
			"bufferView":111,
			"componentType":5126,
			"count":100,
			"type":"VEC4"
		},
		{
			"bufferView":112,
			"componentType":5126,
			"count":100,
			"type":"VEC3"
		},
		{
			"bufferView":113,
			"componentType":5126,
			"count":100,
			"type":"VEC3"
		},
		{
			"bufferView":114,
			"componentType":5126,
			"count":100,
			"type":"VEC4"
		},
		{
			"bufferView":115,
			"componentType":5126,
			"count":100,
			"type":"VEC3"
		},
		{
			"bufferView":116,
			"componentType":5126,
			"count":100,
			"type":"VEC3"
		},
		{
			"bufferView":117,
			"componentType":5126,
			"count":100,
			"type":"VEC4"
		},
		{
			"bufferView":118,
			"componentType":5126,
			"count":100,
			"type":"VEC3"
		},
		{
			"bufferView":119,
			"componentType":5126,
			"count":100,
			"type":"VEC3"
		},
		{
			"bufferView":120,
			"componentType":5126,
			"count":100,
			"type":"VEC4"
		},
		{
			"bufferView":121,
			"componentType":5126,
			"count":100,
			"type":"VEC3"
		},
		{
			"bufferView":122,
			"componentType":5126,
			"count":100,
			"type":"VEC3"
		},
		{
			"bufferView":123,
			"componentType":5126,
			"count":100,
			"type":"VEC4"
		},
		{
			"bufferView":124,
			"componentType":5126,
			"count":100,
			"type":"VEC3"
		},
		{
			"bufferView":125,
			"componentType":5126,
			"count":100,
			"type":"VEC3"
		},
		{
			"bufferView":126,
			"componentType":5126,
			"count":100,
			"type":"VEC4"
		},
		{
			"bufferView":127,
			"componentType":5126,
			"count":100,
			"type":"VEC3"
		},
		{
			"bufferView":128,
			"componentType":5126,
			"count":100,
			"type":"VEC3"
		},
		{
			"bufferView":129,
			"componentType":5126,
			"count":100,
			"type":"VEC4"
		},
		{
			"bufferView":130,
			"componentType":5126,
			"count":100,
			"type":"VEC3"
		},
		{
			"bufferView":131,
			"componentType":5126,
			"count":100,
			"type":"VEC3"
		},
		{
			"bufferView":132,
			"componentType":5126,
			"count":100,
			"type":"VEC4"
		},
		{
			"bufferView":133,
			"componentType":5126,
			"count":100,
			"type":"VEC3"
		},
		{
			"bufferView":134,
			"componentType":5126,
			"count":100,
			"type":"VEC3"
		},
		{
			"bufferView":135,
			"componentType":5126,
			"count":100,
			"type":"VEC4"
		},
		{
			"bufferView":136,
			"componentType":5126,
			"count":100,
			"type":"VEC3"
		},
		{
			"bufferView":137,
			"componentType":5126,
			"count":100,
			"type":"VEC3"
		},
		{
			"bufferView":138,
			"componentType":5126,
			"count":100,
			"type":"VEC4"
		},
		{
			"bufferView":139,
			"componentType":5126,
			"count":100,
			"type":"VEC3"
		},
		{
			"bufferView":140,
			"componentType":5126,
			"count":100,
			"type":"VEC3"
		},
		{
			"bufferView":141,
			"componentType":5126,
			"count":100,
			"type":"VEC4"
		},
		{
			"bufferView":142,
			"componentType":5126,
			"count":100,
			"type":"VEC3"
		},
		{
			"bufferView":143,
			"componentType":5126,
			"count":100,
			"type":"VEC3"
		},
		{
			"bufferView":144,
			"componentType":5126,
			"count":100,
			"type":"VEC4"
		},
		{
			"bufferView":145,
			"componentType":5126,
			"count":100,
			"type":"VEC3"
		},
		{
			"bufferView":146,
			"componentType":5126,
			"count":100,
			"type":"VEC3"
		},
		{
			"bufferView":147,
			"componentType":5126,
			"count":100,
			"type":"VEC4"
		},
		{
			"bufferView":148,
			"componentType":5126,
			"count":100,
			"type":"VEC3"
		},
		{
			"bufferView":149,
			"componentType":5126,
			"count":100,
			"type":"VEC3"
		},
		{
			"bufferView":150,
			"componentType":5126,
			"count":100,
			"type":"VEC4"
		},
		{
			"bufferView":151,
			"componentType":5126,
			"count":100,
			"type":"VEC3"
		},
		{
			"bufferView":152,
			"componentType":5126,
			"count":100,
			"type":"VEC3"
		},
		{
			"bufferView":153,
			"componentType":5126,
			"count":100,
			"type":"VEC4"
		},
		{
			"bufferView":154,
			"componentType":5126,
			"count":100,
			"type":"VEC3"
		},
		{
			"bufferView":155,
			"componentType":5126,
			"count":100,
			"type":"VEC3"
		},
		{
			"bufferView":156,
			"componentType":5126,
			"count":100,
			"type":"VEC4"
		},
		{
			"bufferView":157,
			"componentType":5126,
			"count":100,
			"type":"VEC3"
		},
		{
			"bufferView":158,
			"componentType":5126,
			"count":100,
			"type":"VEC3"
		},
		{
			"bufferView":159,
			"componentType":5126,
			"count":100,
			"type":"VEC4"
		},
		{
			"bufferView":160,
			"componentType":5126,
			"count":100,
			"type":"VEC3"
		},
		{
			"bufferView":161,
			"componentType":5126,
			"count":100,
			"type":"VEC3"
		},
		{
			"bufferView":162,
			"componentType":5126,
			"count":100,
			"type":"VEC4"
		},
		{
			"bufferView":163,
			"componentType":5126,
			"count":100,
			"type":"VEC3"
		},
		{
			"bufferView":164,
			"componentType":5126,
			"count":100,
			"type":"VEC3"
		},
		{
			"bufferView":165,
			"componentType":5126,
			"count":100,
			"type":"VEC4"
		},
		{
			"bufferView":166,
			"componentType":5126,
			"count":100,
			"type":"VEC3"
		},
		{
			"bufferView":167,
			"componentType":5126,
			"count":100,
			"type":"VEC3"
		},
		{
			"bufferView":168,
			"componentType":5126,
			"count":100,
			"type":"VEC4"
		},
		{
			"bufferView":169,
			"componentType":5126,
			"count":100,
			"type":"VEC3"
		},
		{
			"bufferView":170,
			"componentType":5126,
			"count":100,
			"type":"VEC3"
		},
		{
			"bufferView":171,
			"componentType":5126,
			"count":100,
			"type":"VEC4"
		},
		{
			"bufferView":172,
			"componentType":5126,
			"count":100,
			"type":"VEC3"
		},
		{
			"bufferView":173,
			"componentType":5126,
			"count":100,
			"type":"VEC3"
		},
		{
			"bufferView":174,
			"componentType":5126,
			"count":100,
			"type":"VEC4"
		},
		{
			"bufferView":175,
			"componentType":5126,
			"count":100,
			"type":"VEC3"
		},
		{
			"bufferView":176,
			"componentType":5126,
			"count":100,
			"type":"VEC3"
		},
		{
			"bufferView":177,
			"componentType":5126,
			"count":100,
			"type":"VEC4"
		},
		{
			"bufferView":178,
			"componentType":5126,
			"count":100,
			"type":"VEC3"
		},
		{
			"bufferView":179,
			"componentType":5126,
			"count":100,
			"type":"VEC3"
		},
		{
			"bufferView":180,
			"componentType":5126,
			"count":100,
			"type":"VEC4"
		},
		{
			"bufferView":181,
			"componentType":5126,
			"count":100,
			"type":"VEC3"
		},
		{
			"bufferView":182,
			"componentType":5126,
			"count":100,
			"type":"VEC3"
		},
		{
			"bufferView":183,
			"componentType":5126,
			"count":100,
			"type":"VEC4"
		},
		{
			"bufferView":184,
			"componentType":5126,
			"count":100,
			"type":"VEC3"
		},
		{
			"bufferView":185,
			"componentType":5126,
			"count":100,
			"type":"VEC3"
		},
		{
			"bufferView":186,
			"componentType":5126,
			"count":100,
			"type":"VEC4"
		},
		{
			"bufferView":187,
			"componentType":5126,
			"count":100,
			"type":"VEC3"
		},
		{
			"bufferView":188,
			"componentType":5126,
			"count":100,
			"type":"VEC3"
		},
		{
			"bufferView":189,
			"componentType":5126,
			"count":100,
			"type":"VEC4"
		},
		{
			"bufferView":190,
			"componentType":5126,
			"count":100,
			"type":"VEC3"
		},
		{
			"bufferView":191,
			"componentType":5126,
			"count":100,
			"type":"VEC3"
		},
		{
			"bufferView":192,
			"componentType":5126,
			"count":100,
			"type":"VEC4"
		},
		{
			"bufferView":193,
			"componentType":5126,
			"count":100,
			"type":"VEC3"
		},
		{
			"bufferView":194,
			"componentType":5126,
			"count":100,
			"type":"VEC3"
		},
		{
			"bufferView":195,
			"componentType":5126,
			"count":100,
			"type":"VEC4"
		},
		{
			"bufferView":196,
			"componentType":5126,
			"count":100,
			"type":"VEC3"
		},
		{
			"bufferView":197,
			"componentType":5126,
			"count":100,
			"type":"VEC3"
		},
		{
			"bufferView":198,
			"componentType":5126,
			"count":100,
			"type":"VEC4"
		},
		{
			"bufferView":199,
			"componentType":5126,
			"count":100,
			"type":"VEC3"
		},
		{
			"bufferView":200,
			"componentType":5126,
			"count":100,
			"type":"VEC3"
		},
		{
			"bufferView":201,
			"componentType":5126,
			"count":100,
			"type":"VEC4"
		},
		{
			"bufferView":202,
			"componentType":5126,
			"count":100,
			"type":"VEC3"
		}
	],
	"bufferViews":[
		{
			"buffer":0,
			"byteLength":217836,
			"byteOffset":0,
			"target":34962
		},
		{
			"buffer":0,
			"byteLength":217836,
			"byteOffset":217836,
			"target":34962
		},
		{
			"buffer":0,
			"byteLength":145224,
			"byteOffset":435672,
			"target":34962
		},
		{
			"buffer":0,
			"byteLength":72612,
			"byteOffset":580896,
			"target":34962
		},
		{
			"buffer":0,
			"byteLength":290448,
			"byteOffset":653508,
			"target":34962
		},
		{
			"buffer":0,
			"byteLength":192588,
			"byteOffset":943956,
			"target":34963
		},
		{
			"buffer":0,
			"byteLength":4160,
			"byteOffset":1136544
		},
		{
			"buffer":0,
			"byteLength":400,
			"byteOffset":1140704
		},
		{
			"buffer":0,
			"byteLength":1200,
			"byteOffset":1141104
		},
		{
			"buffer":0,
			"byteLength":1600,
			"byteOffset":1142304
		},
		{
			"buffer":0,
			"byteLength":1200,
			"byteOffset":1143904
		},
		{
			"buffer":0,
			"byteLength":1200,
			"byteOffset":1145104
		},
		{
			"buffer":0,
			"byteLength":1600,
			"byteOffset":1146304
		},
		{
			"buffer":0,
			"byteLength":1200,
			"byteOffset":1147904
		},
		{
			"buffer":0,
			"byteLength":1200,
			"byteOffset":1149104
		},
		{
			"buffer":0,
			"byteLength":1600,
			"byteOffset":1150304
		},
		{
			"buffer":0,
			"byteLength":1200,
			"byteOffset":1151904
		},
		{
			"buffer":0,
			"byteLength":1200,
			"byteOffset":1153104
		},
		{
			"buffer":0,
			"byteLength":1600,
			"byteOffset":1154304
		},
		{
			"buffer":0,
			"byteLength":1200,
			"byteOffset":1155904
		},
		{
			"buffer":0,
			"byteLength":1200,
			"byteOffset":1157104
		},
		{
			"buffer":0,
			"byteLength":1600,
			"byteOffset":1158304
		},
		{
			"buffer":0,
			"byteLength":1200,
			"byteOffset":1159904
		},
		{
			"buffer":0,
			"byteLength":1200,
			"byteOffset":1161104
		},
		{
			"buffer":0,
			"byteLength":1600,
			"byteOffset":1162304
		},
		{
			"buffer":0,
			"byteLength":1200,
			"byteOffset":1163904
		},
		{
			"buffer":0,
			"byteLength":1200,
			"byteOffset":1165104
		},
		{
			"buffer":0,
			"byteLength":1600,
			"byteOffset":1166304
		},
		{
			"buffer":0,
			"byteLength":1200,
			"byteOffset":1167904
		},
		{
			"buffer":0,
			"byteLength":1200,
			"byteOffset":1169104
		},
		{
			"buffer":0,
			"byteLength":1600,
			"byteOffset":1170304
		},
		{
			"buffer":0,
			"byteLength":1200,
			"byteOffset":1171904
		},
		{
			"buffer":0,
			"byteLength":1200,
			"byteOffset":1173104
		},
		{
			"buffer":0,
			"byteLength":1600,
			"byteOffset":1174304
		},
		{
			"buffer":0,
			"byteLength":1200,
			"byteOffset":1175904
		},
		{
			"buffer":0,
			"byteLength":1200,
			"byteOffset":1177104
		},
		{
			"buffer":0,
			"byteLength":1600,
			"byteOffset":1178304
		},
		{
			"buffer":0,
			"byteLength":1200,
			"byteOffset":1179904
		},
		{
			"buffer":0,
			"byteLength":1200,
			"byteOffset":1181104
		},
		{
			"buffer":0,
			"byteLength":1600,
			"byteOffset":1182304
		},
		{
			"buffer":0,
			"byteLength":1200,
			"byteOffset":1183904
		},
		{
			"buffer":0,
			"byteLength":1200,
			"byteOffset":1185104
		},
		{
			"buffer":0,
			"byteLength":1600,
			"byteOffset":1186304
		},
		{
			"buffer":0,
			"byteLength":1200,
			"byteOffset":1187904
		},
		{
			"buffer":0,
			"byteLength":1200,
			"byteOffset":1189104
		},
		{
			"buffer":0,
			"byteLength":1600,
			"byteOffset":1190304
		},
		{
			"buffer":0,
			"byteLength":1200,
			"byteOffset":1191904
		},
		{
			"buffer":0,
			"byteLength":1200,
			"byteOffset":1193104
		},
		{
			"buffer":0,
			"byteLength":1600,
			"byteOffset":1194304
		},
		{
			"buffer":0,
			"byteLength":1200,
			"byteOffset":1195904
		},
		{
			"buffer":0,
			"byteLength":1200,
			"byteOffset":1197104
		},
		{
			"buffer":0,
			"byteLength":1600,
			"byteOffset":1198304
		},
		{
			"buffer":0,
			"byteLength":1200,
			"byteOffset":1199904
		},
		{
			"buffer":0,
			"byteLength":1200,
			"byteOffset":1201104
		},
		{
			"buffer":0,
			"byteLength":1600,
			"byteOffset":1202304
		},
		{
			"buffer":0,
			"byteLength":1200,
			"byteOffset":1203904
		},
		{
			"buffer":0,
			"byteLength":1200,
			"byteOffset":1205104
		},
		{
			"buffer":0,
			"byteLength":1600,
			"byteOffset":1206304
		},
		{
			"buffer":0,
			"byteLength":1200,
			"byteOffset":1207904
		},
		{
			"buffer":0,
			"byteLength":1200,
			"byteOffset":1209104
		},
		{
			"buffer":0,
			"byteLength":1600,
			"byteOffset":1210304
		},
		{
			"buffer":0,
			"byteLength":1200,
			"byteOffset":1211904
		},
		{
			"buffer":0,
			"byteLength":1200,
			"byteOffset":1213104
		},
		{
			"buffer":0,
			"byteLength":1600,
			"byteOffset":1214304
		},
		{
			"buffer":0,
			"byteLength":1200,
			"byteOffset":1215904
		},
		{
			"buffer":0,
			"byteLength":1200,
			"byteOffset":1217104
		},
		{
			"buffer":0,
			"byteLength":1600,
			"byteOffset":1218304
		},
		{
			"buffer":0,
			"byteLength":1200,
			"byteOffset":1219904
		},
		{
			"buffer":0,
			"byteLength":1200,
			"byteOffset":1221104
		},
		{
			"buffer":0,
			"byteLength":1600,
			"byteOffset":1222304
		},
		{
			"buffer":0,
			"byteLength":1200,
			"byteOffset":1223904
		},
		{
			"buffer":0,
			"byteLength":1200,
			"byteOffset":1225104
		},
		{
			"buffer":0,
			"byteLength":1600,
			"byteOffset":1226304
		},
		{
			"buffer":0,
			"byteLength":1200,
			"byteOffset":1227904
		},
		{
			"buffer":0,
			"byteLength":1200,
			"byteOffset":1229104
		},
		{
			"buffer":0,
			"byteLength":1600,
			"byteOffset":1230304
		},
		{
			"buffer":0,
			"byteLength":1200,
			"byteOffset":1231904
		},
		{
			"buffer":0,
			"byteLength":1200,
			"byteOffset":1233104
		},
		{
			"buffer":0,
			"byteLength":1600,
			"byteOffset":1234304
		},
		{
			"buffer":0,
			"byteLength":1200,
			"byteOffset":1235904
		},
		{
			"buffer":0,
			"byteLength":1200,
			"byteOffset":1237104
		},
		{
			"buffer":0,
			"byteLength":1600,
			"byteOffset":1238304
		},
		{
			"buffer":0,
			"byteLength":1200,
			"byteOffset":1239904
		},
		{
			"buffer":0,
			"byteLength":1200,
			"byteOffset":1241104
		},
		{
			"buffer":0,
			"byteLength":1600,
			"byteOffset":1242304
		},
		{
			"buffer":0,
			"byteLength":1200,
			"byteOffset":1243904
		},
		{
			"buffer":0,
			"byteLength":1200,
			"byteOffset":1245104
		},
		{
			"buffer":0,
			"byteLength":1600,
			"byteOffset":1246304
		},
		{
			"buffer":0,
			"byteLength":1200,
			"byteOffset":1247904
		},
		{
			"buffer":0,
			"byteLength":1200,
			"byteOffset":1249104
		},
		{
			"buffer":0,
			"byteLength":1600,
			"byteOffset":1250304
		},
		{
			"buffer":0,
			"byteLength":1200,
			"byteOffset":1251904
		},
		{
			"buffer":0,
			"byteLength":1200,
			"byteOffset":1253104
		},
		{
			"buffer":0,
			"byteLength":1600,
			"byteOffset":1254304
		},
		{
			"buffer":0,
			"byteLength":1200,
			"byteOffset":1255904
		},
		{
			"buffer":0,
			"byteLength":1200,
			"byteOffset":1257104
		},
		{
			"buffer":0,
			"byteLength":1600,
			"byteOffset":1258304
		},
		{
			"buffer":0,
			"byteLength":1200,
			"byteOffset":1259904
		},
		{
			"buffer":0,
			"byteLength":1200,
			"byteOffset":1261104
		},
		{
			"buffer":0,
			"byteLength":1600,
			"byteOffset":1262304
		},
		{
			"buffer":0,
			"byteLength":1200,
			"byteOffset":1263904
		},
		{
			"buffer":0,
			"byteLength":1200,
			"byteOffset":1265104
		},
		{
			"buffer":0,
			"byteLength":1600,
			"byteOffset":1266304
		},
		{
			"buffer":0,
			"byteLength":1200,
			"byteOffset":1267904
		},
		{
			"buffer":0,
			"byteLength":1200,
			"byteOffset":1269104
		},
		{
			"buffer":0,
			"byteLength":1600,
			"byteOffset":1270304
		},
		{
			"buffer":0,
			"byteLength":1200,
			"byteOffset":1271904
		},
		{
			"buffer":0,
			"byteLength":1200,
			"byteOffset":1273104
		},
		{
			"buffer":0,
			"byteLength":1600,
			"byteOffset":1274304
		},
		{
			"buffer":0,
			"byteLength":1200,
			"byteOffset":1275904
		},
		{
			"buffer":0,
			"byteLength":1200,
			"byteOffset":1277104
		},
		{
			"buffer":0,
			"byteLength":1600,
			"byteOffset":1278304
		},
		{
			"buffer":0,
			"byteLength":1200,
			"byteOffset":1279904
		},
		{
			"buffer":0,
			"byteLength":1200,
			"byteOffset":1281104
		},
		{
			"buffer":0,
			"byteLength":1600,
			"byteOffset":1282304
		},
		{
			"buffer":0,
			"byteLength":1200,
			"byteOffset":1283904
		},
		{
			"buffer":0,
			"byteLength":1200,
			"byteOffset":1285104
		},
		{
			"buffer":0,
			"byteLength":1600,
			"byteOffset":1286304
		},
		{
			"buffer":0,
			"byteLength":1200,
			"byteOffset":1287904
		},
		{
			"buffer":0,
			"byteLength":1200,
			"byteOffset":1289104
		},
		{
			"buffer":0,
			"byteLength":1600,
			"byteOffset":1290304
		},
		{
			"buffer":0,
			"byteLength":1200,
			"byteOffset":1291904
		},
		{
			"buffer":0,
			"byteLength":1200,
			"byteOffset":1293104
		},
		{
			"buffer":0,
			"byteLength":1600,
			"byteOffset":1294304
		},
		{
			"buffer":0,
			"byteLength":1200,
			"byteOffset":1295904
		},
		{
			"buffer":0,
			"byteLength":1200,
			"byteOffset":1297104
		},
		{
			"buffer":0,
			"byteLength":1600,
			"byteOffset":1298304
		},
		{
			"buffer":0,
			"byteLength":1200,
			"byteOffset":1299904
		},
		{
			"buffer":0,
			"byteLength":1200,
			"byteOffset":1301104
		},
		{
			"buffer":0,
			"byteLength":1600,
			"byteOffset":1302304
		},
		{
			"buffer":0,
			"byteLength":1200,
			"byteOffset":1303904
		},
		{
			"buffer":0,
			"byteLength":1200,
			"byteOffset":1305104
		},
		{
			"buffer":0,
			"byteLength":1600,
			"byteOffset":1306304
		},
		{
			"buffer":0,
			"byteLength":1200,
			"byteOffset":1307904
		},
		{
			"buffer":0,
			"byteLength":1200,
			"byteOffset":1309104
		},
		{
			"buffer":0,
			"byteLength":1600,
			"byteOffset":1310304
		},
		{
			"buffer":0,
			"byteLength":1200,
			"byteOffset":1311904
		},
		{
			"buffer":0,
			"byteLength":1200,
			"byteOffset":1313104
		},
		{
			"buffer":0,
			"byteLength":1600,
			"byteOffset":1314304
		},
		{
			"buffer":0,
			"byteLength":1200,
			"byteOffset":1315904
		},
		{
			"buffer":0,
			"byteLength":1200,
			"byteOffset":1317104
		},
		{
			"buffer":0,
			"byteLength":1600,
			"byteOffset":1318304
		},
		{
			"buffer":0,
			"byteLength":1200,
			"byteOffset":1319904
		},
		{
			"buffer":0,
			"byteLength":1200,
			"byteOffset":1321104
		},
		{
			"buffer":0,
			"byteLength":1600,
			"byteOffset":1322304
		},
		{
			"buffer":0,
			"byteLength":1200,
			"byteOffset":1323904
		},
		{
			"buffer":0,
			"byteLength":1200,
			"byteOffset":1325104
		},
		{
			"buffer":0,
			"byteLength":1600,
			"byteOffset":1326304
		},
		{
			"buffer":0,
			"byteLength":1200,
			"byteOffset":1327904
		},
		{
			"buffer":0,
			"byteLength":1200,
			"byteOffset":1329104
		},
		{
			"buffer":0,
			"byteLength":1600,
			"byteOffset":1330304
		},
		{
			"buffer":0,
			"byteLength":1200,
			"byteOffset":1331904
		},
		{
			"buffer":0,
			"byteLength":1200,
			"byteOffset":1333104
		},
		{
			"buffer":0,
			"byteLength":1600,
			"byteOffset":1334304
		},
		{
			"buffer":0,
			"byteLength":1200,
			"byteOffset":1335904
		},
		{
			"buffer":0,
			"byteLength":1200,
			"byteOffset":1337104
		},
		{
			"buffer":0,
			"byteLength":1600,
			"byteOffset":1338304
		},
		{
			"buffer":0,
			"byteLength":1200,
			"byteOffset":1339904
		},
		{
			"buffer":0,
			"byteLength":1200,
			"byteOffset":1341104
		},
		{
			"buffer":0,
			"byteLength":1600,
			"byteOffset":1342304
		},
		{
			"buffer":0,
			"byteLength":1200,
			"byteOffset":1343904
		},
		{
			"buffer":0,
			"byteLength":1200,
			"byteOffset":1345104
		},
		{
			"buffer":0,
			"byteLength":1600,
			"byteOffset":1346304
		},
		{
			"buffer":0,
			"byteLength":1200,
			"byteOffset":1347904
		},
		{
			"buffer":0,
			"byteLength":1200,
			"byteOffset":1349104
		},
		{
			"buffer":0,
			"byteLength":1600,
			"byteOffset":1350304
		},
		{
			"buffer":0,
			"byteLength":1200,
			"byteOffset":1351904
		},
		{
			"buffer":0,
			"byteLength":1200,
			"byteOffset":1353104
		},
		{
			"buffer":0,
			"byteLength":1600,
			"byteOffset":1354304
		},
		{
			"buffer":0,
			"byteLength":1200,
			"byteOffset":1355904
		},
		{
			"buffer":0,
			"byteLength":1200,
			"byteOffset":1357104
		},
		{
			"buffer":0,
			"byteLength":1600,
			"byteOffset":1358304
		},
		{
			"buffer":0,
			"byteLength":1200,
			"byteOffset":1359904
		},
		{
			"buffer":0,
			"byteLength":1200,
			"byteOffset":1361104
		},
		{
			"buffer":0,
			"byteLength":1600,
			"byteOffset":1362304
		},
		{
			"buffer":0,
			"byteLength":1200,
			"byteOffset":1363904
		},
		{
			"buffer":0,
			"byteLength":1200,
			"byteOffset":1365104
		},
		{
			"buffer":0,
			"byteLength":1600,
			"byteOffset":1366304
		},
		{
			"buffer":0,
			"byteLength":1200,
			"byteOffset":1367904
		},
		{
			"buffer":0,
			"byteLength":1200,
			"byteOffset":1369104
		},
		{
			"buffer":0,
			"byteLength":1600,
			"byteOffset":1370304
		},
		{
			"buffer":0,
			"byteLength":1200,
			"byteOffset":1371904
		},
		{
			"buffer":0,
			"byteLength":1200,
			"byteOffset":1373104
		},
		{
			"buffer":0,
			"byteLength":1600,
			"byteOffset":1374304
		},
		{
			"buffer":0,
			"byteLength":1200,
			"byteOffset":1375904
		},
		{
			"buffer":0,
			"byteLength":1200,
			"byteOffset":1377104
		},
		{
			"buffer":0,
			"byteLength":1600,
			"byteOffset":1378304
		},
		{
			"buffer":0,
			"byteLength":1200,
			"byteOffset":1379904
		},
		{
			"buffer":0,
			"byteLength":1200,
			"byteOffset":1381104
		},
		{
			"buffer":0,
			"byteLength":1600,
			"byteOffset":1382304
		},
		{
			"buffer":0,
			"byteLength":1200,
			"byteOffset":1383904
		},
		{
			"buffer":0,
			"byteLength":1200,
			"byteOffset":1385104
		},
		{
			"buffer":0,
			"byteLength":1600,
			"byteOffset":1386304
		},
		{
			"buffer":0,
			"byteLength":1200,
			"byteOffset":1387904
		},
		{
			"buffer":0,
			"byteLength":1200,
			"byteOffset":1389104
		},
		{
			"buffer":0,
			"byteLength":1600,
			"byteOffset":1390304
		},
		{
			"buffer":0,
			"byteLength":1200,
			"byteOffset":1391904
		},
		{
			"buffer":0,
			"byteLength":1200,
			"byteOffset":1393104
		},
		{
			"buffer":0,
			"byteLength":1600,
			"byteOffset":1394304
		},
		{
			"buffer":0,
			"byteLength":1200,
			"byteOffset":1395904
		},
		{
			"buffer":0,
			"byteLength":1200,
			"byteOffset":1397104
		},
		{
			"buffer":0,
			"byteLength":1600,
			"byteOffset":1398304
		},
		{
			"buffer":0,
			"byteLength":1200,
			"byteOffset":1399904
		}
	],
	"samplers":[
		{
			"magFilter":9729,
			"minFilter":9987
		}
	],
	"buffers":[
		{
			"byteLength":1401104,
			"uri":"fighter_npc.bin"
		}
	]
}
