{
	"asset":{
		"generator":"Khronos glTF Blender I/O v4.1.63",
		"version":"2.0"
	},
	"scene":0,
	"scenes":[
		{
			"name":"Scene",
			"nodes":[
				0
			]
		}
	],
	"nodes":[
		{
			"mesh":0,
			"name":"tabel 2_temn vert_0",
			"rotation":[
				-0.70710688829422,
				0,
				0,
				0.7071066498756409
			],
			"scale":[
				0.6363888382911682,
				0.6363890171051025,
				0.6363886594772339
			],
			"translation":[
				48.01555633544922,
				10.20819091796875,
				52.36942672729492
			]
		}
	],
	"materials":[
		{
			"doubleSided":true,
			"name":"temn_vert",
			"pbrMetallicRoughness":{
				"baseColorTexture":{
					"index":0
				},
				"metallicFactor":0,
				"roughnessFactor":0.6000000238418579
			}
		}
	],
	"meshes":[
		{
			"name":"tabel 2_temn vert_0",
			"primitives":[
				{
					"attributes":{
						"POSITION":0,
						"NORMAL":1,
						"TEXCOORD_0":2
					},
					"indices":3,
					"material":0
				}
			]
		}
	],
	"textures":[
		{
			"sampler":0,
			"source":0
		}
	],
	"images":[
		{
			"mimeType":"image/png",
			"name":"temn_vert_baseColor",
			"uri":"temn_vert_baseColor.png"
		}
	],
	"accessors":[
		{
			"bufferView":0,
			"componentType":5126,
			"count":1623,
			"max":[
				15.628013610839844,
				15.319626808166504,
				2.276707887649536
			],
			"min":[
				-15.520868301391602,
				-15.054306030273438,
				-16.02756118774414
			],
			"type":"VEC3"
		},
		{
			"bufferView":1,
			"componentType":5126,
			"count":1623,
			"type":"VEC3"
		},
		{
			"bufferView":2,
			"componentType":5126,
			"count":1623,
			"type":"VEC2"
		},
		{
			"bufferView":3,
			"componentType":5123,
			"count":5844,
			"type":"SCALAR"
		}
	],
	"bufferViews":[
		{
			"buffer":0,
			"byteLength":19476,
			"byteOffset":0,
			"target":34962
		},
		{
			"buffer":0,
			"byteLength":19476,
			"byteOffset":19476,
			"target":34962
		},
		{
			"buffer":0,
			"byteLength":12984,
			"byteOffset":38952,
			"target":34962
		},
		{
			"buffer":0,
			"byteLength":11688,
			"byteOffset":51936,
			"target":34963
		}
	],
	"samplers":[
		{
			"magFilter":9729,
			"minFilter":9987
		}
	],
	"buffers":[
		{
			"byteLength":63624,
			"uri":"tavolo_rotondo.bin"
		}
	]
}
