{
	"asset":{
		"generator":"Khronos glTF Blender I/O v4.1.63",
		"version":"2.0"
	},
	"scene":0,
	"scenes":[
		{
			"name":"Scene",
			"nodes":[
				0
			]
		}
	],
	"nodes":[
		{
			"mesh":0,
			"name":"Box739_temn goriz_0",
			"rotation":[
				-0.6953286528587341,
				-0.0013725707540288568,
				0.0013727383920922875,
				0.7186893224716187
			],
			"scale":[
				0.11521802097558975,
				0.06950058788061142,
				0.08163643628358841
			],
			"translation":[
				-95.73612213134766,
				46.430015563964844,
				42.82868194580078
			]
		}
	],
	"materials":[
		{
			"doubleSided":true,
			"name":"tavolo_lungo",
			"pbrMetallicRoughness":{
				"baseColorTexture":{
					"index":0
				},
				"metallicFactor":0,
				"roughnessFactor":0.6000000238418579
			}
		}
	],
	"meshes":[
		{
			"name":"Box739_temn goriz_0",
			"primitives":[
				{
					"attributes":{
						"POSITION":0,
						"NORMAL":1,
						"TEXCOORD_0":2
					},
					"indices":3,
					"material":0
				}
			]
		}
	],
	"textures":[
		{
			"sampler":0,
			"source":0
		}
	],
	"images":[
		{
			"mimeType":"image/png",
			"name":"temn_vert_baseColor",
			"uri":"temn_vert_baseColor.png"
		}
	],
	"accessors":[
		{
			"bufferView":0,
			"componentType":5126,
			"count":556,
			"max":[
				327.686767578125,
				139.0454559326172,
				34.3098030090332
			],
			"min":[
				-327.686767578125,
				-139.0454559326172,
				-154.731689453125
			],
			"type":"VEC3"
		},
		{
			"bufferView":1,
			"componentType":5126,
			"count":556,
			"type":"VEC3"
		},
		{
			"bufferView":2,
			"componentType":5126,
			"count":556,
			"type":"VEC2"
		},
		{
			"bufferView":3,
			"componentType":5123,
			"count":1116,
			"type":"SCALAR"
		}
	],
	"bufferViews":[
		{
			"buffer":0,
			"byteLength":6672,
			"byteOffset":0,
			"target":34962
		},
		{
			"buffer":0,
			"byteLength":6672,
			"byteOffset":6672,
			"target":34962
		},
		{
			"buffer":0,
			"byteLength":4448,
			"byteOffset":13344,
			"target":34962
		},
		{
			"buffer":0,
			"byteLength":2232,
			"byteOffset":17792,
			"target":34963
		}
	],
	"samplers":[
		{
			"magFilter":9729,
			"minFilter":9987
		}
	],
	"buffers":[
		{
			"byteLength":20024,
			"uri":"tavolo_lungo.bin"
		}
	]
}
