{
	"asset":{
		"generator":"Khronos glTF Blender I/O v4.1.63",
		"version":"2.0"
	},
	"scene":0,
	"scenes":[
		{
			"name":"Scene",
			"nodes":[
				0
			]
		}
	],
	"nodes":[
		{
			"mesh":0,
			"name":"Box123_Material #170_0.015",
			"rotation":[
				-0.7071068286895752,
				0,
				0,
				0.7071068286895752
			],
			"scale":[
				0.32292717695236206,
				0.32292723655700684,
				0.32292723655700684
			],
			"translation":[
				-55.0885009765625,
				37.369781494140625,
				70.36933135986328
			]
		}
	],
	"materials":[
		{
			"doubleSided":true,
			"name":"Material_183.001",
			"pbrMetallicRoughness":{
				"baseColorTexture":{
					"index":0
				},
				"metallicFactor":0,
				"roughnessFactor":0.6000000238418579
			}
		}
	],
	"meshes":[
		{
			"name":"Box123_Material #170_0.016",
			"primitives":[
				{
					"attributes":{
						"POSITION":0,
						"NORMAL":1,
						"TEXCOORD_0":2
					},
					"indices":3,
					"material":0
				}
			]
		}
	],
	"textures":[
		{
			"sampler":0,
			"source":0
		}
	],
	"images":[
		{
			"mimeType":"image/jpeg",
			"name":"Material_183_baseColor",
			"uri":"Material_183_baseColor.jpg"
		}
	],
	"accessors":[
		{
			"bufferView":0,
			"componentType":5126,
			"count":4600,
			"max":[
				669.5241088867188,
				445.80609130859375,
				-55.861446380615234
			],
			"min":[
				150.49972534179688,
				190.99374389648438,
				-103.5252456665039
			],
			"type":"VEC3"
		},
		{
			"bufferView":1,
			"componentType":5126,
			"count":4600,
			"type":"VEC3"
		},
		{
			"bufferView":2,
			"componentType":5126,
			"count":4600,
			"type":"VEC2"
		},
		{
			"bufferView":3,
			"componentType":5123,
			"count":11136,
			"type":"SCALAR"
		}
	],
	"bufferViews":[
		{
			"buffer":0,
			"byteLength":55200,
			"byteOffset":0,
			"target":34962
		},
		{
			"buffer":0,
			"byteLength":55200,
			"byteOffset":55200,
			"target":34962
		},
		{
			"buffer":0,
			"byteLength":36800,
			"byteOffset":110400,
			"target":34962
		},
		{
			"buffer":0,
			"byteLength":22272,
			"byteOffset":147200,
			"target":34963
		}
	],
	"samplers":[
		{
			"magFilter":9729,
			"minFilter":9987
		}
	],
	"buffers":[
		{
			"byteLength":169472,
			"uri":"tavern_183.bin"
		}
	]
}
