{
	"asset":{
		"generator":"Khronos glTF Blender I/O v4.1.63",
		"version":"2.0"
	},
	"scene":0,
	"scenes":[
		{
			"name":"Scene",
			"nodes":[
				0
			]
		}
	],
	"nodes":[
		{
			"mesh":0,
			"name":"Box123_Material #170_0.028",
			"rotation":[
				-0.7071068286895752,
				0,
				0,
				0.7071068286895752
			],
			"scale":[
				0.32292717695236206,
				0.32292723655700684,
				0.32292723655700684
			],
			"translation":[
				-55.0885009765625,
				37.369781494140625,
				70.36933135986328
			]
		}
	],
	"materials":[
		{
			"doubleSided":true,
			"name":"Material_222.001",
			"pbrMetallicRoughness":{
				"baseColorTexture":{
					"index":0
				},
				"metallicFactor":0,
				"roughnessFactor":0.6000000238418579
			}
		}
	],
	"meshes":[
		{
			"name":"Box123_Material #170_0.029",
			"primitives":[
				{
					"attributes":{
						"POSITION":0,
						"NORMAL":1,
						"TEXCOORD_0":2
					},
					"indices":3,
					"material":0
				}
			]
		}
	],
	"textures":[
		{
			"sampler":0,
			"source":0
		}
	],
	"images":[
		{
			"mimeType":"image/jpeg",
			"name":"Material_222_baseColor",
			"uri":"Material_222_baseColor.jpg"
		}
	],
	"accessors":[
		{
			"bufferView":0,
			"componentType":5126,
			"count":718,
			"max":[
				277.27099609375,
				550.3302001953125,
				-52.923988342285156
			],
			"min":[
				271.9957275390625,
				541.7743530273438,
				-61.01302719116211
			],
			"type":"VEC3"
		},
		{
			"bufferView":1,
			"componentType":5126,
			"count":718,
			"type":"VEC3"
		},
		{
			"bufferView":2,
			"componentType":5126,
			"count":718,
			"type":"VEC2"
		},
		{
			"bufferView":3,
			"componentType":5123,
			"count":1512,
			"type":"SCALAR"
		}
	],
	"bufferViews":[
		{
			"buffer":0,
			"byteLength":8616,
			"byteOffset":0,
			"target":34962
		},
		{
			"buffer":0,
			"byteLength":8616,
			"byteOffset":8616,
			"target":34962
		},
		{
			"buffer":0,
			"byteLength":5744,
			"byteOffset":17232,
			"target":34962
		},
		{
			"buffer":0,
			"byteLength":3024,
			"byteOffset":22976,
			"target":34963
		}
	],
	"samplers":[
		{
			"magFilter":9729,
			"minFilter":9987
		}
	],
	"buffers":[
		{
			"byteLength":26000,
			"uri":"tavern_222.bin"
		}
	]
}
