{
	"asset":{
		"generator":"Khronos glTF Blender I/O v4.1.63",
		"version":"2.0"
	},
	"scene":0,
	"scenes":[
		{
			"name":"Scene",
			"nodes":[
				0
			]
		}
	],
	"nodes":[
		{
			"mesh":0,
			"name":"Box123_Material #170_0.005",
			"rotation":[
				-0.7071068286895752,
				0,
				0,
				0.7071068286895752
			],
			"scale":[
				0.32292717695236206,
				0.32292723655700684,
				0.32292723655700684
			],
			"translation":[
				-55.0885009765625,
				37.369781494140625,
				70.36933135986328
			]
		}
	],
	"materials":[
		{
			"doubleSided":true,
			"name":"Material_182.001",
			"pbrMetallicRoughness":{
				"baseColorTexture":{
					"index":0
				},
				"metallicFactor":0,
				"roughnessFactor":0.6000000238418579
			}
		}
	],
	"meshes":[
		{
			"name":"Box123_Material #170_0.006",
			"primitives":[
				{
					"attributes":{
						"POSITION":0,
						"NORMAL":1,
						"TEXCOORD_0":2
					},
					"indices":3,
					"material":0
				}
			]
		}
	],
	"textures":[
		{
			"sampler":0,
			"source":0
		}
	],
	"images":[
		{
			"mimeType":"image/jpeg",
			"name":"Material_182_baseColor",
			"uri":"Material_182_baseColor.jpg"
		}
	],
	"accessors":[
		{
			"bufferView":0,
			"componentType":5126,
			"count":904,
			"max":[
				728.1206665039062,
				660.3403930664062,
				113.56140899658203
			],
			"min":[
				-269.2109069824219,
				-8.969551086425781,
				-60.41707229614258
			],
			"type":"VEC3"
		},
		{
			"bufferView":1,
			"componentType":5126,
			"count":904,
			"type":"VEC3"
		},
		{
			"bufferView":2,
			"componentType":5126,
			"count":904,
			"type":"VEC2"
		},
		{
			"bufferView":3,
			"componentType":5123,
			"count":1356,
			"type":"SCALAR"
		}
	],
	"bufferViews":[
		{
			"buffer":0,
			"byteLength":10848,
			"byteOffset":0,
			"target":34962
		},
		{
			"buffer":0,
			"byteLength":10848,
			"byteOffset":10848,
			"target":34962
		},
		{
			"buffer":0,
			"byteLength":7232,
			"byteOffset":21696,
			"target":34962
		},
		{
			"buffer":0,
			"byteLength":2712,
			"byteOffset":28928,
			"target":34963
		}
	],
	"samplers":[
		{
			"magFilter":9729,
			"minFilter":9987
		}
	],
	"buffers":[
		{
			"byteLength":31640,
			"uri":"tavern_182.bin"
		}
	]
}
