{
	"asset":{
		"generator":"Khronos glTF Blender I/O v4.1.63",
		"version":"2.0"
	},
	"scene":0,
	"scenes":[
		{
			"name":"Scene",
			"nodes":[
				0
			]
		}
	],
	"nodes":[
		{
			"mesh":0,
			"name":"Box123_Material #170_0.022",
			"rotation":[
				-0.7071068286895752,
				0,
				0,
				0.7071068286895752
			],
			"scale":[
				0.32292717695236206,
				0.32292723655700684,
				0.32292723655700684
			],
			"translation":[
				-55.0885009765625,
				37.369781494140625,
				70.36933135986328
			]
		}
	],
	"materials":[
		{
			"doubleSided":true,
			"emissiveFactor":[
				1,
				1,
				0
			],
			"name":"svet.001",
			"pbrMetallicRoughness":{
				"metallicFactor":0,
				"roughnessFactor":0.6000000238418579
			}
		}
	],
	"meshes":[
		{
			"name":"Box123_Material #170_0.023",
			"primitives":[
				{
					"attributes":{
						"POSITION":0,
						"NORMAL":1,
						"TEXCOORD_0":2
					},
					"indices":3,
					"material":0
				}
			]
		}
	],
	"accessors":[
		{
			"bufferView":0,
			"componentType":5126,
			"count":7272,
			"max":[
				495.4027404785156,
				578.1898193359375,
				96.91413116455078
			],
			"min":[
				-271.4010925292969,
				23.750398635864258,
				-73.56198120117188
			],
			"type":"VEC3"
		},
		{
			"bufferView":1,
			"componentType":5126,
			"count":7272,
			"type":"VEC3"
		},
		{
			"bufferView":2,
			"componentType":5126,
			"count":7272,
			"type":"VEC2"
		},
		{
			"bufferView":3,
			"componentType":5123,
			"count":28416,
			"type":"SCALAR"
		}
	],
	"bufferViews":[
		{
			"buffer":0,
			"byteLength":87264,
			"byteOffset":0,
			"target":34962
		},
		{
			"buffer":0,
			"byteLength":87264,
			"byteOffset":87264,
			"target":34962
		},
		{
			"buffer":0,
			"byteLength":58176,
			"byteOffset":174528,
			"target":34962
		},
		{
			"buffer":0,
			"byteLength":56832,
			"byteOffset":232704,
			"target":34963
		}
	],
	"buffers":[
		{
			"byteLength":289536,
			"uri":"tavern_svet.bin"
		}
	]
}
