{
	"asset":{
		"generator":"Khronos glTF Blender I/O v4.1.63",
		"version":"2.0"
	},
	"scene":0,
	"scenes":[
		{
			"name":"Scene",
			"nodes":[
				0
			]
		}
	],
	"nodes":[
		{
			"mesh":0,
			"name":"Box123_Material #170_0.014",
			"rotation":[
				-0.7071068286895752,
				0,
				0,
				0.7071068286895752
			],
			"scale":[
				0.32292717695236206,
				0.32292723655700684,
				0.32292723655700684
			],
			"translation":[
				-55.0885009765625,
				37.369781494140625,
				70.36933135986328
			]
		}
	],
	"materials":[
		{
			"doubleSided":true,
			"name":"Material_188.001",
			"pbrMetallicRoughness":{
				"baseColorTexture":{
					"index":0
				},
				"metallicFactor":0,
				"roughnessFactor":0.6000000238418579
			}
		}
	],
	"meshes":[
		{
			"name":"Box123_Material #170_0.015",
			"primitives":[
				{
					"attributes":{
						"POSITION":0,
						"NORMAL":1,
						"TEXCOORD_0":2
					},
					"indices":3,
					"material":0
				}
			]
		}
	],
	"textures":[
		{
			"sampler":0,
			"source":0
		}
	],
	"images":[
		{
			"mimeType":"image/jpeg",
			"name":"Material_188_baseColor",
			"uri":"Material_188_baseColor.jpg"
		}
	],
	"accessors":[
		{
			"bufferView":0,
			"componentType":5126,
			"count":54785,
			"max":[
				687.5489501953125,
				616.4785766601562,
				113.05885314941406
			],
			"min":[
				-275.82196044921875,
				4.997652053833008,
				-104.56204223632812
			],
			"type":"VEC3"
		},
		{
			"bufferView":1,
			"componentType":5126,
			"count":54785,
			"type":"VEC3"
		},
		{
			"bufferView":2,
			"componentType":5126,
			"count":54785,
			"type":"VEC2"
		},
		{
			"bufferView":3,
			"componentType":5123,
			"count":112956,
			"type":"SCALAR"
		}
	],
	"bufferViews":[
		{
			"buffer":0,
			"byteLength":657420,
			"byteOffset":0,
			"target":34962
		},
		{
			"buffer":0,
			"byteLength":657420,
			"byteOffset":657420,
			"target":34962
		},
		{
			"buffer":0,
			"byteLength":438280,
			"byteOffset":1314840,
			"target":34962
		},
		{
			"buffer":0,
			"byteLength":225912,
			"byteOffset":1753120,
			"target":34963
		}
	],
	"samplers":[
		{
			"magFilter":9729,
			"minFilter":9987
		}
	],
	"buffers":[
		{
			"byteLength":1979032,
			"uri":"tavern_188.bin"
		}
	]
}
