{
	"asset":{
		"generator":"Khronos glTF Blender I/O v4.1.63",
		"version":"2.0"
	},
	"scene":0,
	"scenes":[
		{
			"name":"Scene",
			"nodes":[
				0
			]
		}
	],
	"nodes":[
		{
			"mesh":0,
			"name":"Box123_Material #170_0.018",
			"rotation":[
				-0.7071068286895752,
				0,
				0,
				0.7071068286895752
			],
			"scale":[
				0.32292717695236206,
				0.32292723655700684,
				0.32292723655700684
			],
			"translation":[
				-55.0885009765625,
				37.369781494140625,
				70.36933135986328
			]
		}
	],
	"materials":[
		{
			"doubleSided":true,
			"name":"material.001",
			"pbrMetallicRoughness":{
				"metallicFactor":0,
				"roughnessFactor":0.6000000238418579
			}
		}
	],
	"meshes":[
		{
			"name":"Box123_Material #170_0.019",
			"primitives":[
				{
					"attributes":{
						"POSITION":0,
						"NORMAL":1,
						"TEXCOORD_0":2
					},
					"indices":3,
					"material":0
				}
			]
		}
	],
	"accessors":[
		{
			"bufferView":0,
			"componentType":5126,
			"count":2058,
			"max":[
				504.30963134765625,
				301.4833984375,
				-43.01324462890625
			],
			"min":[
				392.50323486328125,
				203.04563903808594,
				-70.81449127197266
			],
			"type":"VEC3"
		},
		{
			"bufferView":1,
			"componentType":5126,
			"count":2058,
			"type":"VEC3"
		},
		{
			"bufferView":2,
			"componentType":5126,
			"count":2058,
			"type":"VEC2"
		},
		{
			"bufferView":3,
			"componentType":5123,
			"count":8064,
			"type":"SCALAR"
		}
	],
	"bufferViews":[
		{
			"buffer":0,
			"byteLength":24696,
			"byteOffset":0,
			"target":34962
		},
		{
			"buffer":0,
			"byteLength":24696,
			"byteOffset":24696,
			"target":34962
		},
		{
			"buffer":0,
			"byteLength":16464,
			"byteOffset":49392,
			"target":34962
		},
		{
			"buffer":0,
			"byteLength":16128,
			"byteOffset":65856,
			"target":34963
		}
	],
	"buffers":[
		{
			"byteLength":81984,
			"uri":"tavern_material.bin"
		}
	]
}
