{
	"asset":{
		"generator":"Khronos glTF Blender I/O v4.1.63",
		"version":"2.0"
	},
	"scene":0,
	"scenes":[
		{
			"name":"Scene",
			"nodes":[
				0
			]
		}
	],
	"nodes":[
		{
			"mesh":0,
			"name":"Box123_Material #170_0.004",
			"rotation":[
				-0.7071068286895752,
				0,
				0,
				0.7071068286895752
			],
			"scale":[
				0.32292717695236206,
				0.32292723655700684,
				0.32292723655700684
			],
			"translation":[
				-55.0885009765625,
				37.369781494140625,
				70.36933135986328
			]
		}
	],
	"materials":[
		{
			"doubleSided":true,
			"name":"temn_goriz.001",
			"pbrMetallicRoughness":{
				"baseColorTexture":{
					"index":0
				},
				"metallicFactor":0,
				"roughnessFactor":0.6000000238418579
			}
		}
	],
	"meshes":[
		{
			"name":"Box123_Material #170_0.005",
			"primitives":[
				{
					"attributes":{
						"POSITION":0,
						"NORMAL":1,
						"TEXCOORD_0":2
					},
					"indices":3,
					"material":0
				}
			]
		}
	],
	"textures":[
		{
			"sampler":0,
			"source":0
		}
	],
	"images":[
		{
			"mimeType":"image/png",
			"name":"temn_goriz_baseColor",
			"uri":"temn_goriz_baseColor.png"
		}
	],
	"accessors":[
		{
			"bufferView":0,
			"componentType":5126,
			"count":30445,
			"max":[
				724.378173828125,
				658.552978515625,
				116.65457153320312
			],
			"min":[
				-272.7291564941406,
				-15.276519775390625,
				-105.42855834960938
			],
			"type":"VEC3"
		},
		{
			"bufferView":1,
			"componentType":5126,
			"count":30445,
			"type":"VEC3"
		},
		{
			"bufferView":2,
			"componentType":5126,
			"count":30445,
			"type":"VEC2"
		},
		{
			"bufferView":3,
			"componentType":5123,
			"count":67236,
			"type":"SCALAR"
		}
	],
	"bufferViews":[
		{
			"buffer":0,
			"byteLength":365340,
			"byteOffset":0,
			"target":34962
		},
		{
			"buffer":0,
			"byteLength":365340,
			"byteOffset":365340,
			"target":34962
		},
		{
			"buffer":0,
			"byteLength":243560,
			"byteOffset":730680,
			"target":34962
		},
		{
			"buffer":0,
			"byteLength":134472,
			"byteOffset":974240,
			"target":34963
		}
	],
	"samplers":[
		{
			"magFilter":9729,
			"minFilter":9987
		}
	],
	"buffers":[
		{
			"byteLength":1108712,
			"uri":"tavern_temn_goriz.bin"
		}
	]
}
