{
	"asset":{
		"generator":"Khronos glTF Blender I/O v5.1.19",
		"version":"2.0"
	},
	"extensionsUsed":[
		"KHR_materials_specular"
	],
	"scene":0,
	"scenes":[
		{
			"name":"Scene",
			"nodes":[
				44
			]
		}
	],
	"nodes":[
		{
			"name":"mixamorig:HeadTop_End",
			"rotation":[
				-7.275935409722933e-11,
				2.9103833232291265e-10,
				-8.469215551087927e-09,
				1
			],
			"scale":[
				0.9999999403953552,
				1.0000001192092896,
				1
			],
			"translation":[
				9.238719940185547e-07,
				35.68833923339844,
				4.511514186859131
			]
		},
		{
			"name":"mixamorig:Reye",
			"rotation":[
				3.65253072232008e-09,
				5.820766646458253e-10,
				-8.498319381544661e-09,
				1
			],
			"scale":[
				0.9999999403953552,
				1.0000001192092896,
				1
			],
			"translation":[
				-5.2439069747924805,
				17.46540069580078,
				10.796663284301758
			]
		},
		{
			"name":"mixamorig:Leye",
			"rotation":[
				3.65253072232008e-09,
				5.820766646458253e-10,
				-8.498319381544661e-09,
				1
			],
			"scale":[
				0.9999999403953552,
				1.0000001192092896,
				1
			],
			"translation":[
				5.36237907409668,
				17.46540641784668,
				10.796663284301758
			]
		},
		{
			"children":[
				0,
				1,
				2
			],
			"name":"mixamorig:Head",
			"rotation":[
				0.013529046438634396,
				0.0054262797348201275,
				-0.05006701499223709,
				0.9986394643783569
			],
			"scale":[
				1.0000001192092896,
				0.9999997019767761,
				0.9999998211860657
			],
			"translation":[
				6.854534149169922e-07,
				8.300688743591309,
				3.3391969203948975
			]
		},
		{
			"children":[
				3
			],
			"name":"mixamorig:Neck",
			"rotation":[
				0.013667220249772072,
				-0.003186821471899748,
				0.001512786722742021,
				0.9999004006385803
			],
			"scale":[
				0.9999997615814209,
				1.000000238418579,
				1.000000238418579
			],
			"translation":[
				1.1429190635681152e-05,
				26.668493270874023,
				-1.2067347764968872
			]
		},
		{
			"name":"mixamorig:LeftHandThumb4",
			"rotation":[
				0.009151250123977661,
				0.12563911080360413,
				0.07207847386598587,
				0.9894118905067444
			],
			"scale":[
				0.9999994039535522,
				1.000000238418579,
				0.9999990463256836
			],
			"translation":[
				-4.76837158203125e-06,
				4.412878036499023,
				5.245208740234375e-06
			]
		},
		{
			"children":[
				5
			],
			"name":"mixamorig:LeftHandThumb3",
			"rotation":[
				-0.009642316028475761,
				-0.07079403102397919,
				-0.0011737693566828966,
				0.997443675994873
			],
			"scale":[
				1.0000004768371582,
				1,
				1.0000003576278687
			],
			"translation":[
				-2.7060508728027344e-05,
				5.797191619873047,
				7.990002632141113e-05
			]
		},
		{
			"children":[
				6
			],
			"name":"mixamorig:LeftHandThumb2",
			"rotation":[
				-0.013248907402157784,
				-0.1756868213415146,
				-0.2129058986902237,
				0.9610565304756165
			],
			"scale":[
				1.0000003576278687,
				1.0000001192092896,
				1.0000003576278687
			],
			"translation":[
				0,
				5.049850940704346,
				2.384185791015625e-06
			]
		},
		{
			"children":[
				7
			],
			"name":"mixamorig:LeftHandThumb1",
			"rotation":[
				0.1313873827457428,
				0.10621532797813416,
				0.18808197975158691,
				0.9675127267837524
			],
			"scale":[
				0.9999996423721313,
				1,
				0.9999995827674866
			],
			"translation":[
				-7.403531551361084,
				10.426589965820312,
				3.7020113468170166
			]
		},
		{
			"name":"mixamorig:LeftHandIndex4",
			"rotation":[
				-8.335399002135091e-07,
				0.004001540597528219,
				1.6145981135196052e-05,
				0.9999920129776001
			],
			"scale":[
				1.000001311302185,
				1.0000011920928955,
				1
			],
			"translation":[
				8.821487426757812e-06,
				3.199613332748413,
				0
			]
		},
		{
			"children":[
				9
			],
			"name":"mixamorig:LeftHandIndex3",
			"rotation":[
				0.12392871081829071,
				-0.021663669496774673,
				-0.03963249549269676,
				0.991262674331665
			],
			"scale":[
				0.9999992251396179,
				0.9999991655349731,
				1
			],
			"translation":[
				-4.5299530029296875e-06,
				5.107499599456787,
				2.384185791015625e-06
			]
		},
		{
			"children":[
				10
			],
			"name":"mixamorig:LeftHandIndex2",
			"rotation":[
				0.16259291768074036,
				-0.02198697440326214,
				-0.01818503625690937,
				0.986280620098114
			],
			"scale":[
				0.9999998807907104,
				0.9999993443489075,
				1.0000003576278687
			],
			"translation":[
				-7.3909759521484375e-06,
				5.146167755126953,
				1.0728836059570312e-06
			]
		},
		{
			"children":[
				11
			],
			"name":"mixamorig:LeftHandIndex1",
			"rotation":[
				0.06965989619493484,
				0.018141090869903564,
				-0.0333956703543663,
				0.996846616268158
			],
			"scale":[
				1.0000001192092896,
				1.0000007152557373,
				0.9999995231628418
			],
			"translation":[
				-0.00010418891906738281,
				22.74844741821289,
				-0.15900787711143494
			]
		},
		{
			"children":[
				8,
				12
			],
			"name":"mixamorig:LeftHand",
			"rotation":[
				-0.026536893099546432,
				-0.27505409717559814,
				0.01746763102710247,
				0.9609037041664124
			],
			"scale":[
				0.9999994039535522,
				1,
				0.9999994039535522
			],
			"translation":[
				0.00017690658569335938,
				31.83473777770996,
				0
			]
		},
		{
			"children":[
				13
			],
			"name":"mixamorig:LeftForeArm",
			"rotation":[
				-0.0025897007435560226,
				0.017868299037218094,
				0.1776757836341858,
				0.9839234352111816
			],
			"scale":[
				1.0000005960464478,
				1,
				1.0000007152557373
			],
			"translation":[
				4.470348358154297e-07,
				32.327613830566406,
				5.8338046073913574e-05
			]
		},
		{
			"children":[
				14
			],
			"name":"mixamorig:LeftArm",
			"rotation":[
				0.3849223256111145,
				0.1914425492286682,
				0.12453906238079071,
				0.8942452669143677
			],
			"scale":[
				0.9999992847442627,
				0.9999995827674866,
				0.9999995827674866
			],
			"translation":[
				9.834766387939453e-07,
				11.9404935836792,
				-1.650303602218628e-05
			]
		},
		{
			"children":[
				15
			],
			"name":"mixamorig:LeftShoulder",
			"rotation":[
				0.6048755049705505,
				0.3696329593658447,
				-0.6055654287338257,
				0.3616454303264618
			],
			"scale":[
				1.0000004768371582,
				1.0000001192092896,
				1.000000238418579
			],
			"translation":[
				14.211894989013672,
				23.22740364074707,
				-1.268557071685791
			]
		},
		{
			"name":"mixamorig:RightHandThumb4",
			"rotation":[
				0.009239163249731064,
				-0.12713007628917694,
				-0.0723283514380455,
				0.9892023205757141
			],
			"scale":[
				0.999999463558197,
				0.9999993443489075,
				0.9999998211860657
			],
			"translation":[
				6.4849853515625e-05,
				4.412903308868408,
				-2.2172927856445312e-05
			]
		},
		{
			"children":[
				17
			],
			"name":"mixamorig:RightHandThumb3",
			"rotation":[
				-0.009639992378652096,
				0.07078977674245834,
				0.0011850951705127954,
				0.9974439740180969
			],
			"scale":[
				1,
				0.9999999403953552,
				0.9999998807907104
			],
			"translation":[
				-1.1205673217773438e-05,
				6.146453857421875,
				3.2186508178710938e-06
			]
		},
		{
			"children":[
				18
			],
			"name":"mixamorig:RightHandThumb2",
			"rotation":[
				-0.013194217346608639,
				0.17568200826644897,
				0.212905615568161,
				0.9610582590103149
			],
			"translation":[
				1.7881393432617188e-06,
				5.770448684692383,
				1.5497207641601562e-06
			]
		},
		{
			"children":[
				19
			],
			"name":"mixamorig:RightHandThumb1",
			"rotation":[
				0.131543830037117,
				-0.1062409058213234,
				-0.18811334669589996,
				0.9674825668334961
			],
			"translation":[
				4.773038864135742,
				10.394022941589355,
				3.7880961894989014
			]
		},
		{
			"name":"mixamorig:RightHandIndex4",
			"rotation":[
				-7.508381531806663e-05,
				-0.006709220819175243,
				0.0013778617139905691,
				0.9999765157699585
			],
			"scale":[
				1.0000001192092896,
				0.9999998807907104,
				1.0000003576278687
			],
			"translation":[
				-2.4199485778808594e-05,
				5.405395030975342,
				-1.3560056686401367e-06
			]
		},
		{
			"children":[
				21
			],
			"name":"mixamorig:RightHandIndex3",
			"rotation":[
				0.12394248694181442,
				0.02167699486017227,
				0.03961174562573433,
				0.9912614822387695
			],
			"scale":[
				1,
				0.9999998211860657,
				1
			],
			"translation":[
				2.014636993408203e-05,
				5.0318779945373535,
				-1.6316771507263184e-05
			]
		},
		{
			"children":[
				22
			],
			"name":"mixamorig:RightHandIndex2",
			"rotation":[
				0.16257739067077637,
				0.021988041698932648,
				0.01818854734301567,
				0.9862830638885498
			],
			"scale":[
				0.9999998807907104,
				0.9999997615814209,
				0.9999998807907104
			],
			"translation":[
				3.5762786865234375e-07,
				5.741800308227539,
				-1.043081283569336e-07
			]
		},
		{
			"children":[
				23
			],
			"name":"mixamorig:RightHandIndex1",
			"rotation":[
				0.06985469907522202,
				-0.018157079815864563,
				0.03339415043592453,
				0.9968327283859253
			],
			"scale":[
				1.0000001192092896,
				1.000000238418579,
				1.0000001192092896
			],
			"translation":[
				0.00010216236114501953,
				21.103010177612305,
				-0.14588843286037445
			]
		},
		{
			"children":[
				20,
				24
			],
			"name":"mixamorig:RightHand",
			"rotation":[
				0.054596710950136185,
				0.07269375026226044,
				0.08547545969486237,
				0.9921838641166687
			],
			"scale":[
				0.9999997019767761,
				0.999999463558197,
				1
			],
			"translation":[
				-7.468461990356445e-05,
				32.16887664794922,
				1.7508864402770996e-06
			]
		},
		{
			"children":[
				25
			],
			"name":"mixamorig:RightForeArm",
			"rotation":[
				0.0007934572640806437,
				0.002298676408827305,
				-0.16496337950229645,
				0.9862967133522034
			],
			"scale":[
				1.0000005960464478,
				1.0000004768371582,
				0.9999995827674866
			],
			"translation":[
				2.384185791015625e-06,
				32.327571868896484,
				-1.71661376953125e-05
			]
		},
		{
			"children":[
				26
			],
			"name":"mixamorig:RightArm",
			"rotation":[
				0.40314117074012756,
				-0.008656179532408714,
				0.050368279218673706,
				0.9137096405029297
			],
			"scale":[
				0.9999989867210388,
				1,
				1.0000003576278687
			],
			"translation":[
				-6.556510925292969e-07,
				11.940540313720703,
				-3.0238181352615356e-05
			]
		},
		{
			"children":[
				27
			],
			"name":"mixamorig:RightShoulder",
			"rotation":[
				0.6048729419708252,
				-0.36963731050491333,
				0.6055631041526794,
				0.3616492748260498
			],
			"scale":[
				1.0000007152557373,
				0.9999993443489075,
				1.0000001192092896
			],
			"translation":[
				-14.211869239807129,
				23.227401733398438,
				-1.268557071685791
			]
		},
		{
			"children":[
				4,
				16,
				28
			],
			"name":"mixamorig:Spine2",
			"rotation":[
				-0.010192717425525188,
				0.002838047919794917,
				0.022241022437810898,
				0.999696671962738
			],
			"scale":[
				1.0000001192092896,
				0.9999990463256836,
				0.9999992251396179
			],
			"translation":[
				2.1606683731079102e-07,
				10.089550971984863,
				3.725290298461914e-09
			]
		},
		{
			"children":[
				29
			],
			"name":"mixamorig:Spine1",
			"rotation":[
				0.020387763157486916,
				-0.001126285525970161,
				0.023028986528515816,
				0.9995262622833252
			],
			"scale":[
				0.9999999403953552,
				1.000001311302185,
				1.000001311302185
			],
			"translation":[
				2.682209014892578e-07,
				10.372538566589355,
				-4.5634806156158447e-07
			]
		},
		{
			"children":[
				30
			],
			"name":"mixamorig:Spine",
			"rotation":[
				-0.0075942459516227245,
				-0.012145920656621456,
				0.005528016481548548,
				0.9998821020126343
			],
			"scale":[
				1,
				0.9999991059303284,
				0.9999991655349731
			],
			"translation":[
				-1.709413481876254e-07,
				14.658834457397461,
				-8.372589945793152e-07
			]
		},
		{
			"name":"mixamorig:LeftToe_End",
			"rotation":[
				2.2118902265333418e-08,
				-1.3038510715546181e-08,
				-1.426087123945763e-07,
				1
			],
			"scale":[
				1.0000003576278687,
				0.9999996423721313,
				1.0000004768371582
			],
			"translation":[
				1.3150274753570557e-06,
				13.38298511505127,
				-2.1606683731079102e-07
			]
		},
		{
			"children":[
				32
			],
			"name":"mixamorig:LeftToeBase",
			"rotation":[
				0.37650036811828613,
				0.08579640835523605,
				0.03434525802731514,
				0.9217954874038696
			],
			"scale":[
				0.9999999403953552,
				1.0000005960464478,
				0.9999997019767761
			],
			"translation":[
				-5.2265822887420654e-06,
				23.784873962402344,
				-7.554888725280762e-06
			]
		},
		{
			"children":[
				33
			],
			"name":"mixamorig:LeftFoot",
			"rotation":[
				0.46925869584083557,
				-0.03649008274078369,
				-0.021250929683446884,
				0.8820505738258362
			],
			"scale":[
				0.9999990463256836,
				1.0000005960464478,
				0.9999994039535522
			],
			"translation":[
				-2.384185791015625e-06,
				40.5774040222168,
				4.649162292480469e-06
			]
		},
		{
			"children":[
				34
			],
			"name":"mixamorig:LeftLeg",
			"rotation":[
				-0.30777180194854736,
				-0.09167668223381042,
				0.024614445865154266,
				0.9467132687568665
			],
			"scale":[
				0.9999997615814209,
				0.9999999403953552,
				0.9999962449073792
			],
			"translation":[
				4.0531158447265625e-06,
				35.904056549072266,
				6.198883056640625e-06
			]
		},
		{
			"children":[
				35
			],
			"name":"mixamorig:LeftUpLeg",
			"rotation":[
				-0.11935307830572128,
				-0.20555910468101501,
				-0.9661961793899536,
				0.09982586652040482
			],
			"scale":[
				1.000000238418579,
				0.9999996423721313,
				1.0000041723251343
			],
			"translation":[
				13.02590560913086,
				-7.1097822189331055,
				1.068627119064331
			]
		},
		{
			"name":"mixamorig:RightToe_End",
			"rotation":[
				6.752091330497478e-09,
				3.3294774937076e-08,
				1.0471556777247315e-07,
				1
			],
			"scale":[
				1.0000001192092896,
				0.999999463558197,
				1.000000238418579
			],
			"translation":[
				-1.7508864402770996e-07,
				13.38289737701416,
				3.725290298461914e-07
			]
		},
		{
			"children":[
				37
			],
			"name":"mixamorig:RightToeBase",
			"rotation":[
				0.3787086606025696,
				-0.08948201686143875,
				-0.02691723220050335,
				0.9207867383956909
			],
			"scale":[
				0.9999994039535522,
				1.0000008344650269,
				1.000000238418579
			],
			"translation":[
				2.983957529067993e-06,
				23.78483009338379,
				-1.055002212524414e-05
			]
		},
		{
			"children":[
				38
			],
			"name":"mixamorig:RightFoot",
			"rotation":[
				0.535659670829773,
				-0.010596922598779202,
				-0.06576315313577652,
				0.8418026566505432
			],
			"scale":[
				1.0000004768371582,
				0.9999998807907104,
				0.9999987483024597
			],
			"translation":[
				-3.7550926208496094e-06,
				40.57737731933594,
				1.239776611328125e-05
			]
		},
		{
			"children":[
				39
			],
			"name":"mixamorig:RightLeg",
			"rotation":[
				-0.26046186685562134,
				0.022272169589996338,
				0.02865654230117798,
				0.9648017287254333
			],
			"scale":[
				0.9999997615814209,
				0.9999985694885254,
				0.9999919533729553
			],
			"translation":[
				5.46872615814209e-06,
				35.90406036376953,
				-1.817941665649414e-05
			]
		},
		{
			"children":[
				40
			],
			"name":"mixamorig:RightUpLeg",
			"rotation":[
				0.03898146376013756,
				-0.09978144615888596,
				-0.994006872177124,
				0.02178255096077919
			],
			"scale":[
				0.9999999403953552,
				0.9999992847442627,
				1.00001060962677
			],
			"translation":[
				-13.025906562805176,
				-7.109787940979004,
				1.0686272382736206
			]
		},
		{
			"children":[
				31,
				36,
				41
			],
			"name":"mixamorig:Hips",
			"rotation":[
				-0.6981924176216125,
				-0.01638544537127018,
				-0.01592198759317398,
				0.7155454754829407
			],
			"scale":[
				1,
				1.000000238418579,
				1.000000238418579
			],
			"translation":[
				0.19408944249153137,
				-2.4439942836761475,
				-97.0590591430664
			]
		},
		{
			"mesh":0,
			"name":"Guard02",
			"skin":0
		},
		{
			"children":[
				43,
				42
			],
			"name":"Armature"
		}
	],
	"animations":[
		{
			"channels":[
				{
					"sampler":0,
					"target":{
						"node":42,
						"path":"translation"
					}
				},
				{
					"sampler":1,
					"target":{
						"node":42,
						"path":"rotation"
					}
				},
				{
					"sampler":2,
					"target":{
						"node":42,
						"path":"scale"
					}
				},
				{
					"sampler":3,
					"target":{
						"node":31,
						"path":"translation"
					}
				},
				{
					"sampler":4,
					"target":{
						"node":31,
						"path":"rotation"
					}
				},
				{
					"sampler":5,
					"target":{
						"node":31,
						"path":"scale"
					}
				},
				{
					"sampler":6,
					"target":{
						"node":30,
						"path":"translation"
					}
				},
				{
					"sampler":7,
					"target":{
						"node":30,
						"path":"rotation"
					}
				},
				{
					"sampler":8,
					"target":{
						"node":30,
						"path":"scale"
					}
				},
				{
					"sampler":9,
					"target":{
						"node":29,
						"path":"translation"
					}
				},
				{
					"sampler":10,
					"target":{
						"node":29,
						"path":"rotation"
					}
				},
				{
					"sampler":11,
					"target":{
						"node":29,
						"path":"scale"
					}
				},
				{
					"sampler":12,
					"target":{
						"node":4,
						"path":"translation"
					}
				},
				{
					"sampler":13,
					"target":{
						"node":4,
						"path":"rotation"
					}
				},
				{
					"sampler":14,
					"target":{
						"node":4,
						"path":"scale"
					}
				},
				{
					"sampler":15,
					"target":{
						"node":3,
						"path":"translation"
					}
				},
				{
					"sampler":16,
					"target":{
						"node":3,
						"path":"rotation"
					}
				},
				{
					"sampler":17,
					"target":{
						"node":3,
						"path":"scale"
					}
				},
				{
					"sampler":18,
					"target":{
						"node":16,
						"path":"translation"
					}
				},
				{
					"sampler":19,
					"target":{
						"node":16,
						"path":"rotation"
					}
				},
				{
					"sampler":20,
					"target":{
						"node":16,
						"path":"scale"
					}
				},
				{
					"sampler":21,
					"target":{
						"node":15,
						"path":"translation"
					}
				},
				{
					"sampler":22,
					"target":{
						"node":15,
						"path":"rotation"
					}
				},
				{
					"sampler":23,
					"target":{
						"node":15,
						"path":"scale"
					}
				},
				{
					"sampler":24,
					"target":{
						"node":14,
						"path":"translation"
					}
				},
				{
					"sampler":25,
					"target":{
						"node":14,
						"path":"rotation"
					}
				},
				{
					"sampler":26,
					"target":{
						"node":14,
						"path":"scale"
					}
				},
				{
					"sampler":27,
					"target":{
						"node":13,
						"path":"translation"
					}
				},
				{
					"sampler":28,
					"target":{
						"node":13,
						"path":"rotation"
					}
				},
				{
					"sampler":29,
					"target":{
						"node":13,
						"path":"scale"
					}
				},
				{
					"sampler":30,
					"target":{
						"node":8,
						"path":"translation"
					}
				},
				{
					"sampler":31,
					"target":{
						"node":8,
						"path":"rotation"
					}
				},
				{
					"sampler":32,
					"target":{
						"node":8,
						"path":"scale"
					}
				},
				{
					"sampler":33,
					"target":{
						"node":7,
						"path":"translation"
					}
				},
				{
					"sampler":34,
					"target":{
						"node":7,
						"path":"rotation"
					}
				},
				{
					"sampler":35,
					"target":{
						"node":7,
						"path":"scale"
					}
				},
				{
					"sampler":36,
					"target":{
						"node":6,
						"path":"translation"
					}
				},
				{
					"sampler":37,
					"target":{
						"node":6,
						"path":"rotation"
					}
				},
				{
					"sampler":38,
					"target":{
						"node":6,
						"path":"scale"
					}
				},
				{
					"sampler":39,
					"target":{
						"node":12,
						"path":"translation"
					}
				},
				{
					"sampler":40,
					"target":{
						"node":12,
						"path":"rotation"
					}
				},
				{
					"sampler":41,
					"target":{
						"node":12,
						"path":"scale"
					}
				},
				{
					"sampler":42,
					"target":{
						"node":11,
						"path":"translation"
					}
				},
				{
					"sampler":43,
					"target":{
						"node":11,
						"path":"rotation"
					}
				},
				{
					"sampler":44,
					"target":{
						"node":11,
						"path":"scale"
					}
				},
				{
					"sampler":45,
					"target":{
						"node":10,
						"path":"translation"
					}
				},
				{
					"sampler":46,
					"target":{
						"node":10,
						"path":"rotation"
					}
				},
				{
					"sampler":47,
					"target":{
						"node":10,
						"path":"scale"
					}
				},
				{
					"sampler":48,
					"target":{
						"node":28,
						"path":"translation"
					}
				},
				{
					"sampler":49,
					"target":{
						"node":28,
						"path":"rotation"
					}
				},
				{
					"sampler":50,
					"target":{
						"node":28,
						"path":"scale"
					}
				},
				{
					"sampler":51,
					"target":{
						"node":27,
						"path":"translation"
					}
				},
				{
					"sampler":52,
					"target":{
						"node":27,
						"path":"rotation"
					}
				},
				{
					"sampler":53,
					"target":{
						"node":27,
						"path":"scale"
					}
				},
				{
					"sampler":54,
					"target":{
						"node":26,
						"path":"translation"
					}
				},
				{
					"sampler":55,
					"target":{
						"node":26,
						"path":"rotation"
					}
				},
				{
					"sampler":56,
					"target":{
						"node":26,
						"path":"scale"
					}
				},
				{
					"sampler":57,
					"target":{
						"node":25,
						"path":"translation"
					}
				},
				{
					"sampler":58,
					"target":{
						"node":25,
						"path":"rotation"
					}
				},
				{
					"sampler":59,
					"target":{
						"node":25,
						"path":"scale"
					}
				},
				{
					"sampler":60,
					"target":{
						"node":20,
						"path":"translation"
					}
				},
				{
					"sampler":61,
					"target":{
						"node":20,
						"path":"rotation"
					}
				},
				{
					"sampler":62,
					"target":{
						"node":20,
						"path":"scale"
					}
				},
				{
					"sampler":63,
					"target":{
						"node":19,
						"path":"translation"
					}
				},
				{
					"sampler":64,
					"target":{
						"node":19,
						"path":"rotation"
					}
				},
				{
					"sampler":65,
					"target":{
						"node":19,
						"path":"scale"
					}
				},
				{
					"sampler":66,
					"target":{
						"node":18,
						"path":"translation"
					}
				},
				{
					"sampler":67,
					"target":{
						"node":18,
						"path":"rotation"
					}
				},
				{
					"sampler":68,
					"target":{
						"node":18,
						"path":"scale"
					}
				},
				{
					"sampler":69,
					"target":{
						"node":24,
						"path":"translation"
					}
				},
				{
					"sampler":70,
					"target":{
						"node":24,
						"path":"rotation"
					}
				},
				{
					"sampler":71,
					"target":{
						"node":24,
						"path":"scale"
					}
				},
				{
					"sampler":72,
					"target":{
						"node":23,
						"path":"translation"
					}
				},
				{
					"sampler":73,
					"target":{
						"node":23,
						"path":"rotation"
					}
				},
				{
					"sampler":74,
					"target":{
						"node":23,
						"path":"scale"
					}
				},
				{
					"sampler":75,
					"target":{
						"node":22,
						"path":"translation"
					}
				},
				{
					"sampler":76,
					"target":{
						"node":22,
						"path":"rotation"
					}
				},
				{
					"sampler":77,
					"target":{
						"node":22,
						"path":"scale"
					}
				},
				{
					"sampler":78,
					"target":{
						"node":36,
						"path":"translation"
					}
				},
				{
					"sampler":79,
					"target":{
						"node":36,
						"path":"rotation"
					}
				},
				{
					"sampler":80,
					"target":{
						"node":36,
						"path":"scale"
					}
				},
				{
					"sampler":81,
					"target":{
						"node":35,
						"path":"translation"
					}
				},
				{
					"sampler":82,
					"target":{
						"node":35,
						"path":"rotation"
					}
				},
				{
					"sampler":83,
					"target":{
						"node":35,
						"path":"scale"
					}
				},
				{
					"sampler":84,
					"target":{
						"node":34,
						"path":"translation"
					}
				},
				{
					"sampler":85,
					"target":{
						"node":34,
						"path":"rotation"
					}
				},
				{
					"sampler":86,
					"target":{
						"node":34,
						"path":"scale"
					}
				},
				{
					"sampler":87,
					"target":{
						"node":33,
						"path":"translation"
					}
				},
				{
					"sampler":88,
					"target":{
						"node":33,
						"path":"rotation"
					}
				},
				{
					"sampler":89,
					"target":{
						"node":33,
						"path":"scale"
					}
				},
				{
					"sampler":90,
					"target":{
						"node":41,
						"path":"translation"
					}
				},
				{
					"sampler":91,
					"target":{
						"node":41,
						"path":"rotation"
					}
				},
				{
					"sampler":92,
					"target":{
						"node":41,
						"path":"scale"
					}
				},
				{
					"sampler":93,
					"target":{
						"node":40,
						"path":"translation"
					}
				},
				{
					"sampler":94,
					"target":{
						"node":40,
						"path":"rotation"
					}
				},
				{
					"sampler":95,
					"target":{
						"node":40,
						"path":"scale"
					}
				},
				{
					"sampler":96,
					"target":{
						"node":39,
						"path":"translation"
					}
				},
				{
					"sampler":97,
					"target":{
						"node":39,
						"path":"rotation"
					}
				},
				{
					"sampler":98,
					"target":{
						"node":39,
						"path":"scale"
					}
				},
				{
					"sampler":99,
					"target":{
						"node":38,
						"path":"translation"
					}
				},
				{
					"sampler":100,
					"target":{
						"node":38,
						"path":"rotation"
					}
				},
				{
					"sampler":101,
					"target":{
						"node":38,
						"path":"scale"
					}
				}
			],
			"name":"mixamo.com",
			"samplers":[
				{
					"input":7,
					"interpolation":"LINEAR",
					"output":8
				},
				{
					"input":7,
					"interpolation":"LINEAR",
					"output":9
				},
				{
					"input":7,
					"interpolation":"LINEAR",
					"output":10
				},
				{
					"input":7,
					"interpolation":"LINEAR",
					"output":11
				},
				{
					"input":7,
					"interpolation":"LINEAR",
					"output":12
				},
				{
					"input":7,
					"interpolation":"LINEAR",
					"output":13
				},
				{
					"input":7,
					"interpolation":"LINEAR",
					"output":14
				},
				{
					"input":7,
					"interpolation":"LINEAR",
					"output":15
				},
				{
					"input":7,
					"interpolation":"LINEAR",
					"output":16
				},
				{
					"input":7,
					"interpolation":"LINEAR",
					"output":17
				},
				{
					"input":7,
					"interpolation":"LINEAR",
					"output":18
				},
				{
					"input":7,
					"interpolation":"LINEAR",
					"output":19
				},
				{
					"input":7,
					"interpolation":"LINEAR",
					"output":20
				},
				{
					"input":7,
					"interpolation":"LINEAR",
					"output":21
				},
				{
					"input":7,
					"interpolation":"LINEAR",
					"output":22
				},
				{
					"input":7,
					"interpolation":"LINEAR",
					"output":23
				},
				{
					"input":7,
					"interpolation":"LINEAR",
					"output":24
				},
				{
					"input":7,
					"interpolation":"LINEAR",
					"output":25
				},
				{
					"input":7,
					"interpolation":"LINEAR",
					"output":26
				},
				{
					"input":7,
					"interpolation":"LINEAR",
					"output":27
				},
				{
					"input":7,
					"interpolation":"LINEAR",
					"output":28
				},
				{
					"input":7,
					"interpolation":"LINEAR",
					"output":29
				},
				{
					"input":7,
					"interpolation":"LINEAR",
					"output":30
				},
				{
					"input":7,
					"interpolation":"LINEAR",
					"output":31
				},
				{
					"input":7,
					"interpolation":"LINEAR",
					"output":32
				},
				{
					"input":7,
					"interpolation":"LINEAR",
					"output":33
				},
				{
					"input":7,
					"interpolation":"LINEAR",
					"output":34
				},
				{
					"input":7,
					"interpolation":"LINEAR",
					"output":35
				},
				{
					"input":7,
					"interpolation":"LINEAR",
					"output":36
				},
				{
					"input":7,
					"interpolation":"LINEAR",
					"output":37
				},
				{
					"input":7,
					"interpolation":"LINEAR",
					"output":38
				},
				{
					"input":7,
					"interpolation":"LINEAR",
					"output":39
				},
				{
					"input":7,
					"interpolation":"LINEAR",
					"output":40
				},
				{
					"input":7,
					"interpolation":"LINEAR",
					"output":41
				},
				{
					"input":7,
					"interpolation":"LINEAR",
					"output":42
				},
				{
					"input":7,
					"interpolation":"LINEAR",
					"output":43
				},
				{
					"input":7,
					"interpolation":"LINEAR",
					"output":44
				},
				{
					"input":7,
					"interpolation":"LINEAR",
					"output":45
				},
				{
					"input":7,
					"interpolation":"LINEAR",
					"output":46
				},
				{
					"input":7,
					"interpolation":"LINEAR",
					"output":47
				},
				{
					"input":7,
					"interpolation":"LINEAR",
					"output":48
				},
				{
					"input":7,
					"interpolation":"LINEAR",
					"output":49
				},
				{
					"input":7,
					"interpolation":"LINEAR",
					"output":50
				},
				{
					"input":7,
					"interpolation":"LINEAR",
					"output":51
				},
				{
					"input":7,
					"interpolation":"LINEAR",
					"output":52
				},
				{
					"input":7,
					"interpolation":"LINEAR",
					"output":53
				},
				{
					"input":7,
					"interpolation":"LINEAR",
					"output":54
				},
				{
					"input":7,
					"interpolation":"LINEAR",
					"output":55
				},
				{
					"input":7,
					"interpolation":"LINEAR",
					"output":56
				},
				{
					"input":7,
					"interpolation":"LINEAR",
					"output":57
				},
				{
					"input":7,
					"interpolation":"LINEAR",
					"output":58
				},
				{
					"input":7,
					"interpolation":"LINEAR",
					"output":59
				},
				{
					"input":7,
					"interpolation":"LINEAR",
					"output":60
				},
				{
					"input":7,
					"interpolation":"LINEAR",
					"output":61
				},
				{
					"input":7,
					"interpolation":"LINEAR",
					"output":62
				},
				{
					"input":7,
					"interpolation":"LINEAR",
					"output":63
				},
				{
					"input":7,
					"interpolation":"LINEAR",
					"output":64
				},
				{
					"input":7,
					"interpolation":"LINEAR",
					"output":65
				},
				{
					"input":7,
					"interpolation":"LINEAR",
					"output":66
				},
				{
					"input":7,
					"interpolation":"LINEAR",
					"output":67
				},
				{
					"input":7,
					"interpolation":"LINEAR",
					"output":68
				},
				{
					"input":7,
					"interpolation":"LINEAR",
					"output":69
				},
				{
					"input":7,
					"interpolation":"LINEAR",
					"output":70
				},
				{
					"input":7,
					"interpolation":"LINEAR",
					"output":71
				},
				{
					"input":7,
					"interpolation":"LINEAR",
					"output":72
				},
				{
					"input":7,
					"interpolation":"LINEAR",
					"output":73
				},
				{
					"input":7,
					"interpolation":"LINEAR",
					"output":74
				},
				{
					"input":7,
					"interpolation":"LINEAR",
					"output":75
				},
				{
					"input":7,
					"interpolation":"LINEAR",
					"output":76
				},
				{
					"input":7,
					"interpolation":"LINEAR",
					"output":77
				},
				{
					"input":7,
					"interpolation":"LINEAR",
					"output":78
				},
				{
					"input":7,
					"interpolation":"LINEAR",
					"output":79
				},
				{
					"input":7,
					"interpolation":"LINEAR",
					"output":80
				},
				{
					"input":7,
					"interpolation":"LINEAR",
					"output":81
				},
				{
					"input":7,
					"interpolation":"LINEAR",
					"output":82
				},
				{
					"input":7,
					"interpolation":"LINEAR",
					"output":83
				},
				{
					"input":7,
					"interpolation":"LINEAR",
					"output":84
				},
				{
					"input":7,
					"interpolation":"LINEAR",
					"output":85
				},
				{
					"input":7,
					"interpolation":"LINEAR",
					"output":86
				},
				{
					"input":7,
					"interpolation":"LINEAR",
					"output":87
				},
				{
					"input":7,
					"interpolation":"LINEAR",
					"output":88
				},
				{
					"input":7,
					"interpolation":"LINEAR",
					"output":89
				},
				{
					"input":7,
					"interpolation":"LINEAR",
					"output":90
				},
				{
					"input":7,
					"interpolation":"LINEAR",
					"output":91
				},
				{
					"input":7,
					"interpolation":"LINEAR",
					"output":92
				},
				{
					"input":7,
					"interpolation":"LINEAR",
					"output":93
				},
				{
					"input":7,
					"interpolation":"LINEAR",
					"output":94
				},
				{
					"input":7,
					"interpolation":"LINEAR",
					"output":95
				},
				{
					"input":7,
					"interpolation":"LINEAR",
					"output":96
				},
				{
					"input":7,
					"interpolation":"LINEAR",
					"output":97
				},
				{
					"input":7,
					"interpolation":"LINEAR",
					"output":98
				},
				{
					"input":7,
					"interpolation":"LINEAR",
					"output":99
				},
				{
					"input":7,
					"interpolation":"LINEAR",
					"output":100
				},
				{
					"input":7,
					"interpolation":"LINEAR",
					"output":101
				},
				{
					"input":7,
					"interpolation":"LINEAR",
					"output":102
				},
				{
					"input":7,
					"interpolation":"LINEAR",
					"output":103
				},
				{
					"input":7,
					"interpolation":"LINEAR",
					"output":104
				},
				{
					"input":7,
					"interpolation":"LINEAR",
					"output":105
				},
				{
					"input":7,
					"interpolation":"LINEAR",
					"output":106
				},
				{
					"input":7,
					"interpolation":"LINEAR",
					"output":107
				},
				{
					"input":7,
					"interpolation":"LINEAR",
					"output":108
				},
				{
					"input":7,
					"interpolation":"LINEAR",
					"output":109
				}
			]
		}
	],
	"materials":[
		{
			"doubleSided":true,
			"extensions":{
				"KHR_materials_specular":{
					"specularColorFactor":[
						2.0,
						2.0,
						2.0
					],
					"specularColorTexture":{
						"index":0
					}
				}
			},
			"name":"Guard_02",
			"normalTexture":{
				"index":1
			},
			"pbrMetallicRoughness":{
				"baseColorTexture":{
					"index":2
				},
				"metallicFactor":0,
				"roughnessFactor":0.7487671971321106
			}
		}
	],
	"meshes":[
		{
			"name":"Guard02",
			"primitives":[
				{
					"attributes":{
						"POSITION":0,
						"NORMAL":1,
						"TEXCOORD_0":2,
						"JOINTS_0":3,
						"WEIGHTS_0":4
					},
					"indices":5,
					"material":0
				}
			]
		}
	],
	"textures":[
		{
			"sampler":0,
			"source":0
		},
		{
			"sampler":0,
			"source":1
		},
		{
			"sampler":0,
			"source":2
		}
	],
	"images":[
		{
			"mimeType":"image/png",
			"name":"Guard_02__specular",
			"uri":"Guard_02__specular.png"
		},
		{
			"mimeType":"image/png",
			"name":"Guard_02__normal",
			"uri":"Guard_02__normal.png"
		},
		{
			"mimeType":"image/png",
			"name":"Guard_02__diffuse",
			"uri":"Guard_02__diffuse.png"
		}
	],
	"skins":[
		{
			"inverseBindMatrices":6,
			"joints":[
				42,
				31,
				30,
				29,
				4,
				3,
				0,
				1,
				2,
				16,
				15,
				14,
				13,
				8,
				7,
				6,
				5,
				12,
				11,
				10,
				9,
				28,
				27,
				26,
				25,
				20,
				19,
				18,
				17,
				24,
				23,
				22,
				21,
				36,
				35,
				34,
				33,
				32,
				41,
				40,
				39,
				38,
				37
			],
			"name":"Armature"
		}
	],
	"accessors":[
		{
			"bufferView":0,
			"componentType":5126,
			"count":2794,
			"max":[
				126.36907958984375,
				29.574352264404297,
				1.901563048362732
			],
			"min":[
				-127.29266357421875,
				-24.792890548706055,
				-209.70021057128906
			],
			"type":"VEC3"
		},
		{
			"bufferView":1,
			"componentType":5126,
			"count":2794,
			"type":"VEC3"
		},
		{
			"bufferView":2,
			"componentType":5126,
			"count":2794,
			"type":"VEC2"
		},
		{
			"bufferView":3,
			"componentType":5121,
			"count":2794,
			"type":"VEC4"
		},
		{
			"bufferView":4,
			"componentType":5126,
			"count":2794,
			"type":"VEC4"
		},
		{
			"bufferView":5,
			"componentType":5123,
			"count":13593,
			"type":"SCALAR"
		},
		{
			"bufferView":6,
			"componentType":5126,
			"count":43,
			"type":"MAT4"
		},
		{
			"bufferView":7,
			"componentType":5126,
			"count":154,
			"max":[
				5.1
			],
			"min":[
				0
			],
			"type":"SCALAR"
		},
		{
			"bufferView":8,
			"componentType":5126,
			"count":154,
			"type":"VEC3"
		},
		{
			"bufferView":9,
			"componentType":5126,
			"count":154,
			"type":"VEC4"
		},
		{
			"bufferView":10,
			"componentType":5126,
			"count":154,
			"type":"VEC3"
		},
		{
			"bufferView":11,
			"componentType":5126,
			"count":154,
			"type":"VEC3"
		},
		{
			"bufferView":12,
			"componentType":5126,
			"count":154,
			"type":"VEC4"
		},
		{
			"bufferView":13,
			"componentType":5126,
			"count":154,
			"type":"VEC3"
		},
		{
			"bufferView":14,
			"componentType":5126,
			"count":154,
			"type":"VEC3"
		},
		{
			"bufferView":15,
			"componentType":5126,
			"count":154,
			"type":"VEC4"
		},
		{
			"bufferView":16,
			"componentType":5126,
			"count":154,
			"type":"VEC3"
		},
		{
			"bufferView":17,
			"componentType":5126,
			"count":154,
			"type":"VEC3"
		},
		{
			"bufferView":18,
			"componentType":5126,
			"count":154,
			"type":"VEC4"
		},
		{
			"bufferView":19,
			"componentType":5126,
			"count":154,
			"type":"VEC3"
		},
		{
			"bufferView":20,
			"componentType":5126,
			"count":154,
			"type":"VEC3"
		},
		{
			"bufferView":21,
			"componentType":5126,
			"count":154,
			"type":"VEC4"
		},
		{
			"bufferView":22,
			"componentType":5126,
			"count":154,
			"type":"VEC3"
		},
		{
			"bufferView":23,
			"componentType":5126,
			"count":154,
			"type":"VEC3"
		},
		{
			"bufferView":24,
			"componentType":5126,
			"count":154,
			"type":"VEC4"
		},
		{
			"bufferView":25,
			"componentType":5126,
			"count":154,
			"type":"VEC3"
		},
		{
			"bufferView":26,
			"componentType":5126,
			"count":154,
			"type":"VEC3"
		},
		{
			"bufferView":27,
			"componentType":5126,
			"count":154,
			"type":"VEC4"
		},
		{
			"bufferView":28,
			"componentType":5126,
			"count":154,
			"type":"VEC3"
		},
		{
			"bufferView":29,
			"componentType":5126,
			"count":154,
			"type":"VEC3"
		},
		{
			"bufferView":30,
			"componentType":5126,
			"count":154,
			"type":"VEC4"
		},
		{
			"bufferView":31,
			"componentType":5126,
			"count":154,
			"type":"VEC3"
		},
		{
			"bufferView":32,
			"componentType":5126,
			"count":154,
			"type":"VEC3"
		},
		{
			"bufferView":33,
			"componentType":5126,
			"count":154,
			"type":"VEC4"
		},
		{
			"bufferView":34,
			"componentType":5126,
			"count":154,
			"type":"VEC3"
		},
		{
			"bufferView":35,
			"componentType":5126,
			"count":154,
			"type":"VEC3"
		},
		{
			"bufferView":36,
			"componentType":5126,
			"count":154,
			"type":"VEC4"
		},
		{
			"bufferView":37,
			"componentType":5126,
			"count":154,
			"type":"VEC3"
		},
		{
			"bufferView":38,
			"componentType":5126,
			"count":154,
			"type":"VEC3"
		},
		{
			"bufferView":39,
			"componentType":5126,
			"count":154,
			"type":"VEC4"
		},
		{
			"bufferView":40,
			"componentType":5126,
			"count":154,
			"type":"VEC3"
		},
		{
			"bufferView":41,
			"componentType":5126,
			"count":154,
			"type":"VEC3"
		},
		{
			"bufferView":42,
			"componentType":5126,
			"count":154,
			"type":"VEC4"
		},
		{
			"bufferView":43,
			"componentType":5126,
			"count":154,
			"type":"VEC3"
		},
		{
			"bufferView":44,
			"componentType":5126,
			"count":154,
			"type":"VEC3"
		},
		{
			"bufferView":45,
			"componentType":5126,
			"count":154,
			"type":"VEC4"
		},
		{
			"bufferView":46,
			"componentType":5126,
			"count":154,
			"type":"VEC3"
		},
		{
			"bufferView":47,
			"componentType":5126,
			"count":154,
			"type":"VEC3"
		},
		{
			"bufferView":48,
			"componentType":5126,
			"count":154,
			"type":"VEC4"
		},
		{
			"bufferView":49,
			"componentType":5126,
			"count":154,
			"type":"VEC3"
		},
		{
			"bufferView":50,
			"componentType":5126,
			"count":154,
			"type":"VEC3"
		},
		{
			"bufferView":51,
			"componentType":5126,
			"count":154,
			"type":"VEC4"
		},
		{
			"bufferView":52,
			"componentType":5126,
			"count":154,
			"type":"VEC3"
		},
		{
			"bufferView":53,
			"componentType":5126,
			"count":154,
			"type":"VEC3"
		},
		{
			"bufferView":54,
			"componentType":5126,
			"count":154,
			"type":"VEC4"
		},
		{
			"bufferView":55,
			"componentType":5126,
			"count":154,
			"type":"VEC3"
		},
		{
			"bufferView":56,
			"componentType":5126,
			"count":154,
			"type":"VEC3"
		},
		{
			"bufferView":57,
			"componentType":5126,
			"count":154,
			"type":"VEC4"
		},
		{
			"bufferView":58,
			"componentType":5126,
			"count":154,
			"type":"VEC3"
		},
		{
			"bufferView":59,
			"componentType":5126,
			"count":154,
			"type":"VEC3"
		},
		{
			"bufferView":60,
			"componentType":5126,
			"count":154,
			"type":"VEC4"
		},
		{
			"bufferView":61,
			"componentType":5126,
			"count":154,
			"type":"VEC3"
		},
		{
			"bufferView":62,
			"componentType":5126,
			"count":154,
			"type":"VEC3"
		},
		{
			"bufferView":63,
			"componentType":5126,
			"count":154,
			"type":"VEC4"
		},
		{
			"bufferView":64,
			"componentType":5126,
			"count":154,
			"type":"VEC3"
		},
		{
			"bufferView":65,
			"componentType":5126,
			"count":154,
			"type":"VEC3"
		},
		{
			"bufferView":66,
			"componentType":5126,
			"count":154,
			"type":"VEC4"
		},
		{
			"bufferView":67,
			"componentType":5126,
			"count":154,
			"type":"VEC3"
		},
		{
			"bufferView":68,
			"componentType":5126,
			"count":154,
			"type":"VEC3"
		},
		{
			"bufferView":69,
			"componentType":5126,
			"count":154,
			"type":"VEC4"
		},
		{
			"bufferView":70,
			"componentType":5126,
			"count":154,
			"type":"VEC3"
		},
		{
			"bufferView":71,
			"componentType":5126,
			"count":154,
			"type":"VEC3"
		},
		{
			"bufferView":72,
			"componentType":5126,
			"count":154,
			"type":"VEC4"
		},
		{
			"bufferView":73,
			"componentType":5126,
			"count":154,
			"type":"VEC3"
		},
		{
			"bufferView":74,
			"componentType":5126,
			"count":154,
			"type":"VEC3"
		},
		{
			"bufferView":75,
			"componentType":5126,
			"count":154,
			"type":"VEC4"
		},
		{
			"bufferView":76,
			"componentType":5126,
			"count":154,
			"type":"VEC3"
		},
		{
			"bufferView":77,
			"componentType":5126,
			"count":154,
			"type":"VEC3"
		},
		{
			"bufferView":78,
			"componentType":5126,
			"count":154,
			"type":"VEC4"
		},
		{
			"bufferView":79,
			"componentType":5126,
			"count":154,
			"type":"VEC3"
		},
		{
			"bufferView":80,
			"componentType":5126,
			"count":154,
			"type":"VEC3"
		},
		{
			"bufferView":81,
			"componentType":5126,
			"count":154,
			"type":"VEC4"
		},
		{
			"bufferView":82,
			"componentType":5126,
			"count":154,
			"type":"VEC3"
		},
		{
			"bufferView":83,
			"componentType":5126,
			"count":154,
			"type":"VEC3"
		},
		{
			"bufferView":84,
			"componentType":5126,
			"count":154,
			"type":"VEC4"
		},
		{
			"bufferView":85,
			"componentType":5126,
			"count":154,
			"type":"VEC3"
		},
		{
			"bufferView":86,
			"componentType":5126,
			"count":154,
			"type":"VEC3"
		},
		{
			"bufferView":87,
			"componentType":5126,
			"count":154,
			"type":"VEC4"
		},
		{
			"bufferView":88,
			"componentType":5126,
			"count":154,
			"type":"VEC3"
		},
		{
			"bufferView":89,
			"componentType":5126,
			"count":154,
			"type":"VEC3"
		},
		{
			"bufferView":90,
			"componentType":5126,
			"count":154,
			"type":"VEC4"
		},
		{
			"bufferView":91,
			"componentType":5126,
			"count":154,
			"type":"VEC3"
		},
		{
			"bufferView":92,
			"componentType":5126,
			"count":154,
			"type":"VEC3"
		},
		{
			"bufferView":93,
			"componentType":5126,
			"count":154,
			"type":"VEC4"
		},
		{
			"bufferView":94,
			"componentType":5126,
			"count":154,
			"type":"VEC3"
		},
		{
			"bufferView":95,
			"componentType":5126,
			"count":154,
			"type":"VEC3"
		},
		{
			"bufferView":96,
			"componentType":5126,
			"count":154,
			"type":"VEC4"
		},
		{
			"bufferView":97,
			"componentType":5126,
			"count":154,
			"type":"VEC3"
		},
		{
			"bufferView":98,
			"componentType":5126,
			"count":154,
			"type":"VEC3"
		},
		{
			"bufferView":99,
			"componentType":5126,
			"count":154,
			"type":"VEC4"
		},
		{
			"bufferView":100,
			"componentType":5126,
			"count":154,
			"type":"VEC3"
		},
		{
			"bufferView":101,
			"componentType":5126,
			"count":154,
			"type":"VEC3"
		},
		{
			"bufferView":102,
			"componentType":5126,
			"count":154,
			"type":"VEC4"
		},
		{
			"bufferView":103,
			"componentType":5126,
			"count":154,
			"type":"VEC3"
		},
		{
			"bufferView":104,
			"componentType":5126,
			"count":154,
			"type":"VEC3"
		},
		{
			"bufferView":105,
			"componentType":5126,
			"count":154,
			"type":"VEC4"
		},
		{
			"bufferView":106,
			"componentType":5126,
			"count":154,
			"type":"VEC3"
		},
		{
			"bufferView":107,
			"componentType":5126,
			"count":154,
			"type":"VEC3"
		},
		{
			"bufferView":108,
			"componentType":5126,
			"count":154,
			"type":"VEC4"
		},
		{
			"bufferView":109,
			"componentType":5126,
			"count":154,
			"type":"VEC3"
		}
	],
	"bufferViews":[
		{
			"buffer":0,
			"byteLength":33528,
			"byteOffset":0,
			"target":34962
		},
		{
			"buffer":0,
			"byteLength":33528,
			"byteOffset":33528,
			"target":34962
		},
		{
			"buffer":0,
			"byteLength":22352,
			"byteOffset":67056,
			"target":34962
		},
		{
			"buffer":0,
			"byteLength":11176,
			"byteOffset":89408,
			"target":34962
		},
		{
			"buffer":0,
			"byteLength":44704,
			"byteOffset":100584,
			"target":34962
		},
		{
			"buffer":0,
			"byteLength":27186,
			"byteOffset":145288,
			"target":34963
		},
		{
			"buffer":0,
			"byteLength":2752,
			"byteOffset":172476
		},
		{
			"buffer":0,
			"byteLength":616,
			"byteOffset":175228
		},
		{
			"buffer":0,
			"byteLength":1848,
			"byteOffset":175844
		},
		{
			"buffer":0,
			"byteLength":2464,
			"byteOffset":177692
		},
		{
			"buffer":0,
			"byteLength":1848,
			"byteOffset":180156
		},
		{
			"buffer":0,
			"byteLength":1848,
			"byteOffset":182004
		},
		{
			"buffer":0,
			"byteLength":2464,
			"byteOffset":183852
		},
		{
			"buffer":0,
			"byteLength":1848,
			"byteOffset":186316
		},
		{
			"buffer":0,
			"byteLength":1848,
			"byteOffset":188164
		},
		{
			"buffer":0,
			"byteLength":2464,
			"byteOffset":190012
		},
		{
			"buffer":0,
			"byteLength":1848,
			"byteOffset":192476
		},
		{
			"buffer":0,
			"byteLength":1848,
			"byteOffset":194324
		},
		{
			"buffer":0,
			"byteLength":2464,
			"byteOffset":196172
		},
		{
			"buffer":0,
			"byteLength":1848,
			"byteOffset":198636
		},
		{
			"buffer":0,
			"byteLength":1848,
			"byteOffset":200484
		},
		{
			"buffer":0,
			"byteLength":2464,
			"byteOffset":202332
		},
		{
			"buffer":0,
			"byteLength":1848,
			"byteOffset":204796
		},
		{
			"buffer":0,
			"byteLength":1848,
			"byteOffset":206644
		},
		{
			"buffer":0,
			"byteLength":2464,
			"byteOffset":208492
		},
		{
			"buffer":0,
			"byteLength":1848,
			"byteOffset":210956
		},
		{
			"buffer":0,
			"byteLength":1848,
			"byteOffset":212804
		},
		{
			"buffer":0,
			"byteLength":2464,
			"byteOffset":214652
		},
		{
			"buffer":0,
			"byteLength":1848,
			"byteOffset":217116
		},
		{
			"buffer":0,
			"byteLength":1848,
			"byteOffset":218964
		},
		{
			"buffer":0,
			"byteLength":2464,
			"byteOffset":220812
		},
		{
			"buffer":0,
			"byteLength":1848,
			"byteOffset":223276
		},
		{
			"buffer":0,
			"byteLength":1848,
			"byteOffset":225124
		},
		{
			"buffer":0,
			"byteLength":2464,
			"byteOffset":226972
		},
		{
			"buffer":0,
			"byteLength":1848,
			"byteOffset":229436
		},
		{
			"buffer":0,
			"byteLength":1848,
			"byteOffset":231284
		},
		{
			"buffer":0,
			"byteLength":2464,
			"byteOffset":233132
		},
		{
			"buffer":0,
			"byteLength":1848,
			"byteOffset":235596
		},
		{
			"buffer":0,
			"byteLength":1848,
			"byteOffset":237444
		},
		{
			"buffer":0,
			"byteLength":2464,
			"byteOffset":239292
		},
		{
			"buffer":0,
			"byteLength":1848,
			"byteOffset":241756
		},
		{
			"buffer":0,
			"byteLength":1848,
			"byteOffset":243604
		},
		{
			"buffer":0,
			"byteLength":2464,
			"byteOffset":245452
		},
		{
			"buffer":0,
			"byteLength":1848,
			"byteOffset":247916
		},
		{
			"buffer":0,
			"byteLength":1848,
			"byteOffset":249764
		},
		{
			"buffer":0,
			"byteLength":2464,
			"byteOffset":251612
		},
		{
			"buffer":0,
			"byteLength":1848,
			"byteOffset":254076
		},
		{
			"buffer":0,
			"byteLength":1848,
			"byteOffset":255924
		},
		{
			"buffer":0,
			"byteLength":2464,
			"byteOffset":257772
		},
		{
			"buffer":0,
			"byteLength":1848,
			"byteOffset":260236
		},
		{
			"buffer":0,
			"byteLength":1848,
			"byteOffset":262084
		},
		{
			"buffer":0,
			"byteLength":2464,
			"byteOffset":263932
		},
		{
			"buffer":0,
			"byteLength":1848,
			"byteOffset":266396
		},
		{
			"buffer":0,
			"byteLength":1848,
			"byteOffset":268244
		},
		{
			"buffer":0,
			"byteLength":2464,
			"byteOffset":270092
		},
		{
			"buffer":0,
			"byteLength":1848,
			"byteOffset":272556
		},
		{
			"buffer":0,
			"byteLength":1848,
			"byteOffset":274404
		},
		{
			"buffer":0,
			"byteLength":2464,
			"byteOffset":276252
		},
		{
			"buffer":0,
			"byteLength":1848,
			"byteOffset":278716
		},
		{
			"buffer":0,
			"byteLength":1848,
			"byteOffset":280564
		},
		{
			"buffer":0,
			"byteLength":2464,
			"byteOffset":282412
		},
		{
			"buffer":0,
			"byteLength":1848,
			"byteOffset":284876
		},
		{
			"buffer":0,
			"byteLength":1848,
			"byteOffset":286724
		},
		{
			"buffer":0,
			"byteLength":2464,
			"byteOffset":288572
		},
		{
			"buffer":0,
			"byteLength":1848,
			"byteOffset":291036
		},
		{
			"buffer":0,
			"byteLength":1848,
			"byteOffset":292884
		},
		{
			"buffer":0,
			"byteLength":2464,
			"byteOffset":294732
		},
		{
			"buffer":0,
			"byteLength":1848,
			"byteOffset":297196
		},
		{
			"buffer":0,
			"byteLength":1848,
			"byteOffset":299044
		},
		{
			"buffer":0,
			"byteLength":2464,
			"byteOffset":300892
		},
		{
			"buffer":0,
			"byteLength":1848,
			"byteOffset":303356
		},
		{
			"buffer":0,
			"byteLength":1848,
			"byteOffset":305204
		},
		{
			"buffer":0,
			"byteLength":2464,
			"byteOffset":307052
		},
		{
			"buffer":0,
			"byteLength":1848,
			"byteOffset":309516
		},
		{
			"buffer":0,
			"byteLength":1848,
			"byteOffset":311364
		},
		{
			"buffer":0,
			"byteLength":2464,
			"byteOffset":313212
		},
		{
			"buffer":0,
			"byteLength":1848,
			"byteOffset":315676
		},
		{
			"buffer":0,
			"byteLength":1848,
			"byteOffset":317524
		},
		{
			"buffer":0,
			"byteLength":2464,
			"byteOffset":319372
		},
		{
			"buffer":0,
			"byteLength":1848,
			"byteOffset":321836
		},
		{
			"buffer":0,
			"byteLength":1848,
			"byteOffset":323684
		},
		{
			"buffer":0,
			"byteLength":2464,
			"byteOffset":325532
		},
		{
			"buffer":0,
			"byteLength":1848,
			"byteOffset":327996
		},
		{
			"buffer":0,
			"byteLength":1848,
			"byteOffset":329844
		},
		{
			"buffer":0,
			"byteLength":2464,
			"byteOffset":331692
		},
		{
			"buffer":0,
			"byteLength":1848,
			"byteOffset":334156
		},
		{
			"buffer":0,
			"byteLength":1848,
			"byteOffset":336004
		},
		{
			"buffer":0,
			"byteLength":2464,
			"byteOffset":337852
		},
		{
			"buffer":0,
			"byteLength":1848,
			"byteOffset":340316
		},
		{
			"buffer":0,
			"byteLength":1848,
			"byteOffset":342164
		},
		{
			"buffer":0,
			"byteLength":2464,
			"byteOffset":344012
		},
		{
			"buffer":0,
			"byteLength":1848,
			"byteOffset":346476
		},
		{
			"buffer":0,
			"byteLength":1848,
			"byteOffset":348324
		},
		{
			"buffer":0,
			"byteLength":2464,
			"byteOffset":350172
		},
		{
			"buffer":0,
			"byteLength":1848,
			"byteOffset":352636
		},
		{
			"buffer":0,
			"byteLength":1848,
			"byteOffset":354484
		},
		{
			"buffer":0,
			"byteLength":2464,
			"byteOffset":356332
		},
		{
			"buffer":0,
			"byteLength":1848,
			"byteOffset":358796
		},
		{
			"buffer":0,
			"byteLength":1848,
			"byteOffset":360644
		},
		{
			"buffer":0,
			"byteLength":2464,
			"byteOffset":362492
		},
		{
			"buffer":0,
			"byteLength":1848,
			"byteOffset":364956
		},
		{
			"buffer":0,
			"byteLength":1848,
			"byteOffset":366804
		},
		{
			"buffer":0,
			"byteLength":2464,
			"byteOffset":368652
		},
		{
			"buffer":0,
			"byteLength":1848,
			"byteOffset":371116
		},
		{
			"buffer":0,
			"byteLength":1848,
			"byteOffset":372964
		},
		{
			"buffer":0,
			"byteLength":2464,
			"byteOffset":374812
		},
		{
			"buffer":0,
			"byteLength":1848,
			"byteOffset":377276
		},
		{
			"buffer":0,
			"byteLength":1848,
			"byteOffset":379124
		},
		{
			"buffer":0,
			"byteLength":2464,
			"byteOffset":380972
		},
		{
			"buffer":0,
			"byteLength":1848,
			"byteOffset":383436
		}
	],
	"samplers":[
		{
			"magFilter":9729,
			"minFilter":9987
		}
	],
	"buffers":[
		{
			"byteLength":385284,
			"uri":"guard_npc.bin"
		}
	]
}
